G04*
G04 #@! TF.GenerationSoftware,Altium Limited,Altium Designer,20.1.12 (249)*
G04*
G04 Layer_Color=16711935*
%FSLAX25Y25*%
%MOIN*%
G70*
G04*
G04 #@! TF.SameCoordinates,9558268F-E582-4542-BACD-EEF3D3045912*
G04*
G04*
G04 #@! TF.FilePolarity,Positive*
G04*
G01*
G75*
%ADD12C,0.00787*%
%ADD51C,0.00394*%
D12*
X614319Y390665D02*
X616681D01*
X614319Y386335D02*
Y390665D01*
Y386335D02*
X616681D01*
Y390665D01*
X658990Y251051D02*
X671195D01*
Y244949D02*
Y251051D01*
X658990Y244949D02*
X671195D01*
X658990D02*
Y251051D01*
X669563Y303961D02*
X677437D01*
Y299039D02*
Y303961D01*
X669563Y299039D02*
X677437D01*
X669563D02*
Y303961D01*
X633307Y259457D02*
X646693D01*
X633307D02*
Y266543D01*
X646693D01*
Y259457D02*
Y266543D01*
D51*
X699316Y433732D02*
X699027Y434428D01*
X698331Y434717D01*
Y399284D02*
X699027Y399572D01*
X699316Y400268D01*
X676438Y278331D02*
X676175Y279315D01*
X675454Y280035D01*
X674470Y280299D01*
X673486Y280035D01*
X672765Y279315D01*
X672501Y278331D01*
X672765Y277346D01*
X673486Y276626D01*
X674470Y276362D01*
X675454Y276626D01*
X676175Y277346D01*
X676438Y278331D01*
X676110Y334831D02*
X675846Y335815D01*
X675126Y336536D01*
X674142Y336799D01*
X673158Y336536D01*
X672437Y335815D01*
X672173Y334831D01*
X672437Y333846D01*
X673158Y333126D01*
X674142Y332862D01*
X675126Y333126D01*
X675846Y333846D01*
X676110Y334831D01*
X642228Y434717D02*
X698331D01*
X642228Y399284D02*
Y434717D01*
X699315Y400268D02*
Y433732D01*
X642228Y399284D02*
X698331D01*
X656000Y385000D02*
X696000D01*
X655999Y364999D02*
X695999D01*
X655999D02*
X656000Y385000D01*
X695999Y364999D02*
X695999Y385000D01*
X658328Y281874D02*
X678013D01*
X658328Y266126D02*
X678013D01*
Y281874D01*
X658328Y266126D02*
Y281874D01*
X638315Y338374D02*
X677685D01*
X638315Y322626D02*
X677685D01*
Y338374D01*
X638315Y322626D02*
Y338374D01*
X658394Y226457D02*
X671779D01*
X658394Y233543D02*
X671779D01*
Y226457D02*
Y233543D01*
X658394Y226457D02*
Y233543D01*
X318201Y231149D02*
X330799D01*
Y224850D02*
Y231149D01*
X318201Y224850D02*
Y231149D01*
Y224850D02*
X330799D01*
X320858Y281419D02*
X333653D01*
X320858Y287915D02*
X333653D01*
Y281419D02*
Y287915D01*
X320858Y281419D02*
Y287915D01*
Y456252D02*
Y462748D01*
X333653Y456252D02*
Y462748D01*
X320858D02*
X333653D01*
X320858Y456252D02*
X333653D01*
X349700Y231149D02*
X362299D01*
Y224850D02*
Y231149D01*
X349700Y224850D02*
Y231149D01*
Y224850D02*
X362299D01*
X352358Y281419D02*
X365153D01*
X352358Y287915D02*
X365153D01*
Y281419D02*
Y287915D01*
X352358Y281419D02*
Y287915D01*
Y456252D02*
Y462748D01*
X365153Y456252D02*
Y462748D01*
X352358D02*
X365153D01*
X352358Y456252D02*
X365153D01*
X381000Y231149D02*
X393599D01*
Y224850D02*
Y231149D01*
X381000Y224850D02*
Y231149D01*
Y224850D02*
X393599D01*
X381000Y335649D02*
X393599D01*
Y329350D02*
Y335649D01*
X381000Y329350D02*
Y335649D01*
Y329350D02*
X393599D01*
X383658Y456252D02*
Y462748D01*
X396453Y456252D02*
Y462748D01*
X383658D02*
X396453D01*
X383658Y456252D02*
X396453D01*
X383658Y281419D02*
X396453D01*
X383658Y287915D02*
X396453D01*
Y281419D02*
Y287915D01*
X383658Y281419D02*
Y287915D01*
X412300Y231149D02*
X424899D01*
Y224850D02*
Y231149D01*
X412300Y224850D02*
Y231149D01*
Y224850D02*
X424899D01*
X412300Y335649D02*
X424899D01*
Y329350D02*
Y335649D01*
X412300Y329350D02*
Y335649D01*
Y329350D02*
X424899D01*
X414958Y456252D02*
Y462748D01*
X427753Y456252D02*
Y462748D01*
X414958D02*
X427753D01*
X414958Y456252D02*
X427753D01*
X414958Y281419D02*
Y287915D01*
X427753Y281419D02*
Y287915D01*
X414958D02*
X427753D01*
X414958Y281419D02*
X427753D01*
X443601Y231149D02*
X456199D01*
Y224850D02*
Y231149D01*
X443601Y224850D02*
Y231149D01*
Y224850D02*
X456199D01*
X443601Y335649D02*
X456199D01*
Y329350D02*
Y335649D01*
X443601Y329350D02*
Y335649D01*
Y329350D02*
X456199D01*
X446258Y456252D02*
Y462748D01*
X459053Y456252D02*
Y462748D01*
X446258D02*
X459053D01*
X446258Y456252D02*
X459053D01*
X446258Y281419D02*
Y287915D01*
X459053Y281419D02*
Y287915D01*
X446258D02*
X459053D01*
X446258Y281419D02*
X459053D01*
X474900Y231149D02*
X487499D01*
Y224850D02*
Y231149D01*
X474900Y224850D02*
Y231149D01*
Y224850D02*
X487499D01*
X477558Y281419D02*
X490353D01*
X477558Y287915D02*
X490353D01*
Y281419D02*
Y287915D01*
X477558Y281419D02*
Y287915D01*
X474900Y335649D02*
X487499D01*
Y329350D02*
Y335649D01*
X474900Y329350D02*
Y335649D01*
Y329350D02*
X487499D01*
X477558Y456252D02*
Y462748D01*
X490353Y456252D02*
Y462748D01*
X477558D02*
X490353D01*
X477558Y456252D02*
X490353D01*
X506201Y231149D02*
X518799D01*
Y224850D02*
Y231149D01*
X506201Y224850D02*
Y231149D01*
Y224850D02*
X518799D01*
X508858Y281419D02*
Y287915D01*
X521653Y281419D02*
Y287915D01*
X508858D02*
X521653D01*
X508858Y281419D02*
X521653D01*
X504244Y334906D02*
X509756D01*
X504244Y323095D02*
X509756D01*
X504244D02*
Y334906D01*
X509756Y323095D02*
Y334906D01*
X508858Y456252D02*
Y462748D01*
X521654Y456252D02*
Y462748D01*
X508858D02*
X521654D01*
X508858Y456252D02*
X521654D01*
X538201Y224850D02*
X550799D01*
X538201D02*
Y231149D01*
X550799Y224850D02*
Y231149D01*
X538201D02*
X550799D01*
X540858Y281419D02*
Y287915D01*
X553653Y281419D02*
Y287915D01*
X540858D02*
X553653D01*
X540858Y281419D02*
X553653D01*
X540858Y456252D02*
Y462748D01*
X553653Y456252D02*
Y462748D01*
X540858D02*
X553653D01*
X540858Y456252D02*
X553653D01*
X297996Y225457D02*
Y232543D01*
X285004Y225457D02*
Y232543D01*
Y225457D02*
X297996D01*
X285004Y232543D02*
X297996D01*
X298496Y325957D02*
Y333043D01*
X285504Y325957D02*
Y333043D01*
Y325957D02*
X298496D01*
X285504Y333043D02*
X298496D01*
Y397457D02*
Y404543D01*
X285504Y397457D02*
Y404543D01*
Y397457D02*
X298496D01*
X285504Y404543D02*
X298496D01*
X287244Y201594D02*
X292756D01*
X287244Y213405D02*
X292756D01*
Y201594D02*
Y213405D01*
X287244Y201594D02*
Y213405D01*
Y302028D02*
X292756D01*
X287244Y313839D02*
X292756D01*
Y302028D02*
Y313839D01*
X287244Y302028D02*
Y313839D01*
Y373095D02*
X292756D01*
X287244Y384906D02*
X292756D01*
Y373095D02*
Y384906D01*
X287244Y373095D02*
Y384906D01*
X318201Y300816D02*
X330799D01*
Y294517D02*
Y300816D01*
X318201Y294517D02*
Y300816D01*
Y294517D02*
X330799D01*
X318201Y370483D02*
X330799D01*
Y364183D02*
Y370483D01*
X318201Y364183D02*
Y370483D01*
Y364183D02*
X330799D01*
X318201Y405316D02*
X330799D01*
Y399017D02*
Y405316D01*
X318201Y399017D02*
Y405316D01*
Y399017D02*
X330799D01*
X318201Y440149D02*
X330799D01*
Y433850D02*
Y440149D01*
X318201Y433850D02*
Y440149D01*
Y433850D02*
X330799D01*
X318201Y468350D02*
X330799D01*
X318201D02*
Y474649D01*
X330799Y468350D02*
Y474649D01*
X318201D02*
X330799D01*
X320858Y180252D02*
X333653D01*
X320858Y186748D02*
X333653D01*
Y180252D02*
Y186748D01*
X320858Y180252D02*
Y186748D01*
Y211252D02*
X333653D01*
X320858Y217748D02*
X333653D01*
Y211252D02*
Y217748D01*
X320858Y211252D02*
Y217748D01*
Y246335D02*
X333653D01*
X320858Y252831D02*
X333653D01*
Y246335D02*
Y252831D01*
X320858Y246335D02*
Y252831D01*
Y421752D02*
X333653D01*
X320858Y428248D02*
X333653D01*
Y421752D02*
Y428248D01*
X320858Y421752D02*
Y428248D01*
X349700Y300816D02*
X362299D01*
Y294517D02*
Y300816D01*
X349700Y294517D02*
Y300816D01*
Y294517D02*
X362299D01*
X349700Y370483D02*
X362299D01*
Y364183D02*
Y370483D01*
X349700Y364183D02*
Y370483D01*
Y364183D02*
X362299D01*
X349700Y405316D02*
X362299D01*
Y399017D02*
Y405316D01*
X349700Y399017D02*
Y405316D01*
Y399017D02*
X362299D01*
X349700Y433850D02*
X362299D01*
X349700D02*
Y440149D01*
X362299Y433850D02*
Y440149D01*
X349700D02*
X362299D01*
X349700Y468350D02*
X362299D01*
X349700D02*
Y474649D01*
X362299Y468350D02*
Y474649D01*
X349700D02*
X362299D01*
X352358Y180252D02*
X365153D01*
X352358Y186748D02*
X365153D01*
Y180252D02*
Y186748D01*
X352358Y180252D02*
Y186748D01*
Y211252D02*
Y217748D01*
X365153Y211252D02*
Y217748D01*
X352358D02*
X365153D01*
X352358Y211252D02*
X365153D01*
X352358Y246335D02*
Y252831D01*
X365153Y246335D02*
Y252831D01*
X352358D02*
X365153D01*
X352358Y246335D02*
X365153D01*
X351858Y421752D02*
Y428248D01*
X364653Y421752D02*
Y428248D01*
X351858D02*
X364653D01*
X351858Y421752D02*
X364653D01*
X383658Y180252D02*
X396453D01*
X383658Y186748D02*
X396453D01*
Y180252D02*
Y186748D01*
X383658Y180252D02*
Y186748D01*
Y211252D02*
Y217748D01*
X396453Y211252D02*
Y217748D01*
X383658D02*
X396453D01*
X383658Y211252D02*
X396453D01*
X383658Y246335D02*
Y252831D01*
X396453Y246335D02*
Y252831D01*
X383658D02*
X396453D01*
X383658Y246335D02*
X396453D01*
X381000Y300816D02*
X393599D01*
Y294517D02*
Y300816D01*
X381000Y294517D02*
Y300816D01*
Y294517D02*
X393599D01*
X383658Y316502D02*
X396453D01*
X383658Y322998D02*
X396453D01*
Y316502D02*
Y322998D01*
X383658Y316502D02*
Y322998D01*
X381000Y370483D02*
X393599D01*
Y364183D02*
Y370483D01*
X381000Y364183D02*
Y370483D01*
Y364183D02*
X393599D01*
X381000Y405316D02*
X393599D01*
Y399017D02*
Y405316D01*
X381000Y399017D02*
Y405316D01*
Y399017D02*
X393599D01*
X383158Y421752D02*
Y428248D01*
X395953Y421752D02*
Y428248D01*
X383158D02*
X395953D01*
X383158Y421752D02*
X395953D01*
X381000Y433850D02*
X393599D01*
X381000D02*
Y440149D01*
X393599Y433850D02*
Y440149D01*
X381000D02*
X393599D01*
X381000Y468350D02*
X393599D01*
X381000D02*
Y474649D01*
X393599Y468350D02*
Y474649D01*
X381000D02*
X393599D01*
X414958Y180252D02*
X427753D01*
X414958Y186748D02*
X427753D01*
Y180252D02*
Y186748D01*
X414958Y180252D02*
Y186748D01*
Y211252D02*
Y217748D01*
X427753Y211252D02*
Y217748D01*
X414958D02*
X427753D01*
X414958Y211252D02*
X427753D01*
X414958Y246335D02*
Y252831D01*
X427753Y246335D02*
Y252831D01*
X414958D02*
X427753D01*
X414958Y246335D02*
X427753D01*
X412300Y300816D02*
X424899D01*
Y294517D02*
Y300816D01*
X412300Y294517D02*
Y300816D01*
Y294517D02*
X424899D01*
X414958Y316502D02*
Y322998D01*
X427753Y316502D02*
Y322998D01*
X414958D02*
X427753D01*
X414958Y316502D02*
X427753D01*
X412300Y370483D02*
X424899D01*
Y364183D02*
Y370483D01*
X412300Y364183D02*
Y370483D01*
Y364183D02*
X424899D01*
X412300Y405316D02*
X424899D01*
Y399017D02*
Y405316D01*
X412300Y399017D02*
Y405316D01*
Y399017D02*
X424899D01*
X414458Y421752D02*
Y428248D01*
X427253Y421752D02*
Y428248D01*
X414458D02*
X427253D01*
X414458Y421752D02*
X427253D01*
X412300Y433850D02*
X424899D01*
X412300D02*
Y440149D01*
X424899Y433850D02*
Y440149D01*
X412300D02*
X424899D01*
X412300Y468350D02*
X424899D01*
X412300D02*
Y474649D01*
X424899Y468350D02*
Y474649D01*
X412300D02*
X424899D01*
X446258Y180252D02*
X459053D01*
X446258Y186748D02*
X459053D01*
Y180252D02*
Y186748D01*
X446258Y180252D02*
Y186748D01*
Y211252D02*
Y217748D01*
X459053Y211252D02*
Y217748D01*
X446258D02*
X459053D01*
X446258Y211252D02*
X459053D01*
X446258Y246335D02*
Y252831D01*
X459053Y246335D02*
Y252831D01*
X446258D02*
X459053D01*
X446258Y246335D02*
X459053D01*
X443601Y300816D02*
X456199D01*
Y294517D02*
Y300816D01*
X443601Y294517D02*
Y300816D01*
Y294517D02*
X456199D01*
X446258Y316502D02*
Y322998D01*
X459053Y316502D02*
Y322998D01*
X446258D02*
X459053D01*
X446258Y316502D02*
X459053D01*
X443601Y370483D02*
X456199D01*
Y364183D02*
Y370483D01*
X443601Y364183D02*
Y370483D01*
Y364183D02*
X456199D01*
X443601Y405316D02*
X456199D01*
Y399017D02*
Y405316D01*
X443601Y399017D02*
Y405316D01*
Y399017D02*
X456199D01*
X445758Y421752D02*
Y428248D01*
X458553Y421752D02*
Y428248D01*
X445758D02*
X458553D01*
X445758Y421752D02*
X458553D01*
X443601Y433850D02*
X456199D01*
X443601D02*
Y440149D01*
X456199Y433850D02*
Y440149D01*
X443601D02*
X456199D01*
X443601Y468350D02*
X456199D01*
X443601D02*
Y474649D01*
X456199Y468350D02*
Y474649D01*
X443601D02*
X456199D01*
X477791Y180252D02*
X490587D01*
X477791Y186748D02*
X490587D01*
Y180252D02*
Y186748D01*
X477791Y180252D02*
Y186748D01*
X477558Y211252D02*
Y217748D01*
X490353Y211252D02*
Y217748D01*
X477558D02*
X490353D01*
X477558Y211252D02*
X490353D01*
X477558Y246335D02*
Y252831D01*
X490353Y246335D02*
Y252831D01*
X477558D02*
X490353D01*
X477558Y246335D02*
X490353D01*
X474900Y300816D02*
X487499D01*
Y294517D02*
Y300816D01*
X474900Y294517D02*
Y300816D01*
Y294517D02*
X487499D01*
X477558Y316502D02*
X490353D01*
X477558Y322998D02*
X490353D01*
Y316502D02*
Y322998D01*
X477558Y316502D02*
Y322998D01*
X474900Y370483D02*
X487499D01*
Y364183D02*
Y370483D01*
X474900Y364183D02*
Y370483D01*
Y364183D02*
X487499D01*
X474900Y405316D02*
X487499D01*
Y399017D02*
Y405316D01*
X474900Y399017D02*
Y405316D01*
Y399017D02*
X487499D01*
X477058Y421752D02*
Y428248D01*
X489853Y421752D02*
Y428248D01*
X477058D02*
X489853D01*
X477058Y421752D02*
X489853D01*
X474900Y433850D02*
X487499D01*
X474900D02*
Y440149D01*
X487499Y433850D02*
Y440149D01*
X474900D02*
X487499D01*
X474900Y468350D02*
X487499D01*
X474900D02*
Y474649D01*
X487499Y468350D02*
Y474649D01*
X474900D02*
X487499D01*
X509325Y180252D02*
X522120D01*
X509325Y186748D02*
X522120D01*
Y180252D02*
Y186748D01*
X509325Y180252D02*
Y186748D01*
X508858Y211252D02*
Y217748D01*
X521653Y211252D02*
Y217748D01*
X508858D02*
X521653D01*
X508858Y211252D02*
X521653D01*
X508858Y246335D02*
Y252831D01*
X521653Y246335D02*
Y252831D01*
X508858D02*
X521653D01*
X508858Y246335D02*
X521653D01*
X506201Y294517D02*
X518799D01*
X506201D02*
Y300816D01*
X518799Y294517D02*
Y300816D01*
X506201D02*
X518799D01*
X506201Y364183D02*
X518799D01*
X506201D02*
Y370483D01*
X518799Y364183D02*
Y370483D01*
X506201D02*
X518799D01*
X506201Y405316D02*
X518799D01*
Y399017D02*
Y405316D01*
X506201Y399017D02*
Y405316D01*
Y399017D02*
X518799D01*
X508358Y421752D02*
Y428248D01*
X521153Y421752D02*
Y428248D01*
X508358D02*
X521153D01*
X508358Y421752D02*
X521153D01*
X506201Y433850D02*
X518799D01*
X506201D02*
Y440149D01*
X518799Y433850D02*
Y440149D01*
X506201D02*
X518799D01*
X506201Y468350D02*
X518799D01*
X506201D02*
Y474649D01*
X518799Y468350D02*
Y474649D01*
X506201D02*
X518799D01*
X520957Y337996D02*
X528043D01*
X520957Y325004D02*
X528043D01*
Y337996D01*
X520957Y325004D02*
Y337996D01*
X540858Y180252D02*
X553653D01*
X540858Y186748D02*
X553653D01*
Y180252D02*
Y186748D01*
X540858Y180252D02*
Y186748D01*
Y211252D02*
Y217748D01*
X553653Y211252D02*
Y217748D01*
X540858D02*
X553653D01*
X540858Y211252D02*
X553653D01*
X540858Y246335D02*
Y252831D01*
X553653Y246335D02*
Y252831D01*
X540858D02*
X553653D01*
X540858Y246335D02*
X553653D01*
X538201Y294517D02*
X550799D01*
X538201D02*
Y300816D01*
X550799Y294517D02*
Y300816D01*
X538201D02*
X550799D01*
X538201Y364183D02*
X550799D01*
X538201D02*
Y370483D01*
X550799Y364183D02*
Y370483D01*
X538201D02*
X550799D01*
X538201Y399017D02*
X550799D01*
X538201D02*
Y405316D01*
X550799Y399017D02*
Y405316D01*
X538201D02*
X550799D01*
X540858Y421752D02*
Y428248D01*
X553653Y421752D02*
Y428248D01*
X540858D02*
X553653D01*
X540858Y421752D02*
X553653D01*
X538201Y433850D02*
X550799D01*
X538201D02*
Y440149D01*
X550799Y433850D02*
Y440149D01*
X538201D02*
X550799D01*
X538201Y468350D02*
X550799D01*
X538201D02*
Y474649D01*
X550799Y468350D02*
Y474649D01*
X538201D02*
X550799D01*
X576756Y199594D02*
Y211405D01*
X571244Y199594D02*
Y211405D01*
Y199594D02*
X576756D01*
X571244Y211405D02*
X576756D01*
X571244Y315905D02*
X576756D01*
X571244Y304095D02*
X576756D01*
X571244D02*
Y315905D01*
X576756Y304095D02*
Y315905D01*
X571244Y386972D02*
X576756D01*
X571244Y375161D02*
X576756D01*
X571244D02*
Y386972D01*
X576756Y375161D02*
Y386972D01*
X587957Y200504D02*
Y213496D01*
X595043Y200504D02*
Y213496D01*
X587957Y200504D02*
X595043D01*
X587957Y213496D02*
X595043D01*
X587957Y305504D02*
Y318496D01*
X595043Y305504D02*
Y318496D01*
X587957Y305504D02*
X595043D01*
X587957Y318496D02*
X595043D01*
X285504Y473043D02*
X298496D01*
X285504Y465957D02*
X298496D01*
X285504D02*
Y473043D01*
X298496Y465957D02*
Y473043D01*
X287244Y443595D02*
X292756D01*
X287244Y455406D02*
X292756D01*
Y443595D02*
Y455406D01*
X287244Y443595D02*
Y455406D01*
X318201Y200650D02*
X330799D01*
Y194350D02*
Y200650D01*
X318201Y194350D02*
Y200650D01*
Y194350D02*
X330799D01*
X318201Y265983D02*
X330799D01*
Y259683D02*
Y265983D01*
X318201Y259683D02*
Y265983D01*
Y259683D02*
X330799D01*
X320858Y351585D02*
X333653D01*
X320858Y358081D02*
X333653D01*
Y351585D02*
Y358081D01*
X320858Y351585D02*
Y358081D01*
Y386669D02*
X333653D01*
X320858Y393165D02*
X333653D01*
Y386669D02*
Y393165D01*
X320858Y386669D02*
Y393165D01*
X337457Y316504D02*
X344543D01*
X337457Y329496D02*
X344543D01*
X337457Y316504D02*
Y329496D01*
X344543Y316504D02*
Y329496D01*
X349700Y200650D02*
X362299D01*
Y194350D02*
Y200650D01*
X349700Y194350D02*
Y200650D01*
Y194350D02*
X362299D01*
X349700Y265983D02*
X362299D01*
Y259683D02*
Y265983D01*
X349700Y259683D02*
Y265983D01*
Y259683D02*
X362299D01*
X354689Y319094D02*
X360200D01*
X354689Y330906D02*
X360200D01*
Y319094D02*
Y330906D01*
X354689Y319094D02*
Y330906D01*
X352358Y351585D02*
X365153D01*
X352358Y358081D02*
X365153D01*
Y351585D02*
Y358081D01*
X352358Y351585D02*
Y358081D01*
Y386669D02*
Y393165D01*
X365153Y386669D02*
Y393165D01*
X352358D02*
X365153D01*
X352358Y386669D02*
X365153D01*
X381000Y200650D02*
X393599D01*
Y194350D02*
Y200650D01*
X381000Y194350D02*
Y200650D01*
Y194350D02*
X393599D01*
X381000Y265983D02*
X393599D01*
Y259683D02*
Y265983D01*
X381000Y259683D02*
Y265983D01*
Y259683D02*
X393599D01*
X383658Y351585D02*
X396453D01*
X383658Y358081D02*
X396453D01*
Y351585D02*
Y358081D01*
X383658Y351585D02*
Y358081D01*
X383658Y386669D02*
Y393165D01*
X396453Y386669D02*
Y393165D01*
X383658D02*
X396453D01*
X383658Y386669D02*
X396453D01*
X412300Y200650D02*
X424899D01*
Y194350D02*
Y200650D01*
X412300Y194350D02*
Y200650D01*
Y194350D02*
X424899D01*
X412300Y265983D02*
X424899D01*
Y259683D02*
Y265983D01*
X412300Y259683D02*
Y265983D01*
Y259683D02*
X424899D01*
X414958Y351585D02*
Y358081D01*
X427753Y351585D02*
Y358081D01*
X414958D02*
X427753D01*
X414958Y351585D02*
X427753D01*
X414958Y386669D02*
Y393165D01*
X427753Y386669D02*
Y393165D01*
X414958D02*
X427753D01*
X414958Y386669D02*
X427753D01*
X443601Y200650D02*
X456199D01*
Y194350D02*
Y200650D01*
X443601Y194350D02*
Y200650D01*
Y194350D02*
X456199D01*
X443601Y265983D02*
X456199D01*
Y259683D02*
Y265983D01*
X443601Y259683D02*
Y265983D01*
Y259683D02*
X456199D01*
X446258Y351585D02*
Y358081D01*
X459053Y351585D02*
Y358081D01*
X446258D02*
X459053D01*
X446258Y351585D02*
X459053D01*
X446258Y386669D02*
Y393165D01*
X459053Y386669D02*
Y393165D01*
X446258D02*
X459053D01*
X446258Y386669D02*
X459053D01*
X474900Y200650D02*
X487499D01*
Y194350D02*
Y200650D01*
X474900Y194350D02*
Y200650D01*
Y194350D02*
X487499D01*
X474900Y265983D02*
X487499D01*
Y259683D02*
Y265983D01*
X474900Y259683D02*
Y265983D01*
Y259683D02*
X487499D01*
X477558Y351585D02*
X490353D01*
X477558Y358081D02*
X490353D01*
Y351585D02*
Y358081D01*
X477558Y351585D02*
Y358081D01*
X477558Y386669D02*
Y393165D01*
X490353Y386669D02*
Y393165D01*
X477558D02*
X490353D01*
X477558Y386669D02*
X490353D01*
X506201Y200650D02*
X518799D01*
Y194350D02*
Y200650D01*
X506201Y194350D02*
Y200650D01*
Y194350D02*
X518799D01*
X506201Y265983D02*
X518799D01*
Y259683D02*
Y265983D01*
X506201Y259683D02*
Y265983D01*
Y259683D02*
X518799D01*
X508858Y351585D02*
Y358081D01*
X521654Y351585D02*
Y358081D01*
X508858D02*
X521654D01*
X508858Y351585D02*
X521654D01*
X508858Y386669D02*
Y393165D01*
X521654Y386669D02*
Y393165D01*
X508858D02*
X521654D01*
X508858Y386669D02*
X521654D01*
X538201Y200650D02*
X550799D01*
Y194350D02*
Y200650D01*
X538201Y194350D02*
Y200650D01*
Y194350D02*
X550799D01*
X538201Y259683D02*
X550799D01*
X538201D02*
Y265983D01*
X550799Y259683D02*
Y265983D01*
X538201D02*
X550799D01*
X540858Y351585D02*
Y358081D01*
X553653Y351585D02*
Y358081D01*
X540858D02*
X553653D01*
X540858Y351585D02*
X553653D01*
X540858Y386669D02*
Y393165D01*
X553653Y386669D02*
Y393165D01*
X540858D02*
X553653D01*
X540858Y386669D02*
X553653D01*
X571244Y453406D02*
X576756D01*
X571244Y441595D02*
X576756D01*
X571244D02*
Y453406D01*
X576756Y441595D02*
Y453406D01*
X587957Y376004D02*
Y388996D01*
X595043Y376004D02*
Y388996D01*
X587957Y376004D02*
X595043D01*
X587957Y388996D02*
X595043D01*
X587957Y442504D02*
Y455496D01*
X595043Y442504D02*
Y455496D01*
X587957Y442504D02*
X595043D01*
X587957Y455496D02*
X595043D01*
M02*
