G04*
G04 #@! TF.GenerationSoftware,Altium Limited,Altium Designer,20.1.12 (249)*
G04*
G04 Layer_Physical_Order=2*
G04 Layer_Color=16711680*
%FSLAX25Y25*%
%MOIN*%
G70*
G04*
G04 #@! TF.SameCoordinates,9558268F-E582-4542-BACD-EEF3D3045912*
G04*
G04*
G04 #@! TF.FilePolarity,Positive*
G04*
G01*
G75*
%ADD10C,0.01000*%
%ADD16C,0.05000*%
%ADD44C,0.01500*%
G04:AMPARAMS|DCode=45|XSize=157.48mil|YSize=51.18mil|CornerRadius=12.8mil|HoleSize=0mil|Usage=FLASHONLY|Rotation=270.000|XOffset=0mil|YOffset=0mil|HoleType=Round|Shape=RoundedRectangle|*
%AMROUNDEDRECTD45*
21,1,0.15748,0.02559,0,0,270.0*
21,1,0.13189,0.05118,0,0,270.0*
1,1,0.02559,-0.01280,-0.06594*
1,1,0.02559,-0.01280,0.06594*
1,1,0.02559,0.01280,0.06594*
1,1,0.02559,0.01280,-0.06594*
%
%ADD45ROUNDEDRECTD45*%
G04:AMPARAMS|DCode=46|XSize=137.8mil|YSize=51.18mil|CornerRadius=12.8mil|HoleSize=0mil|Usage=FLASHONLY|Rotation=270.000|XOffset=0mil|YOffset=0mil|HoleType=Round|Shape=RoundedRectangle|*
%AMROUNDEDRECTD46*
21,1,0.13780,0.02559,0,0,270.0*
21,1,0.11221,0.05118,0,0,270.0*
1,1,0.02559,-0.01280,-0.05610*
1,1,0.02559,-0.01280,0.05610*
1,1,0.02559,0.01280,0.05610*
1,1,0.02559,0.01280,-0.05610*
%
%ADD46ROUNDEDRECTD46*%
G04:AMPARAMS|DCode=47|XSize=137.8mil|YSize=51.18mil|CornerRadius=12.8mil|HoleSize=0mil|Usage=FLASHONLY|Rotation=0.000|XOffset=0mil|YOffset=0mil|HoleType=Round|Shape=RoundedRectangle|*
%AMROUNDEDRECTD47*
21,1,0.13780,0.02559,0,0,0.0*
21,1,0.11221,0.05118,0,0,0.0*
1,1,0.02559,0.05610,-0.01280*
1,1,0.02559,-0.05610,-0.01280*
1,1,0.02559,-0.05610,0.01280*
1,1,0.02559,0.05610,0.01280*
%
%ADD47ROUNDEDRECTD47*%
%ADD48C,0.06299*%
%ADD49R,0.06299X0.06299*%
%ADD50C,0.30000*%
G36*
X699500Y172000D02*
X242000D01*
Y483500D01*
X699500D01*
Y172000D01*
D02*
G37*
%LPC*%
G36*
X307500Y469530D02*
X306586Y469410D01*
X305735Y469057D01*
X305004Y468496D01*
X304443Y467765D01*
X304090Y466914D01*
X303970Y466000D01*
X304090Y465086D01*
X304443Y464235D01*
X305004Y463504D01*
X305735Y462943D01*
X306586Y462590D01*
X307500Y462470D01*
X308414Y462590D01*
X309265Y462943D01*
X309996Y463504D01*
X310557Y464235D01*
X310655Y464471D01*
X577515D01*
X577547Y463971D01*
X577086Y463910D01*
X576235Y463557D01*
X575504Y462996D01*
X574943Y462265D01*
X574590Y461414D01*
X574536Y461000D01*
X581464D01*
X581410Y461414D01*
X581057Y462265D01*
X580496Y462996D01*
X579765Y463557D01*
X578914Y463910D01*
X578453Y463971D01*
X578485Y464471D01*
X602366D01*
X608720Y458117D01*
X608437Y457693D01*
X607914Y457910D01*
X607000Y458030D01*
X606086Y457910D01*
X605235Y457557D01*
X604504Y456996D01*
X603943Y456265D01*
X603590Y455414D01*
X603470Y454500D01*
X603590Y453586D01*
X603943Y452735D01*
X604504Y452004D01*
X605235Y451443D01*
X605471Y451345D01*
Y362500D01*
X605587Y361915D01*
X605919Y361419D01*
X643971Y323366D01*
Y313007D01*
X643471Y312878D01*
X642996Y313496D01*
X642265Y314057D01*
X641414Y314410D01*
X640500Y314530D01*
X639586Y314410D01*
X638735Y314057D01*
X638004Y313496D01*
X637443Y312765D01*
X637090Y311914D01*
X636970Y311000D01*
X637090Y310086D01*
X637188Y309851D01*
X585366Y258029D01*
X307633D01*
X302529Y263134D01*
Y314845D01*
X302765Y314943D01*
X303496Y315504D01*
X304057Y316235D01*
X304410Y317086D01*
X304530Y318000D01*
X304410Y318914D01*
X304057Y319765D01*
X303496Y320496D01*
X302765Y321057D01*
X301914Y321410D01*
X301000Y321530D01*
X300086Y321410D01*
X299235Y321057D01*
X298504Y320496D01*
X297943Y319765D01*
X297590Y318914D01*
X297470Y318000D01*
X297590Y317086D01*
X297943Y316235D01*
X298504Y315504D01*
X299235Y314943D01*
X299471Y314845D01*
Y262500D01*
X299587Y261915D01*
X299919Y261419D01*
X305919Y255419D01*
X306415Y255087D01*
X307000Y254971D01*
X586000D01*
X586585Y255087D01*
X587081Y255419D01*
X639351Y307688D01*
X639586Y307590D01*
X640500Y307470D01*
X641414Y307590D01*
X642265Y307943D01*
X642996Y308504D01*
X643471Y309122D01*
X643971Y308993D01*
Y305655D01*
X643735Y305557D01*
X643004Y304996D01*
X642443Y304265D01*
X642090Y303414D01*
X641970Y302500D01*
X642090Y301586D01*
X642443Y300735D01*
X643004Y300004D01*
X643735Y299443D01*
X644586Y299090D01*
X645500Y298970D01*
X646414Y299090D01*
X647265Y299443D01*
X647996Y300004D01*
X648471Y300622D01*
X648971Y300493D01*
Y259134D01*
X644367Y254529D01*
X614500D01*
X613915Y254413D01*
X613419Y254081D01*
X582919Y223581D01*
X582587Y223085D01*
X582471Y222500D01*
Y200634D01*
X573366Y191529D01*
X312134D01*
X305529Y198134D01*
Y213845D01*
X305765Y213943D01*
X306496Y214504D01*
X307057Y215235D01*
X307410Y216086D01*
X307530Y217000D01*
X307410Y217914D01*
X307057Y218765D01*
X306496Y219496D01*
X305765Y220057D01*
X304914Y220410D01*
X304000Y220530D01*
X303086Y220410D01*
X302235Y220057D01*
X301504Y219496D01*
X300943Y218765D01*
X300590Y217914D01*
X300470Y217000D01*
X300590Y216086D01*
X300943Y215235D01*
X301504Y214504D01*
X302235Y213943D01*
X302471Y213845D01*
Y197500D01*
X302587Y196915D01*
X302919Y196419D01*
X310419Y188919D01*
X310915Y188587D01*
X311500Y188471D01*
X574000D01*
X574585Y188587D01*
X575081Y188919D01*
X585081Y198919D01*
X585413Y199415D01*
X585529Y200000D01*
Y221866D01*
X615133Y251471D01*
X645000D01*
X645585Y251587D01*
X646081Y251919D01*
X651581Y257419D01*
X651913Y257915D01*
X652029Y258500D01*
Y307845D01*
X652265Y307943D01*
X652996Y308504D01*
X653557Y309235D01*
X653910Y310086D01*
X654030Y311000D01*
X653910Y311914D01*
X653557Y312765D01*
X652996Y313496D01*
X652265Y314057D01*
X651414Y314410D01*
X650500Y314530D01*
X649586Y314410D01*
X648735Y314057D01*
X648004Y313496D01*
X647529Y312878D01*
X647029Y313007D01*
Y324000D01*
X646913Y324585D01*
X646581Y325081D01*
X608529Y363134D01*
Y451345D01*
X608765Y451443D01*
X609496Y452004D01*
X610057Y452735D01*
X610410Y453586D01*
X610530Y454500D01*
X610410Y455414D01*
X610193Y455937D01*
X610617Y456220D01*
X641545Y425293D01*
X641581Y425109D01*
X641164Y424484D01*
X640987Y423595D01*
Y410405D01*
X641164Y409516D01*
X641668Y408762D01*
X642422Y408258D01*
X643311Y408081D01*
X645870D01*
X646760Y408258D01*
X647513Y408762D01*
X648017Y409516D01*
X648194Y410405D01*
Y417990D01*
X648656Y418181D01*
X673971Y392866D01*
Y352155D01*
X673735Y352057D01*
X673004Y351496D01*
X672443Y350765D01*
X672090Y349914D01*
X671970Y349000D01*
X672090Y348086D01*
X672443Y347235D01*
X673004Y346504D01*
X673735Y345943D01*
X674586Y345590D01*
X675500Y345470D01*
X676414Y345590D01*
X677265Y345943D01*
X677996Y346504D01*
X678557Y347235D01*
X678910Y348086D01*
X679030Y349000D01*
X678910Y349914D01*
X678557Y350765D01*
X677996Y351496D01*
X677265Y352057D01*
X677029Y352155D01*
Y393500D01*
X676913Y394085D01*
X676581Y394581D01*
X650179Y420984D01*
Y424746D01*
X650063Y425331D01*
X649731Y425827D01*
X648103Y427456D01*
X647607Y427787D01*
X647021Y427903D01*
X643259D01*
X604081Y467081D01*
X603585Y467413D01*
X603000Y467529D01*
X310655D01*
X310557Y467765D01*
X309996Y468496D01*
X309265Y469057D01*
X308414Y469410D01*
X307500Y469530D01*
D02*
G37*
G36*
X581464Y460000D02*
X578500D01*
Y457036D01*
X578914Y457090D01*
X579765Y457443D01*
X580496Y458004D01*
X581057Y458735D01*
X581410Y459586D01*
X581464Y460000D01*
D02*
G37*
G36*
X577500D02*
X574536D01*
X574590Y459586D01*
X574943Y458735D01*
X575504Y458004D01*
X576235Y457443D01*
X577086Y457090D01*
X577500Y457036D01*
Y460000D01*
D02*
G37*
G36*
X680500Y479049D02*
X677989Y478852D01*
X675540Y478264D01*
X673214Y477300D01*
X671066Y475984D01*
X669151Y474349D01*
X667516Y472434D01*
X666200Y470286D01*
X665236Y467960D01*
X664648Y465511D01*
X664451Y463000D01*
X664648Y460489D01*
X665236Y458040D01*
X666200Y455714D01*
X667516Y453566D01*
X669151Y451651D01*
X671066Y450016D01*
X673214Y448700D01*
X675540Y447736D01*
X677989Y447148D01*
X680500Y446950D01*
X683011Y447148D01*
X685460Y447736D01*
X687786Y448700D01*
X689934Y450016D01*
X691849Y451651D01*
X693484Y453566D01*
X694800Y455714D01*
X695764Y458040D01*
X696352Y460489D01*
X696550Y463000D01*
X696352Y465511D01*
X695764Y467960D01*
X694800Y470286D01*
X693484Y472434D01*
X691849Y474349D01*
X689934Y475984D01*
X687786Y477300D01*
X685460Y478264D01*
X683011Y478852D01*
X680500Y479049D01*
D02*
G37*
G36*
X262000D02*
X259489Y478852D01*
X257040Y478264D01*
X254714Y477300D01*
X252566Y475984D01*
X250651Y474349D01*
X249016Y472434D01*
X247700Y470286D01*
X246736Y467960D01*
X246148Y465511D01*
X245951Y463000D01*
X246148Y460489D01*
X246736Y458040D01*
X247700Y455714D01*
X249016Y453566D01*
X250651Y451651D01*
X252566Y450016D01*
X254714Y448700D01*
X257040Y447736D01*
X259489Y447148D01*
X262000Y446950D01*
X264511Y447148D01*
X266960Y447736D01*
X269286Y448700D01*
X271434Y450016D01*
X273349Y451651D01*
X274984Y453566D01*
X276300Y455714D01*
X277264Y458040D01*
X277852Y460489D01*
X278049Y463000D01*
X277852Y465511D01*
X277264Y467960D01*
X276300Y470286D01*
X274984Y472434D01*
X273349Y474349D01*
X271434Y475984D01*
X269286Y477300D01*
X266960Y478264D01*
X264511Y478852D01*
X262000Y479049D01*
D02*
G37*
G36*
X289000Y439464D02*
Y436500D01*
X291964D01*
X291910Y436914D01*
X291557Y437765D01*
X290996Y438496D01*
X290265Y439057D01*
X289414Y439410D01*
X289000Y439464D01*
D02*
G37*
G36*
X288000D02*
X287586Y439410D01*
X286735Y439057D01*
X286004Y438496D01*
X285443Y437765D01*
X285090Y436914D01*
X285036Y436500D01*
X288000D01*
Y439464D01*
D02*
G37*
G36*
X662799Y439108D02*
X657689D01*
Y436004D01*
X665123D01*
Y436784D01*
X664947Y437673D01*
X664443Y438427D01*
X663689Y438931D01*
X662799Y439108D01*
D02*
G37*
G36*
X656689D02*
X651579D01*
X650689Y438931D01*
X649935Y438427D01*
X649432Y437673D01*
X649255Y436784D01*
Y436004D01*
X656689D01*
Y439108D01*
D02*
G37*
G36*
X291964Y435500D02*
X289000D01*
Y432536D01*
X289414Y432590D01*
X290265Y432943D01*
X290996Y433504D01*
X291557Y434235D01*
X291910Y435086D01*
X291964Y435500D01*
D02*
G37*
G36*
X288000D02*
X285036D01*
X285090Y435086D01*
X285443Y434235D01*
X286004Y433504D01*
X286735Y432943D01*
X287586Y432590D01*
X288000Y432536D01*
Y435500D01*
D02*
G37*
G36*
X665123Y435004D02*
X657689D01*
Y431900D01*
X662799D01*
X663689Y432077D01*
X664443Y432581D01*
X664947Y433335D01*
X665123Y434224D01*
Y435004D01*
D02*
G37*
G36*
X656689D02*
X649255D01*
Y434224D01*
X649432Y433335D01*
X649935Y432581D01*
X650689Y432077D01*
X651579Y431900D01*
X656689D01*
Y435004D01*
D02*
G37*
G36*
X670280Y424934D02*
X669500D01*
Y417500D01*
X672604D01*
Y422610D01*
X672427Y423500D01*
X671923Y424254D01*
X671169Y424757D01*
X670280Y424934D01*
D02*
G37*
G36*
X668500D02*
X667721D01*
X666831Y424757D01*
X666077Y424254D01*
X665573Y423500D01*
X665396Y422610D01*
Y417500D01*
X668500D01*
Y424934D01*
D02*
G37*
G36*
X345500Y419464D02*
Y416500D01*
X348464D01*
X348410Y416914D01*
X348057Y417765D01*
X347496Y418496D01*
X346765Y419057D01*
X345914Y419410D01*
X345500Y419464D01*
D02*
G37*
G36*
X344500D02*
X344086Y419410D01*
X343235Y419057D01*
X342504Y418496D01*
X341943Y417765D01*
X341590Y416914D01*
X341536Y416500D01*
X344500D01*
Y419464D01*
D02*
G37*
G36*
X348464Y415500D02*
X345500D01*
Y412536D01*
X345914Y412590D01*
X346765Y412943D01*
X347496Y413504D01*
X348057Y414235D01*
X348410Y415086D01*
X348464Y415500D01*
D02*
G37*
G36*
X344500D02*
X341536D01*
X341590Y415086D01*
X341943Y414235D01*
X342504Y413504D01*
X343235Y412943D01*
X344086Y412590D01*
X344500Y412536D01*
Y415500D01*
D02*
G37*
G36*
X672604Y416500D02*
X669500D01*
Y409066D01*
X670280D01*
X671169Y409242D01*
X671923Y409746D01*
X672427Y410500D01*
X672604Y411390D01*
Y416500D01*
D02*
G37*
G36*
X668500D02*
X665396D01*
Y411390D01*
X665573Y410500D01*
X666077Y409746D01*
X666831Y409242D01*
X667721Y409066D01*
X668500D01*
Y416500D01*
D02*
G37*
G36*
X578500Y398964D02*
Y396000D01*
X581464D01*
X581410Y396414D01*
X581057Y397265D01*
X580496Y397996D01*
X579765Y398557D01*
X578914Y398910D01*
X578500Y398964D01*
D02*
G37*
G36*
X577500D02*
X577086Y398910D01*
X576235Y398557D01*
X575504Y397996D01*
X574943Y397265D01*
X574590Y396414D01*
X574536Y396000D01*
X577500D01*
Y398964D01*
D02*
G37*
G36*
X581464Y395000D02*
X578500D01*
Y392036D01*
X578914Y392090D01*
X579765Y392443D01*
X580496Y393004D01*
X581057Y393735D01*
X581410Y394586D01*
X581464Y395000D01*
D02*
G37*
G36*
X577500D02*
X574536D01*
X574590Y394586D01*
X574943Y393735D01*
X575504Y393004D01*
X576235Y392443D01*
X577086Y392090D01*
X577500Y392036D01*
Y395000D01*
D02*
G37*
G36*
X670150Y379150D02*
X661850D01*
Y370850D01*
X670150D01*
Y379150D01*
D02*
G37*
G36*
X686000Y379185D02*
X684917Y379043D01*
X683907Y378625D01*
X683041Y377959D01*
X682375Y377093D01*
X681957Y376083D01*
X681815Y375000D01*
X681957Y373917D01*
X682375Y372907D01*
X683041Y372041D01*
X683907Y371375D01*
X684917Y370957D01*
X686000Y370815D01*
X687083Y370957D01*
X688093Y371375D01*
X688960Y372041D01*
X689625Y372907D01*
X690043Y373917D01*
X690185Y375000D01*
X690043Y376083D01*
X689625Y377093D01*
X688960Y377959D01*
X688093Y378625D01*
X687083Y379043D01*
X686000Y379185D01*
D02*
G37*
G36*
X286500Y370964D02*
Y368000D01*
X289464D01*
X289410Y368414D01*
X289057Y369265D01*
X288496Y369996D01*
X287765Y370557D01*
X286914Y370910D01*
X286500Y370964D01*
D02*
G37*
G36*
X285500D02*
X285086Y370910D01*
X284235Y370557D01*
X283504Y369996D01*
X282943Y369265D01*
X282590Y368414D01*
X282536Y368000D01*
X285500D01*
Y370964D01*
D02*
G37*
G36*
X289464Y367000D02*
X286500D01*
Y364036D01*
X286914Y364090D01*
X287765Y364443D01*
X288496Y365004D01*
X289057Y365735D01*
X289410Y366586D01*
X289464Y367000D01*
D02*
G37*
G36*
X285500D02*
X282536D01*
X282590Y366586D01*
X282943Y365735D01*
X283504Y365004D01*
X284235Y364443D01*
X285086Y364090D01*
X285500Y364036D01*
Y367000D01*
D02*
G37*
G36*
X635500Y350464D02*
Y347500D01*
X638464D01*
X638410Y347914D01*
X638057Y348765D01*
X637496Y349496D01*
X636765Y350057D01*
X635914Y350410D01*
X635500Y350464D01*
D02*
G37*
G36*
X634500D02*
X634086Y350410D01*
X633235Y350057D01*
X632504Y349496D01*
X631943Y348765D01*
X631590Y347914D01*
X631536Y347500D01*
X634500D01*
Y350464D01*
D02*
G37*
G36*
X638464Y346500D02*
X635500D01*
Y343536D01*
X635914Y343590D01*
X636765Y343943D01*
X637496Y344504D01*
X638057Y345235D01*
X638410Y346086D01*
X638464Y346500D01*
D02*
G37*
G36*
X634500D02*
X631536D01*
X631590Y346086D01*
X631943Y345235D01*
X632504Y344504D01*
X633235Y343943D01*
X634086Y343590D01*
X634500Y343536D01*
Y346500D01*
D02*
G37*
G36*
X305500Y404530D02*
X304586Y404410D01*
X303735Y404057D01*
X303004Y403496D01*
X302443Y402765D01*
X302090Y401914D01*
X301970Y401000D01*
X302090Y400086D01*
X302443Y399235D01*
X303004Y398504D01*
X303735Y397943D01*
X304471Y397638D01*
Y360500D01*
X304587Y359915D01*
X304919Y359419D01*
X316919Y347419D01*
X317415Y347087D01*
X318000Y346971D01*
X594345D01*
X594443Y346735D01*
X595004Y346004D01*
X595735Y345443D01*
X596586Y345090D01*
X597047Y345029D01*
X597015Y344529D01*
X345500D01*
X344915Y344413D01*
X344419Y344081D01*
X327919Y327581D01*
X327587Y327085D01*
X327471Y326500D01*
Y320674D01*
X327235Y320576D01*
X326504Y320015D01*
X325943Y319284D01*
X325590Y318433D01*
X325470Y317519D01*
X325590Y316605D01*
X325943Y315754D01*
X326504Y315023D01*
X327235Y314462D01*
X328086Y314109D01*
X329000Y313989D01*
X329914Y314109D01*
X330765Y314462D01*
X331496Y315023D01*
X332057Y315754D01*
X332410Y316605D01*
X332530Y317519D01*
X332410Y318433D01*
X332057Y319284D01*
X331496Y320015D01*
X330765Y320576D01*
X330529Y320674D01*
Y325867D01*
X346133Y341471D01*
X493844D01*
X493956Y341142D01*
X493984Y340971D01*
X493443Y340265D01*
X493090Y339414D01*
X493036Y339000D01*
X499964D01*
X499910Y339414D01*
X499557Y340265D01*
X499016Y340971D01*
X499044Y341142D01*
X499156Y341471D01*
X614345D01*
X614443Y341235D01*
X615004Y340504D01*
X615735Y339943D01*
X616586Y339590D01*
X617500Y339470D01*
X618414Y339590D01*
X619265Y339943D01*
X619996Y340504D01*
X620557Y341235D01*
X620910Y342086D01*
X621030Y343000D01*
X620910Y343914D01*
X620557Y344765D01*
X619996Y345496D01*
X619265Y346057D01*
X618414Y346410D01*
X617500Y346530D01*
X616586Y346410D01*
X615735Y346057D01*
X615004Y345496D01*
X614443Y344765D01*
X614345Y344529D01*
X597985D01*
X597953Y345029D01*
X598414Y345090D01*
X599265Y345443D01*
X599996Y346004D01*
X600557Y346735D01*
X600910Y347586D01*
X601030Y348500D01*
X600910Y349414D01*
X600557Y350265D01*
X599996Y350996D01*
X599265Y351557D01*
X598414Y351910D01*
X597500Y352030D01*
X596586Y351910D01*
X595735Y351557D01*
X595004Y350996D01*
X594443Y350265D01*
X594345Y350029D01*
X318634D01*
X307529Y361134D01*
Y398146D01*
X307996Y398504D01*
X308557Y399235D01*
X308910Y400086D01*
X309030Y401000D01*
X308910Y401914D01*
X308557Y402765D01*
X307996Y403496D01*
X307265Y404057D01*
X306414Y404410D01*
X305500Y404530D01*
D02*
G37*
G36*
X499964Y338000D02*
X497000D01*
Y335036D01*
X497414Y335090D01*
X498265Y335443D01*
X498996Y336004D01*
X499557Y336735D01*
X499910Y337586D01*
X499964Y338000D01*
D02*
G37*
G36*
X496000D02*
X493036D01*
X493090Y337586D01*
X493443Y336735D01*
X494004Y336004D01*
X494735Y335443D01*
X495586Y335090D01*
X496000Y335036D01*
Y338000D01*
D02*
G37*
G36*
X578500Y326464D02*
Y323500D01*
X581464D01*
X581410Y323914D01*
X581057Y324765D01*
X580496Y325496D01*
X579765Y326057D01*
X578914Y326410D01*
X578500Y326464D01*
D02*
G37*
G36*
X577500D02*
X577086Y326410D01*
X576235Y326057D01*
X575504Y325496D01*
X574943Y324765D01*
X574590Y323914D01*
X574536Y323500D01*
X577500D01*
Y326464D01*
D02*
G37*
G36*
X581464Y322500D02*
X578500D01*
Y319536D01*
X578914Y319590D01*
X579765Y319943D01*
X580496Y320504D01*
X581057Y321235D01*
X581410Y322086D01*
X581464Y322500D01*
D02*
G37*
G36*
X577500D02*
X574536D01*
X574590Y322086D01*
X574943Y321235D01*
X575504Y320504D01*
X576235Y319943D01*
X577086Y319590D01*
X577500Y319536D01*
Y322500D01*
D02*
G37*
G36*
X353500Y315964D02*
Y313000D01*
X356464D01*
X356410Y313414D01*
X356057Y314265D01*
X355496Y314996D01*
X354765Y315557D01*
X353914Y315910D01*
X353500Y315964D01*
D02*
G37*
G36*
X352500D02*
X352086Y315910D01*
X351235Y315557D01*
X350504Y314996D01*
X349943Y314265D01*
X349590Y313414D01*
X349536Y313000D01*
X352500D01*
Y315964D01*
D02*
G37*
G36*
X671500Y314964D02*
Y312000D01*
X674464D01*
X674410Y312414D01*
X674057Y313265D01*
X673496Y313996D01*
X672765Y314557D01*
X671914Y314910D01*
X671500Y314964D01*
D02*
G37*
G36*
X670500D02*
X670086Y314910D01*
X669235Y314557D01*
X668504Y313996D01*
X667943Y313265D01*
X667590Y312414D01*
X667536Y312000D01*
X670500D01*
Y314964D01*
D02*
G37*
G36*
X661000Y314464D02*
Y311500D01*
X663964D01*
X663910Y311914D01*
X663557Y312765D01*
X662996Y313496D01*
X662265Y314057D01*
X661414Y314410D01*
X661000Y314464D01*
D02*
G37*
G36*
X660000D02*
X659586Y314410D01*
X658735Y314057D01*
X658004Y313496D01*
X657443Y312765D01*
X657090Y311914D01*
X657036Y311500D01*
X660000D01*
Y314464D01*
D02*
G37*
G36*
X356464Y312000D02*
X353500D01*
Y309036D01*
X353914Y309090D01*
X354765Y309443D01*
X355496Y310004D01*
X356057Y310735D01*
X356410Y311586D01*
X356464Y312000D01*
D02*
G37*
G36*
X352500D02*
X349536D01*
X349590Y311586D01*
X349943Y310735D01*
X350504Y310004D01*
X351235Y309443D01*
X352086Y309090D01*
X352500Y309036D01*
Y312000D01*
D02*
G37*
G36*
X674464Y311000D02*
X671500D01*
Y308036D01*
X671914Y308090D01*
X672765Y308443D01*
X673496Y309004D01*
X674057Y309735D01*
X674410Y310586D01*
X674464Y311000D01*
D02*
G37*
G36*
X670500D02*
X667536D01*
X667590Y310586D01*
X667943Y309735D01*
X668504Y309004D01*
X669235Y308443D01*
X670086Y308090D01*
X670500Y308036D01*
Y311000D01*
D02*
G37*
G36*
X663964Y310500D02*
X661000D01*
Y307536D01*
X661414Y307590D01*
X662265Y307943D01*
X662996Y308504D01*
X663557Y309235D01*
X663910Y310086D01*
X663964Y310500D01*
D02*
G37*
G36*
X660000D02*
X657036D01*
X657090Y310086D01*
X657443Y309235D01*
X658004Y308504D01*
X658735Y307943D01*
X659586Y307590D01*
X660000Y307536D01*
Y310500D01*
D02*
G37*
G36*
X286500Y299464D02*
Y296500D01*
X289464D01*
X289410Y296914D01*
X289057Y297765D01*
X288496Y298496D01*
X287765Y299057D01*
X286914Y299410D01*
X286500Y299464D01*
D02*
G37*
G36*
X285500D02*
X285086Y299410D01*
X284235Y299057D01*
X283504Y298496D01*
X282943Y297765D01*
X282590Y296914D01*
X282536Y296500D01*
X285500D01*
Y299464D01*
D02*
G37*
G36*
X289464Y295500D02*
X286500D01*
Y292536D01*
X286914Y292590D01*
X287765Y292943D01*
X288496Y293504D01*
X289057Y294235D01*
X289410Y295086D01*
X289464Y295500D01*
D02*
G37*
G36*
X285500D02*
X282536D01*
X282590Y295086D01*
X282943Y294235D01*
X283504Y293504D01*
X284235Y292943D01*
X285086Y292590D01*
X285500Y292536D01*
Y295500D01*
D02*
G37*
G36*
X560000Y335030D02*
X559086Y334910D01*
X558235Y334557D01*
X557504Y333996D01*
X556943Y333265D01*
X556590Y332414D01*
X556470Y331500D01*
X556590Y330586D01*
X556943Y329735D01*
X557504Y329004D01*
X558216Y328457D01*
Y298000D01*
X558352Y297317D01*
X558738Y296738D01*
X576087Y279390D01*
X575970Y278500D01*
X576090Y277586D01*
X576443Y276735D01*
X577004Y276004D01*
X577735Y275443D01*
X578586Y275090D01*
X579500Y274970D01*
X580414Y275090D01*
X581265Y275443D01*
X581996Y276004D01*
X582557Y276735D01*
X582910Y277586D01*
X583030Y278500D01*
X582910Y279414D01*
X582557Y280265D01*
X581996Y280996D01*
X581265Y281557D01*
X580414Y281910D01*
X579500Y282030D01*
X578610Y281913D01*
X561784Y298739D01*
Y328457D01*
X562496Y329004D01*
X563057Y329735D01*
X563410Y330586D01*
X563530Y331500D01*
X563410Y332414D01*
X563057Y333265D01*
X562496Y333996D01*
X561765Y334557D01*
X560914Y334910D01*
X560000Y335030D01*
D02*
G37*
G36*
X635000Y277464D02*
Y274500D01*
X637964D01*
X637910Y274914D01*
X637557Y275765D01*
X636996Y276496D01*
X636265Y277057D01*
X635414Y277410D01*
X635000Y277464D01*
D02*
G37*
G36*
X634000D02*
X633586Y277410D01*
X632735Y277057D01*
X632004Y276496D01*
X631443Y275765D01*
X631090Y274914D01*
X631036Y274500D01*
X634000D01*
Y277464D01*
D02*
G37*
G36*
X637964Y273500D02*
X635000D01*
Y270536D01*
X635414Y270590D01*
X636265Y270943D01*
X636996Y271504D01*
X637557Y272235D01*
X637910Y273086D01*
X637964Y273500D01*
D02*
G37*
G36*
X634000D02*
X631036D01*
X631090Y273086D01*
X631443Y272235D01*
X632004Y271504D01*
X632735Y270943D01*
X633586Y270590D01*
X634000Y270536D01*
Y273500D01*
D02*
G37*
G36*
X578500Y221964D02*
Y219000D01*
X581464D01*
X581410Y219414D01*
X581057Y220265D01*
X580496Y220996D01*
X579765Y221557D01*
X578914Y221910D01*
X578500Y221964D01*
D02*
G37*
G36*
X577500D02*
X577086Y221910D01*
X576235Y221557D01*
X575504Y220996D01*
X574943Y220265D01*
X574590Y219414D01*
X574536Y219000D01*
X577500D01*
Y221964D01*
D02*
G37*
G36*
X581464Y218000D02*
X578500D01*
Y215036D01*
X578914Y215090D01*
X579765Y215443D01*
X580496Y216004D01*
X581057Y216735D01*
X581410Y217586D01*
X581464Y218000D01*
D02*
G37*
G36*
X577500D02*
X574536D01*
X574590Y217586D01*
X574943Y216735D01*
X575504Y216004D01*
X576235Y215443D01*
X577086Y215090D01*
X577500Y215036D01*
Y218000D01*
D02*
G37*
G36*
X665500Y352530D02*
X664586Y352410D01*
X663735Y352057D01*
X663004Y351496D01*
X662443Y350765D01*
X662090Y349914D01*
X661970Y349000D01*
X662090Y348086D01*
X662443Y347235D01*
X663004Y346504D01*
X663735Y345943D01*
X664586Y345590D01*
X665500Y345470D01*
X666414Y345590D01*
X666649Y345688D01*
X684971Y327366D01*
Y243133D01*
X655866Y214029D01*
X607655D01*
X607557Y214265D01*
X606996Y214996D01*
X606265Y215557D01*
X605414Y215910D01*
X604500Y216030D01*
X603586Y215910D01*
X602735Y215557D01*
X602004Y214996D01*
X601443Y214265D01*
X601090Y213414D01*
X600970Y212500D01*
X601090Y211586D01*
X601443Y210735D01*
X602004Y210004D01*
X602735Y209443D01*
X603586Y209090D01*
X604500Y208970D01*
X605414Y209090D01*
X606265Y209443D01*
X606996Y210004D01*
X607557Y210735D01*
X607655Y210971D01*
X656500D01*
X657085Y211087D01*
X657581Y211419D01*
X687581Y241419D01*
X687913Y241915D01*
X688029Y242500D01*
Y328000D01*
X687913Y328585D01*
X687581Y329081D01*
X668812Y347851D01*
X668910Y348086D01*
X669030Y349000D01*
X668910Y349914D01*
X668557Y350765D01*
X667996Y351496D01*
X667265Y352057D01*
X666414Y352410D01*
X665500Y352530D01*
D02*
G37*
G36*
X286000Y198464D02*
Y195500D01*
X288964D01*
X288910Y195914D01*
X288557Y196765D01*
X287996Y197496D01*
X287265Y198057D01*
X286414Y198410D01*
X286000Y198464D01*
D02*
G37*
G36*
X285000D02*
X284586Y198410D01*
X283735Y198057D01*
X283004Y197496D01*
X282443Y196765D01*
X282090Y195914D01*
X282036Y195500D01*
X285000D01*
Y198464D01*
D02*
G37*
G36*
X288964Y194500D02*
X286000D01*
Y191536D01*
X286414Y191590D01*
X287265Y191943D01*
X287996Y192504D01*
X288557Y193235D01*
X288910Y194086D01*
X288964Y194500D01*
D02*
G37*
G36*
X285000D02*
X282036D01*
X282090Y194086D01*
X282443Y193235D01*
X283004Y192504D01*
X283735Y191943D01*
X284586Y191590D01*
X285000Y191536D01*
Y194500D01*
D02*
G37*
G36*
X262000Y209549D02*
X259489Y209352D01*
X257040Y208764D01*
X254714Y207800D01*
X252566Y206484D01*
X250651Y204849D01*
X249016Y202934D01*
X247700Y200786D01*
X246736Y198460D01*
X246148Y196011D01*
X245951Y193500D01*
X246148Y190989D01*
X246736Y188540D01*
X247700Y186214D01*
X249016Y184066D01*
X250651Y182151D01*
X252566Y180516D01*
X254714Y179200D01*
X257040Y178236D01*
X259489Y177648D01*
X262000Y177451D01*
X264511Y177648D01*
X266960Y178236D01*
X269286Y179200D01*
X271434Y180516D01*
X273349Y182151D01*
X274984Y184066D01*
X276300Y186214D01*
X277264Y188540D01*
X277852Y190989D01*
X278049Y193500D01*
X277852Y196011D01*
X277264Y198460D01*
X276300Y200786D01*
X274984Y202934D01*
X273349Y204849D01*
X271434Y206484D01*
X269286Y207800D01*
X266960Y208764D01*
X264511Y209352D01*
X262000Y209549D01*
D02*
G37*
G36*
X680500Y208549D02*
X677989Y208352D01*
X675540Y207764D01*
X673214Y206800D01*
X671066Y205484D01*
X669151Y203849D01*
X667516Y201934D01*
X666200Y199786D01*
X665236Y197460D01*
X664648Y195011D01*
X664451Y192500D01*
X664648Y189989D01*
X665236Y187540D01*
X666200Y185214D01*
X667516Y183066D01*
X669151Y181151D01*
X671066Y179516D01*
X673214Y178200D01*
X675540Y177236D01*
X677989Y176648D01*
X680500Y176451D01*
X683011Y176648D01*
X685460Y177236D01*
X687786Y178200D01*
X689934Y179516D01*
X691849Y181151D01*
X693484Y183066D01*
X694800Y185214D01*
X695764Y187540D01*
X696352Y189989D01*
X696550Y192500D01*
X696352Y195011D01*
X695764Y197460D01*
X694800Y199786D01*
X693484Y201934D01*
X691849Y203849D01*
X689934Y205484D01*
X687786Y206800D01*
X685460Y207764D01*
X683011Y208352D01*
X680500Y208549D01*
D02*
G37*
%LPD*%
D10*
X301000Y262500D02*
X307000Y256500D01*
X614500Y253000D02*
X645000D01*
X584000Y200000D02*
Y222500D01*
X307000Y256500D02*
X586000D01*
X584000Y222500D02*
X614500Y253000D01*
X574000Y190000D02*
X584000Y200000D01*
X645000Y253000D02*
X650500Y258500D01*
X604500Y212500D02*
X656500D01*
X586000Y256500D02*
X640500Y311000D01*
X307500Y466000D02*
X603000D01*
X675500Y349000D02*
Y393500D01*
X648650Y420350D02*
X675500Y393500D01*
X647021Y426374D02*
X648650Y424746D01*
X603000Y466000D02*
X642626Y426374D01*
X648650Y420350D02*
Y424746D01*
X642626Y426374D02*
X647021D01*
X306000Y360500D02*
X318000Y348500D01*
X305500Y401000D02*
X306000Y400500D01*
Y360500D02*
Y400500D01*
X318000Y348500D02*
X597500D01*
X301000Y262500D02*
Y318000D01*
X311500Y190000D02*
X574000D01*
X304000Y197500D02*
Y217000D01*
Y197500D02*
X311500Y190000D01*
X645500Y302500D02*
Y324000D01*
X650500Y258500D02*
Y311000D01*
X686500Y242500D02*
Y328000D01*
X665500Y349000D02*
X686500Y328000D01*
X607000Y362500D02*
X645500Y324000D01*
X656500Y212500D02*
X686500Y242500D01*
X345500Y343000D02*
X617500D01*
X329000Y326500D02*
X345500Y343000D01*
X607000Y362500D02*
Y454500D01*
X329000Y317519D02*
Y326500D01*
D16*
X604500Y212500D02*
D03*
X579500Y278500D02*
D03*
X560000Y331500D02*
D03*
X353000Y312500D02*
D03*
X307500Y466000D02*
D03*
X286000Y367500D02*
D03*
X301000Y318000D02*
D03*
X304000Y217000D02*
D03*
X635000Y347000D02*
D03*
X675500Y349000D02*
D03*
X660500Y311000D02*
D03*
X665500Y349000D02*
D03*
X634500Y274000D02*
D03*
X640500Y311000D02*
D03*
X617500Y343000D02*
D03*
X650500Y311000D02*
D03*
X671000Y311500D02*
D03*
X645500Y302500D02*
D03*
X305500Y401000D02*
D03*
X597500Y348500D02*
D03*
X496500Y338500D02*
D03*
X607000Y454500D02*
D03*
X329000Y317519D02*
D03*
X288500Y436000D02*
D03*
X578000Y218500D02*
D03*
X285500Y195000D02*
D03*
X286000Y296000D02*
D03*
X345000Y416000D02*
D03*
X578000Y323000D02*
D03*
Y395500D02*
D03*
Y460500D02*
D03*
D44*
X560000Y298000D02*
X579500Y278500D01*
X560000Y298000D02*
Y331500D01*
D45*
X644591Y417000D02*
D03*
D46*
X669000D02*
D03*
D47*
X657189Y435504D02*
D03*
D48*
X686000Y375000D02*
D03*
D49*
X666000D02*
D03*
D50*
X680500Y192500D02*
D03*
Y463000D02*
D03*
X262000Y193500D02*
D03*
Y463000D02*
D03*
M02*
