G04*
G04 #@! TF.GenerationSoftware,Altium Limited,Altium Designer,20.1.12 (249)*
G04*
G04 Layer_Color=65535*
%FSLAX25Y25*%
%MOIN*%
G70*
G04*
G04 #@! TF.SameCoordinates,9558268F-E582-4542-BACD-EEF3D3045912*
G04*
G04*
G04 #@! TF.FilePolarity,Positive*
G04*
G01*
G75*
%ADD10C,0.01000*%
%ADD11C,0.00984*%
%ADD12C,0.00787*%
%ADD13C,0.02362*%
%ADD14C,0.01575*%
%ADD15C,0.00591*%
D10*
X261662Y401125D02*
X261536Y402128D01*
X261164Y403067D01*
X260570Y403885D01*
X259791Y404529D01*
X258877Y404959D01*
X257884Y405148D01*
X256876Y405085D01*
X255915Y404773D01*
X255062Y404231D01*
X254370Y403494D01*
X253883Y402609D01*
X253632Y401630D01*
Y400620D01*
X253883Y399641D01*
X254370Y398756D01*
X255062Y398019D01*
X255915Y397478D01*
X256876Y397165D01*
X257884Y397102D01*
X258877Y397291D01*
X259791Y397721D01*
X260570Y398365D01*
X261164Y399183D01*
X261536Y400122D01*
X261662Y401125D01*
X658531Y188000D02*
X658404Y189003D01*
X658033Y189942D01*
X657439Y190760D01*
X656660Y191404D01*
X655746Y191834D01*
X654753Y192023D01*
X653745Y191960D01*
X652784Y191648D01*
X651931Y191106D01*
X651239Y190369D01*
X650752Y189484D01*
X650501Y188505D01*
Y187495D01*
X650752Y186516D01*
X651239Y185631D01*
X651931Y184894D01*
X652784Y184353D01*
X653745Y184040D01*
X654753Y183977D01*
X655746Y184166D01*
X656660Y184596D01*
X657439Y185240D01*
X658033Y186058D01*
X658404Y186997D01*
X658531Y188000D01*
X642698Y468000D02*
X642571Y469002D01*
X642199Y469942D01*
X641605Y470759D01*
X640827Y471404D01*
X639912Y471834D01*
X638920Y472023D01*
X637911Y471960D01*
X636950Y471648D01*
X636097Y471106D01*
X635405Y470369D01*
X634919Y469484D01*
X634667Y468505D01*
Y467495D01*
X634919Y466516D01*
X635405Y465631D01*
X636097Y464894D01*
X636950Y464353D01*
X637911Y464040D01*
X638920Y463977D01*
X639912Y464166D01*
X640827Y464596D01*
X641605Y465240D01*
X642199Y466058D01*
X642571Y466997D01*
X642698Y468000D01*
X656531Y468000D02*
X656404Y469002D01*
X656033Y469942D01*
X655439Y470759D01*
X654660Y471404D01*
X653746Y471834D01*
X652753Y472023D01*
X651745Y471960D01*
X650784Y471648D01*
X649930Y471106D01*
X649239Y470369D01*
X648752Y469484D01*
X648501Y468505D01*
Y467495D01*
X648752Y466516D01*
X649239Y465631D01*
X649930Y464894D01*
X650784Y464353D01*
X651745Y464040D01*
X652753Y463977D01*
X653746Y464166D01*
X654660Y464596D01*
X655439Y465240D01*
X656033Y466058D01*
X656404Y466997D01*
X656531Y468000D01*
X261662Y419500D02*
X261536Y420503D01*
X261164Y421442D01*
X260570Y422260D01*
X259791Y422904D01*
X258877Y423334D01*
X257884Y423523D01*
X256876Y423460D01*
X255915Y423147D01*
X255062Y422606D01*
X254370Y421869D01*
X253883Y420984D01*
X253632Y420005D01*
Y418995D01*
X253883Y418016D01*
X254370Y417131D01*
X255062Y416394D01*
X255915Y415852D01*
X256876Y415540D01*
X257884Y415477D01*
X258877Y415666D01*
X259791Y416096D01*
X260570Y416741D01*
X261164Y417558D01*
X261536Y418498D01*
X261662Y419500D01*
X615031Y468000D02*
X614904Y469002D01*
X614533Y469942D01*
X613939Y470759D01*
X613160Y471404D01*
X612246Y471834D01*
X611253Y472023D01*
X610245Y471960D01*
X609284Y471648D01*
X608430Y471106D01*
X607739Y470369D01*
X607252Y469484D01*
X607001Y468505D01*
Y467495D01*
X607252Y466516D01*
X607739Y465631D01*
X608430Y464894D01*
X609284Y464353D01*
X610245Y464040D01*
X611253Y463977D01*
X612246Y464166D01*
X613160Y464596D01*
X613939Y465240D01*
X614533Y466058D01*
X614904Y466997D01*
X615031Y468000D01*
X628864Y468000D02*
X628738Y469002D01*
X628366Y469942D01*
X627772Y470759D01*
X626993Y471404D01*
X626079Y471834D01*
X625086Y472023D01*
X624078Y471960D01*
X623117Y471648D01*
X622264Y471106D01*
X621572Y470369D01*
X621085Y469484D01*
X620834Y468505D01*
Y467495D01*
X621085Y466516D01*
X621572Y465631D01*
X622264Y464894D01*
X623117Y464353D01*
X624078Y464040D01*
X625086Y463977D01*
X626079Y464166D01*
X626993Y464596D01*
X627772Y465240D01*
X628366Y466058D01*
X628738Y466997D01*
X628864Y468000D01*
X642198Y188000D02*
X642071Y189003D01*
X641699Y189942D01*
X641105Y190760D01*
X640327Y191404D01*
X639412Y191834D01*
X638420Y192023D01*
X637411Y191960D01*
X636450Y191648D01*
X635597Y191106D01*
X634905Y190369D01*
X634419Y189484D01*
X634167Y188505D01*
Y187495D01*
X634419Y186516D01*
X634905Y185631D01*
X635597Y184894D01*
X636450Y184353D01*
X637411Y184040D01*
X638420Y183977D01*
X639412Y184166D01*
X640327Y184596D01*
X641105Y185240D01*
X641699Y186058D01*
X642071Y186997D01*
X642198Y188000D01*
X609531Y188000D02*
X609405Y189003D01*
X609032Y189942D01*
X608439Y190760D01*
X607660Y191404D01*
X606746Y191834D01*
X605753Y192023D01*
X604745Y191960D01*
X603784Y191648D01*
X602930Y191106D01*
X602239Y190369D01*
X601752Y189484D01*
X601501Y188505D01*
Y187495D01*
X601752Y186516D01*
X602239Y185631D01*
X602930Y184894D01*
X603784Y184353D01*
X604745Y184040D01*
X605753Y183977D01*
X606746Y184166D01*
X607660Y184596D01*
X608439Y185240D01*
X609032Y186058D01*
X609405Y186997D01*
X609531Y188000D01*
X625865Y188000D02*
X625738Y189003D01*
X625366Y189942D01*
X624772Y190760D01*
X623993Y191404D01*
X623079Y191834D01*
X622086Y192023D01*
X621078Y191960D01*
X620117Y191648D01*
X619264Y191106D01*
X618572Y190369D01*
X618085Y189484D01*
X617834Y188505D01*
Y187495D01*
X618085Y186516D01*
X618572Y185631D01*
X619264Y184894D01*
X620117Y184353D01*
X621078Y184040D01*
X622086Y183977D01*
X623079Y184166D01*
X623993Y184596D01*
X624772Y185240D01*
X625366Y186058D01*
X625738Y186997D01*
X625865Y188000D01*
X261662Y382750D02*
X261536Y383752D01*
X261164Y384692D01*
X260570Y385509D01*
X259791Y386154D01*
X258877Y386584D01*
X257884Y386773D01*
X256876Y386710D01*
X255915Y386398D01*
X255062Y385856D01*
X254370Y385119D01*
X253883Y384234D01*
X253632Y383255D01*
Y382245D01*
X253883Y381266D01*
X254370Y380381D01*
X255062Y379644D01*
X255915Y379102D01*
X256876Y378790D01*
X257884Y378727D01*
X258877Y378916D01*
X259791Y379346D01*
X260570Y379991D01*
X261164Y380808D01*
X261536Y381748D01*
X261662Y382750D01*
Y346000D02*
X261536Y347003D01*
X261164Y347942D01*
X260570Y348760D01*
X259791Y349404D01*
X258877Y349834D01*
X257884Y350023D01*
X256876Y349960D01*
X255915Y349647D01*
X255062Y349106D01*
X254370Y348369D01*
X253883Y347484D01*
X253632Y346505D01*
Y345495D01*
X253883Y344516D01*
X254370Y343631D01*
X255062Y342894D01*
X255915Y342353D01*
X256876Y342040D01*
X257884Y341977D01*
X258877Y342166D01*
X259791Y342596D01*
X260570Y343240D01*
X261164Y344058D01*
X261536Y344998D01*
X261662Y346000D01*
Y364375D02*
X261536Y365377D01*
X261164Y366317D01*
X260570Y367134D01*
X259791Y367779D01*
X258877Y368209D01*
X257884Y368398D01*
X256876Y368335D01*
X255915Y368022D01*
X255062Y367481D01*
X254370Y366744D01*
X253883Y365859D01*
X253632Y364880D01*
Y363870D01*
X253883Y362891D01*
X254370Y362006D01*
X255062Y361269D01*
X255915Y360728D01*
X256876Y360415D01*
X257884Y360352D01*
X258877Y360541D01*
X259791Y360971D01*
X260570Y361615D01*
X261164Y362433D01*
X261536Y363372D01*
X261662Y364375D01*
D11*
X640358Y417000D02*
X639620Y417426D01*
Y416574D01*
X640358Y417000D01*
X654130Y375000D02*
X653392Y375426D01*
Y374574D01*
X654130Y375000D01*
X679608Y285122D02*
X678869Y285548D01*
Y284696D01*
X679608Y285122D01*
X679240Y340835D02*
X678502Y341261D01*
Y340408D01*
X679240Y340835D01*
X511429Y321520D02*
X510691Y321946D01*
Y321094D01*
X511429Y321520D01*
X286555Y214980D02*
X285817Y215406D01*
Y214554D01*
X286555Y214980D01*
Y315413D02*
X285817Y315840D01*
Y314987D01*
X286555Y315413D01*
Y386480D02*
X285817Y386907D01*
Y386054D01*
X286555Y386480D01*
X578429Y198020D02*
X577691Y198446D01*
Y197593D01*
X578429Y198020D01*
Y302520D02*
X577691Y302946D01*
Y302094D01*
X578429Y302520D01*
Y373587D02*
X577691Y374013D01*
Y373160D01*
X578429Y373587D01*
X286555Y456980D02*
X285817Y457407D01*
Y456554D01*
X286555Y456980D01*
X353999Y332480D02*
X353261Y332907D01*
Y332054D01*
X353999Y332480D01*
X578429Y440020D02*
X577691Y440446D01*
Y439594D01*
X578429Y440020D01*
D12*
X698331Y399284D02*
X699027Y399572D01*
X699316Y400268D01*
Y433732D02*
X699027Y434428D01*
X698331Y434717D01*
X642307Y399284D02*
X698331D01*
X699315Y400268D02*
Y433732D01*
X642307Y426449D02*
Y434717D01*
X665654D02*
X698331D01*
X642307D02*
X648724D01*
X642228Y399284D02*
Y407551D01*
X695999Y364999D02*
X695999Y385000D01*
X655999Y364999D02*
X656000Y385000D01*
X655999Y364999D02*
X695999D01*
X656000Y385000D02*
X696000D01*
X612877Y386377D02*
Y390707D01*
X618157Y386335D02*
Y390665D01*
X662738Y244752D02*
X667446D01*
X662738Y251248D02*
X667446D01*
X658328Y280299D02*
X678013D01*
X658328Y267701D02*
X678013D01*
Y280299D01*
X658328Y267701D02*
Y280299D01*
X668567Y297071D02*
X678434D01*
X668567Y305929D02*
X678434D01*
X637835Y259457D02*
X642165D01*
X637835Y266543D02*
X642165D01*
X638315Y336799D02*
X677685D01*
X638315Y324201D02*
X677685D01*
Y336799D01*
X638315Y324201D02*
Y336799D01*
X663118Y227047D02*
X667055D01*
X663118Y232953D02*
X667055D01*
X322126Y231149D02*
X326874D01*
X322126Y224850D02*
X326874D01*
X325287Y282009D02*
X329224D01*
X325287Y287324D02*
X329224D01*
X325287Y462157D02*
X329224D01*
X325287Y456843D02*
X329224D01*
X353626Y231149D02*
X358374D01*
X353626Y224850D02*
X358374D01*
X356787Y282009D02*
X360724D01*
X356787Y287324D02*
X360724D01*
X356787Y462157D02*
X360724D01*
X356787Y456843D02*
X360724D01*
X384926Y231149D02*
X389674D01*
X384926Y224850D02*
X389674D01*
X384926Y335649D02*
X389674D01*
X384926Y329350D02*
X389674D01*
X388087Y462157D02*
X392024D01*
X388087Y456843D02*
X392024D01*
X388087Y282009D02*
X392024D01*
X388087Y287324D02*
X392024D01*
X416226Y231149D02*
X420974D01*
X416226Y224850D02*
X420974D01*
X416226Y335649D02*
X420974D01*
X416226Y329350D02*
X420974D01*
X419387Y462157D02*
X423324D01*
X419387Y456843D02*
X423324D01*
X419387Y287324D02*
X423324D01*
X419387Y282009D02*
X423324D01*
X447526Y231149D02*
X452274D01*
X447526Y224850D02*
X452274D01*
X447526Y335649D02*
X452274D01*
X447526Y329350D02*
X452274D01*
X450687Y462157D02*
X454624D01*
X450687Y456843D02*
X454624D01*
X450687Y287324D02*
X454624D01*
X450687Y282009D02*
X454624D01*
X478826Y231149D02*
X483574D01*
X478826Y224850D02*
X483574D01*
X481987Y282009D02*
X485924D01*
X481987Y287324D02*
X485924D01*
X478826Y335649D02*
X483574D01*
X478826Y329350D02*
X483574D01*
X481987Y462157D02*
X485924D01*
X481987Y456843D02*
X485924D01*
X510126Y231149D02*
X514874D01*
X510126Y224850D02*
X514874D01*
X513287Y287324D02*
X517224D01*
X513287Y282009D02*
X517224D01*
X504244Y332150D02*
Y334906D01*
X507787D01*
X504244Y323095D02*
Y325850D01*
Y323095D02*
X507787D01*
X513287Y462157D02*
X517224D01*
X513287Y456843D02*
X517224D01*
X542126Y224850D02*
X546874D01*
X542126Y231149D02*
X546874D01*
X545287Y287324D02*
X549224D01*
X545287Y282009D02*
X549224D01*
X545287Y462157D02*
X549224D01*
X545287Y456843D02*
X549224D01*
X290122Y225850D02*
X292878D01*
X290122Y232150D02*
X292878D01*
X290622Y326350D02*
X293378D01*
X290622Y332650D02*
X293378D01*
X290622Y397850D02*
X293378D01*
X290622Y404150D02*
X293378D01*
X292756Y201594D02*
Y204350D01*
X289213Y201594D02*
X292756D01*
Y210650D02*
Y213405D01*
X289213D02*
X292756D01*
Y302028D02*
Y304783D01*
X289213Y302028D02*
X292756D01*
Y311083D02*
Y313839D01*
X289213D02*
X292756D01*
Y373095D02*
Y375850D01*
X289213Y373095D02*
X292756D01*
Y382150D02*
Y384906D01*
X289213D02*
X292756D01*
X322126Y300816D02*
X326874D01*
X322126Y294517D02*
X326874D01*
X322126Y370483D02*
X326874D01*
X322126Y364183D02*
X326874D01*
X322126Y405316D02*
X326874D01*
X322126Y399017D02*
X326874D01*
X322126Y440149D02*
X326874D01*
X322126Y433850D02*
X326874D01*
X322126Y468350D02*
X326874D01*
X322126Y474649D02*
X326874D01*
X325287Y180842D02*
X329224D01*
X325287Y186158D02*
X329224D01*
X325287Y211842D02*
X329224D01*
X325287Y217158D02*
X329224D01*
X325287Y246926D02*
X329224D01*
X325287Y252241D02*
X329224D01*
X325287Y422342D02*
X329224D01*
X325287Y427658D02*
X329224D01*
X353626Y300816D02*
X358374D01*
X353626Y294517D02*
X358374D01*
X353626Y370483D02*
X358374D01*
X353626Y364183D02*
X358374D01*
X353626Y405316D02*
X358374D01*
X353626Y399017D02*
X358374D01*
X353626Y433850D02*
X358374D01*
X353626Y440149D02*
X358374D01*
X353626Y468350D02*
X358374D01*
X353626Y474649D02*
X358374D01*
X356787Y180842D02*
X360724D01*
X356787Y186158D02*
X360724D01*
X356787Y217158D02*
X360724D01*
X356787Y211842D02*
X360724D01*
X356787Y252241D02*
X360724D01*
X356787Y246926D02*
X360724D01*
X356287Y427658D02*
X360224D01*
X356287Y422342D02*
X360224D01*
X388087Y180842D02*
X392024D01*
X388087Y186158D02*
X392024D01*
X388087Y217158D02*
X392024D01*
X388087Y211842D02*
X392024D01*
X388087Y252241D02*
X392024D01*
X388087Y246926D02*
X392024D01*
X384926Y300816D02*
X389674D01*
X384926Y294517D02*
X389674D01*
X388087Y317092D02*
X392024D01*
X388087Y322408D02*
X392024D01*
X384926Y370483D02*
X389674D01*
X384926Y364183D02*
X389674D01*
X384926Y405316D02*
X389674D01*
X384926Y399017D02*
X389674D01*
X387587Y427658D02*
X391524D01*
X387587Y422342D02*
X391524D01*
X384926Y433850D02*
X389674D01*
X384926Y440149D02*
X389674D01*
X384926Y468350D02*
X389674D01*
X384926Y474649D02*
X389674D01*
X419387Y180842D02*
X423324D01*
X419387Y186158D02*
X423324D01*
X419387Y217158D02*
X423324D01*
X419387Y211842D02*
X423324D01*
X419387Y252241D02*
X423324D01*
X419387Y246926D02*
X423324D01*
X416226Y300816D02*
X420974D01*
X416226Y294517D02*
X420974D01*
X419387Y322408D02*
X423324D01*
X419387Y317092D02*
X423324D01*
X416226Y370483D02*
X420974D01*
X416226Y364183D02*
X420974D01*
X416226Y405316D02*
X420974D01*
X416226Y399017D02*
X420974D01*
X418887Y427658D02*
X422824D01*
X418887Y422342D02*
X422824D01*
X416226Y433850D02*
X420974D01*
X416226Y440149D02*
X420974D01*
X416226Y468350D02*
X420974D01*
X416226Y474649D02*
X420974D01*
X450687Y180842D02*
X454624D01*
X450687Y186158D02*
X454624D01*
X450687Y217158D02*
X454624D01*
X450687Y211842D02*
X454624D01*
X450687Y252241D02*
X454624D01*
X450687Y246926D02*
X454624D01*
X447526Y300816D02*
X452274D01*
X447526Y294517D02*
X452274D01*
X450687Y322408D02*
X454624D01*
X450687Y317092D02*
X454624D01*
X447526Y370483D02*
X452274D01*
X447526Y364183D02*
X452274D01*
X447526Y405316D02*
X452274D01*
X447526Y399017D02*
X452274D01*
X450187Y427658D02*
X454124D01*
X450187Y422342D02*
X454124D01*
X447526Y433850D02*
X452274D01*
X447526Y440149D02*
X452274D01*
X447526Y468350D02*
X452274D01*
X447526Y474649D02*
X452274D01*
X482221Y180842D02*
X486158D01*
X482221Y186158D02*
X486158D01*
X481987Y217158D02*
X485924D01*
X481987Y211842D02*
X485924D01*
X481987Y252241D02*
X485924D01*
X481987Y246926D02*
X485924D01*
X478826Y300816D02*
X483574D01*
X478826Y294517D02*
X483574D01*
X481987Y317092D02*
X485924D01*
X481987Y322408D02*
X485924D01*
X478826Y370483D02*
X483574D01*
X478826Y364183D02*
X483574D01*
X478826Y405316D02*
X483574D01*
X478826Y399017D02*
X483574D01*
X481487Y427658D02*
X485424D01*
X481487Y422342D02*
X485424D01*
X478826Y433850D02*
X483574D01*
X478826Y440149D02*
X483574D01*
X478826Y468350D02*
X483574D01*
X478826Y474649D02*
X483574D01*
X513754Y180842D02*
X517691D01*
X513754Y186158D02*
X517691D01*
X513287Y217158D02*
X517224D01*
X513287Y211842D02*
X517224D01*
X513287Y252241D02*
X517224D01*
X513287Y246926D02*
X517224D01*
X510126Y294517D02*
X514874D01*
X510126Y300816D02*
X514874D01*
X510126Y364183D02*
X514874D01*
X510126Y370483D02*
X514874D01*
X510126Y405316D02*
X514874D01*
X510126Y399017D02*
X514874D01*
X512787Y427658D02*
X516724D01*
X512787Y422342D02*
X516724D01*
X510126Y433850D02*
X514874D01*
X510126Y440149D02*
X514874D01*
X510126Y468350D02*
X514874D01*
X510126Y474649D02*
X514874D01*
X527650Y330122D02*
Y332878D01*
X521350Y330122D02*
Y332878D01*
X545287Y180842D02*
X549224D01*
X545287Y186158D02*
X549224D01*
X545287Y217158D02*
X549224D01*
X545287Y211842D02*
X549224D01*
X545287Y252241D02*
X549224D01*
X545287Y246926D02*
X549224D01*
X542126Y294517D02*
X546874D01*
X542126Y300816D02*
X546874D01*
X542126Y364183D02*
X546874D01*
X542126Y370483D02*
X546874D01*
X542126Y399017D02*
X546874D01*
X542126Y405316D02*
X546874D01*
X545287Y427658D02*
X549224D01*
X545287Y422342D02*
X549224D01*
X542126Y433850D02*
X546874D01*
X542126Y440149D02*
X546874D01*
X542126Y468350D02*
X546874D01*
X542126Y474649D02*
X546874D01*
X571244Y199594D02*
X574787D01*
X571244D02*
Y202350D01*
Y211405D02*
X574787D01*
X571244Y208650D02*
Y211405D01*
Y313150D02*
Y315905D01*
X574787D01*
X571244Y304095D02*
Y306850D01*
Y304095D02*
X574787D01*
X571244Y384217D02*
Y386972D01*
X574787D01*
X571244Y375161D02*
Y377917D01*
Y375161D02*
X574787D01*
X588350Y205622D02*
Y208378D01*
X594650Y205622D02*
Y208378D01*
X588350Y310622D02*
Y313378D01*
X594650Y310622D02*
Y313378D01*
X290622Y472650D02*
X293378D01*
X290622Y466350D02*
X293378D01*
X292756Y443595D02*
Y446350D01*
X289213Y443595D02*
X292756D01*
Y452650D02*
Y455406D01*
X289213D02*
X292756D01*
X322126Y200650D02*
X326874D01*
X322126Y194350D02*
X326874D01*
X322126Y265983D02*
X326874D01*
X322126Y259683D02*
X326874D01*
X325287Y352176D02*
X329224D01*
X325287Y357491D02*
X329224D01*
X325287Y387259D02*
X329224D01*
X325287Y392574D02*
X329224D01*
X337850Y321622D02*
Y324378D01*
X344150Y321622D02*
Y324378D01*
X353626Y200650D02*
X358374D01*
X353626Y194350D02*
X358374D01*
X353626Y265983D02*
X358374D01*
X353626Y259683D02*
X358374D01*
X360200Y319094D02*
Y321850D01*
X356657Y319094D02*
X360200D01*
Y328150D02*
Y330906D01*
X356657D02*
X360200D01*
X356787Y352176D02*
X360724D01*
X356787Y357491D02*
X360724D01*
X356787Y392574D02*
X360724D01*
X356787Y387259D02*
X360724D01*
X384926Y200650D02*
X389674D01*
X384926Y194350D02*
X389674D01*
X384926Y265983D02*
X389674D01*
X384926Y259683D02*
X389674D01*
X388087Y352176D02*
X392024D01*
X388087Y357491D02*
X392024D01*
X388087Y392574D02*
X392024D01*
X388087Y387259D02*
X392024D01*
X416226Y200650D02*
X420974D01*
X416226Y194350D02*
X420974D01*
X416226Y265983D02*
X420974D01*
X416226Y259683D02*
X420974D01*
X419387Y357491D02*
X423324D01*
X419387Y352176D02*
X423324D01*
X419387Y392574D02*
X423324D01*
X419387Y387259D02*
X423324D01*
X447526Y200650D02*
X452274D01*
X447526Y194350D02*
X452274D01*
X447526Y265983D02*
X452274D01*
X447526Y259683D02*
X452274D01*
X450687Y357491D02*
X454624D01*
X450687Y352176D02*
X454624D01*
X450687Y392574D02*
X454624D01*
X450687Y387259D02*
X454624D01*
X478826Y200650D02*
X483574D01*
X478826Y194350D02*
X483574D01*
X478826Y265983D02*
X483574D01*
X478826Y259683D02*
X483574D01*
X481987Y352176D02*
X485924D01*
X481987Y357491D02*
X485924D01*
X481987Y392574D02*
X485924D01*
X481987Y387259D02*
X485924D01*
X510126Y200650D02*
X514874D01*
X510126Y194350D02*
X514874D01*
X510126Y265983D02*
X514874D01*
X510126Y259683D02*
X514874D01*
X513287Y357491D02*
X517224D01*
X513287Y352176D02*
X517224D01*
X513287Y392574D02*
X517224D01*
X513287Y387259D02*
X517224D01*
X542126Y200650D02*
X546874D01*
X542126Y194350D02*
X546874D01*
X542126Y259683D02*
X546874D01*
X542126Y265983D02*
X546874D01*
X545287Y357491D02*
X549224D01*
X545287Y352176D02*
X549224D01*
X545287Y392574D02*
X549224D01*
X545287Y387259D02*
X549224D01*
X571244Y450650D02*
Y453406D01*
X574787D01*
X571244Y441595D02*
Y444350D01*
Y441595D02*
X574787D01*
X588350Y381122D02*
Y383878D01*
X594650Y381122D02*
Y383878D01*
X588350Y447622D02*
Y450378D01*
X594650Y447622D02*
Y450378D01*
D13*
X675257Y276362D02*
X674813Y277286D01*
X673813Y277514D01*
X673012Y276875D01*
Y275850D01*
X673813Y275211D01*
X674813Y275439D01*
X675257Y276362D01*
X674929Y332862D02*
X674484Y333786D01*
X673485Y334014D01*
X672684Y333375D01*
Y332350D01*
X673485Y331711D01*
X674484Y331939D01*
X674929Y332862D01*
D14*
X312689Y224850D02*
Y231149D01*
X344189Y224850D02*
Y231149D01*
X375489Y224850D02*
Y231149D01*
Y329350D02*
Y335649D01*
X406789Y224850D02*
Y231149D01*
Y329350D02*
Y335649D01*
X438089Y224850D02*
Y231149D01*
Y329350D02*
Y335649D01*
X469389Y224850D02*
Y231149D01*
Y329350D02*
Y335649D01*
X500689Y224850D02*
Y231149D01*
X532689Y224850D02*
Y231149D01*
X312689Y294517D02*
Y300816D01*
Y364183D02*
Y370483D01*
Y399017D02*
Y405316D01*
Y433850D02*
Y440149D01*
Y468350D02*
Y474649D01*
X344189Y294517D02*
Y300816D01*
Y364183D02*
Y370483D01*
Y399017D02*
Y405316D01*
Y433850D02*
Y440149D01*
Y468350D02*
Y474649D01*
X375489Y294517D02*
Y300816D01*
Y364183D02*
Y370483D01*
Y399017D02*
Y405316D01*
Y433850D02*
Y440149D01*
Y468350D02*
Y474649D01*
X406789Y294517D02*
Y300816D01*
Y364183D02*
Y370483D01*
Y399017D02*
Y405316D01*
Y433850D02*
Y440149D01*
Y468350D02*
Y474649D01*
X438089Y294517D02*
Y300816D01*
Y364183D02*
Y370483D01*
Y399017D02*
Y405316D01*
Y433850D02*
Y440149D01*
Y468350D02*
Y474649D01*
X469389Y294517D02*
Y300816D01*
Y364183D02*
Y370483D01*
Y399017D02*
Y405316D01*
Y433850D02*
Y440149D01*
Y468350D02*
Y474649D01*
X500689Y294517D02*
Y300816D01*
X500689Y364183D02*
Y370483D01*
X500689Y399017D02*
Y405316D01*
X500689Y433850D02*
Y440149D01*
Y468350D02*
Y474649D01*
X532689Y294517D02*
Y300816D01*
Y364183D02*
Y370483D01*
Y399017D02*
Y405316D01*
Y433850D02*
Y440149D01*
Y468350D02*
Y474649D01*
X312689Y194350D02*
Y200650D01*
Y259683D02*
Y265983D01*
X344189Y194350D02*
Y200650D01*
Y259683D02*
Y265983D01*
X375489Y194350D02*
Y200650D01*
Y259683D02*
Y265983D01*
X406789Y194350D02*
Y200650D01*
Y259683D02*
Y265983D01*
X438089Y194350D02*
Y200650D01*
Y259683D02*
Y265983D01*
X469389Y194350D02*
Y200650D01*
Y259683D02*
Y265983D01*
X500689Y194350D02*
Y200650D01*
Y259683D02*
Y265983D01*
X532689Y194350D02*
Y200650D01*
Y259683D02*
Y265983D01*
D15*
X255830Y410849D02*
X255305Y411374D01*
X254256D01*
X253731Y410849D01*
Y408750D01*
X254256Y408225D01*
X255305D01*
X255830Y408750D01*
X258979Y411374D02*
X257929Y410849D01*
X256880Y409799D01*
Y408750D01*
X257404Y408225D01*
X258454D01*
X258979Y408750D01*
Y409274D01*
X258454Y409799D01*
X256880D01*
X652699Y197724D02*
X652174Y198249D01*
X651125D01*
X650600Y197724D01*
Y195625D01*
X651125Y195100D01*
X652174D01*
X652699Y195625D01*
X653749Y195100D02*
X654798D01*
X654273D01*
Y198249D01*
X653749D01*
X656372Y195100D02*
Y198249D01*
Y196150D02*
X657947Y197199D01*
X656372Y196150D02*
X657947Y195100D01*
X636866Y478249D02*
X634767D01*
Y476674D01*
X635816Y477199D01*
X636341D01*
X636866Y476674D01*
Y475625D01*
X636341Y475100D01*
X635291D01*
X634767Y475625D01*
X637915Y477199D02*
X638965Y475100D01*
X640014Y477199D01*
X650699Y477724D02*
X650174Y478249D01*
X649125D01*
X648600Y477724D01*
Y475625D01*
X649125Y475100D01*
X650174D01*
X650699Y475625D01*
Y476674D01*
X649649D01*
X651749Y475100D02*
Y478249D01*
X653848Y475100D01*
Y478249D01*
X654897D02*
Y475100D01*
X656471D01*
X656996Y475625D01*
Y477724D01*
X656471Y478249D01*
X654897D01*
X255830Y429224D02*
X255305Y429749D01*
X254256D01*
X253731Y429224D01*
Y427125D01*
X254256Y426600D01*
X255305D01*
X255830Y427125D01*
X258979Y429749D02*
X256880D01*
Y428174D01*
X257929Y428699D01*
X258454D01*
X258979Y428174D01*
Y427125D01*
X258454Y426600D01*
X257404D01*
X256880Y427125D01*
X609199Y477724D02*
X608674Y478249D01*
X607625D01*
X607100Y477724D01*
Y475625D01*
X607625Y475100D01*
X608674D01*
X609199Y475625D01*
X611823Y475100D02*
Y478249D01*
X610249Y476674D01*
X612348D01*
X623032Y477724D02*
X622508Y478249D01*
X621458D01*
X620933Y477724D01*
Y475625D01*
X621458Y475100D01*
X622508D01*
X623032Y475625D01*
X624082Y477724D02*
X624607Y478249D01*
X625656D01*
X626181Y477724D01*
Y477199D01*
X625656Y476674D01*
X625132D01*
X625656D01*
X626181Y476150D01*
Y475625D01*
X625656Y475100D01*
X624607D01*
X624082Y475625D01*
X636366Y197724D02*
X635841Y198249D01*
X634791D01*
X634267Y197724D01*
Y195625D01*
X634791Y195100D01*
X635841D01*
X636366Y195625D01*
X637415Y195100D02*
X638465D01*
X637940D01*
Y198249D01*
X637415Y197724D01*
X603699D02*
X603174Y198249D01*
X602125D01*
X601600Y197724D01*
Y195625D01*
X602125Y195100D01*
X603174D01*
X603699Y195625D01*
X604749Y197724D02*
X605273Y198249D01*
X606323D01*
X606848Y197724D01*
Y195625D01*
X606323Y195100D01*
X605273D01*
X604749Y195625D01*
Y197724D01*
X620032D02*
X619508Y198249D01*
X618458D01*
X617933Y197724D01*
Y195625D01*
X618458Y195100D01*
X619508D01*
X620032Y195625D01*
X623181Y195100D02*
X621082D01*
X623181Y197199D01*
Y197724D01*
X622656Y198249D01*
X621607D01*
X621082Y197724D01*
X255830Y392474D02*
X255305Y392999D01*
X254256D01*
X253731Y392474D01*
Y390375D01*
X254256Y389850D01*
X255305D01*
X255830Y390375D01*
X256880Y392999D02*
X258979D01*
Y392474D01*
X256880Y390375D01*
Y389850D01*
X255830Y355724D02*
X255305Y356249D01*
X254256D01*
X253731Y355724D01*
Y353625D01*
X254256Y353100D01*
X255305D01*
X255830Y353625D01*
X256880D02*
X257404Y353100D01*
X258454D01*
X258979Y353625D01*
Y355724D01*
X258454Y356249D01*
X257404D01*
X256880Y355724D01*
Y355199D01*
X257404Y354674D01*
X258979D01*
X255830Y374099D02*
X255305Y374624D01*
X254256D01*
X253731Y374099D01*
Y372000D01*
X254256Y371475D01*
X255305D01*
X255830Y372000D01*
X256880Y374099D02*
X257404Y374624D01*
X258454D01*
X258979Y374099D01*
Y373574D01*
X258454Y373049D01*
X258979Y372524D01*
Y372000D01*
X258454Y371475D01*
X257404D01*
X256880Y372000D01*
Y372524D01*
X257404Y373049D01*
X256880Y373574D01*
Y374099D01*
X257404Y373049D02*
X258454D01*
X566090Y423789D02*
Y420640D01*
X567665D01*
X568190Y421165D01*
Y421690D01*
X567665Y422214D01*
X566090D01*
X567665D01*
X568190Y422739D01*
Y423264D01*
X567665Y423789D01*
X566090D01*
X569239Y422739D02*
Y421165D01*
X569764Y420640D01*
X571338D01*
Y420115D01*
X570813Y419591D01*
X570289D01*
X571338Y420640D02*
Y422739D01*
X577635Y423789D02*
X576586D01*
X577111D01*
Y421165D01*
X576586Y420640D01*
X576061D01*
X575536Y421165D01*
X579210Y422739D02*
X580259D01*
X580784Y422214D01*
Y420640D01*
X579210D01*
X578685Y421165D01*
X579210Y421690D01*
X580784D01*
X581834Y420640D02*
Y423789D01*
Y421690D02*
X583408Y422739D01*
X581834Y421690D02*
X583408Y420640D01*
X586556D02*
X585507D01*
X584982Y421165D01*
Y422214D01*
X585507Y422739D01*
X586556D01*
X587081Y422214D01*
Y421690D01*
X584982D01*
X591279Y423789D02*
Y420640D01*
Y422214D01*
X593378D01*
Y423789D01*
Y420640D01*
X594953Y422739D02*
X596002D01*
X596527Y422214D01*
Y420640D01*
X594953D01*
X594428Y421165D01*
X594953Y421690D01*
X596527D01*
X598101Y420640D02*
Y423264D01*
Y422214D01*
X597576D01*
X598626D01*
X598101D01*
Y423264D01*
X598626Y423789D01*
X601775Y420640D02*
X600725D01*
X600200Y421165D01*
Y422214D01*
X600725Y422739D01*
X601775D01*
X602299Y422214D01*
Y421690D01*
X600200D01*
X603349Y420640D02*
X604398D01*
X603874D01*
Y423789D01*
X603349D01*
X607547Y420640D02*
X606497D01*
X605973Y421165D01*
Y422214D01*
X606497Y422739D01*
X607547D01*
X608072Y422214D01*
Y421690D01*
X605973D01*
X566090Y428140D02*
Y431289D01*
X567140Y430239D01*
X568190Y431289D01*
Y428140D01*
X570813D02*
X569764D01*
X569239Y428665D01*
Y429714D01*
X569764Y430239D01*
X570813D01*
X571338Y429714D01*
Y429190D01*
X569239D01*
X572388Y430239D02*
Y428140D01*
Y429190D01*
X572913Y429714D01*
X573437Y430239D01*
X573962D01*
X575536D02*
Y428140D01*
Y429190D01*
X576061Y429714D01*
X576586Y430239D01*
X577111D01*
X578685D02*
Y428665D01*
X579210Y428140D01*
X580784D01*
Y427615D01*
X580259Y427091D01*
X579734D01*
X580784Y428140D02*
Y430239D01*
X587081Y430764D02*
X586556Y431289D01*
X585507D01*
X584982Y430764D01*
Y428665D01*
X585507Y428140D01*
X586556D01*
X587081Y428665D01*
X588131Y431289D02*
Y428140D01*
Y429714D01*
X588655Y430239D01*
X589705D01*
X590230Y429714D01*
Y428140D01*
X591279Y430239D02*
Y428140D01*
Y429190D01*
X591804Y429714D01*
X592329Y430239D01*
X592854D01*
X594428Y428140D02*
X595477D01*
X594953D01*
Y430239D01*
X594428D01*
X597052Y428140D02*
X598626D01*
X599151Y428665D01*
X598626Y429190D01*
X597577D01*
X597052Y429714D01*
X597577Y430239D01*
X599151D01*
X600725Y430764D02*
Y430239D01*
X600200D01*
X601250D01*
X600725D01*
Y428665D01*
X601250Y428140D01*
X602824D02*
Y430239D01*
X603349D01*
X603874Y429714D01*
Y428140D01*
Y429714D01*
X604398Y430239D01*
X604923Y429714D01*
Y428140D01*
X606497Y430239D02*
X607547D01*
X608072Y429714D01*
Y428140D01*
X606497D01*
X605973Y428665D01*
X606497Y429190D01*
X608072D01*
X609121Y428140D02*
X610696D01*
X611220Y428665D01*
X610696Y429190D01*
X609646D01*
X609121Y429714D01*
X609646Y430239D01*
X611220D01*
X612270Y429190D02*
Y431813D01*
Y428665D02*
Y428140D01*
X650500Y446574D02*
X649450D01*
X649975D01*
Y443951D01*
X649450Y443426D01*
X648926D01*
X648401Y443951D01*
X651549Y443426D02*
X652599D01*
X652074D01*
Y446574D01*
X651549Y446049D01*
X673697Y392549D02*
X673173Y393074D01*
X672123D01*
X671598Y392549D01*
Y392025D01*
X672123Y391500D01*
X673173D01*
X673697Y390975D01*
Y390451D01*
X673173Y389926D01*
X672123D01*
X671598Y390451D01*
X674747Y393074D02*
Y389926D01*
X675796Y390975D01*
X676846Y389926D01*
Y393074D01*
X677895Y389926D02*
X678945D01*
X678420D01*
Y393074D01*
X677895Y392549D01*
X615199Y397949D02*
X613100D01*
Y396374D01*
X614150D01*
X613100D01*
Y394800D01*
X616249D02*
X617298D01*
X616773D01*
Y397949D01*
X616249Y397424D01*
X642302Y246426D02*
Y249574D01*
X643876D01*
X644401Y249049D01*
Y248000D01*
X643876Y247475D01*
X642302D01*
X643351D02*
X644401Y246426D01*
X645450Y249049D02*
X645975Y249574D01*
X647025D01*
X647549Y249049D01*
Y248525D01*
X647025Y248000D01*
X646500D01*
X647025D01*
X647549Y247475D01*
Y246951D01*
X647025Y246426D01*
X645975D01*
X645450Y246951D01*
X650698Y246426D02*
X648599D01*
X650698Y248525D01*
Y249049D01*
X650173Y249574D01*
X649124D01*
X648599Y249049D01*
X651401Y285074D02*
Y282451D01*
X651926Y281926D01*
X652975D01*
X653500Y282451D01*
Y285074D01*
X654550Y281926D02*
X655599D01*
X655074D01*
Y285074D01*
X654550Y284549D01*
X662975Y301550D02*
X662451Y302074D01*
X661401D01*
X660876Y301550D01*
Y299450D01*
X661401Y298926D01*
X662451D01*
X662975Y299450D01*
X666124Y298926D02*
X664025D01*
X666124Y301025D01*
Y301550D01*
X665599Y302074D01*
X664549D01*
X664025Y301550D01*
X645500Y275049D02*
X644975Y275574D01*
X643926D01*
X643401Y275049D01*
Y272951D01*
X643926Y272426D01*
X644975D01*
X645500Y272951D01*
X646550Y272426D02*
X647599D01*
X647074D01*
Y275574D01*
X646550Y275049D01*
X638400Y349549D02*
Y346925D01*
X638925Y346400D01*
X639974D01*
X640499Y346925D01*
Y349549D01*
X643648Y346400D02*
X641549D01*
X643648Y348499D01*
Y349024D01*
X643123Y349549D01*
X642073D01*
X641549Y349024D01*
X643302Y228926D02*
Y232074D01*
X644876D01*
X645401Y231550D01*
Y230500D01*
X644876Y229975D01*
X643302D01*
X644351D02*
X645401Y228926D01*
X646451Y231550D02*
X646975Y232074D01*
X648025D01*
X648550Y231550D01*
Y231025D01*
X648025Y230500D01*
X647500D01*
X648025D01*
X648550Y229975D01*
Y229450D01*
X648025Y228926D01*
X646975D01*
X646451Y229450D01*
X649599Y231550D02*
X650124Y232074D01*
X651173D01*
X651698Y231550D01*
Y231025D01*
X651173Y230500D01*
X650649D01*
X651173D01*
X651698Y229975D01*
Y229450D01*
X651173Y228926D01*
X650124D01*
X649599Y229450D01*
X317516Y235497D02*
Y232349D01*
X319090D01*
X319615Y232874D01*
Y234973D01*
X319090Y235497D01*
X317516D01*
X322764Y234973D02*
X322239Y235497D01*
X321189D01*
X320665Y234973D01*
Y234448D01*
X321189Y233923D01*
X322239D01*
X322764Y233398D01*
Y232874D01*
X322239Y232349D01*
X321189D01*
X320665Y232874D01*
X325912Y235497D02*
X323813D01*
Y233923D01*
X324863Y234448D01*
X325388D01*
X325912Y233923D01*
Y232874D01*
X325388Y232349D01*
X324338D01*
X323813Y232874D01*
X326962Y234973D02*
X327486Y235497D01*
X328536D01*
X329061Y234973D01*
Y234448D01*
X328536Y233923D01*
X329061Y233398D01*
Y232874D01*
X328536Y232349D01*
X327486D01*
X326962Y232874D01*
Y233398D01*
X327486Y233923D01*
X326962Y234448D01*
Y234973D01*
X327486Y233923D02*
X328536D01*
X322547Y289389D02*
Y292537D01*
X324121D01*
X324646Y292013D01*
Y290963D01*
X324121Y290438D01*
X322547D01*
X323596D02*
X324646Y289389D01*
X327794Y292537D02*
X326745Y292013D01*
X325695Y290963D01*
Y289914D01*
X326220Y289389D01*
X327270D01*
X327794Y289914D01*
Y290438D01*
X327270Y290963D01*
X325695D01*
X328844Y292013D02*
X329369Y292537D01*
X330418D01*
X330943Y292013D01*
Y291488D01*
X330418Y290963D01*
X329893D01*
X330418D01*
X330943Y290438D01*
Y289914D01*
X330418Y289389D01*
X329369D01*
X328844Y289914D01*
X322302Y463926D02*
Y467074D01*
X323876D01*
X324401Y466549D01*
Y465500D01*
X323876Y464975D01*
X322302D01*
X323351D02*
X324401Y463926D01*
X327550Y467074D02*
X325450D01*
Y465500D01*
X326500Y466025D01*
X327025D01*
X327550Y465500D01*
Y464451D01*
X327025Y463926D01*
X325975D01*
X325450Y464451D01*
X330698Y463926D02*
X328599D01*
X330698Y466025D01*
Y466549D01*
X330173Y467074D01*
X329124D01*
X328599Y466549D01*
X344000Y237649D02*
Y234500D01*
X345574D01*
X346099Y235025D01*
Y237124D01*
X345574Y237649D01*
X344000D01*
X349248Y237124D02*
X348723Y237649D01*
X347673D01*
X347149Y237124D01*
Y236599D01*
X347673Y236074D01*
X348723D01*
X349248Y235549D01*
Y235025D01*
X348723Y234500D01*
X347673D01*
X347149Y235025D01*
X352396Y234500D02*
X350297D01*
X352396Y236599D01*
Y237124D01*
X351871Y237649D01*
X350822D01*
X350297Y237124D01*
X355545Y237649D02*
X353446D01*
Y236074D01*
X354495Y236599D01*
X355020D01*
X355545Y236074D01*
Y235025D01*
X355020Y234500D01*
X353971D01*
X353446Y235025D01*
X354026Y289389D02*
Y292537D01*
X355600D01*
X356125Y292013D01*
Y290963D01*
X355600Y290438D01*
X354026D01*
X355076D02*
X356125Y289389D01*
X359274Y292537D02*
X358224Y292013D01*
X357175Y290963D01*
Y289914D01*
X357699Y289389D01*
X358749D01*
X359274Y289914D01*
Y290438D01*
X358749Y290963D01*
X357175D01*
X362422Y289389D02*
X360323D01*
X362422Y291488D01*
Y292013D01*
X361898Y292537D01*
X360848D01*
X360323Y292013D01*
X354827Y463926D02*
Y467074D01*
X356401D01*
X356926Y466549D01*
Y465500D01*
X356401Y464975D01*
X354827D01*
X355876D02*
X356926Y463926D01*
X360074Y467074D02*
X357975D01*
Y465500D01*
X359025Y466025D01*
X359549D01*
X360074Y465500D01*
Y464451D01*
X359549Y463926D01*
X358500D01*
X357975Y464451D01*
X361124Y463926D02*
X362173D01*
X361649D01*
Y467074D01*
X361124Y466549D01*
X375300Y237649D02*
Y234500D01*
X376874D01*
X377399Y235025D01*
Y237124D01*
X376874Y237649D01*
X375300D01*
X380548Y237124D02*
X380023Y237649D01*
X378973D01*
X378449Y237124D01*
Y236599D01*
X378973Y236074D01*
X380023D01*
X380548Y235549D01*
Y235025D01*
X380023Y234500D01*
X378973D01*
X378449Y235025D01*
X383696Y234500D02*
X381597D01*
X383696Y236599D01*
Y237124D01*
X383172Y237649D01*
X382122D01*
X381597Y237124D01*
X386845Y237649D02*
X385795Y237124D01*
X384746Y236074D01*
Y235025D01*
X385271Y234500D01*
X386320D01*
X386845Y235025D01*
Y235549D01*
X386320Y236074D01*
X384746D01*
X375300Y342149D02*
Y339000D01*
X376874D01*
X377399Y339525D01*
Y341624D01*
X376874Y342149D01*
X375300D01*
X380548Y341624D02*
X380023Y342149D01*
X378973D01*
X378449Y341624D01*
Y341099D01*
X378973Y340574D01*
X380023D01*
X380548Y340050D01*
Y339525D01*
X380023Y339000D01*
X378973D01*
X378449Y339525D01*
X383696Y342149D02*
X382647Y341624D01*
X381597Y340574D01*
Y339525D01*
X382122Y339000D01*
X383172D01*
X383696Y339525D01*
Y340050D01*
X383172Y340574D01*
X381597D01*
X386320Y339000D02*
Y342149D01*
X384746Y340574D01*
X386845D01*
X385302Y463926D02*
Y467074D01*
X386876D01*
X387401Y466549D01*
Y465500D01*
X386876Y464975D01*
X385302D01*
X386351D02*
X387401Y463926D01*
X390549Y467074D02*
X388451D01*
Y465500D01*
X389500Y466025D01*
X390025D01*
X390549Y465500D01*
Y464451D01*
X390025Y463926D01*
X388975D01*
X388451Y464451D01*
X391599Y466549D02*
X392124Y467074D01*
X393173D01*
X393698Y466549D01*
Y464451D01*
X393173Y463926D01*
X392124D01*
X391599Y464451D01*
Y466549D01*
X384326Y289320D02*
Y292469D01*
X385900D01*
X386425Y291944D01*
Y290895D01*
X385900Y290370D01*
X384326D01*
X385376D02*
X386425Y289320D01*
X387475Y292469D02*
X389574D01*
Y291944D01*
X387475Y289845D01*
Y289320D01*
X392722D02*
X390623D01*
X392722Y291420D01*
Y291944D01*
X392198Y292469D01*
X391148D01*
X390623Y291944D01*
X406600Y237649D02*
Y234500D01*
X408174D01*
X408699Y235025D01*
Y237124D01*
X408174Y237649D01*
X406600D01*
X411848Y237124D02*
X411323Y237649D01*
X410273D01*
X409749Y237124D01*
Y236599D01*
X410273Y236074D01*
X411323D01*
X411848Y235549D01*
Y235025D01*
X411323Y234500D01*
X410273D01*
X409749Y235025D01*
X414996Y234500D02*
X412897D01*
X414996Y236599D01*
Y237124D01*
X414471Y237649D01*
X413422D01*
X412897Y237124D01*
X416046Y237649D02*
X418145D01*
Y237124D01*
X416046Y235025D01*
Y234500D01*
X406600Y342149D02*
Y339000D01*
X408174D01*
X408699Y339525D01*
Y341624D01*
X408174Y342149D01*
X406600D01*
X411848Y341624D02*
X411323Y342149D01*
X410273D01*
X409749Y341624D01*
Y341099D01*
X410273Y340574D01*
X411323D01*
X411848Y340050D01*
Y339525D01*
X411323Y339000D01*
X410273D01*
X409749Y339525D01*
X412897Y339000D02*
X413947D01*
X413422D01*
Y342149D01*
X412897Y341624D01*
X417620Y342149D02*
X415521D01*
Y340574D01*
X416571Y341099D01*
X417095D01*
X417620Y340574D01*
Y339525D01*
X417095Y339000D01*
X416046D01*
X415521Y339525D01*
X416302Y463926D02*
Y467074D01*
X417876D01*
X418401Y466549D01*
Y465500D01*
X417876Y464975D01*
X416302D01*
X417351D02*
X418401Y463926D01*
X421025D02*
Y467074D01*
X419451Y465500D01*
X421550D01*
X422599Y464451D02*
X423124Y463926D01*
X424173D01*
X424698Y464451D01*
Y466549D01*
X424173Y467074D01*
X423124D01*
X422599Y466549D01*
Y466025D01*
X423124Y465500D01*
X424698D01*
X415367Y289441D02*
Y292590D01*
X416942D01*
X417466Y292065D01*
Y291016D01*
X416942Y290491D01*
X415367D01*
X416417D02*
X417466Y289441D01*
X418516D02*
X419565D01*
X419041D01*
Y292590D01*
X418516Y292065D01*
X421140Y292590D02*
X423239D01*
Y292065D01*
X421140Y289966D01*
Y289441D01*
X437900Y237649D02*
Y234500D01*
X439474D01*
X439999Y235025D01*
Y237124D01*
X439474Y237649D01*
X437900D01*
X443148Y237124D02*
X442623Y237649D01*
X441573D01*
X441049Y237124D01*
Y236599D01*
X441573Y236074D01*
X442623D01*
X443148Y235549D01*
Y235025D01*
X442623Y234500D01*
X441573D01*
X441049Y235025D01*
X446296Y234500D02*
X444197D01*
X446296Y236599D01*
Y237124D01*
X445772Y237649D01*
X444722D01*
X444197Y237124D01*
X447346D02*
X447870Y237649D01*
X448920D01*
X449445Y237124D01*
Y236599D01*
X448920Y236074D01*
X449445Y235549D01*
Y235025D01*
X448920Y234500D01*
X447870D01*
X447346Y235025D01*
Y235549D01*
X447870Y236074D01*
X447346Y236599D01*
Y237124D01*
X447870Y236074D02*
X448920D01*
X437900Y342149D02*
Y339000D01*
X439474D01*
X439999Y339525D01*
Y341624D01*
X439474Y342149D01*
X437900D01*
X443148Y341624D02*
X442623Y342149D01*
X441573D01*
X441049Y341624D01*
Y341099D01*
X441573Y340574D01*
X442623D01*
X443148Y340050D01*
Y339525D01*
X442623Y339000D01*
X441573D01*
X441049Y339525D01*
X444197Y339000D02*
X445247D01*
X444722D01*
Y342149D01*
X444197Y341624D01*
X448920Y342149D02*
X447870Y341624D01*
X446821Y340574D01*
Y339525D01*
X447346Y339000D01*
X448395D01*
X448920Y339525D01*
Y340050D01*
X448395Y340574D01*
X446821D01*
X448457Y463926D02*
Y467074D01*
X450032D01*
X450557Y466549D01*
Y465500D01*
X450032Y464975D01*
X448457D01*
X449507D02*
X450557Y463926D01*
X453180D02*
Y467074D01*
X451606Y465500D01*
X453705D01*
X454755Y466549D02*
X455279Y467074D01*
X456329D01*
X456854Y466549D01*
Y466025D01*
X456329Y465500D01*
X456854Y464975D01*
Y464451D01*
X456329Y463926D01*
X455279D01*
X454755Y464451D01*
Y464975D01*
X455279Y465500D01*
X454755Y466025D01*
Y466549D01*
X455279Y465500D02*
X456329D01*
X446667Y289441D02*
Y292590D01*
X448242D01*
X448767Y292065D01*
Y291016D01*
X448242Y290491D01*
X446667D01*
X447717D02*
X448767Y289441D01*
X449816D02*
X450866D01*
X450341D01*
Y292590D01*
X449816Y292065D01*
X452440D02*
X452965Y292590D01*
X454014D01*
X454539Y292065D01*
Y291541D01*
X454014Y291016D01*
X454539Y290491D01*
Y289966D01*
X454014Y289441D01*
X452965D01*
X452440Y289966D01*
Y290491D01*
X452965Y291016D01*
X452440Y291541D01*
Y292065D01*
X452965Y291016D02*
X454014D01*
X469200Y237649D02*
Y234500D01*
X470774D01*
X471299Y235025D01*
Y237124D01*
X470774Y237649D01*
X469200D01*
X474448Y237124D02*
X473923Y237649D01*
X472873D01*
X472349Y237124D01*
Y236599D01*
X472873Y236074D01*
X473923D01*
X474448Y235549D01*
Y235025D01*
X473923Y234500D01*
X472873D01*
X472349Y235025D01*
X477596Y234500D02*
X475497D01*
X477596Y236599D01*
Y237124D01*
X477072Y237649D01*
X476022D01*
X475497Y237124D01*
X478646Y235025D02*
X479171Y234500D01*
X480220D01*
X480745Y235025D01*
Y237124D01*
X480220Y237649D01*
X479171D01*
X478646Y237124D01*
Y236599D01*
X479171Y236074D01*
X480745D01*
X479737Y289314D02*
Y292462D01*
X481312D01*
X481836Y291937D01*
Y290888D01*
X481312Y290363D01*
X479737D01*
X480787D02*
X481836Y289314D01*
X482886Y292462D02*
X484985D01*
Y291937D01*
X482886Y289838D01*
Y289314D01*
X487609D02*
Y292462D01*
X486035Y290888D01*
X488134D01*
X469200Y342149D02*
Y339000D01*
X470774D01*
X471299Y339525D01*
Y341624D01*
X470774Y342149D01*
X469200D01*
X474448Y341624D02*
X473923Y342149D01*
X472873D01*
X472349Y341624D01*
Y341099D01*
X472873Y340574D01*
X473923D01*
X474448Y340050D01*
Y339525D01*
X473923Y339000D01*
X472873D01*
X472349Y339525D01*
X477596Y342149D02*
X476547Y341624D01*
X475497Y340574D01*
Y339525D01*
X476022Y339000D01*
X477072D01*
X477596Y339525D01*
Y340050D01*
X477072Y340574D01*
X475497D01*
X478646Y341624D02*
X479171Y342149D01*
X480220D01*
X480745Y341624D01*
Y341099D01*
X480220Y340574D01*
X480745Y340050D01*
Y339525D01*
X480220Y339000D01*
X479171D01*
X478646Y339525D01*
Y340050D01*
X479171Y340574D01*
X478646Y341099D01*
Y341624D01*
X479171Y340574D02*
X480220D01*
X479746Y464147D02*
Y467296D01*
X481321D01*
X481845Y466771D01*
Y465721D01*
X481321Y465197D01*
X479746D01*
X480796D02*
X481845Y464147D01*
X484469D02*
Y467296D01*
X482895Y465721D01*
X484994D01*
X486044Y467296D02*
X488143D01*
Y466771D01*
X486044Y464672D01*
Y464147D01*
X500500Y237649D02*
Y234500D01*
X502074D01*
X502599Y235025D01*
Y237124D01*
X502074Y237649D01*
X500500D01*
X505748Y237124D02*
X505223Y237649D01*
X504173D01*
X503649Y237124D01*
Y236599D01*
X504173Y236074D01*
X505223D01*
X505748Y235549D01*
Y235025D01*
X505223Y234500D01*
X504173D01*
X503649Y235025D01*
X506797Y237124D02*
X507322Y237649D01*
X508371D01*
X508896Y237124D01*
Y236599D01*
X508371Y236074D01*
X507847D01*
X508371D01*
X508896Y235549D01*
Y235025D01*
X508371Y234500D01*
X507322D01*
X506797Y235025D01*
X509946Y237124D02*
X510470Y237649D01*
X511520D01*
X512045Y237124D01*
Y235025D01*
X511520Y234500D01*
X510470D01*
X509946Y235025D01*
Y237124D01*
X510540Y289889D02*
Y293037D01*
X512114D01*
X512639Y292513D01*
Y291463D01*
X512114Y290938D01*
X510540D01*
X511589D02*
X512639Y289889D01*
X515263D02*
Y293037D01*
X513688Y291463D01*
X515787D01*
X516837Y292513D02*
X517362Y293037D01*
X518411D01*
X518936Y292513D01*
Y290414D01*
X518411Y289889D01*
X517362D01*
X516837Y290414D01*
Y292513D01*
X503499Y338525D02*
Y340624D01*
X502974Y341149D01*
X501925D01*
X501400Y340624D01*
Y338525D01*
X501925Y338000D01*
X502974D01*
X502450Y339050D02*
X503499Y338000D01*
X502974D02*
X503499Y338525D01*
X504549Y338000D02*
X505598D01*
X505073D01*
Y341149D01*
X504549Y340624D01*
X507172D02*
X507697Y341149D01*
X508747D01*
X509271Y340624D01*
Y338525D01*
X508747Y338000D01*
X507697D01*
X507172Y338525D01*
Y340624D01*
X511047Y464222D02*
Y467371D01*
X512621D01*
X513146Y466846D01*
Y465796D01*
X512621Y465272D01*
X511047D01*
X512096D02*
X513146Y464222D01*
X515770D02*
Y467371D01*
X514195Y465796D01*
X516294D01*
X519443Y467371D02*
X518393Y466846D01*
X517344Y465796D01*
Y464747D01*
X517869Y464222D01*
X518918D01*
X519443Y464747D01*
Y465272D01*
X518918Y465796D01*
X517344D01*
X532500Y237649D02*
Y234500D01*
X534074D01*
X534599Y235025D01*
Y237124D01*
X534074Y237649D01*
X532500D01*
X537748Y237124D02*
X537223Y237649D01*
X536173D01*
X535649Y237124D01*
Y236599D01*
X536173Y236074D01*
X537223D01*
X537748Y235549D01*
Y235025D01*
X537223Y234500D01*
X536173D01*
X535649Y235025D01*
X538797Y237124D02*
X539322Y237649D01*
X540372D01*
X540896Y237124D01*
Y236599D01*
X540372Y236074D01*
X539847D01*
X540372D01*
X540896Y235549D01*
Y235025D01*
X540372Y234500D01*
X539322D01*
X538797Y235025D01*
X544045Y237649D02*
X541946D01*
Y236074D01*
X542995Y236599D01*
X543520D01*
X544045Y236074D01*
Y235025D01*
X543520Y234500D01*
X542471D01*
X541946Y235025D01*
X542551Y289889D02*
Y293037D01*
X544126D01*
X544650Y292513D01*
Y291463D01*
X544126Y290938D01*
X542551D01*
X543601D02*
X544650Y289889D01*
X545700Y292513D02*
X546225Y293037D01*
X547274D01*
X547799Y292513D01*
Y291988D01*
X547274Y291463D01*
X546749D01*
X547274D01*
X547799Y290938D01*
Y290414D01*
X547274Y289889D01*
X546225D01*
X545700Y290414D01*
X548848D02*
X549373Y289889D01*
X550423D01*
X550948Y290414D01*
Y292513D01*
X550423Y293037D01*
X549373D01*
X548848Y292513D01*
Y291988D01*
X549373Y291463D01*
X550948D01*
X543060Y464215D02*
Y467364D01*
X544634D01*
X545159Y466839D01*
Y465790D01*
X544634Y465265D01*
X543060D01*
X544110D02*
X545159Y464215D01*
X547783D02*
Y467364D01*
X546209Y465790D01*
X548308D01*
X551456Y467364D02*
X549357D01*
Y465790D01*
X550407Y466314D01*
X550932D01*
X551456Y465790D01*
Y464740D01*
X550932Y464215D01*
X549882D01*
X549357Y464740D01*
X283100Y236200D02*
Y239349D01*
X284674D01*
X285199Y238824D01*
Y237774D01*
X284674Y237249D01*
X283100D01*
X284150D02*
X285199Y236200D01*
X286249Y238824D02*
X286773Y239349D01*
X287823D01*
X288348Y238824D01*
Y238299D01*
X287823Y237774D01*
X288348Y237249D01*
Y236725D01*
X287823Y236200D01*
X286773D01*
X286249Y236725D01*
Y237249D01*
X286773Y237774D01*
X286249Y238299D01*
Y238824D01*
X286773Y237774D02*
X287823D01*
X289397Y238824D02*
X289922Y239349D01*
X290971D01*
X291496Y238824D01*
Y236725D01*
X290971Y236200D01*
X289922D01*
X289397Y236725D01*
Y238824D01*
X283600Y336700D02*
Y339849D01*
X285174D01*
X285699Y339324D01*
Y338274D01*
X285174Y337750D01*
X283600D01*
X284649D02*
X285699Y336700D01*
X286749Y339849D02*
X288848D01*
Y339324D01*
X286749Y337225D01*
Y336700D01*
X289897Y337225D02*
X290422Y336700D01*
X291472D01*
X291996Y337225D01*
Y339324D01*
X291472Y339849D01*
X290422D01*
X289897Y339324D01*
Y338799D01*
X290422Y338274D01*
X291996D01*
X283600Y408200D02*
Y411349D01*
X285174D01*
X285699Y410824D01*
Y409774D01*
X285174Y409249D01*
X283600D01*
X284649D02*
X285699Y408200D01*
X286749Y411349D02*
X288848D01*
Y410824D01*
X286749Y408725D01*
Y408200D01*
X289897Y410824D02*
X290422Y411349D01*
X291472D01*
X291996Y410824D01*
Y410299D01*
X291472Y409774D01*
X291996Y409249D01*
Y408725D01*
X291472Y408200D01*
X290422D01*
X289897Y408725D01*
Y409249D01*
X290422Y409774D01*
X289897Y410299D01*
Y410824D01*
X290422Y409774D02*
X291472D01*
X286499Y219125D02*
Y221224D01*
X285974Y221749D01*
X284925D01*
X284400Y221224D01*
Y219125D01*
X284925Y218600D01*
X285974D01*
X285450Y219650D02*
X286499Y218600D01*
X285974D02*
X286499Y219125D01*
X287549Y221224D02*
X288073Y221749D01*
X289123D01*
X289648Y221224D01*
Y220699D01*
X289123Y220174D01*
X289648Y219650D01*
Y219125D01*
X289123Y218600D01*
X288073D01*
X287549Y219125D01*
Y219650D01*
X288073Y220174D01*
X287549Y220699D01*
Y221224D01*
X288073Y220174D02*
X289123D01*
X286499Y319525D02*
Y321624D01*
X285974Y322149D01*
X284925D01*
X284400Y321624D01*
Y319525D01*
X284925Y319000D01*
X285974D01*
X285450Y320050D02*
X286499Y319000D01*
X285974D02*
X286499Y319525D01*
X287549Y322149D02*
X289648D01*
Y321624D01*
X287549Y319525D01*
Y319000D01*
X286499Y390625D02*
Y392724D01*
X285974Y393249D01*
X284925D01*
X284400Y392724D01*
Y390625D01*
X284925Y390100D01*
X285974D01*
X285450Y391149D02*
X286499Y390100D01*
X285974D02*
X286499Y390625D01*
X289648Y393249D02*
X288598Y392724D01*
X287549Y391674D01*
Y390625D01*
X288073Y390100D01*
X289123D01*
X289648Y390625D01*
Y391149D01*
X289123Y391674D01*
X287549D01*
X317512Y305164D02*
Y302016D01*
X319086D01*
X319611Y302540D01*
Y304639D01*
X319086Y305164D01*
X317512D01*
X322759Y304639D02*
X322234Y305164D01*
X321185D01*
X320660Y304639D01*
Y304115D01*
X321185Y303590D01*
X322234D01*
X322759Y303065D01*
Y302540D01*
X322234Y302016D01*
X321185D01*
X320660Y302540D01*
X325908Y305164D02*
X323809D01*
Y303590D01*
X324858Y304115D01*
X325383D01*
X325908Y303590D01*
Y302540D01*
X325383Y302016D01*
X324333D01*
X323809Y302540D01*
X329056Y305164D02*
X328007Y304639D01*
X326957Y303590D01*
Y302540D01*
X327482Y302016D01*
X328532D01*
X329056Y302540D01*
Y303065D01*
X328532Y303590D01*
X326957D01*
X312500Y377049D02*
Y373900D01*
X314074D01*
X314599Y374425D01*
Y376524D01*
X314074Y377049D01*
X312500D01*
X317748Y376524D02*
X317223Y377049D01*
X316173D01*
X315649Y376524D01*
Y375999D01*
X316173Y375474D01*
X317223D01*
X317748Y374950D01*
Y374425D01*
X317223Y373900D01*
X316173D01*
X315649Y374425D01*
X320896Y377049D02*
X318797D01*
Y375474D01*
X319847Y375999D01*
X320372D01*
X320896Y375474D01*
Y374425D01*
X320372Y373900D01*
X319322D01*
X318797Y374425D01*
X321946Y376524D02*
X322470Y377049D01*
X323520D01*
X324045Y376524D01*
Y375999D01*
X323520Y375474D01*
X322995D01*
X323520D01*
X324045Y374950D01*
Y374425D01*
X323520Y373900D01*
X322470D01*
X321946Y374425D01*
X312500Y411849D02*
Y408700D01*
X314074D01*
X314599Y409225D01*
Y411324D01*
X314074Y411849D01*
X312500D01*
X317748Y411324D02*
X317223Y411849D01*
X316173D01*
X315649Y411324D01*
Y410799D01*
X316173Y410274D01*
X317223D01*
X317748Y409750D01*
Y409225D01*
X317223Y408700D01*
X316173D01*
X315649Y409225D01*
X320896Y411849D02*
X318797D01*
Y410274D01*
X319847Y410799D01*
X320372D01*
X320896Y410274D01*
Y409225D01*
X320372Y408700D01*
X319322D01*
X318797Y409225D01*
X324045Y408700D02*
X321946D01*
X324045Y410799D01*
Y411324D01*
X323520Y411849D01*
X322470D01*
X321946Y411324D01*
X312500Y446649D02*
Y443500D01*
X314074D01*
X314599Y444025D01*
Y446124D01*
X314074Y446649D01*
X312500D01*
X317748Y446124D02*
X317223Y446649D01*
X316173D01*
X315649Y446124D01*
Y445599D01*
X316173Y445074D01*
X317223D01*
X317748Y444550D01*
Y444025D01*
X317223Y443500D01*
X316173D01*
X315649Y444025D01*
X320896Y446649D02*
X318797D01*
Y445074D01*
X319847Y445599D01*
X320372D01*
X320896Y445074D01*
Y444025D01*
X320372Y443500D01*
X319322D01*
X318797Y444025D01*
X321946Y443500D02*
X322995D01*
X322470D01*
Y446649D01*
X321946Y446124D01*
X312500Y481149D02*
Y478000D01*
X314074D01*
X314599Y478525D01*
Y480624D01*
X314074Y481149D01*
X312500D01*
X317748Y480624D02*
X317223Y481149D01*
X316173D01*
X315649Y480624D01*
Y480099D01*
X316173Y479574D01*
X317223D01*
X317748Y479049D01*
Y478525D01*
X317223Y478000D01*
X316173D01*
X315649Y478525D01*
X320896Y481149D02*
X318797D01*
Y479574D01*
X319847Y480099D01*
X320372D01*
X320896Y479574D01*
Y478525D01*
X320372Y478000D01*
X319322D01*
X318797Y478525D01*
X321946Y480624D02*
X322470Y481149D01*
X323520D01*
X324045Y480624D01*
Y478525D01*
X323520Y478000D01*
X322470D01*
X321946Y478525D01*
Y480624D01*
X323455Y188225D02*
Y191373D01*
X325029D01*
X325554Y190849D01*
Y189799D01*
X325029Y189274D01*
X323455D01*
X324505D02*
X325554Y188225D01*
X328703Y191373D02*
X327653Y190849D01*
X326604Y189799D01*
Y188750D01*
X327129Y188225D01*
X328178D01*
X328703Y188750D01*
Y189274D01*
X328178Y189799D01*
X326604D01*
X331851Y191373D02*
X330802Y190849D01*
X329752Y189799D01*
Y188750D01*
X330277Y188225D01*
X331327D01*
X331851Y188750D01*
Y189274D01*
X331327Y189799D01*
X329752D01*
X322560Y219222D02*
Y222371D01*
X324134D01*
X324659Y221846D01*
Y220796D01*
X324134Y220272D01*
X322560D01*
X323610D02*
X324659Y219222D01*
X327808Y222371D02*
X326758Y221846D01*
X325709Y220796D01*
Y219747D01*
X326234Y219222D01*
X327283D01*
X327808Y219747D01*
Y220272D01*
X327283Y220796D01*
X325709D01*
X330957Y222371D02*
X328857D01*
Y220796D01*
X329907Y221321D01*
X330432D01*
X330957Y220796D01*
Y219747D01*
X330432Y219222D01*
X329382D01*
X328857Y219747D01*
X322538Y254306D02*
Y257454D01*
X324112D01*
X324637Y256929D01*
Y255880D01*
X324112Y255355D01*
X322538D01*
X323587D02*
X324637Y254306D01*
X327785Y257454D02*
X326736Y256929D01*
X325686Y255880D01*
Y254830D01*
X326211Y254306D01*
X327261D01*
X327785Y254830D01*
Y255355D01*
X327261Y255880D01*
X325686D01*
X330409Y254306D02*
Y257454D01*
X328835Y255880D01*
X330934D01*
X322551Y429722D02*
Y432871D01*
X324126D01*
X324650Y432346D01*
Y431296D01*
X324126Y430772D01*
X322551D01*
X323601D02*
X324650Y429722D01*
X327799Y432871D02*
X325700D01*
Y431296D01*
X326749Y431821D01*
X327274D01*
X327799Y431296D01*
Y430247D01*
X327274Y429722D01*
X326225D01*
X325700Y430247D01*
X328848Y432346D02*
X329373Y432871D01*
X330423D01*
X330947Y432346D01*
Y431821D01*
X330423Y431296D01*
X330947Y430772D01*
Y430247D01*
X330423Y429722D01*
X329373D01*
X328848Y430247D01*
Y430772D01*
X329373Y431296D01*
X328848Y431821D01*
Y432346D01*
X329373Y431296D02*
X330423D01*
X349025Y305164D02*
Y302016D01*
X350599D01*
X351124Y302540D01*
Y304639D01*
X350599Y305164D01*
X349025D01*
X354272Y304639D02*
X353748Y305164D01*
X352698D01*
X352173Y304639D01*
Y304115D01*
X352698Y303590D01*
X353748D01*
X354272Y303065D01*
Y302540D01*
X353748Y302016D01*
X352698D01*
X352173Y302540D01*
X357421Y305164D02*
X355322D01*
Y303590D01*
X356371Y304115D01*
X356896D01*
X357421Y303590D01*
Y302540D01*
X356896Y302016D01*
X355847D01*
X355322Y302540D01*
X360570Y305164D02*
X358471D01*
Y303590D01*
X359520Y304115D01*
X360045D01*
X360570Y303590D01*
Y302540D01*
X360045Y302016D01*
X358995D01*
X358471Y302540D01*
X344000Y377049D02*
Y373900D01*
X345574D01*
X346099Y374425D01*
Y376524D01*
X345574Y377049D01*
X344000D01*
X349248Y376524D02*
X348723Y377049D01*
X347673D01*
X347149Y376524D01*
Y375999D01*
X347673Y375474D01*
X348723D01*
X349248Y374950D01*
Y374425D01*
X348723Y373900D01*
X347673D01*
X347149Y374425D01*
X352396Y377049D02*
X350297D01*
Y375474D01*
X351347Y375999D01*
X351871D01*
X352396Y375474D01*
Y374425D01*
X351871Y373900D01*
X350822D01*
X350297Y374425D01*
X355020Y373900D02*
Y377049D01*
X353446Y375474D01*
X355545D01*
X344000Y411849D02*
Y408700D01*
X345574D01*
X346099Y409225D01*
Y411324D01*
X345574Y411849D01*
X344000D01*
X349248Y411324D02*
X348723Y411849D01*
X347673D01*
X347149Y411324D01*
Y410799D01*
X347673Y410274D01*
X348723D01*
X349248Y409750D01*
Y409225D01*
X348723Y408700D01*
X347673D01*
X347149Y409225D01*
X350297Y411849D02*
X352396D01*
Y411324D01*
X350297Y409225D01*
Y408700D01*
X344000Y446649D02*
Y443500D01*
X345574D01*
X346099Y444025D01*
Y446124D01*
X345574Y446649D01*
X344000D01*
X349248Y446124D02*
X348723Y446649D01*
X347673D01*
X347149Y446124D01*
Y445599D01*
X347673Y445074D01*
X348723D01*
X349248Y444550D01*
Y444025D01*
X348723Y443500D01*
X347673D01*
X347149Y444025D01*
X350297Y443500D02*
X351347D01*
X350822D01*
Y446649D01*
X350297Y446124D01*
X344000Y481149D02*
Y478000D01*
X345574D01*
X346099Y478525D01*
Y480624D01*
X345574Y481149D01*
X344000D01*
X349248Y480624D02*
X348723Y481149D01*
X347673D01*
X347149Y480624D01*
Y480099D01*
X347673Y479574D01*
X348723D01*
X349248Y479049D01*
Y478525D01*
X348723Y478000D01*
X347673D01*
X347149Y478525D01*
X351871Y478000D02*
Y481149D01*
X350297Y479574D01*
X352396D01*
X353446Y478525D02*
X353971Y478000D01*
X355020D01*
X355545Y478525D01*
Y480624D01*
X355020Y481149D01*
X353971D01*
X353446Y480624D01*
Y480099D01*
X353971Y479574D01*
X355545D01*
X354955Y188225D02*
Y191373D01*
X356529D01*
X357054Y190849D01*
Y189799D01*
X356529Y189274D01*
X354955D01*
X356004D02*
X357054Y188225D01*
X360203Y191373D02*
X359153Y190849D01*
X358103Y189799D01*
Y188750D01*
X358628Y188225D01*
X359678D01*
X360203Y188750D01*
Y189274D01*
X359678Y189799D01*
X358103D01*
X361252Y191373D02*
X363351D01*
Y190849D01*
X361252Y188750D01*
Y188225D01*
X352955Y219225D02*
Y222373D01*
X354529D01*
X355054Y221849D01*
Y220799D01*
X354529Y220274D01*
X352955D01*
X354004D02*
X355054Y219225D01*
X358203D02*
X356103D01*
X358203Y221324D01*
Y221849D01*
X357678Y222373D01*
X356628D01*
X356103Y221849D01*
X361351Y222373D02*
X359252D01*
Y220799D01*
X360302Y221324D01*
X360826D01*
X361351Y220799D01*
Y219749D01*
X360826Y219225D01*
X359777D01*
X359252Y219749D01*
X352767Y254358D02*
Y257507D01*
X354342D01*
X354867Y256982D01*
Y255932D01*
X354342Y255408D01*
X352767D01*
X353817D02*
X354867Y254358D01*
X355916D02*
X356965D01*
X356441D01*
Y257507D01*
X355916Y256982D01*
X358540Y254883D02*
X359065Y254358D01*
X360114D01*
X360639Y254883D01*
Y256982D01*
X360114Y257507D01*
X359065D01*
X358540Y256982D01*
Y256457D01*
X359065Y255932D01*
X360639D01*
X353156Y428426D02*
Y431574D01*
X354731D01*
X355256Y431049D01*
Y430000D01*
X354731Y429475D01*
X353156D01*
X354206D02*
X355256Y428426D01*
X356305D02*
X357355D01*
X356830D01*
Y431574D01*
X356305Y431049D01*
X386255Y188225D02*
Y191373D01*
X387829D01*
X388354Y190849D01*
Y189799D01*
X387829Y189274D01*
X386255D01*
X387304D02*
X388354Y188225D01*
X391502Y191373D02*
X390453Y190849D01*
X389404Y189799D01*
Y188750D01*
X389928Y188225D01*
X390978D01*
X391502Y188750D01*
Y189274D01*
X390978Y189799D01*
X389404D01*
X392552Y190849D02*
X393077Y191373D01*
X394126D01*
X394651Y190849D01*
Y190324D01*
X394126Y189799D01*
X394651Y189274D01*
Y188750D01*
X394126Y188225D01*
X393077D01*
X392552Y188750D01*
Y189274D01*
X393077Y189799D01*
X392552Y190324D01*
Y190849D01*
X393077Y189799D02*
X394126D01*
X384255Y219225D02*
Y222373D01*
X385829D01*
X386354Y221849D01*
Y220799D01*
X385829Y220274D01*
X384255D01*
X385304D02*
X386354Y219225D01*
X389503D02*
X387403D01*
X389503Y221324D01*
Y221849D01*
X388978Y222373D01*
X387928D01*
X387403Y221849D01*
X392651Y222373D02*
X391602Y221849D01*
X390552Y220799D01*
Y219749D01*
X391077Y219225D01*
X392126D01*
X392651Y219749D01*
Y220274D01*
X392126Y220799D01*
X390552D01*
X384255Y254308D02*
Y257457D01*
X385829D01*
X386354Y256932D01*
Y255882D01*
X385829Y255358D01*
X384255D01*
X385304D02*
X386354Y254308D01*
X389503D02*
X387403D01*
X389503Y256407D01*
Y256932D01*
X388978Y257457D01*
X387928D01*
X387403Y256932D01*
X390552D02*
X391077Y257457D01*
X392126D01*
X392651Y256932D01*
Y254833D01*
X392126Y254308D01*
X391077D01*
X390552Y254833D01*
Y256932D01*
X375300Y307349D02*
Y304200D01*
X376874D01*
X377399Y304725D01*
Y306824D01*
X376874Y307349D01*
X375300D01*
X380548Y306824D02*
X380023Y307349D01*
X378973D01*
X378449Y306824D01*
Y306299D01*
X378973Y305774D01*
X380023D01*
X380548Y305250D01*
Y304725D01*
X380023Y304200D01*
X378973D01*
X378449Y304725D01*
X383696Y307349D02*
X382647Y306824D01*
X381597Y305774D01*
Y304725D01*
X382122Y304200D01*
X383172D01*
X383696Y304725D01*
Y305250D01*
X383172Y305774D01*
X381597D01*
X386845Y307349D02*
X384746D01*
Y305774D01*
X385795Y306299D01*
X386320D01*
X386845Y305774D01*
Y304725D01*
X386320Y304200D01*
X385271D01*
X384746Y304725D01*
X384501Y324404D02*
Y327552D01*
X386076D01*
X386600Y327028D01*
Y325978D01*
X386076Y325453D01*
X384501D01*
X385551D02*
X386600Y324404D01*
X387650Y327552D02*
X389749D01*
Y327028D01*
X387650Y324928D01*
Y324404D01*
X390798D02*
X391848D01*
X391323D01*
Y327552D01*
X390798Y327028D01*
X375300Y377049D02*
Y373900D01*
X376874D01*
X377399Y374425D01*
Y376524D01*
X376874Y377049D01*
X375300D01*
X380548Y376524D02*
X380023Y377049D01*
X378973D01*
X378449Y376524D01*
Y375999D01*
X378973Y375474D01*
X380023D01*
X380548Y374950D01*
Y374425D01*
X380023Y373900D01*
X378973D01*
X378449Y374425D01*
X383696Y377049D02*
X382647Y376524D01*
X381597Y375474D01*
Y374425D01*
X382122Y373900D01*
X383172D01*
X383696Y374425D01*
Y374950D01*
X383172Y375474D01*
X381597D01*
X384746Y376524D02*
X385271Y377049D01*
X386320D01*
X386845Y376524D01*
Y375999D01*
X386320Y375474D01*
X385795D01*
X386320D01*
X386845Y374950D01*
Y374425D01*
X386320Y373900D01*
X385271D01*
X384746Y374425D01*
X375300Y411849D02*
Y408700D01*
X376874D01*
X377399Y409225D01*
Y411324D01*
X376874Y411849D01*
X375300D01*
X380548Y411324D02*
X380023Y411849D01*
X378973D01*
X378449Y411324D01*
Y410799D01*
X378973Y410274D01*
X380023D01*
X380548Y409750D01*
Y409225D01*
X380023Y408700D01*
X378973D01*
X378449Y409225D01*
X381597Y411324D02*
X382122Y411849D01*
X383172D01*
X383696Y411324D01*
Y410799D01*
X383172Y410274D01*
X383696Y409750D01*
Y409225D01*
X383172Y408700D01*
X382122D01*
X381597Y409225D01*
Y409750D01*
X382122Y410274D01*
X381597Y410799D01*
Y411324D01*
X382122Y410274D02*
X383172D01*
X383432Y428426D02*
Y431574D01*
X385006D01*
X385531Y431049D01*
Y430000D01*
X385006Y429475D01*
X383432D01*
X384481D02*
X385531Y428426D01*
X388679D02*
X386580D01*
X388679Y430525D01*
Y431049D01*
X388155Y431574D01*
X387105D01*
X386580Y431049D01*
X375300Y446649D02*
Y443500D01*
X376874D01*
X377399Y444025D01*
Y446124D01*
X376874Y446649D01*
X375300D01*
X380548Y446124D02*
X380023Y446649D01*
X378973D01*
X378449Y446124D01*
Y445599D01*
X378973Y445074D01*
X380023D01*
X380548Y444550D01*
Y444025D01*
X380023Y443500D01*
X378973D01*
X378449Y444025D01*
X383696Y443500D02*
X381597D01*
X383696Y445599D01*
Y446124D01*
X383172Y446649D01*
X382122D01*
X381597Y446124D01*
X375300Y481149D02*
Y478000D01*
X376874D01*
X377399Y478525D01*
Y480624D01*
X376874Y481149D01*
X375300D01*
X380548Y480624D02*
X380023Y481149D01*
X378973D01*
X378449Y480624D01*
Y480099D01*
X378973Y479574D01*
X380023D01*
X380548Y479049D01*
Y478525D01*
X380023Y478000D01*
X378973D01*
X378449Y478525D01*
X383172Y478000D02*
Y481149D01*
X381597Y479574D01*
X383696D01*
X384746Y480624D02*
X385271Y481149D01*
X386320D01*
X386845Y480624D01*
Y480099D01*
X386320Y479574D01*
X386845Y479049D01*
Y478525D01*
X386320Y478000D01*
X385271D01*
X384746Y478525D01*
Y479049D01*
X385271Y479574D01*
X384746Y480099D01*
Y480624D01*
X385271Y479574D02*
X386320D01*
X417555Y188225D02*
Y191373D01*
X419129D01*
X419654Y190849D01*
Y189799D01*
X419129Y189274D01*
X417555D01*
X418604D02*
X419654Y188225D01*
X422802Y191373D02*
X421753Y190849D01*
X420704Y189799D01*
Y188750D01*
X421228Y188225D01*
X422278D01*
X422802Y188750D01*
Y189274D01*
X422278Y189799D01*
X420704D01*
X423852Y188750D02*
X424377Y188225D01*
X425426D01*
X425951Y188750D01*
Y190849D01*
X425426Y191373D01*
X424377D01*
X423852Y190849D01*
Y190324D01*
X424377Y189799D01*
X425951D01*
X415538Y219225D02*
Y222373D01*
X417113D01*
X417637Y221849D01*
Y220799D01*
X417113Y220274D01*
X415538D01*
X416588D02*
X417637Y219225D01*
X420786D02*
X418687D01*
X420786Y221324D01*
Y221849D01*
X420261Y222373D01*
X419212D01*
X418687Y221849D01*
X421836Y222373D02*
X423935D01*
Y221849D01*
X421836Y219749D01*
Y219225D01*
X415130Y254358D02*
Y257507D01*
X416704D01*
X417229Y256982D01*
Y255932D01*
X416704Y255408D01*
X415130D01*
X416180D02*
X417229Y254358D01*
X420378D02*
X418279D01*
X420378Y256457D01*
Y256982D01*
X419853Y257507D01*
X418803D01*
X418279Y256982D01*
X421427Y254358D02*
X422477D01*
X421952D01*
Y257507D01*
X421427Y256982D01*
X406600Y307349D02*
Y304200D01*
X408174D01*
X408699Y304725D01*
Y306824D01*
X408174Y307349D01*
X406600D01*
X411848Y306824D02*
X411323Y307349D01*
X410273D01*
X409749Y306824D01*
Y306299D01*
X410273Y305774D01*
X411323D01*
X411848Y305250D01*
Y304725D01*
X411323Y304200D01*
X410273D01*
X409749Y304725D01*
X412897Y304200D02*
X413947D01*
X413422D01*
Y307349D01*
X412897Y306824D01*
X415521Y307349D02*
X417620D01*
Y306824D01*
X415521Y304725D01*
Y304200D01*
X415367Y324525D02*
Y327673D01*
X416942D01*
X417466Y327149D01*
Y326099D01*
X416942Y325574D01*
X415367D01*
X416417D02*
X417466Y324525D01*
X418516D02*
X419565D01*
X419041D01*
Y327673D01*
X418516Y327149D01*
X423239Y327673D02*
X421140D01*
Y326099D01*
X422189Y326624D01*
X422714D01*
X423239Y326099D01*
Y325049D01*
X422714Y324525D01*
X421665D01*
X421140Y325049D01*
X406600Y377049D02*
Y373900D01*
X408174D01*
X408699Y374425D01*
Y376524D01*
X408174Y377049D01*
X406600D01*
X411848Y376524D02*
X411323Y377049D01*
X410273D01*
X409749Y376524D01*
Y375999D01*
X410273Y375474D01*
X411323D01*
X411848Y374950D01*
Y374425D01*
X411323Y373900D01*
X410273D01*
X409749Y374425D01*
X412897Y373900D02*
X413947D01*
X413422D01*
Y377049D01*
X412897Y376524D01*
X415521D02*
X416046Y377049D01*
X417095D01*
X417620Y376524D01*
Y375999D01*
X417095Y375474D01*
X416571D01*
X417095D01*
X417620Y374950D01*
Y374425D01*
X417095Y373900D01*
X416046D01*
X415521Y374425D01*
X406600Y411849D02*
Y408700D01*
X408174D01*
X408699Y409225D01*
Y411324D01*
X408174Y411849D01*
X406600D01*
X411848Y411324D02*
X411323Y411849D01*
X410273D01*
X409749Y411324D01*
Y410799D01*
X410273Y410274D01*
X411323D01*
X411848Y409750D01*
Y409225D01*
X411323Y408700D01*
X410273D01*
X409749Y409225D01*
X412897D02*
X413422Y408700D01*
X414471D01*
X414996Y409225D01*
Y411324D01*
X414471Y411849D01*
X413422D01*
X412897Y411324D01*
Y410799D01*
X413422Y410274D01*
X414996D01*
X415232Y428926D02*
Y432074D01*
X416806D01*
X417331Y431550D01*
Y430500D01*
X416806Y429975D01*
X415232D01*
X416281D02*
X417331Y428926D01*
X418380Y431550D02*
X418905Y432074D01*
X419955D01*
X420479Y431550D01*
Y431025D01*
X419955Y430500D01*
X419430D01*
X419955D01*
X420479Y429975D01*
Y429451D01*
X419955Y428926D01*
X418905D01*
X418380Y429451D01*
X406600Y446649D02*
Y443500D01*
X408174D01*
X408699Y444025D01*
Y446124D01*
X408174Y446649D01*
X406600D01*
X411848Y446124D02*
X411323Y446649D01*
X410273D01*
X409749Y446124D01*
Y445599D01*
X410273Y445074D01*
X411323D01*
X411848Y444550D01*
Y444025D01*
X411323Y443500D01*
X410273D01*
X409749Y444025D01*
X412897Y446124D02*
X413422Y446649D01*
X414471D01*
X414996Y446124D01*
Y445599D01*
X414471Y445074D01*
X413947D01*
X414471D01*
X414996Y444550D01*
Y444025D01*
X414471Y443500D01*
X413422D01*
X412897Y444025D01*
X406600Y481149D02*
Y478000D01*
X408174D01*
X408699Y478525D01*
Y480624D01*
X408174Y481149D01*
X406600D01*
X411848Y480624D02*
X411323Y481149D01*
X410273D01*
X409749Y480624D01*
Y480099D01*
X410273Y479574D01*
X411323D01*
X411848Y479049D01*
Y478525D01*
X411323Y478000D01*
X410273D01*
X409749Y478525D01*
X414471Y478000D02*
Y481149D01*
X412897Y479574D01*
X414996D01*
X416046Y481149D02*
X418145D01*
Y480624D01*
X416046Y478525D01*
Y478000D01*
X447601Y188722D02*
Y191871D01*
X449176D01*
X449700Y191346D01*
Y190296D01*
X449176Y189772D01*
X447601D01*
X448651D02*
X449700Y188722D01*
X450750Y191346D02*
X451275Y191871D01*
X452324D01*
X452849Y191346D01*
Y190821D01*
X452324Y190296D01*
X451799D01*
X452324D01*
X452849Y189772D01*
Y189247D01*
X452324Y188722D01*
X451275D01*
X450750Y189247D01*
X453898Y188722D02*
X454948D01*
X454423D01*
Y191871D01*
X453898Y191346D01*
X446855Y219225D02*
Y222373D01*
X448429D01*
X448954Y221849D01*
Y220799D01*
X448429Y220274D01*
X446855D01*
X447904D02*
X448954Y219225D01*
X452103D02*
X450003D01*
X452103Y221324D01*
Y221849D01*
X451578Y222373D01*
X450528D01*
X450003Y221849D01*
X453152D02*
X453677Y222373D01*
X454726D01*
X455251Y221849D01*
Y221324D01*
X454726Y220799D01*
X455251Y220274D01*
Y219749D01*
X454726Y219225D01*
X453677D01*
X453152Y219749D01*
Y220274D01*
X453677Y220799D01*
X453152Y221324D01*
Y221849D01*
X453677Y220799D02*
X454726D01*
X446855Y254308D02*
Y257457D01*
X448429D01*
X448954Y256932D01*
Y255882D01*
X448429Y255358D01*
X446855D01*
X447904D02*
X448954Y254308D01*
X452103D02*
X450003D01*
X452103Y256407D01*
Y256932D01*
X451578Y257457D01*
X450528D01*
X450003Y256932D01*
X455251Y254308D02*
X453152D01*
X455251Y256407D01*
Y256932D01*
X454726Y257457D01*
X453677D01*
X453152Y256932D01*
X437900Y307349D02*
Y304200D01*
X439474D01*
X439999Y304725D01*
Y306824D01*
X439474Y307349D01*
X437900D01*
X443148Y306824D02*
X442623Y307349D01*
X441573D01*
X441049Y306824D01*
Y306299D01*
X441573Y305774D01*
X442623D01*
X443148Y305250D01*
Y304725D01*
X442623Y304200D01*
X441573D01*
X441049Y304725D01*
X444197Y304200D02*
X445247D01*
X444722D01*
Y307349D01*
X444197Y306824D01*
X446821D02*
X447346Y307349D01*
X448395D01*
X448920Y306824D01*
Y306299D01*
X448395Y305774D01*
X448920Y305250D01*
Y304725D01*
X448395Y304200D01*
X447346D01*
X446821Y304725D01*
Y305250D01*
X447346Y305774D01*
X446821Y306299D01*
Y306824D01*
X447346Y305774D02*
X448395D01*
X446667Y324525D02*
Y327673D01*
X448242D01*
X448767Y327149D01*
Y326099D01*
X448242Y325574D01*
X446667D01*
X447717D02*
X448767Y324525D01*
X449816D02*
X450866D01*
X450341D01*
Y327673D01*
X449816Y327149D01*
X454539Y327673D02*
X453489Y327149D01*
X452440Y326099D01*
Y325049D01*
X452965Y324525D01*
X454014D01*
X454539Y325049D01*
Y325574D01*
X454014Y326099D01*
X452440D01*
X437900Y377049D02*
Y373900D01*
X439474D01*
X439999Y374425D01*
Y376524D01*
X439474Y377049D01*
X437900D01*
X443148Y376524D02*
X442623Y377049D01*
X441573D01*
X441049Y376524D01*
Y375999D01*
X441573Y375474D01*
X442623D01*
X443148Y374950D01*
Y374425D01*
X442623Y373900D01*
X441573D01*
X441049Y374425D01*
X444197Y373900D02*
X445247D01*
X444722D01*
Y377049D01*
X444197Y376524D01*
X448395Y373900D02*
Y377049D01*
X446821Y375474D01*
X448920D01*
X437900Y411849D02*
Y408700D01*
X439474D01*
X439999Y409225D01*
Y411324D01*
X439474Y411849D01*
X437900D01*
X443148Y411324D02*
X442623Y411849D01*
X441573D01*
X441049Y411324D01*
Y410799D01*
X441573Y410274D01*
X442623D01*
X443148Y409750D01*
Y409225D01*
X442623Y408700D01*
X441573D01*
X441049Y409225D01*
X444197Y408700D02*
X445247D01*
X444722D01*
Y411849D01*
X444197Y411324D01*
X446821D02*
X447346Y411849D01*
X448395D01*
X448920Y411324D01*
Y409225D01*
X448395Y408700D01*
X447346D01*
X446821Y409225D01*
Y411324D01*
X445480Y429275D02*
Y432423D01*
X447054D01*
X447579Y431898D01*
Y430849D01*
X447054Y430324D01*
X445480D01*
X446530D02*
X447579Y429275D01*
X450203D02*
Y432423D01*
X448629Y430849D01*
X450728D01*
X437900Y446649D02*
Y443500D01*
X439474D01*
X439999Y444025D01*
Y446124D01*
X439474Y446649D01*
X437900D01*
X443148Y446124D02*
X442623Y446649D01*
X441573D01*
X441049Y446124D01*
Y445599D01*
X441573Y445074D01*
X442623D01*
X443148Y444550D01*
Y444025D01*
X442623Y443500D01*
X441573D01*
X441049Y444025D01*
X445772Y443500D02*
Y446649D01*
X444197Y445074D01*
X446296D01*
X437900Y481149D02*
Y478000D01*
X439474D01*
X439999Y478525D01*
Y480624D01*
X439474Y481149D01*
X437900D01*
X443148Y480624D02*
X442623Y481149D01*
X441573D01*
X441049Y480624D01*
Y480099D01*
X441573Y479574D01*
X442623D01*
X443148Y479049D01*
Y478525D01*
X442623Y478000D01*
X441573D01*
X441049Y478525D01*
X445772Y478000D02*
Y481149D01*
X444197Y479574D01*
X446296D01*
X449445Y481149D02*
X448395Y480624D01*
X447346Y479574D01*
Y478525D01*
X447870Y478000D01*
X448920D01*
X449445Y478525D01*
Y479049D01*
X448920Y479574D01*
X447346D01*
X478971Y188722D02*
Y191871D01*
X480545D01*
X481070Y191346D01*
Y190296D01*
X480545Y189772D01*
X478971D01*
X480020D02*
X481070Y188722D01*
X482119Y191346D02*
X482644Y191871D01*
X483694D01*
X484219Y191346D01*
Y190821D01*
X483694Y190296D01*
X483169D01*
X483694D01*
X484219Y189772D01*
Y189247D01*
X483694Y188722D01*
X482644D01*
X482119Y189247D01*
X486842Y188722D02*
Y191871D01*
X485268Y190296D01*
X487367D01*
X478155Y219225D02*
Y222373D01*
X479729D01*
X480254Y221849D01*
Y220799D01*
X479729Y220274D01*
X478155D01*
X479204D02*
X480254Y219225D01*
X483402D02*
X481304D01*
X483402Y221324D01*
Y221849D01*
X482878Y222373D01*
X481828D01*
X481304Y221849D01*
X484452Y219749D02*
X484977Y219225D01*
X486026D01*
X486551Y219749D01*
Y221849D01*
X486026Y222373D01*
X484977D01*
X484452Y221849D01*
Y221324D01*
X484977Y220799D01*
X486551D01*
X478155Y254308D02*
Y257457D01*
X479729D01*
X480254Y256932D01*
Y255882D01*
X479729Y255358D01*
X478155D01*
X479204D02*
X480254Y254308D01*
X483402D02*
X481304D01*
X483402Y256407D01*
Y256932D01*
X482878Y257457D01*
X481828D01*
X481304Y256932D01*
X484452D02*
X484977Y257457D01*
X486026D01*
X486551Y256932D01*
Y256407D01*
X486026Y255882D01*
X485502D01*
X486026D01*
X486551Y255358D01*
Y254833D01*
X486026Y254308D01*
X484977D01*
X484452Y254833D01*
X469200Y307349D02*
Y304200D01*
X470774D01*
X471299Y304725D01*
Y306824D01*
X470774Y307349D01*
X469200D01*
X474448Y306824D02*
X473923Y307349D01*
X472873D01*
X472349Y306824D01*
Y306299D01*
X472873Y305774D01*
X473923D01*
X474448Y305250D01*
Y304725D01*
X473923Y304200D01*
X472873D01*
X472349Y304725D01*
X477596Y307349D02*
X476547Y306824D01*
X475497Y305774D01*
Y304725D01*
X476022Y304200D01*
X477072D01*
X477596Y304725D01*
Y305250D01*
X477072Y305774D01*
X475497D01*
X478646Y307349D02*
X480745D01*
Y306824D01*
X478646Y304725D01*
Y304200D01*
X479760Y324465D02*
Y327614D01*
X481334D01*
X481859Y327089D01*
Y326040D01*
X481334Y325515D01*
X479760D01*
X480809D02*
X481859Y324465D01*
X482908Y327614D02*
X485008D01*
Y327089D01*
X482908Y324990D01*
Y324465D01*
X488156Y327614D02*
X486057D01*
Y326040D01*
X487107Y326564D01*
X487631D01*
X488156Y326040D01*
Y324990D01*
X487631Y324465D01*
X486582D01*
X486057Y324990D01*
X469200Y377049D02*
Y373900D01*
X470774D01*
X471299Y374425D01*
Y376524D01*
X470774Y377049D01*
X469200D01*
X474448Y376524D02*
X473923Y377049D01*
X472873D01*
X472349Y376524D01*
Y375999D01*
X472873Y375474D01*
X473923D01*
X474448Y374950D01*
Y374425D01*
X473923Y373900D01*
X472873D01*
X472349Y374425D01*
X477596Y377049D02*
X476547Y376524D01*
X475497Y375474D01*
Y374425D01*
X476022Y373900D01*
X477072D01*
X477596Y374425D01*
Y374950D01*
X477072Y375474D01*
X475497D01*
X478646Y374425D02*
X479171Y373900D01*
X480220D01*
X480745Y374425D01*
Y376524D01*
X480220Y377049D01*
X479171D01*
X478646Y376524D01*
Y375999D01*
X479171Y375474D01*
X480745D01*
X469200Y411849D02*
Y408700D01*
X470774D01*
X471299Y409225D01*
Y411324D01*
X470774Y411849D01*
X469200D01*
X474448Y411324D02*
X473923Y411849D01*
X472873D01*
X472349Y411324D01*
Y410799D01*
X472873Y410274D01*
X473923D01*
X474448Y409750D01*
Y409225D01*
X473923Y408700D01*
X472873D01*
X472349Y409225D01*
X475497Y408700D02*
X476547D01*
X476022D01*
Y411849D01*
X475497Y411324D01*
X478121Y408700D02*
X479171D01*
X478646D01*
Y411849D01*
X478121Y411324D01*
X476780Y429275D02*
Y432423D01*
X478354D01*
X478879Y431898D01*
Y430849D01*
X478354Y430324D01*
X476780D01*
X477830D02*
X478879Y429275D01*
X482028Y432423D02*
X479929D01*
Y430849D01*
X480978Y431374D01*
X481503D01*
X482028Y430849D01*
Y429800D01*
X481503Y429275D01*
X480453D01*
X479929Y429800D01*
X469200Y446649D02*
Y443500D01*
X470774D01*
X471299Y444025D01*
Y446124D01*
X470774Y446649D01*
X469200D01*
X474448Y446124D02*
X473923Y446649D01*
X472873D01*
X472349Y446124D01*
Y445599D01*
X472873Y445074D01*
X473923D01*
X474448Y444550D01*
Y444025D01*
X473923Y443500D01*
X472873D01*
X472349Y444025D01*
X477596Y446649D02*
X475497D01*
Y445074D01*
X476547Y445599D01*
X477072D01*
X477596Y445074D01*
Y444025D01*
X477072Y443500D01*
X476022D01*
X475497Y444025D01*
X469200Y481149D02*
Y478000D01*
X470774D01*
X471299Y478525D01*
Y480624D01*
X470774Y481149D01*
X469200D01*
X474448Y480624D02*
X473923Y481149D01*
X472873D01*
X472349Y480624D01*
Y480099D01*
X472873Y479574D01*
X473923D01*
X474448Y479049D01*
Y478525D01*
X473923Y478000D01*
X472873D01*
X472349Y478525D01*
X477072Y478000D02*
Y481149D01*
X475497Y479574D01*
X477596D01*
X480745Y481149D02*
X478646D01*
Y479574D01*
X479695Y480099D01*
X480220D01*
X480745Y479574D01*
Y478525D01*
X480220Y478000D01*
X479171D01*
X478646Y478525D01*
X510527Y188722D02*
Y191871D01*
X512101D01*
X512626Y191346D01*
Y190296D01*
X512101Y189772D01*
X510527D01*
X511576D02*
X512626Y188722D01*
X513675Y191346D02*
X514200Y191871D01*
X515250D01*
X515774Y191346D01*
Y190821D01*
X515250Y190296D01*
X514725D01*
X515250D01*
X515774Y189772D01*
Y189247D01*
X515250Y188722D01*
X514200D01*
X513675Y189247D01*
X518923Y191871D02*
X516824D01*
Y190296D01*
X517873Y190821D01*
X518398D01*
X518923Y190296D01*
Y189247D01*
X518398Y188722D01*
X517349D01*
X516824Y189247D01*
X509455Y219225D02*
Y222373D01*
X511029D01*
X511554Y221849D01*
Y220799D01*
X511029Y220274D01*
X509455D01*
X510504D02*
X511554Y219225D01*
X512604Y221849D02*
X513128Y222373D01*
X514178D01*
X514703Y221849D01*
Y221324D01*
X514178Y220799D01*
X513653D01*
X514178D01*
X514703Y220274D01*
Y219749D01*
X514178Y219225D01*
X513128D01*
X512604Y219749D01*
X515752Y221849D02*
X516277Y222373D01*
X517326D01*
X517851Y221849D01*
Y219749D01*
X517326Y219225D01*
X516277D01*
X515752Y219749D01*
Y221849D01*
X509455Y254308D02*
Y257457D01*
X511029D01*
X511554Y256932D01*
Y255882D01*
X511029Y255358D01*
X509455D01*
X510504D02*
X511554Y254308D01*
X514703D02*
X512604D01*
X514703Y256407D01*
Y256932D01*
X514178Y257457D01*
X513128D01*
X512604Y256932D01*
X517326Y254308D02*
Y257457D01*
X515752Y255882D01*
X517851D01*
X500500Y307349D02*
Y304200D01*
X502074D01*
X502599Y304725D01*
Y306824D01*
X502074Y307349D01*
X500500D01*
X505748Y306824D02*
X505223Y307349D01*
X504173D01*
X503649Y306824D01*
Y306299D01*
X504173Y305774D01*
X505223D01*
X505748Y305250D01*
Y304725D01*
X505223Y304200D01*
X504173D01*
X503649Y304725D01*
X506797Y306824D02*
X507322Y307349D01*
X508371D01*
X508896Y306824D01*
Y306299D01*
X508371Y305774D01*
X507847D01*
X508371D01*
X508896Y305250D01*
Y304725D01*
X508371Y304200D01*
X507322D01*
X506797Y304725D01*
X509946Y306824D02*
X510470Y307349D01*
X511520D01*
X512045Y306824D01*
Y306299D01*
X511520Y305774D01*
X512045Y305250D01*
Y304725D01*
X511520Y304200D01*
X510470D01*
X509946Y304725D01*
Y305250D01*
X510470Y305774D01*
X509946Y306299D01*
Y306824D01*
X510470Y305774D02*
X511520D01*
X500500Y377049D02*
Y373900D01*
X502074D01*
X502599Y374425D01*
Y376524D01*
X502074Y377049D01*
X500500D01*
X505748Y376524D02*
X505223Y377049D01*
X504173D01*
X503649Y376524D01*
Y375999D01*
X504173Y375474D01*
X505223D01*
X505748Y374950D01*
Y374425D01*
X505223Y373900D01*
X504173D01*
X503649Y374425D01*
X506797Y376524D02*
X507322Y377049D01*
X508371D01*
X508896Y376524D01*
Y375999D01*
X508371Y375474D01*
X507847D01*
X508371D01*
X508896Y374950D01*
Y374425D01*
X508371Y373900D01*
X507322D01*
X506797Y374425D01*
X509946D02*
X510470Y373900D01*
X511520D01*
X512045Y374425D01*
Y376524D01*
X511520Y377049D01*
X510470D01*
X509946Y376524D01*
Y375999D01*
X510470Y375474D01*
X512045D01*
X500500Y411849D02*
Y408700D01*
X502074D01*
X502599Y409225D01*
Y411324D01*
X502074Y411849D01*
X500500D01*
X505748Y411324D02*
X505223Y411849D01*
X504173D01*
X503649Y411324D01*
Y410799D01*
X504173Y410274D01*
X505223D01*
X505748Y409750D01*
Y409225D01*
X505223Y408700D01*
X504173D01*
X503649Y409225D01*
X506797Y408700D02*
X507847D01*
X507322D01*
Y411849D01*
X506797Y411324D01*
X511520Y408700D02*
X509421D01*
X511520Y410799D01*
Y411324D01*
X510995Y411849D01*
X509946D01*
X509421Y411324D01*
X508080Y429275D02*
Y432423D01*
X509654D01*
X510179Y431898D01*
Y430849D01*
X509654Y430324D01*
X508080D01*
X509130D02*
X510179Y429275D01*
X513328Y432423D02*
X512278Y431898D01*
X511229Y430849D01*
Y429800D01*
X511754Y429275D01*
X512803D01*
X513328Y429800D01*
Y430324D01*
X512803Y430849D01*
X511229D01*
X500500Y446649D02*
Y443500D01*
X502074D01*
X502599Y444025D01*
Y446124D01*
X502074Y446649D01*
X500500D01*
X505748Y446124D02*
X505223Y446649D01*
X504173D01*
X503649Y446124D01*
Y445599D01*
X504173Y445074D01*
X505223D01*
X505748Y444550D01*
Y444025D01*
X505223Y443500D01*
X504173D01*
X503649Y444025D01*
X508896Y446649D02*
X507847Y446124D01*
X506797Y445074D01*
Y444025D01*
X507322Y443500D01*
X508371D01*
X508896Y444025D01*
Y444550D01*
X508371Y445074D01*
X506797D01*
X500500Y481149D02*
Y478000D01*
X502074D01*
X502599Y478525D01*
Y480624D01*
X502074Y481149D01*
X500500D01*
X505748Y480624D02*
X505223Y481149D01*
X504173D01*
X503649Y480624D01*
Y480099D01*
X504173Y479574D01*
X505223D01*
X505748Y479049D01*
Y478525D01*
X505223Y478000D01*
X504173D01*
X503649Y478525D01*
X508371Y478000D02*
Y481149D01*
X506797Y479574D01*
X508896D01*
X511520Y478000D02*
Y481149D01*
X509946Y479574D01*
X512045D01*
X520500Y343000D02*
Y346149D01*
X522074D01*
X522599Y345624D01*
Y344574D01*
X522074Y344050D01*
X520500D01*
X521550D02*
X522599Y343000D01*
X523649Y345624D02*
X524173Y346149D01*
X525223D01*
X525748Y345624D01*
Y345099D01*
X525223Y344574D01*
X525748Y344050D01*
Y343525D01*
X525223Y343000D01*
X524173D01*
X523649Y343525D01*
Y344050D01*
X524173Y344574D01*
X523649Y345099D01*
Y345624D01*
X524173Y344574D02*
X525223D01*
X528896Y343000D02*
X526797D01*
X528896Y345099D01*
Y345624D01*
X528371Y346149D01*
X527322D01*
X526797Y345624D01*
X542047Y188722D02*
Y191871D01*
X543621D01*
X544146Y191346D01*
Y190296D01*
X543621Y189772D01*
X542047D01*
X543096D02*
X544146Y188722D01*
X545195Y191346D02*
X545720Y191871D01*
X546770D01*
X547294Y191346D01*
Y190821D01*
X546770Y190296D01*
X546245D01*
X546770D01*
X547294Y189772D01*
Y189247D01*
X546770Y188722D01*
X545720D01*
X545195Y189247D01*
X550443Y191871D02*
X549393Y191346D01*
X548344Y190296D01*
Y189247D01*
X548869Y188722D01*
X549918D01*
X550443Y189247D01*
Y189772D01*
X549918Y190296D01*
X548344D01*
X542547Y219722D02*
Y222871D01*
X544121D01*
X544646Y222346D01*
Y221297D01*
X544121Y220772D01*
X542547D01*
X543596D02*
X544646Y219722D01*
X545695Y222346D02*
X546220Y222871D01*
X547270D01*
X547794Y222346D01*
Y221821D01*
X547270Y221297D01*
X546745D01*
X547270D01*
X547794Y220772D01*
Y220247D01*
X547270Y219722D01*
X546220D01*
X545695Y220247D01*
X548844Y222871D02*
X550943D01*
Y222346D01*
X548844Y220247D01*
Y219722D01*
X542551Y254805D02*
Y257954D01*
X544126D01*
X544650Y257429D01*
Y256380D01*
X544126Y255855D01*
X542551D01*
X543601D02*
X544650Y254805D01*
X545700Y257429D02*
X546225Y257954D01*
X547274D01*
X547799Y257429D01*
Y256905D01*
X547274Y256380D01*
X546749D01*
X547274D01*
X547799Y255855D01*
Y255330D01*
X547274Y254805D01*
X546225D01*
X545700Y255330D01*
X548848Y257429D02*
X549373Y257954D01*
X550423D01*
X550948Y257429D01*
Y256905D01*
X550423Y256380D01*
X550948Y255855D01*
Y255330D01*
X550423Y254805D01*
X549373D01*
X548848Y255330D01*
Y255855D01*
X549373Y256380D01*
X548848Y256905D01*
Y257429D01*
X549373Y256380D02*
X550423D01*
X532500Y307349D02*
Y304200D01*
X534074D01*
X534599Y304725D01*
Y306824D01*
X534074Y307349D01*
X532500D01*
X537748Y306824D02*
X537223Y307349D01*
X536173D01*
X535649Y306824D01*
Y306299D01*
X536173Y305774D01*
X537223D01*
X537748Y305250D01*
Y304725D01*
X537223Y304200D01*
X536173D01*
X535649Y304725D01*
X538797Y306824D02*
X539322Y307349D01*
X540372D01*
X540896Y306824D01*
Y306299D01*
X540372Y305774D01*
X539847D01*
X540372D01*
X540896Y305250D01*
Y304725D01*
X540372Y304200D01*
X539322D01*
X538797Y304725D01*
X541946Y307349D02*
X544045D01*
Y306824D01*
X541946Y304725D01*
Y304200D01*
X532500Y377049D02*
Y373900D01*
X534074D01*
X534599Y374425D01*
Y376524D01*
X534074Y377049D01*
X532500D01*
X537748Y376524D02*
X537223Y377049D01*
X536173D01*
X535649Y376524D01*
Y375999D01*
X536173Y375474D01*
X537223D01*
X537748Y374950D01*
Y374425D01*
X537223Y373900D01*
X536173D01*
X535649Y374425D01*
X540372Y373900D02*
Y377049D01*
X538797Y375474D01*
X540896D01*
X541946Y376524D02*
X542471Y377049D01*
X543520D01*
X544045Y376524D01*
Y374425D01*
X543520Y373900D01*
X542471D01*
X541946Y374425D01*
Y376524D01*
X532500Y411849D02*
Y408700D01*
X534074D01*
X534599Y409225D01*
Y411324D01*
X534074Y411849D01*
X532500D01*
X537748Y411324D02*
X537223Y411849D01*
X536173D01*
X535649Y411324D01*
Y410799D01*
X536173Y410274D01*
X537223D01*
X537748Y409750D01*
Y409225D01*
X537223Y408700D01*
X536173D01*
X535649Y409225D01*
X540372Y408700D02*
Y411849D01*
X538797Y410274D01*
X540896D01*
X541946Y408700D02*
X542995D01*
X542471D01*
Y411849D01*
X541946Y411324D01*
X543038Y429647D02*
Y432795D01*
X544612D01*
X545137Y432271D01*
Y431221D01*
X544612Y430696D01*
X543038D01*
X544087D02*
X545137Y429647D01*
X547761D02*
Y432795D01*
X546186Y431221D01*
X548285D01*
X550909Y429647D02*
Y432795D01*
X549335Y431221D01*
X551434D01*
X532500Y446649D02*
Y443500D01*
X534074D01*
X534599Y444025D01*
Y446124D01*
X534074Y446649D01*
X532500D01*
X537748Y446124D02*
X537223Y446649D01*
X536173D01*
X535649Y446124D01*
Y445599D01*
X536173Y445074D01*
X537223D01*
X537748Y444550D01*
Y444025D01*
X537223Y443500D01*
X536173D01*
X535649Y444025D01*
X540372Y443500D02*
Y446649D01*
X538797Y445074D01*
X540896D01*
X544045Y443500D02*
X541946D01*
X544045Y445599D01*
Y446124D01*
X543520Y446649D01*
X542471D01*
X541946Y446124D01*
X532500Y481149D02*
Y478000D01*
X534074D01*
X534599Y478525D01*
Y480624D01*
X534074Y481149D01*
X532500D01*
X537748Y480624D02*
X537223Y481149D01*
X536173D01*
X535649Y480624D01*
Y480099D01*
X536173Y479574D01*
X537223D01*
X537748Y479049D01*
Y478525D01*
X537223Y478000D01*
X536173D01*
X535649Y478525D01*
X540372Y478000D02*
Y481149D01*
X538797Y479574D01*
X540896D01*
X541946Y480624D02*
X542471Y481149D01*
X543520D01*
X544045Y480624D01*
Y480099D01*
X543520Y479574D01*
X542995D01*
X543520D01*
X544045Y479049D01*
Y478525D01*
X543520Y478000D01*
X542471D01*
X541946Y478525D01*
X570499Y215025D02*
Y217124D01*
X569974Y217649D01*
X568925D01*
X568400Y217124D01*
Y215025D01*
X568925Y214500D01*
X569974D01*
X569450Y215549D02*
X570499Y214500D01*
X569974D02*
X570499Y215025D01*
X571549Y214500D02*
X572598D01*
X572073D01*
Y217649D01*
X571549Y217124D01*
X570499Y319525D02*
Y321624D01*
X569974Y322149D01*
X568925D01*
X568400Y321624D01*
Y319525D01*
X568925Y319000D01*
X569974D01*
X569450Y320050D02*
X570499Y319000D01*
X569974D02*
X570499Y319525D01*
X573648Y319000D02*
X571549D01*
X573648Y321099D01*
Y321624D01*
X573123Y322149D01*
X572073D01*
X571549Y321624D01*
X570499Y390625D02*
Y392724D01*
X569974Y393249D01*
X568925D01*
X568400Y392724D01*
Y390625D01*
X568925Y390100D01*
X569974D01*
X569450Y391149D02*
X570499Y390100D01*
X569974D02*
X570499Y390625D01*
X571549Y392724D02*
X572073Y393249D01*
X573123D01*
X573648Y392724D01*
Y392199D01*
X573123Y391674D01*
X572598D01*
X573123D01*
X573648Y391149D01*
Y390625D01*
X573123Y390100D01*
X572073D01*
X571549Y390625D01*
X587500Y218500D02*
Y221649D01*
X589074D01*
X589599Y221124D01*
Y220074D01*
X589074Y219549D01*
X587500D01*
X588550D02*
X589599Y218500D01*
X592748Y221649D02*
X590649D01*
Y220074D01*
X591698Y220599D01*
X592223D01*
X592748Y220074D01*
Y219025D01*
X592223Y218500D01*
X591173D01*
X590649Y219025D01*
X593797Y221124D02*
X594322Y221649D01*
X595371D01*
X595896Y221124D01*
Y220599D01*
X595371Y220074D01*
X594847D01*
X595371D01*
X595896Y219549D01*
Y219025D01*
X595371Y218500D01*
X594322D01*
X593797Y219025D01*
X587500Y323500D02*
Y326649D01*
X589074D01*
X589599Y326124D01*
Y325074D01*
X589074Y324550D01*
X587500D01*
X588550D02*
X589599Y323500D01*
X592748Y326649D02*
X590649D01*
Y325074D01*
X591698Y325599D01*
X592223D01*
X592748Y325074D01*
Y324025D01*
X592223Y323500D01*
X591173D01*
X590649Y324025D01*
X595371Y323500D02*
Y326649D01*
X593797Y325074D01*
X595896D01*
X283600Y476700D02*
Y479849D01*
X285174D01*
X285699Y479324D01*
Y478274D01*
X285174Y477749D01*
X283600D01*
X284649D02*
X285699Y476700D01*
X288848Y479849D02*
X286749D01*
Y478274D01*
X287798Y478799D01*
X288323D01*
X288848Y478274D01*
Y477225D01*
X288323Y476700D01*
X287273D01*
X286749Y477225D01*
X289897Y479849D02*
X291996D01*
Y479324D01*
X289897Y477225D01*
Y476700D01*
X286499Y461125D02*
Y463224D01*
X285974Y463749D01*
X284925D01*
X284400Y463224D01*
Y461125D01*
X284925Y460600D01*
X285974D01*
X285450Y461650D02*
X286499Y460600D01*
X285974D02*
X286499Y461125D01*
X289648Y463749D02*
X287549D01*
Y462174D01*
X288598Y462699D01*
X289123D01*
X289648Y462174D01*
Y461125D01*
X289123Y460600D01*
X288073D01*
X287549Y461125D01*
X316516Y204998D02*
Y201849D01*
X318090D01*
X318615Y202374D01*
Y204473D01*
X318090Y204998D01*
X316516D01*
X321764Y204473D02*
X321239Y204998D01*
X320189D01*
X319665Y204473D01*
Y203948D01*
X320189Y203424D01*
X321239D01*
X321764Y202899D01*
Y202374D01*
X321239Y201849D01*
X320189D01*
X319665Y202374D01*
X324912Y204998D02*
X322813D01*
Y203424D01*
X323863Y203948D01*
X324388D01*
X324912Y203424D01*
Y202374D01*
X324388Y201849D01*
X323338D01*
X322813Y202374D01*
X325962D02*
X326486Y201849D01*
X327536D01*
X328061Y202374D01*
Y204473D01*
X327536Y204998D01*
X326486D01*
X325962Y204473D01*
Y203948D01*
X326486Y203424D01*
X328061D01*
X317512Y270331D02*
Y267182D01*
X319086D01*
X319611Y267707D01*
Y269806D01*
X319086Y270331D01*
X317512D01*
X322759Y269806D02*
X322234Y270331D01*
X321185D01*
X320660Y269806D01*
Y269281D01*
X321185Y268757D01*
X322234D01*
X322759Y268232D01*
Y267707D01*
X322234Y267182D01*
X321185D01*
X320660Y267707D01*
X325908Y270331D02*
X323809D01*
Y268757D01*
X324858Y269281D01*
X325383D01*
X325908Y268757D01*
Y267707D01*
X325383Y267182D01*
X324333D01*
X323809Y267707D01*
X326957Y270331D02*
X329056D01*
Y269806D01*
X326957Y267707D01*
Y267182D01*
X322523Y359556D02*
Y362704D01*
X324098D01*
X324623Y362179D01*
Y361130D01*
X324098Y360605D01*
X322523D01*
X323573D02*
X324623Y359556D01*
X327771Y362704D02*
X326722Y362179D01*
X325672Y361130D01*
Y360080D01*
X326197Y359556D01*
X327246D01*
X327771Y360080D01*
Y360605D01*
X327246Y361130D01*
X325672D01*
X328821Y362179D02*
X329345Y362704D01*
X330395D01*
X330920Y362179D01*
Y360080D01*
X330395Y359556D01*
X329345D01*
X328821Y360080D01*
Y362179D01*
X322568Y394639D02*
Y397787D01*
X324142D01*
X324667Y397263D01*
Y396213D01*
X324142Y395688D01*
X322568D01*
X323617D02*
X324667Y394639D01*
X327815Y397787D02*
X325716D01*
Y396213D01*
X326766Y396738D01*
X327291D01*
X327815Y396213D01*
Y395164D01*
X327291Y394639D01*
X326241D01*
X325716Y395164D01*
X328865D02*
X329390Y394639D01*
X330439D01*
X330964Y395164D01*
Y397263D01*
X330439Y397787D01*
X329390D01*
X328865Y397263D01*
Y396738D01*
X329390Y396213D01*
X330964D01*
X337000Y334500D02*
Y337649D01*
X338574D01*
X339099Y337124D01*
Y336074D01*
X338574Y335549D01*
X337000D01*
X338050D02*
X339099Y334500D01*
X340149Y337124D02*
X340673Y337649D01*
X341723D01*
X342248Y337124D01*
Y336599D01*
X341723Y336074D01*
X342248Y335549D01*
Y335025D01*
X341723Y334500D01*
X340673D01*
X340149Y335025D01*
Y335549D01*
X340673Y336074D01*
X340149Y336599D01*
Y337124D01*
X340673Y336074D02*
X341723D01*
X343297Y334500D02*
X344347D01*
X343822D01*
Y337649D01*
X343297Y337124D01*
X348004Y204998D02*
Y201849D01*
X349579D01*
X350103Y202374D01*
Y204473D01*
X349579Y204998D01*
X348004D01*
X353252Y204473D02*
X352727Y204998D01*
X351678D01*
X351153Y204473D01*
Y203948D01*
X351678Y203424D01*
X352727D01*
X353252Y202899D01*
Y202374D01*
X352727Y201849D01*
X351678D01*
X351153Y202374D01*
X356401Y204998D02*
X355351Y204473D01*
X354302Y203424D01*
Y202374D01*
X354826Y201849D01*
X355876D01*
X356401Y202374D01*
Y202899D01*
X355876Y203424D01*
X354302D01*
X357450Y204473D02*
X357975Y204998D01*
X359025D01*
X359549Y204473D01*
Y202374D01*
X359025Y201849D01*
X357975D01*
X357450Y202374D01*
Y204473D01*
X344000Y272549D02*
Y269400D01*
X345574D01*
X346099Y269925D01*
Y272024D01*
X345574Y272549D01*
X344000D01*
X349248Y272024D02*
X348723Y272549D01*
X347673D01*
X347149Y272024D01*
Y271499D01*
X347673Y270974D01*
X348723D01*
X349248Y270449D01*
Y269925D01*
X348723Y269400D01*
X347673D01*
X347149Y269925D01*
X350297Y269400D02*
X351347D01*
X350822D01*
Y272549D01*
X350297Y272024D01*
X352921Y269925D02*
X353446Y269400D01*
X354495D01*
X355020Y269925D01*
Y272024D01*
X354495Y272549D01*
X353446D01*
X352921Y272024D01*
Y271499D01*
X353446Y270974D01*
X355020D01*
X353899Y336625D02*
Y338724D01*
X353374Y339249D01*
X352325D01*
X351800Y338724D01*
Y336625D01*
X352325Y336100D01*
X353374D01*
X352850Y337150D02*
X353899Y336100D01*
X353374D02*
X353899Y336625D01*
X354949D02*
X355473Y336100D01*
X356523D01*
X357048Y336625D01*
Y338724D01*
X356523Y339249D01*
X355473D01*
X354949Y338724D01*
Y338199D01*
X355473Y337674D01*
X357048D01*
X354201Y359556D02*
Y362704D01*
X355776D01*
X356300Y362179D01*
Y361130D01*
X355776Y360605D01*
X354201D01*
X355251D02*
X356300Y359556D01*
X359449Y362704D02*
X358400Y362179D01*
X357350Y361130D01*
Y360080D01*
X357875Y359556D01*
X358924D01*
X359449Y360080D01*
Y360605D01*
X358924Y361130D01*
X357350D01*
X360498Y359556D02*
X361548D01*
X361023D01*
Y362704D01*
X360498Y362179D01*
X352080Y394191D02*
Y397340D01*
X353654D01*
X354179Y396815D01*
Y395766D01*
X353654Y395241D01*
X352080D01*
X353130D02*
X354179Y394191D01*
X355229Y397340D02*
X357328D01*
Y396815D01*
X355229Y394716D01*
Y394191D01*
X379466Y204998D02*
Y201849D01*
X381040D01*
X381565Y202374D01*
Y204473D01*
X381040Y204998D01*
X379466D01*
X384714Y204473D02*
X384189Y204998D01*
X383139D01*
X382615Y204473D01*
Y203948D01*
X383139Y203424D01*
X384189D01*
X384714Y202899D01*
Y202374D01*
X384189Y201849D01*
X383139D01*
X382615Y202374D01*
X387862Y204998D02*
X386813Y204473D01*
X385763Y203424D01*
Y202374D01*
X386288Y201849D01*
X387338D01*
X387862Y202374D01*
Y202899D01*
X387338Y203424D01*
X385763D01*
X388912Y201849D02*
X389961D01*
X389437D01*
Y204998D01*
X388912Y204473D01*
X375300Y272549D02*
Y269400D01*
X376874D01*
X377399Y269925D01*
Y272024D01*
X376874Y272549D01*
X375300D01*
X380548Y272024D02*
X380023Y272549D01*
X378973D01*
X378449Y272024D01*
Y271499D01*
X378973Y270974D01*
X380023D01*
X380548Y270449D01*
Y269925D01*
X380023Y269400D01*
X378973D01*
X378449Y269925D01*
X383696Y269400D02*
X381597D01*
X383696Y271499D01*
Y272024D01*
X383172Y272549D01*
X382122D01*
X381597Y272024D01*
X384746D02*
X385271Y272549D01*
X386320D01*
X386845Y272024D01*
Y269925D01*
X386320Y269400D01*
X385271D01*
X384746Y269925D01*
Y272024D01*
X384356Y359556D02*
Y362704D01*
X385930D01*
X386455Y362179D01*
Y361130D01*
X385930Y360605D01*
X384356D01*
X385406D02*
X386455Y359556D01*
X387505Y362704D02*
X389604D01*
Y362179D01*
X387505Y360080D01*
Y359556D01*
X390653Y362179D02*
X391178Y362704D01*
X392228D01*
X392752Y362179D01*
Y360080D01*
X392228Y359556D01*
X391178D01*
X390653Y360080D01*
Y362179D01*
X383380Y394191D02*
Y397340D01*
X384954D01*
X385479Y396815D01*
Y395766D01*
X384954Y395241D01*
X383380D01*
X384430D02*
X385479Y394191D01*
X386529Y396815D02*
X387053Y397340D01*
X388103D01*
X388628Y396815D01*
Y396290D01*
X388103Y395766D01*
X388628Y395241D01*
Y394716D01*
X388103Y394191D01*
X387053D01*
X386529Y394716D01*
Y395241D01*
X387053Y395766D01*
X386529Y396290D01*
Y396815D01*
X387053Y395766D02*
X388103D01*
X410591Y204998D02*
Y201849D01*
X412165D01*
X412690Y202374D01*
Y204473D01*
X412165Y204998D01*
X410591D01*
X415838Y204473D02*
X415314Y204998D01*
X414264D01*
X413739Y204473D01*
Y203948D01*
X414264Y203424D01*
X415314D01*
X415838Y202899D01*
Y202374D01*
X415314Y201849D01*
X414264D01*
X413739Y202374D01*
X418987Y204998D02*
X417938Y204473D01*
X416888Y203424D01*
Y202374D01*
X417413Y201849D01*
X418462D01*
X418987Y202374D01*
Y202899D01*
X418462Y203424D01*
X416888D01*
X422136Y201849D02*
X420037D01*
X422136Y203948D01*
Y204473D01*
X421611Y204998D01*
X420561D01*
X420037Y204473D01*
X406600Y272549D02*
Y269400D01*
X408174D01*
X408699Y269925D01*
Y272024D01*
X408174Y272549D01*
X406600D01*
X411848Y272024D02*
X411323Y272549D01*
X410273D01*
X409749Y272024D01*
Y271499D01*
X410273Y270974D01*
X411323D01*
X411848Y270449D01*
Y269925D01*
X411323Y269400D01*
X410273D01*
X409749Y269925D01*
X414996Y269400D02*
X412897D01*
X414996Y271499D01*
Y272024D01*
X414471Y272549D01*
X413422D01*
X412897Y272024D01*
X416046Y269400D02*
X417095D01*
X416571D01*
Y272549D01*
X416046Y272024D01*
X415867Y359108D02*
Y362257D01*
X417442D01*
X417967Y361732D01*
Y360682D01*
X417442Y360158D01*
X415867D01*
X416917D02*
X417967Y359108D01*
X419016D02*
X420065D01*
X419541D01*
Y362257D01*
X419016Y361732D01*
X421640D02*
X422165Y362257D01*
X423214D01*
X423739Y361732D01*
Y361207D01*
X423214Y360682D01*
X422689D01*
X423214D01*
X423739Y360158D01*
Y359633D01*
X423214Y359108D01*
X422165D01*
X421640Y359633D01*
X414680Y394191D02*
Y397340D01*
X416254D01*
X416779Y396815D01*
Y395766D01*
X416254Y395241D01*
X414680D01*
X415730D02*
X416779Y394191D01*
X417829Y394716D02*
X418354Y394191D01*
X419403D01*
X419928Y394716D01*
Y396815D01*
X419403Y397340D01*
X418354D01*
X417829Y396815D01*
Y396290D01*
X418354Y395766D01*
X419928D01*
X437900Y207149D02*
Y204000D01*
X439474D01*
X439999Y204525D01*
Y206624D01*
X439474Y207149D01*
X437900D01*
X443148Y206624D02*
X442623Y207149D01*
X441573D01*
X441049Y206624D01*
Y206099D01*
X441573Y205574D01*
X442623D01*
X443148Y205049D01*
Y204525D01*
X442623Y204000D01*
X441573D01*
X441049Y204525D01*
X444197Y206624D02*
X444722Y207149D01*
X445772D01*
X446296Y206624D01*
Y206099D01*
X445772Y205574D01*
X445247D01*
X445772D01*
X446296Y205049D01*
Y204525D01*
X445772Y204000D01*
X444722D01*
X444197Y204525D01*
X447346Y204000D02*
X448395D01*
X447870D01*
Y207149D01*
X447346Y206624D01*
X437900Y272549D02*
Y269400D01*
X439474D01*
X439999Y269925D01*
Y272024D01*
X439474Y272549D01*
X437900D01*
X443148Y272024D02*
X442623Y272549D01*
X441573D01*
X441049Y272024D01*
Y271499D01*
X441573Y270974D01*
X442623D01*
X443148Y270449D01*
Y269925D01*
X442623Y269400D01*
X441573D01*
X441049Y269925D01*
X446296Y269400D02*
X444197D01*
X446296Y271499D01*
Y272024D01*
X445772Y272549D01*
X444722D01*
X444197Y272024D01*
X449445Y269400D02*
X447346D01*
X449445Y271499D01*
Y272024D01*
X448920Y272549D01*
X447870D01*
X447346Y272024D01*
X447167Y359108D02*
Y362257D01*
X448742D01*
X449266Y361732D01*
Y360682D01*
X448742Y360158D01*
X447167D01*
X448217D02*
X449266Y359108D01*
X450316D02*
X451366D01*
X450841D01*
Y362257D01*
X450316Y361732D01*
X454514Y359108D02*
Y362257D01*
X452940Y360682D01*
X455039D01*
X447167Y394191D02*
Y397340D01*
X448742D01*
X449266Y396815D01*
Y395766D01*
X448742Y395241D01*
X447167D01*
X448217D02*
X449266Y394191D01*
X450316D02*
X451366D01*
X450841D01*
Y397340D01*
X450316Y396815D01*
X452940D02*
X453465Y397340D01*
X454514D01*
X455039Y396815D01*
Y394716D01*
X454514Y394191D01*
X453465D01*
X452940Y394716D01*
Y396815D01*
X469200Y207149D02*
Y204000D01*
X470774D01*
X471299Y204525D01*
Y206624D01*
X470774Y207149D01*
X469200D01*
X474448Y206624D02*
X473923Y207149D01*
X472873D01*
X472349Y206624D01*
Y206099D01*
X472873Y205574D01*
X473923D01*
X474448Y205049D01*
Y204525D01*
X473923Y204000D01*
X472873D01*
X472349Y204525D01*
X475497Y206624D02*
X476022Y207149D01*
X477072D01*
X477596Y206624D01*
Y206099D01*
X477072Y205574D01*
X476547D01*
X477072D01*
X477596Y205049D01*
Y204525D01*
X477072Y204000D01*
X476022D01*
X475497Y204525D01*
X480745Y204000D02*
X478646D01*
X480745Y206099D01*
Y206624D01*
X480220Y207149D01*
X479171D01*
X478646Y206624D01*
X469200Y272549D02*
Y269400D01*
X470774D01*
X471299Y269925D01*
Y272024D01*
X470774Y272549D01*
X469200D01*
X474448Y272024D02*
X473923Y272549D01*
X472873D01*
X472349Y272024D01*
Y271499D01*
X472873Y270974D01*
X473923D01*
X474448Y270449D01*
Y269925D01*
X473923Y269400D01*
X472873D01*
X472349Y269925D01*
X477596Y269400D02*
X475497D01*
X477596Y271499D01*
Y272024D01*
X477072Y272549D01*
X476022D01*
X475497Y272024D01*
X478646D02*
X479171Y272549D01*
X480220D01*
X480745Y272024D01*
Y271499D01*
X480220Y270974D01*
X479695D01*
X480220D01*
X480745Y270449D01*
Y269925D01*
X480220Y269400D01*
X479171D01*
X478646Y269925D01*
X479746Y359556D02*
Y362704D01*
X481321D01*
X481845Y362179D01*
Y361130D01*
X481321Y360605D01*
X479746D01*
X480796D02*
X481845Y359556D01*
X482895Y362704D02*
X484994D01*
Y362179D01*
X482895Y360080D01*
Y359556D01*
X488143Y362704D02*
X487093Y362179D01*
X486044Y361130D01*
Y360080D01*
X486568Y359556D01*
X487618D01*
X488143Y360080D01*
Y360605D01*
X487618Y361130D01*
X486044D01*
X477992Y394191D02*
Y397340D01*
X479567D01*
X480091Y396815D01*
Y395766D01*
X479567Y395241D01*
X477992D01*
X479042D02*
X480091Y394191D01*
X481141D02*
X482191D01*
X481666D01*
Y397340D01*
X481141Y396815D01*
X483765Y394191D02*
X484814D01*
X484290D01*
Y397340D01*
X483765Y396815D01*
X500500Y207149D02*
Y204000D01*
X502074D01*
X502599Y204525D01*
Y206624D01*
X502074Y207149D01*
X500500D01*
X505748Y206624D02*
X505223Y207149D01*
X504173D01*
X503649Y206624D01*
Y206099D01*
X504173Y205574D01*
X505223D01*
X505748Y205049D01*
Y204525D01*
X505223Y204000D01*
X504173D01*
X503649Y204525D01*
X506797Y206624D02*
X507322Y207149D01*
X508371D01*
X508896Y206624D01*
Y206099D01*
X508371Y205574D01*
X507847D01*
X508371D01*
X508896Y205049D01*
Y204525D01*
X508371Y204000D01*
X507322D01*
X506797Y204525D01*
X509946Y206624D02*
X510470Y207149D01*
X511520D01*
X512045Y206624D01*
Y206099D01*
X511520Y205574D01*
X510995D01*
X511520D01*
X512045Y205049D01*
Y204525D01*
X511520Y204000D01*
X510470D01*
X509946Y204525D01*
X500500Y272549D02*
Y269400D01*
X502074D01*
X502599Y269925D01*
Y272024D01*
X502074Y272549D01*
X500500D01*
X505748Y272024D02*
X505223Y272549D01*
X504173D01*
X503649Y272024D01*
Y271499D01*
X504173Y270974D01*
X505223D01*
X505748Y270449D01*
Y269925D01*
X505223Y269400D01*
X504173D01*
X503649Y269925D01*
X508896Y269400D02*
X506797D01*
X508896Y271499D01*
Y272024D01*
X508371Y272549D01*
X507322D01*
X506797Y272024D01*
X511520Y269400D02*
Y272549D01*
X509946Y270974D01*
X512045D01*
X511202Y359487D02*
Y362636D01*
X512776D01*
X513301Y362111D01*
Y361061D01*
X512776Y360537D01*
X511202D01*
X512251D02*
X513301Y359487D01*
X515925D02*
Y362636D01*
X514350Y361061D01*
X516449D01*
X517499Y359487D02*
X518548D01*
X518024D01*
Y362636D01*
X517499Y362111D01*
X509768Y394191D02*
Y397340D01*
X511342D01*
X511867Y396815D01*
Y395766D01*
X511342Y395241D01*
X509768D01*
X510817D02*
X511867Y394191D01*
X512916D02*
X513966D01*
X513441D01*
Y397340D01*
X512916Y396815D01*
X517639Y394191D02*
X515540D01*
X517639Y396290D01*
Y396815D01*
X517114Y397340D01*
X516065D01*
X515540Y396815D01*
X532500Y207149D02*
Y204000D01*
X534074D01*
X534599Y204525D01*
Y206624D01*
X534074Y207149D01*
X532500D01*
X537748Y206624D02*
X537223Y207149D01*
X536173D01*
X535649Y206624D01*
Y206099D01*
X536173Y205574D01*
X537223D01*
X537748Y205049D01*
Y204525D01*
X537223Y204000D01*
X536173D01*
X535649Y204525D01*
X538797Y206624D02*
X539322Y207149D01*
X540372D01*
X540896Y206624D01*
Y206099D01*
X540372Y205574D01*
X539847D01*
X540372D01*
X540896Y205049D01*
Y204525D01*
X540372Y204000D01*
X539322D01*
X538797Y204525D01*
X543520Y204000D02*
Y207149D01*
X541946Y205574D01*
X544045D01*
X532500Y272549D02*
Y269400D01*
X534074D01*
X534599Y269925D01*
Y272024D01*
X534074Y272549D01*
X532500D01*
X537748Y272024D02*
X537223Y272549D01*
X536173D01*
X535649Y272024D01*
Y271499D01*
X536173Y270974D01*
X537223D01*
X537748Y270449D01*
Y269925D01*
X537223Y269400D01*
X536173D01*
X535649Y269925D01*
X538797Y272024D02*
X539322Y272549D01*
X540372D01*
X540896Y272024D01*
Y271499D01*
X540372Y270974D01*
X539847D01*
X540372D01*
X540896Y270449D01*
Y269925D01*
X540372Y269400D01*
X539322D01*
X538797Y269925D01*
X544045Y272549D02*
X542995Y272024D01*
X541946Y270974D01*
Y269925D01*
X542471Y269400D01*
X543520D01*
X544045Y269925D01*
Y270449D01*
X543520Y270974D01*
X541946D01*
X543026Y359487D02*
Y362636D01*
X544601D01*
X545125Y362111D01*
Y361061D01*
X544601Y360537D01*
X543026D01*
X544076D02*
X545125Y359487D01*
X547749D02*
Y362636D01*
X546175Y361061D01*
X548274D01*
X551423Y359487D02*
X549324D01*
X551423Y361586D01*
Y362111D01*
X550898Y362636D01*
X549848D01*
X549324Y362111D01*
X543047Y394639D02*
Y397787D01*
X544621D01*
X545146Y397263D01*
Y396213D01*
X544621Y395688D01*
X543047D01*
X544096D02*
X545146Y394639D01*
X547770D02*
Y397787D01*
X546195Y396213D01*
X548294D01*
X549344Y397263D02*
X549869Y397787D01*
X550918D01*
X551443Y397263D01*
Y396738D01*
X550918Y396213D01*
X550393D01*
X550918D01*
X551443Y395688D01*
Y395164D01*
X550918Y394639D01*
X549869D01*
X549344Y395164D01*
X570499Y457025D02*
Y459124D01*
X569974Y459649D01*
X568925D01*
X568400Y459124D01*
Y457025D01*
X568925Y456500D01*
X569974D01*
X569450Y457549D02*
X570499Y456500D01*
X569974D02*
X570499Y457025D01*
X573123Y456500D02*
Y459649D01*
X571549Y458074D01*
X573648D01*
X587500Y394000D02*
Y397149D01*
X589074D01*
X589599Y396624D01*
Y395574D01*
X589074Y395050D01*
X587500D01*
X588550D02*
X589599Y394000D01*
X592748Y397149D02*
X590649D01*
Y395574D01*
X591698Y396099D01*
X592223D01*
X592748Y395574D01*
Y394525D01*
X592223Y394000D01*
X591173D01*
X590649Y394525D01*
X595896Y397149D02*
X593797D01*
Y395574D01*
X594847Y396099D01*
X595371D01*
X595896Y395574D01*
Y394525D01*
X595371Y394000D01*
X594322D01*
X593797Y394525D01*
X587500Y460500D02*
Y463649D01*
X589074D01*
X589599Y463124D01*
Y462074D01*
X589074Y461550D01*
X587500D01*
X588550D02*
X589599Y460500D01*
X592748Y463649D02*
X590649D01*
Y462074D01*
X591698Y462599D01*
X592223D01*
X592748Y462074D01*
Y461025D01*
X592223Y460500D01*
X591173D01*
X590649Y461025D01*
X595896Y463649D02*
X594847Y463124D01*
X593797Y462074D01*
Y461025D01*
X594322Y460500D01*
X595371D01*
X595896Y461025D01*
Y461550D01*
X595371Y462074D01*
X593797D01*
M02*
