G04*
G04 #@! TF.GenerationSoftware,Altium Limited,Altium Designer,20.1.12 (249)*
G04*
G04 Layer_Color=16711935*
%FSLAX25Y25*%
%MOIN*%
G70*
G04*
G04 #@! TF.SameCoordinates,9558268F-E582-4542-BACD-EEF3D3045912*
G04*
G04*
G04 #@! TF.FilePolarity,Positive*
G04*
G01*
G75*
%ADD12C,0.00787*%
G36*
X618022Y386801D02*
X617723D01*
Y388165D01*
X616944D01*
Y386984D01*
X616645D01*
Y388165D01*
X615500D01*
Y388500D01*
X618022D01*
Y386801D01*
D02*
G37*
G36*
X617400Y386250D02*
X617403Y386242D01*
X617409Y386230D01*
X617418Y386209D01*
X617430Y386188D01*
X617445Y386162D01*
X617462Y386132D01*
X617480Y386100D01*
X617522Y386028D01*
X617572Y385954D01*
X617628Y385875D01*
X617690Y385801D01*
X617693Y385798D01*
X617699Y385792D01*
X617708Y385783D01*
X617720Y385768D01*
X617735Y385753D01*
X617756Y385735D01*
X617800Y385694D01*
X617850Y385647D01*
X617906Y385602D01*
X617969Y385561D01*
X618031Y385525D01*
Y385324D01*
X615500D01*
Y385635D01*
X617471D01*
X617465Y385641D01*
X617453Y385655D01*
X617433Y385679D01*
X617406Y385715D01*
X617374Y385756D01*
X617335Y385806D01*
X617297Y385866D01*
X617258Y385931D01*
Y385934D01*
X617252Y385940D01*
X617249Y385948D01*
X617240Y385960D01*
X617223Y385996D01*
X617199Y386037D01*
X617172Y386088D01*
X617146Y386144D01*
X617122Y386200D01*
X617098Y386253D01*
X617397D01*
X617400Y386250D01*
D02*
G37*
G36*
X668345Y250569D02*
X668366Y250566D01*
X668416Y250560D01*
X668475Y250552D01*
X668540Y250534D01*
X668606Y250513D01*
X668671Y250483D01*
X668674D01*
X668680Y250480D01*
X668688Y250475D01*
X668700Y250469D01*
X668730Y250448D01*
X668768Y250421D01*
X668813Y250386D01*
X668857Y250344D01*
X668899Y250294D01*
X668937Y250241D01*
Y250238D01*
X668940Y250235D01*
X668946Y250226D01*
X668952Y250214D01*
X668967Y250184D01*
X668985Y250143D01*
X669002Y250096D01*
X669017Y250042D01*
X669029Y249980D01*
X669032Y249918D01*
Y249915D01*
Y249912D01*
Y249903D01*
Y249891D01*
X669026Y249859D01*
X669020Y249820D01*
X669011Y249773D01*
X668993Y249723D01*
X668973Y249672D01*
X668943Y249619D01*
X668940Y249613D01*
X668925Y249598D01*
X668905Y249572D01*
X668878Y249542D01*
X668839Y249510D01*
X668795Y249474D01*
X668742Y249442D01*
X668682Y249409D01*
X668685D01*
X668691Y249406D01*
X668703Y249403D01*
X668721Y249397D01*
X668739Y249391D01*
X668759Y249382D01*
X668810Y249361D01*
X668866Y249332D01*
X668925Y249296D01*
X668982Y249249D01*
X669032Y249193D01*
X669035Y249190D01*
X669038Y249187D01*
X669044Y249178D01*
X669053Y249163D01*
X669061Y249148D01*
X669070Y249131D01*
X669082Y249107D01*
X669094Y249083D01*
X669118Y249024D01*
X669135Y248953D01*
X669150Y248876D01*
X669156Y248787D01*
Y248784D01*
Y248773D01*
X669153Y248755D01*
Y248731D01*
X669150Y248704D01*
X669144Y248672D01*
X669135Y248633D01*
X669127Y248595D01*
X669112Y248551D01*
X669097Y248506D01*
X669076Y248459D01*
X669053Y248411D01*
X669026Y248364D01*
X668993Y248320D01*
X668955Y248272D01*
X668913Y248228D01*
X668911Y248225D01*
X668902Y248219D01*
X668890Y248207D01*
X668869Y248192D01*
X668845Y248175D01*
X668819Y248157D01*
X668786Y248136D01*
X668748Y248115D01*
X668706Y248092D01*
X668659Y248071D01*
X668609Y248053D01*
X668555Y248036D01*
X668496Y248021D01*
X668437Y248009D01*
X668372Y248003D01*
X668304Y248000D01*
X668271D01*
X668247Y248003D01*
X668221Y248006D01*
X668188Y248012D01*
X668150Y248018D01*
X668111Y248024D01*
X668022Y248047D01*
X667978Y248062D01*
X667931Y248083D01*
X667886Y248103D01*
X667839Y248130D01*
X667795Y248160D01*
X667753Y248195D01*
X667750Y248198D01*
X667744Y248204D01*
X667732Y248216D01*
X667718Y248231D01*
X667703Y248252D01*
X667682Y248275D01*
X667661Y248302D01*
X667641Y248334D01*
X667617Y248370D01*
X667596Y248408D01*
X667576Y248450D01*
X667555Y248497D01*
X667537Y248545D01*
X667525Y248598D01*
X667513Y248651D01*
X667505Y248710D01*
X667815Y248752D01*
Y248749D01*
X667818Y248740D01*
X667821Y248728D01*
X667827Y248710D01*
X667833Y248687D01*
X667839Y248663D01*
X667857Y248607D01*
X667883Y248545D01*
X667913Y248480D01*
X667951Y248423D01*
X667972Y248397D01*
X667996Y248373D01*
X667999D01*
X668002Y248367D01*
X668019Y248355D01*
X668046Y248337D01*
X668082Y248317D01*
X668129Y248293D01*
X668179Y248275D01*
X668242Y248263D01*
X668307Y248257D01*
X668327D01*
X668342Y248260D01*
X668363Y248263D01*
X668384Y248266D01*
X668434Y248275D01*
X668493Y248293D01*
X668555Y248323D01*
X668588Y248337D01*
X668617Y248358D01*
X668647Y248382D01*
X668677Y248408D01*
X668680Y248411D01*
X668682Y248414D01*
X668691Y248423D01*
X668700Y248435D01*
X668712Y248450D01*
X668724Y248468D01*
X668754Y248512D01*
X668780Y248565D01*
X668804Y248630D01*
X668822Y248702D01*
X668825Y248740D01*
X668828Y248781D01*
Y248784D01*
Y248790D01*
Y248802D01*
X668825Y248817D01*
Y248835D01*
X668822Y248855D01*
X668810Y248906D01*
X668792Y248959D01*
X668768Y249018D01*
X668733Y249077D01*
X668709Y249104D01*
X668685Y249131D01*
X668682Y249134D01*
X668680Y249137D01*
X668671Y249143D01*
X668662Y249151D01*
X668629Y249175D01*
X668591Y249202D01*
X668538Y249225D01*
X668478Y249249D01*
X668410Y249264D01*
X668372Y249270D01*
X668319D01*
X668298Y249267D01*
X668274D01*
X668242Y249261D01*
X668203Y249255D01*
X668162Y249249D01*
X668114Y249237D01*
X668150Y249510D01*
X668156D01*
X668167Y249507D01*
X668182Y249504D01*
X668218D01*
X668233Y249507D01*
X668250D01*
X668271Y249510D01*
X668319Y249516D01*
X668372Y249530D01*
X668431Y249548D01*
X668493Y249572D01*
X668552Y249607D01*
X668555D01*
X668558Y249613D01*
X668576Y249628D01*
X668603Y249652D01*
X668632Y249687D01*
X668662Y249732D01*
X668688Y249785D01*
X668706Y249850D01*
X668709Y249886D01*
X668712Y249924D01*
Y249927D01*
Y249933D01*
Y249942D01*
X668709Y249954D01*
X668706Y249983D01*
X668697Y250022D01*
X668685Y250066D01*
X668665Y250113D01*
X668635Y250161D01*
X668597Y250205D01*
X668591Y250211D01*
X668576Y250223D01*
X668549Y250241D01*
X668517Y250261D01*
X668472Y250282D01*
X668422Y250300D01*
X668363Y250312D01*
X668298Y250318D01*
X668280D01*
X668268Y250315D01*
X668236Y250312D01*
X668191Y250303D01*
X668144Y250291D01*
X668093Y250270D01*
X668043Y250241D01*
X667996Y250202D01*
X667990Y250196D01*
X667978Y250182D01*
X667957Y250155D01*
X667934Y250116D01*
X667907Y250069D01*
X667883Y250010D01*
X667860Y249942D01*
X667845Y249862D01*
X667534Y249918D01*
Y249921D01*
X667537Y249933D01*
X667540Y249948D01*
X667546Y249968D01*
X667555Y249995D01*
X667564Y250025D01*
X667572Y250060D01*
X667587Y250096D01*
X667623Y250173D01*
X667667Y250253D01*
X667694Y250291D01*
X667724Y250329D01*
X667756Y250368D01*
X667792Y250400D01*
X667795Y250403D01*
X667801Y250409D01*
X667812Y250415D01*
X667827Y250427D01*
X667848Y250439D01*
X667872Y250454D01*
X667898Y250471D01*
X667931Y250486D01*
X667963Y250501D01*
X668002Y250519D01*
X668043Y250534D01*
X668088Y250546D01*
X668135Y250557D01*
X668185Y250566D01*
X668236Y250569D01*
X668292Y250572D01*
X668327D01*
X668345Y250569D01*
D02*
G37*
G36*
X670358D02*
X670391Y250566D01*
X670423Y250560D01*
X670465Y250554D01*
X670506Y250549D01*
X670598Y250522D01*
X670645Y250507D01*
X670692Y250486D01*
X670740Y250466D01*
X670787Y250436D01*
X670831Y250406D01*
X670873Y250371D01*
X670876Y250368D01*
X670882Y250362D01*
X670894Y250350D01*
X670905Y250335D01*
X670923Y250315D01*
X670941Y250291D01*
X670959Y250264D01*
X670979Y250232D01*
X671000Y250199D01*
X671018Y250161D01*
X671036Y250119D01*
X671054Y250075D01*
X671065Y250028D01*
X671077Y249977D01*
X671083Y249927D01*
X671086Y249871D01*
Y249868D01*
Y249865D01*
Y249856D01*
Y249844D01*
X671083Y249814D01*
X671077Y249776D01*
X671071Y249732D01*
X671059Y249681D01*
X671045Y249628D01*
X671024Y249572D01*
Y249569D01*
X671021Y249566D01*
X671018Y249557D01*
X671012Y249548D01*
X670997Y249518D01*
X670974Y249480D01*
X670947Y249433D01*
X670911Y249379D01*
X670867Y249323D01*
X670817Y249264D01*
X670814Y249261D01*
X670811Y249258D01*
X670802Y249246D01*
X670790Y249234D01*
X670772Y249219D01*
X670755Y249199D01*
X670731Y249175D01*
X670704Y249148D01*
X670672Y249119D01*
X670636Y249086D01*
X670598Y249051D01*
X670553Y249009D01*
X670506Y248968D01*
X670456Y248923D01*
X670399Y248873D01*
X670340Y248823D01*
X670337Y248820D01*
X670328Y248814D01*
X670314Y248802D01*
X670296Y248784D01*
X670272Y248767D01*
X670248Y248746D01*
X670189Y248696D01*
X670127Y248642D01*
X670068Y248592D01*
X670041Y248565D01*
X670017Y248545D01*
X669997Y248524D01*
X669979Y248506D01*
X669976Y248503D01*
X669967Y248491D01*
X669952Y248477D01*
X669935Y248456D01*
X669914Y248429D01*
X669893Y248403D01*
X669852Y248340D01*
X671089D01*
Y248041D01*
X669420D01*
Y248047D01*
Y248059D01*
Y248083D01*
X669422Y248110D01*
X669425Y248142D01*
X669431Y248178D01*
X669440Y248216D01*
X669455Y248254D01*
Y248257D01*
X669458Y248263D01*
X669461Y248272D01*
X669467Y248284D01*
X669473Y248299D01*
X669482Y248317D01*
X669502Y248361D01*
X669532Y248411D01*
X669568Y248471D01*
X669609Y248530D01*
X669656Y248592D01*
X669659Y248595D01*
X669662Y248601D01*
X669671Y248610D01*
X669683Y248622D01*
X669698Y248636D01*
X669716Y248657D01*
X669736Y248678D01*
X669760Y248702D01*
X669790Y248728D01*
X669819Y248758D01*
X669852Y248787D01*
X669890Y248823D01*
X669929Y248855D01*
X669970Y248894D01*
X670017Y248932D01*
X670065Y248971D01*
X670071Y248974D01*
X670083Y248986D01*
X670103Y249003D01*
X670133Y249027D01*
X670165Y249054D01*
X670204Y249089D01*
X670245Y249125D01*
X670290Y249163D01*
X670382Y249249D01*
X670473Y249338D01*
X670515Y249382D01*
X670556Y249424D01*
X670592Y249465D01*
X670621Y249504D01*
X670624Y249507D01*
X670627Y249513D01*
X670636Y249524D01*
X670645Y249536D01*
X670654Y249554D01*
X670669Y249575D01*
X670695Y249625D01*
X670722Y249681D01*
X670743Y249743D01*
X670760Y249812D01*
X670763Y249844D01*
X670766Y249877D01*
Y249880D01*
Y249886D01*
Y249894D01*
X670763Y249906D01*
X670760Y249942D01*
X670749Y249983D01*
X670734Y250033D01*
X670710Y250084D01*
X670678Y250137D01*
X670657Y250164D01*
X670633Y250187D01*
Y250190D01*
X670627Y250193D01*
X670610Y250208D01*
X670580Y250229D01*
X670541Y250253D01*
X670491Y250273D01*
X670435Y250294D01*
X670367Y250309D01*
X670328Y250315D01*
X670269D01*
X670254Y250312D01*
X670234D01*
X670213Y250309D01*
X670163Y250297D01*
X670106Y250282D01*
X670044Y250258D01*
X669985Y250223D01*
X669958Y250202D01*
X669932Y250179D01*
X669926Y250173D01*
X669920Y250164D01*
X669911Y250155D01*
X669890Y250125D01*
X669867Y250084D01*
X669840Y250030D01*
X669819Y249968D01*
X669804Y249894D01*
X669801Y249853D01*
X669799Y249812D01*
X669479Y249844D01*
Y249847D01*
X669482Y249859D01*
X669485Y249880D01*
X669488Y249903D01*
X669494Y249933D01*
X669499Y249965D01*
X669511Y250004D01*
X669523Y250045D01*
X669553Y250131D01*
X669573Y250179D01*
X669597Y250223D01*
X669624Y250267D01*
X669653Y250309D01*
X669686Y250350D01*
X669725Y250386D01*
X669727Y250389D01*
X669733Y250395D01*
X669745Y250403D01*
X669763Y250415D01*
X669784Y250430D01*
X669810Y250445D01*
X669843Y250463D01*
X669875Y250480D01*
X669914Y250495D01*
X669958Y250513D01*
X670006Y250528D01*
X670056Y250543D01*
X670112Y250554D01*
X670171Y250563D01*
X670234Y250569D01*
X670299Y250572D01*
X670334D01*
X670358Y250569D01*
D02*
G37*
G36*
X666291Y250560D02*
X666323D01*
X666359Y250557D01*
X666397Y250554D01*
X666480Y250546D01*
X666566Y250534D01*
X666649Y250519D01*
X666685Y250507D01*
X666720Y250495D01*
X666723D01*
X666729Y250492D01*
X666738Y250489D01*
X666750Y250483D01*
X666782Y250466D01*
X666821Y250439D01*
X666865Y250406D01*
X666913Y250365D01*
X666957Y250312D01*
X666998Y250253D01*
Y250250D01*
X667004Y250244D01*
X667007Y250235D01*
X667016Y250223D01*
X667022Y250205D01*
X667031Y250187D01*
X667052Y250140D01*
X667072Y250084D01*
X667087Y250022D01*
X667099Y249951D01*
X667105Y249874D01*
Y249871D01*
Y249862D01*
Y249847D01*
X667102Y249829D01*
X667099Y249805D01*
X667096Y249779D01*
X667090Y249749D01*
X667084Y249717D01*
X667063Y249643D01*
X667049Y249607D01*
X667031Y249569D01*
X667010Y249530D01*
X666989Y249492D01*
X666960Y249453D01*
X666930Y249418D01*
X666927Y249415D01*
X666921Y249409D01*
X666913Y249400D01*
X666898Y249388D01*
X666880Y249373D01*
X666856Y249359D01*
X666830Y249338D01*
X666797Y249320D01*
X666761Y249299D01*
X666723Y249282D01*
X666679Y249261D01*
X666631Y249243D01*
X666578Y249225D01*
X666522Y249211D01*
X666460Y249199D01*
X666395Y249187D01*
X666397D01*
X666400Y249184D01*
X666415Y249175D01*
X666439Y249163D01*
X666468Y249146D01*
X666501Y249128D01*
X666537Y249107D01*
X666569Y249083D01*
X666596Y249060D01*
X666599D01*
X666602Y249054D01*
X666619Y249036D01*
X666649Y249006D01*
X666685Y248968D01*
X666726Y248920D01*
X666773Y248861D01*
X666821Y248796D01*
X666871Y248725D01*
X667306Y248041D01*
X666892D01*
X666557Y248562D01*
X666554Y248565D01*
X666551Y248571D01*
X666542Y248583D01*
X666534Y248601D01*
X666522Y248619D01*
X666507Y248642D01*
X666474Y248693D01*
X666436Y248746D01*
X666395Y248805D01*
X666356Y248861D01*
X666318Y248909D01*
X666315Y248915D01*
X666303Y248929D01*
X666285Y248950D01*
X666261Y248977D01*
X666235Y249003D01*
X666205Y249030D01*
X666178Y249057D01*
X666149Y249077D01*
X666146Y249080D01*
X666137Y249086D01*
X666122Y249095D01*
X666101Y249104D01*
X666081Y249116D01*
X666054Y249128D01*
X666027Y249137D01*
X665998Y249146D01*
X665995D01*
X665986Y249148D01*
X665971Y249151D01*
X665953Y249154D01*
X665927D01*
X665894Y249157D01*
X665856Y249160D01*
X665427D01*
Y248041D01*
X665092D01*
Y250563D01*
X666264D01*
X666291Y250560D01*
D02*
G37*
G36*
X674749Y304105D02*
X674782Y304102D01*
X674820Y304099D01*
X674861Y304093D01*
X674909Y304084D01*
X674956Y304072D01*
X675010Y304060D01*
X675063Y304046D01*
X675116Y304025D01*
X675169Y304004D01*
X675223Y303977D01*
X675273Y303948D01*
X675323Y303912D01*
X675326Y303909D01*
X675335Y303904D01*
X675347Y303892D01*
X675365Y303877D01*
X675386Y303856D01*
X675409Y303832D01*
X675436Y303806D01*
X675465Y303773D01*
X675495Y303738D01*
X675525Y303696D01*
X675554Y303652D01*
X675584Y303605D01*
X675613Y303551D01*
X675640Y303495D01*
X675664Y303436D01*
X675684Y303374D01*
X675356Y303294D01*
Y303297D01*
X675353Y303306D01*
X675347Y303320D01*
X675338Y303338D01*
X675329Y303362D01*
X675320Y303388D01*
X675291Y303448D01*
X675255Y303516D01*
X675211Y303581D01*
X675157Y303643D01*
X675128Y303673D01*
X675098Y303696D01*
X675095Y303699D01*
X675090Y303702D01*
X675081Y303708D01*
X675069Y303717D01*
X675051Y303726D01*
X675033Y303738D01*
X675010Y303749D01*
X674983Y303761D01*
X674924Y303782D01*
X674853Y303803D01*
X674770Y303818D01*
X674728Y303823D01*
X674654D01*
X674634Y303821D01*
X674607D01*
X674580Y303818D01*
X674548Y303812D01*
X674512Y303806D01*
X674435Y303788D01*
X674355Y303764D01*
X674272Y303729D01*
X674234Y303705D01*
X674196Y303681D01*
X674193Y303678D01*
X674187Y303676D01*
X674178Y303667D01*
X674163Y303655D01*
X674148Y303643D01*
X674130Y303625D01*
X674089Y303584D01*
X674042Y303528D01*
X673997Y303465D01*
X673956Y303388D01*
X673920Y303306D01*
Y303303D01*
X673917Y303294D01*
X673914Y303282D01*
X673908Y303264D01*
X673903Y303243D01*
X673897Y303220D01*
X673888Y303190D01*
X673882Y303157D01*
X673867Y303086D01*
X673855Y303004D01*
X673846Y302915D01*
X673843Y302823D01*
Y302820D01*
Y302808D01*
Y302790D01*
X673846Y302770D01*
Y302740D01*
X673849Y302708D01*
X673852Y302672D01*
X673855Y302631D01*
X673867Y302545D01*
X673882Y302450D01*
X673906Y302352D01*
X673935Y302261D01*
Y302258D01*
X673941Y302249D01*
X673944Y302237D01*
X673953Y302222D01*
X673962Y302202D01*
X673977Y302178D01*
X674006Y302128D01*
X674048Y302068D01*
X674098Y302009D01*
X674157Y301953D01*
X674225Y301903D01*
X674228D01*
X674234Y301897D01*
X674246Y301891D01*
X674261Y301885D01*
X674278Y301876D01*
X674299Y301864D01*
X674326Y301855D01*
X674352Y301843D01*
X674418Y301823D01*
X674489Y301802D01*
X674569Y301790D01*
X674654Y301784D01*
X674681D01*
X674702Y301787D01*
X674725Y301790D01*
X674755Y301793D01*
X674785Y301799D01*
X674820Y301805D01*
X674894Y301823D01*
X674974Y301852D01*
X675012Y301870D01*
X675051Y301891D01*
X675092Y301917D01*
X675128Y301944D01*
X675131Y301947D01*
X675137Y301953D01*
X675146Y301962D01*
X675161Y301974D01*
X675175Y301991D01*
X675193Y302012D01*
X675214Y302036D01*
X675235Y302065D01*
X675255Y302098D01*
X675279Y302133D01*
X675303Y302172D01*
X675323Y302216D01*
X675344Y302264D01*
X675362Y302314D01*
X675380Y302367D01*
X675394Y302426D01*
X675729Y302341D01*
Y302335D01*
X675723Y302323D01*
X675717Y302302D01*
X675708Y302273D01*
X675696Y302240D01*
X675681Y302199D01*
X675664Y302154D01*
X675643Y302107D01*
X675616Y302059D01*
X675590Y302006D01*
X675557Y301956D01*
X675525Y301903D01*
X675486Y301852D01*
X675445Y301802D01*
X675400Y301754D01*
X675350Y301713D01*
X675347Y301710D01*
X675338Y301704D01*
X675323Y301692D01*
X675303Y301680D01*
X675276Y301663D01*
X675243Y301645D01*
X675205Y301627D01*
X675164Y301606D01*
X675119Y301586D01*
X675069Y301568D01*
X675012Y301550D01*
X674953Y301533D01*
X674891Y301521D01*
X674826Y301509D01*
X674755Y301503D01*
X674684Y301500D01*
X674646D01*
X674616Y301503D01*
X674580Y301506D01*
X674542Y301509D01*
X674498Y301515D01*
X674447Y301521D01*
X674397Y301530D01*
X674343Y301541D01*
X674231Y301571D01*
X674178Y301589D01*
X674122Y301612D01*
X674071Y301636D01*
X674021Y301666D01*
X674018Y301669D01*
X674009Y301675D01*
X673997Y301683D01*
X673980Y301695D01*
X673959Y301713D01*
X673932Y301734D01*
X673906Y301760D01*
X673876Y301787D01*
X673846Y301820D01*
X673814Y301855D01*
X673781Y301894D01*
X673749Y301938D01*
X673719Y301985D01*
X673689Y302036D01*
X673660Y302089D01*
X673633Y302145D01*
Y302148D01*
X673627Y302160D01*
X673621Y302178D01*
X673612Y302202D01*
X673603Y302228D01*
X673592Y302264D01*
X673580Y302302D01*
X673568Y302346D01*
X673553Y302397D01*
X673541Y302447D01*
X673530Y302503D01*
X673521Y302563D01*
X673506Y302687D01*
X673503Y302752D01*
X673500Y302820D01*
Y302826D01*
Y302838D01*
Y302859D01*
X673503Y302885D01*
X673506Y302921D01*
X673509Y302959D01*
X673512Y303004D01*
X673518Y303054D01*
X673527Y303107D01*
X673535Y303161D01*
X673562Y303276D01*
X673580Y303335D01*
X673601Y303394D01*
X673621Y303451D01*
X673648Y303507D01*
X673651Y303510D01*
X673654Y303519D01*
X673663Y303536D01*
X673675Y303554D01*
X673692Y303581D01*
X673710Y303608D01*
X673734Y303640D01*
X673758Y303673D01*
X673787Y303708D01*
X673820Y303747D01*
X673855Y303782D01*
X673894Y303821D01*
X673935Y303856D01*
X673980Y303892D01*
X674027Y303924D01*
X674077Y303954D01*
X674080Y303957D01*
X674089Y303960D01*
X674104Y303969D01*
X674124Y303977D01*
X674151Y303989D01*
X674184Y304001D01*
X674219Y304016D01*
X674258Y304031D01*
X674302Y304046D01*
X674349Y304060D01*
X674400Y304072D01*
X674453Y304084D01*
X674566Y304102D01*
X674625Y304105D01*
X674687Y304108D01*
X674722D01*
X674749Y304105D01*
D02*
G37*
G36*
X676910Y304069D02*
X676942Y304066D01*
X676975Y304060D01*
X677016Y304054D01*
X677058Y304048D01*
X677150Y304022D01*
X677197Y304007D01*
X677244Y303986D01*
X677292Y303966D01*
X677339Y303936D01*
X677384Y303906D01*
X677425Y303871D01*
X677428Y303868D01*
X677434Y303862D01*
X677446Y303850D01*
X677458Y303835D01*
X677475Y303815D01*
X677493Y303791D01*
X677511Y303764D01*
X677531Y303732D01*
X677552Y303699D01*
X677570Y303661D01*
X677588Y303619D01*
X677605Y303575D01*
X677617Y303528D01*
X677629Y303477D01*
X677635Y303427D01*
X677638Y303371D01*
Y303368D01*
Y303365D01*
Y303356D01*
Y303344D01*
X677635Y303314D01*
X677629Y303276D01*
X677623Y303232D01*
X677611Y303181D01*
X677597Y303128D01*
X677576Y303072D01*
Y303069D01*
X677573Y303066D01*
X677570Y303057D01*
X677564Y303048D01*
X677549Y303018D01*
X677526Y302980D01*
X677499Y302933D01*
X677463Y302879D01*
X677419Y302823D01*
X677369Y302764D01*
X677366Y302761D01*
X677363Y302758D01*
X677354Y302746D01*
X677342Y302734D01*
X677324Y302719D01*
X677307Y302699D01*
X677283Y302675D01*
X677256Y302648D01*
X677224Y302619D01*
X677188Y302586D01*
X677150Y302551D01*
X677105Y302509D01*
X677058Y302468D01*
X677007Y302424D01*
X676951Y302373D01*
X676892Y302323D01*
X676889Y302320D01*
X676880Y302314D01*
X676865Y302302D01*
X676848Y302284D01*
X676824Y302267D01*
X676800Y302246D01*
X676741Y302196D01*
X676679Y302142D01*
X676620Y302092D01*
X676593Y302065D01*
X676570Y302045D01*
X676549Y302024D01*
X676531Y302006D01*
X676528Y302003D01*
X676519Y301991D01*
X676504Y301976D01*
X676487Y301956D01*
X676466Y301929D01*
X676445Y301903D01*
X676404Y301840D01*
X677641D01*
Y301541D01*
X675972D01*
Y301547D01*
Y301559D01*
Y301583D01*
X675975Y301609D01*
X675978Y301642D01*
X675983Y301678D01*
X675992Y301716D01*
X676007Y301754D01*
Y301758D01*
X676010Y301763D01*
X676013Y301772D01*
X676019Y301784D01*
X676025Y301799D01*
X676034Y301817D01*
X676054Y301861D01*
X676084Y301911D01*
X676120Y301971D01*
X676161Y302030D01*
X676208Y302092D01*
X676211Y302095D01*
X676214Y302101D01*
X676223Y302110D01*
X676235Y302121D01*
X676250Y302136D01*
X676268Y302157D01*
X676288Y302178D01*
X676312Y302202D01*
X676342Y302228D01*
X676371Y302258D01*
X676404Y302287D01*
X676442Y302323D01*
X676481Y302355D01*
X676522Y302394D01*
X676570Y302432D01*
X676617Y302471D01*
X676623Y302474D01*
X676635Y302486D01*
X676655Y302503D01*
X676685Y302527D01*
X676718Y302554D01*
X676756Y302589D01*
X676797Y302625D01*
X676842Y302663D01*
X676934Y302749D01*
X677025Y302838D01*
X677067Y302882D01*
X677108Y302924D01*
X677144Y302965D01*
X677173Y303004D01*
X677176Y303007D01*
X677179Y303012D01*
X677188Y303024D01*
X677197Y303036D01*
X677206Y303054D01*
X677221Y303075D01*
X677247Y303125D01*
X677274Y303181D01*
X677295Y303243D01*
X677312Y303311D01*
X677315Y303344D01*
X677318Y303377D01*
Y303380D01*
Y303385D01*
Y303394D01*
X677315Y303406D01*
X677312Y303442D01*
X677301Y303483D01*
X677286Y303534D01*
X677262Y303584D01*
X677230Y303637D01*
X677209Y303664D01*
X677185Y303687D01*
Y303690D01*
X677179Y303693D01*
X677162Y303708D01*
X677132Y303729D01*
X677093Y303752D01*
X677043Y303773D01*
X676987Y303794D01*
X676919Y303809D01*
X676880Y303815D01*
X676821D01*
X676806Y303812D01*
X676786D01*
X676765Y303809D01*
X676715Y303797D01*
X676658Y303782D01*
X676596Y303758D01*
X676537Y303723D01*
X676510Y303702D01*
X676484Y303678D01*
X676478Y303673D01*
X676472Y303664D01*
X676463Y303655D01*
X676442Y303625D01*
X676418Y303584D01*
X676392Y303531D01*
X676371Y303468D01*
X676356Y303394D01*
X676353Y303353D01*
X676350Y303311D01*
X676031Y303344D01*
Y303347D01*
X676034Y303359D01*
X676037Y303380D01*
X676040Y303403D01*
X676046Y303433D01*
X676052Y303465D01*
X676063Y303504D01*
X676075Y303545D01*
X676105Y303631D01*
X676125Y303678D01*
X676149Y303723D01*
X676176Y303767D01*
X676205Y303809D01*
X676238Y303850D01*
X676276Y303886D01*
X676279Y303889D01*
X676285Y303895D01*
X676297Y303904D01*
X676315Y303915D01*
X676336Y303930D01*
X676362Y303945D01*
X676395Y303963D01*
X676427Y303980D01*
X676466Y303995D01*
X676510Y304013D01*
X676558Y304028D01*
X676608Y304043D01*
X676664Y304054D01*
X676723Y304063D01*
X676786Y304069D01*
X676851Y304072D01*
X676886D01*
X676910Y304069D01*
D02*
G37*
G36*
X638884Y262997D02*
X638920Y262994D01*
X638958Y262991D01*
X639003Y262985D01*
X639053Y262979D01*
X639103Y262970D01*
X639156Y262959D01*
X639269Y262929D01*
X639322Y262911D01*
X639378Y262888D01*
X639429Y262864D01*
X639479Y262834D01*
X639482Y262831D01*
X639491Y262825D01*
X639503Y262817D01*
X639521Y262805D01*
X639541Y262787D01*
X639568Y262766D01*
X639595Y262740D01*
X639624Y262713D01*
X639654Y262680D01*
X639686Y262645D01*
X639719Y262606D01*
X639751Y262562D01*
X639781Y262515D01*
X639811Y262464D01*
X639840Y262411D01*
X639867Y262355D01*
Y262352D01*
X639873Y262340D01*
X639879Y262322D01*
X639888Y262298D01*
X639896Y262272D01*
X639908Y262236D01*
X639920Y262198D01*
X639932Y262154D01*
X639947Y262103D01*
X639959Y262053D01*
X639970Y261997D01*
X639979Y261937D01*
X639994Y261813D01*
X639997Y261748D01*
X640000Y261680D01*
Y261674D01*
Y261662D01*
Y261641D01*
X639997Y261615D01*
X639994Y261579D01*
X639991Y261541D01*
X639988Y261496D01*
X639982Y261446D01*
X639973Y261393D01*
X639964Y261339D01*
X639938Y261224D01*
X639920Y261165D01*
X639899Y261106D01*
X639879Y261049D01*
X639852Y260993D01*
X639849Y260990D01*
X639846Y260981D01*
X639837Y260964D01*
X639825Y260946D01*
X639808Y260919D01*
X639790Y260893D01*
X639766Y260860D01*
X639743Y260827D01*
X639713Y260792D01*
X639680Y260753D01*
X639645Y260718D01*
X639606Y260679D01*
X639565Y260644D01*
X639521Y260608D01*
X639473Y260576D01*
X639423Y260546D01*
X639420Y260543D01*
X639411Y260540D01*
X639396Y260531D01*
X639375Y260523D01*
X639349Y260511D01*
X639316Y260499D01*
X639281Y260484D01*
X639242Y260469D01*
X639198Y260454D01*
X639150Y260440D01*
X639100Y260428D01*
X639047Y260416D01*
X638934Y260398D01*
X638875Y260395D01*
X638813Y260392D01*
X638777D01*
X638751Y260395D01*
X638718Y260398D01*
X638680Y260401D01*
X638638Y260407D01*
X638591Y260416D01*
X638544Y260428D01*
X638490Y260440D01*
X638437Y260454D01*
X638384Y260475D01*
X638331Y260496D01*
X638277Y260523D01*
X638227Y260552D01*
X638177Y260588D01*
X638174Y260591D01*
X638165Y260596D01*
X638153Y260608D01*
X638135Y260623D01*
X638115Y260644D01*
X638091Y260667D01*
X638064Y260694D01*
X638035Y260727D01*
X638005Y260762D01*
X637975Y260804D01*
X637946Y260848D01*
X637916Y260895D01*
X637887Y260949D01*
X637860Y261005D01*
X637836Y261064D01*
X637816Y261126D01*
X638144Y261206D01*
Y261203D01*
X638147Y261194D01*
X638153Y261180D01*
X638162Y261162D01*
X638171Y261138D01*
X638180Y261111D01*
X638209Y261052D01*
X638245Y260984D01*
X638289Y260919D01*
X638342Y260857D01*
X638372Y260827D01*
X638402Y260804D01*
X638405Y260801D01*
X638411Y260798D01*
X638419Y260792D01*
X638431Y260783D01*
X638449Y260774D01*
X638467Y260762D01*
X638490Y260750D01*
X638517Y260739D01*
X638576Y260718D01*
X638647Y260697D01*
X638730Y260682D01*
X638772Y260676D01*
X638846D01*
X638866Y260679D01*
X638893D01*
X638920Y260682D01*
X638952Y260688D01*
X638988Y260694D01*
X639065Y260712D01*
X639145Y260736D01*
X639227Y260771D01*
X639266Y260795D01*
X639304Y260819D01*
X639307Y260822D01*
X639313Y260824D01*
X639322Y260833D01*
X639337Y260845D01*
X639352Y260857D01*
X639369Y260875D01*
X639411Y260916D01*
X639458Y260972D01*
X639503Y261035D01*
X639544Y261111D01*
X639580Y261194D01*
Y261197D01*
X639583Y261206D01*
X639586Y261218D01*
X639592Y261236D01*
X639598Y261257D01*
X639603Y261280D01*
X639612Y261310D01*
X639618Y261342D01*
X639633Y261414D01*
X639645Y261496D01*
X639654Y261585D01*
X639657Y261677D01*
Y261680D01*
Y261692D01*
Y261709D01*
X639654Y261730D01*
Y261760D01*
X639651Y261792D01*
X639648Y261828D01*
X639645Y261869D01*
X639633Y261955D01*
X639618Y262050D01*
X639595Y262148D01*
X639565Y262239D01*
Y262242D01*
X639559Y262251D01*
X639556Y262263D01*
X639547Y262278D01*
X639538Y262298D01*
X639524Y262322D01*
X639494Y262372D01*
X639452Y262432D01*
X639402Y262491D01*
X639343Y262547D01*
X639275Y262597D01*
X639272D01*
X639266Y262603D01*
X639254Y262609D01*
X639239Y262615D01*
X639222Y262624D01*
X639201Y262636D01*
X639174Y262645D01*
X639148Y262657D01*
X639082Y262677D01*
X639011Y262698D01*
X638932Y262710D01*
X638846Y262716D01*
X638819D01*
X638798Y262713D01*
X638775Y262710D01*
X638745Y262707D01*
X638715Y262701D01*
X638680Y262695D01*
X638606Y262677D01*
X638526Y262648D01*
X638487Y262630D01*
X638449Y262609D01*
X638408Y262583D01*
X638372Y262556D01*
X638369Y262553D01*
X638363Y262547D01*
X638354Y262538D01*
X638340Y262526D01*
X638325Y262509D01*
X638307Y262488D01*
X638286Y262464D01*
X638266Y262435D01*
X638245Y262402D01*
X638221Y262367D01*
X638197Y262328D01*
X638177Y262284D01*
X638156Y262236D01*
X638138Y262186D01*
X638120Y262133D01*
X638106Y262073D01*
X637771Y262159D01*
Y262165D01*
X637777Y262177D01*
X637783Y262198D01*
X637792Y262228D01*
X637804Y262260D01*
X637818Y262301D01*
X637836Y262346D01*
X637857Y262393D01*
X637884Y262441D01*
X637910Y262494D01*
X637943Y262544D01*
X637975Y262597D01*
X638014Y262648D01*
X638055Y262698D01*
X638100Y262745D01*
X638150Y262787D01*
X638153Y262790D01*
X638162Y262796D01*
X638177Y262808D01*
X638197Y262820D01*
X638224Y262837D01*
X638257Y262855D01*
X638295Y262873D01*
X638337Y262894D01*
X638381Y262914D01*
X638431Y262932D01*
X638487Y262950D01*
X638547Y262967D01*
X638609Y262979D01*
X638674Y262991D01*
X638745Y262997D01*
X638816Y263000D01*
X638855D01*
X638884Y262997D01*
D02*
G37*
G36*
X636629Y260987D02*
X636634Y260993D01*
X636649Y261005D01*
X636673Y261026D01*
X636708Y261052D01*
X636750Y261085D01*
X636800Y261123D01*
X636860Y261162D01*
X636925Y261200D01*
X636928D01*
X636934Y261206D01*
X636942Y261209D01*
X636954Y261218D01*
X636990Y261236D01*
X637031Y261260D01*
X637081Y261286D01*
X637138Y261313D01*
X637194Y261336D01*
X637247Y261360D01*
Y261061D01*
X637244Y261058D01*
X637235Y261055D01*
X637223Y261049D01*
X637203Y261040D01*
X637182Y261029D01*
X637155Y261014D01*
X637126Y260996D01*
X637093Y260978D01*
X637022Y260937D01*
X636948Y260887D01*
X636868Y260830D01*
X636794Y260768D01*
X636791Y260765D01*
X636786Y260759D01*
X636777Y260750D01*
X636762Y260739D01*
X636747Y260724D01*
X636729Y260703D01*
X636688Y260659D01*
X636640Y260608D01*
X636596Y260552D01*
X636555Y260490D01*
X636519Y260428D01*
X636318D01*
Y262959D01*
X636629D01*
Y260987D01*
D02*
G37*
%LPC*%
G36*
X666273Y250285D02*
X665427D01*
Y249450D01*
X666196D01*
X666220Y249453D01*
X666270Y249456D01*
X666326Y249462D01*
X666386Y249468D01*
X666445Y249480D01*
X666495Y249495D01*
X666498D01*
X666501Y249498D01*
X666516Y249504D01*
X666539Y249516D01*
X666569Y249530D01*
X666602Y249554D01*
X666634Y249578D01*
X666667Y249610D01*
X666693Y249646D01*
X666696Y249652D01*
X666705Y249663D01*
X666714Y249687D01*
X666729Y249714D01*
X666741Y249749D01*
X666750Y249788D01*
X666759Y249829D01*
X666761Y249874D01*
Y249877D01*
Y249883D01*
Y249891D01*
X666759Y249903D01*
X666756Y249936D01*
X666747Y249977D01*
X666729Y250025D01*
X666705Y250075D01*
X666676Y250125D01*
X666655Y250146D01*
X666631Y250170D01*
X666625Y250176D01*
X666616Y250182D01*
X666608Y250187D01*
X666593Y250196D01*
X666575Y250205D01*
X666554Y250217D01*
X666531Y250229D01*
X666504Y250238D01*
X666474Y250250D01*
X666442Y250258D01*
X666403Y250267D01*
X666365Y250273D01*
X666321Y250279D01*
X666273Y250285D01*
D02*
G37*
%LPD*%
D12*
X613925Y391846D02*
X617075D01*
X613925Y385154D02*
Y391846D01*
Y385154D02*
X617075D01*
Y391846D01*
X657785Y251642D02*
X672400D01*
Y244358D02*
Y251642D01*
X657785Y244358D02*
X672400D01*
X657785D02*
Y251642D01*
X668173Y304748D02*
X678827D01*
Y298252D02*
Y304748D01*
X668173Y298252D02*
X678827D01*
X668173D02*
Y304748D01*
X632126Y259063D02*
X647874D01*
X632126D02*
Y266937D01*
X647874D01*
Y259063D02*
Y266937D01*
M02*
