G04*
G04 #@! TF.GenerationSoftware,Altium Limited,Altium Designer,20.1.12 (249)*
G04*
G04 Layer_Color=16711935*
%FSLAX25Y25*%
%MOIN*%
G70*
G04*
G04 #@! TF.SameCoordinates,9558268F-E582-4542-BACD-EEF3D3045912*
G04*
G04*
G04 #@! TF.FilePolarity,Negative*
G04*
G01*
G75*
%ADD29C,0.05800*%
G04:AMPARAMS|DCode=38|XSize=165.48mil|YSize=59.18mil|CornerRadius=16.8mil|HoleSize=0mil|Usage=FLASHONLY|Rotation=270.000|XOffset=0mil|YOffset=0mil|HoleType=Round|Shape=RoundedRectangle|*
%AMROUNDEDRECTD38*
21,1,0.16548,0.02559,0,0,270.0*
21,1,0.13189,0.05918,0,0,270.0*
1,1,0.03359,-0.01280,-0.06594*
1,1,0.03359,-0.01280,0.06594*
1,1,0.03359,0.01280,0.06594*
1,1,0.03359,0.01280,-0.06594*
%
%ADD38ROUNDEDRECTD38*%
G04:AMPARAMS|DCode=39|XSize=145.8mil|YSize=59.18mil|CornerRadius=16.8mil|HoleSize=0mil|Usage=FLASHONLY|Rotation=270.000|XOffset=0mil|YOffset=0mil|HoleType=Round|Shape=RoundedRectangle|*
%AMROUNDEDRECTD39*
21,1,0.14580,0.02559,0,0,270.0*
21,1,0.11221,0.05918,0,0,270.0*
1,1,0.03359,-0.01280,-0.05610*
1,1,0.03359,-0.01280,0.05610*
1,1,0.03359,0.01280,0.05610*
1,1,0.03359,0.01280,-0.05610*
%
%ADD39ROUNDEDRECTD39*%
G04:AMPARAMS|DCode=40|XSize=145.8mil|YSize=59.18mil|CornerRadius=16.8mil|HoleSize=0mil|Usage=FLASHONLY|Rotation=0.000|XOffset=0mil|YOffset=0mil|HoleType=Round|Shape=RoundedRectangle|*
%AMROUNDEDRECTD40*
21,1,0.14580,0.02559,0,0,0.0*
21,1,0.11221,0.05918,0,0,0.0*
1,1,0.03359,0.05610,-0.01280*
1,1,0.03359,-0.05610,-0.01280*
1,1,0.03359,-0.05610,0.01280*
1,1,0.03359,0.05610,0.01280*
%
%ADD40ROUNDEDRECTD40*%
%ADD41C,0.07099*%
%ADD42R,0.07099X0.07099*%
%ADD43C,0.30800*%
D29*
X604500Y212500D02*
D03*
X579500Y278500D02*
D03*
X560000Y331500D02*
D03*
X353000Y312500D02*
D03*
X307500Y466000D02*
D03*
X286000Y367500D02*
D03*
X301000Y318000D02*
D03*
X304000Y217000D02*
D03*
X635000Y347000D02*
D03*
X675500Y349000D02*
D03*
X660500Y311000D02*
D03*
X665500Y349000D02*
D03*
X634500Y274000D02*
D03*
X640500Y311000D02*
D03*
X617500Y343000D02*
D03*
X650500Y311000D02*
D03*
X671000Y311500D02*
D03*
X645500Y302500D02*
D03*
X305500Y401000D02*
D03*
X597500Y348500D02*
D03*
X496500Y338500D02*
D03*
X607000Y454500D02*
D03*
X329000Y317519D02*
D03*
X288500Y436000D02*
D03*
X578000Y218500D02*
D03*
X285500Y195000D02*
D03*
X286000Y296000D02*
D03*
X345000Y416000D02*
D03*
X578000Y323000D02*
D03*
Y395500D02*
D03*
Y460500D02*
D03*
D38*
X644591Y417000D02*
D03*
D39*
X669000D02*
D03*
D40*
X657189Y435504D02*
D03*
D41*
X686000Y375000D02*
D03*
D42*
X666000D02*
D03*
D43*
X680500Y192500D02*
D03*
Y463000D02*
D03*
X262000Y193500D02*
D03*
Y463000D02*
D03*
M02*
