M48
;Layer_Color=9474304
;FILE_FORMAT=2:5
INCH,TZ
;TYPE=PLATED
T1F00S00C0.02800
T3F00S00C0.04291
T4F00S00C0.15700
%
T01
X634500Y274000
X645500Y302500
X640500Y311000
X650500
X660500
X671000Y311500
X579500Y278500
X578000Y218500
X604500Y212500
X304000Y217000
X285500Y195000
X286000Y296000
X301000Y318000
X286000Y367500
X305500Y401000
X288500Y436000
X307500Y466000
X345000Y416000
X353000Y312500
X329000Y317519
X496500Y338500
X560000Y331500
X578000Y323000
X597500Y348500
X617500Y343000
X578000Y395500
Y460000
X607000Y454500
X635000Y347000
X665500Y349000
X675500
T03
X666000Y375000
X686000
T04
X680500Y192500
X262000Y193500
Y463000
X680500
M30
