G04*
G04 #@! TF.GenerationSoftware,Altium Limited,Altium Designer,20.1.12 (249)*
G04*
G04 Layer_Color=255*
%FSLAX25Y25*%
%MOIN*%
G70*
G04*
G04 #@! TF.SameCoordinates,6FFDD3B3-A9CC-4E3F-A20B-3D8C1E4D05DD*
G04*
G04*
G04 #@! TF.FilePolarity,Positive*
G04*
G01*
G75*
%ADD16C,0.05000*%
%ADD17R,0.01968X0.01870*%
%ADD18R,0.03378X0.06150*%
G04:AMPARAMS|DCode=19|XSize=25.59mil|YSize=64.96mil|CornerRadius=1.92mil|HoleSize=0mil|Usage=FLASHONLY|Rotation=0.000|XOffset=0mil|YOffset=0mil|HoleType=Round|Shape=RoundedRectangle|*
%AMROUNDEDRECTD19*
21,1,0.02559,0.06112,0,0,0.0*
21,1,0.02175,0.06496,0,0,0.0*
1,1,0.00384,0.01088,-0.03056*
1,1,0.00384,-0.01088,-0.03056*
1,1,0.00384,-0.01088,0.03056*
1,1,0.00384,0.01088,0.03056*
%
%ADD19ROUNDEDRECTD19*%
%ADD20R,0.04152X0.05339*%
%ADD21R,0.03740X0.06693*%
G04:AMPARAMS|DCode=22|XSize=21.65mil|YSize=49.21mil|CornerRadius=1.95mil|HoleSize=0mil|Usage=FLASHONLY|Rotation=0.000|XOffset=0mil|YOffset=0mil|HoleType=Round|Shape=RoundedRectangle|*
%AMROUNDEDRECTD22*
21,1,0.02165,0.04532,0,0,0.0*
21,1,0.01776,0.04921,0,0,0.0*
1,1,0.00390,0.00888,-0.02266*
1,1,0.00390,-0.00888,-0.02266*
1,1,0.00390,-0.00888,0.02266*
1,1,0.00390,0.00888,0.02266*
%
%ADD22ROUNDEDRECTD22*%
%ADD23R,0.03740X0.06693*%
%ADD24R,0.05906X0.05906*%
%ADD25R,0.03543X0.06102*%
%ADD26R,0.03543X0.03150*%
%ADD27R,0.04921X0.07087*%
%ADD28R,0.07087X0.04921*%
G04:AMPARAMS|DCode=45|XSize=157.48mil|YSize=51.18mil|CornerRadius=12.8mil|HoleSize=0mil|Usage=FLASHONLY|Rotation=270.000|XOffset=0mil|YOffset=0mil|HoleType=Round|Shape=RoundedRectangle|*
%AMROUNDEDRECTD45*
21,1,0.15748,0.02559,0,0,270.0*
21,1,0.13189,0.05118,0,0,270.0*
1,1,0.02559,-0.01280,-0.06594*
1,1,0.02559,-0.01280,0.06594*
1,1,0.02559,0.01280,0.06594*
1,1,0.02559,0.01280,-0.06594*
%
%ADD45ROUNDEDRECTD45*%
G04:AMPARAMS|DCode=46|XSize=137.8mil|YSize=51.18mil|CornerRadius=12.8mil|HoleSize=0mil|Usage=FLASHONLY|Rotation=270.000|XOffset=0mil|YOffset=0mil|HoleType=Round|Shape=RoundedRectangle|*
%AMROUNDEDRECTD46*
21,1,0.13780,0.02559,0,0,270.0*
21,1,0.11221,0.05118,0,0,270.0*
1,1,0.02559,-0.01280,-0.05610*
1,1,0.02559,-0.01280,0.05610*
1,1,0.02559,0.01280,0.05610*
1,1,0.02559,0.01280,-0.05610*
%
%ADD46ROUNDEDRECTD46*%
G04:AMPARAMS|DCode=47|XSize=137.8mil|YSize=51.18mil|CornerRadius=12.8mil|HoleSize=0mil|Usage=FLASHONLY|Rotation=0.000|XOffset=0mil|YOffset=0mil|HoleType=Round|Shape=RoundedRectangle|*
%AMROUNDEDRECTD47*
21,1,0.13780,0.02559,0,0,0.0*
21,1,0.11221,0.05118,0,0,0.0*
1,1,0.02559,0.05610,-0.01280*
1,1,0.02559,-0.05610,-0.01280*
1,1,0.02559,-0.05610,0.01280*
1,1,0.02559,0.05610,0.01280*
%
%ADD47ROUNDEDRECTD47*%
%ADD48C,0.06299*%
%ADD49R,0.06299X0.06299*%
D16*
X257631Y401125D02*
D03*
X654500Y188000D02*
D03*
X638667Y468000D02*
D03*
X652500D02*
D03*
X257631Y419500D02*
D03*
X611000Y468000D02*
D03*
X624833D02*
D03*
X638167Y188000D02*
D03*
X605500D02*
D03*
X621833D02*
D03*
X257631Y382750D02*
D03*
Y346000D02*
D03*
Y364375D02*
D03*
D17*
X615500Y386482D02*
D03*
Y390518D02*
D03*
D18*
X659868Y248000D02*
D03*
X670317D02*
D03*
D19*
X675671Y285122D02*
D03*
X670671D02*
D03*
X665671D02*
D03*
X660671D02*
D03*
X675671Y262878D02*
D03*
X670671D02*
D03*
X665671D02*
D03*
X660671D02*
D03*
D20*
X670643Y301500D02*
D03*
X676357D02*
D03*
D21*
X645512Y263000D02*
D03*
X634488D02*
D03*
D22*
X640500Y340835D02*
D03*
X675500Y320165D02*
D03*
X670500D02*
D03*
X665500D02*
D03*
X660500D02*
D03*
X655500D02*
D03*
X650500D02*
D03*
X640500D02*
D03*
X650500Y340835D02*
D03*
X655500D02*
D03*
X675500D02*
D03*
X645500Y320165D02*
D03*
Y340835D02*
D03*
X660500D02*
D03*
X670500D02*
D03*
X665500D02*
D03*
D23*
X670500Y230000D02*
D03*
X659673D02*
D03*
D24*
X317610Y228000D02*
D03*
X331390D02*
D03*
X349110D02*
D03*
X362889D02*
D03*
X380410D02*
D03*
X394189D02*
D03*
X380410Y332500D02*
D03*
X394189D02*
D03*
X411710Y228000D02*
D03*
X425489D02*
D03*
X411710Y332500D02*
D03*
X425489D02*
D03*
X443010Y228000D02*
D03*
X456789D02*
D03*
X443010Y332500D02*
D03*
X456789D02*
D03*
X474310Y228000D02*
D03*
X488089D02*
D03*
X474310Y332500D02*
D03*
X488089D02*
D03*
X505610Y228000D02*
D03*
X519389D02*
D03*
X551390D02*
D03*
X537610D02*
D03*
X317610Y297666D02*
D03*
X331390D02*
D03*
X317610Y367333D02*
D03*
X331390D02*
D03*
X317610Y402166D02*
D03*
X331390D02*
D03*
X317610Y437000D02*
D03*
X331390D02*
D03*
Y471500D02*
D03*
X317610D02*
D03*
X349110Y297666D02*
D03*
X362889D02*
D03*
X349110Y367333D02*
D03*
X362889D02*
D03*
X349110Y402166D02*
D03*
X362889D02*
D03*
Y437000D02*
D03*
X349110D02*
D03*
X362889Y471500D02*
D03*
X349110D02*
D03*
X380410Y297666D02*
D03*
X394189D02*
D03*
X380410Y367333D02*
D03*
X394189D02*
D03*
X380410Y402166D02*
D03*
X394189D02*
D03*
Y437000D02*
D03*
X380410D02*
D03*
X394189Y471500D02*
D03*
X380410D02*
D03*
X411710Y297666D02*
D03*
X425489D02*
D03*
X411710Y367333D02*
D03*
X425489D02*
D03*
X411710Y402166D02*
D03*
X425489D02*
D03*
Y437000D02*
D03*
X411710D02*
D03*
X425489Y471500D02*
D03*
X411710D02*
D03*
X443010Y297666D02*
D03*
X456789D02*
D03*
X443010Y367333D02*
D03*
X456789D02*
D03*
X443010Y402166D02*
D03*
X456789D02*
D03*
Y437000D02*
D03*
X443010D02*
D03*
X456789Y471500D02*
D03*
X443010D02*
D03*
X474310Y297666D02*
D03*
X488089D02*
D03*
X474310Y367333D02*
D03*
X488089D02*
D03*
X474310Y402166D02*
D03*
X488089D02*
D03*
Y437000D02*
D03*
X474310D02*
D03*
X488089Y471500D02*
D03*
X474310D02*
D03*
X519389Y297666D02*
D03*
X505610D02*
D03*
X519390Y367333D02*
D03*
X505610D02*
D03*
X505610Y402166D02*
D03*
X519389D02*
D03*
X519390Y437000D02*
D03*
X505610D02*
D03*
X519390Y471500D02*
D03*
X505610D02*
D03*
X551390Y297666D02*
D03*
X537610D02*
D03*
X551390Y367333D02*
D03*
X537610D02*
D03*
X551390Y402166D02*
D03*
X537610D02*
D03*
X551390Y437000D02*
D03*
X537610D02*
D03*
X551390Y471500D02*
D03*
X537610D02*
D03*
X317610Y197500D02*
D03*
X331390D02*
D03*
X317610Y262833D02*
D03*
X331390D02*
D03*
X349110Y197500D02*
D03*
X362889D02*
D03*
X349110Y262833D02*
D03*
X362889D02*
D03*
X380410Y197500D02*
D03*
X394189D02*
D03*
X380410Y262833D02*
D03*
X394189D02*
D03*
X411710Y197500D02*
D03*
X425489D02*
D03*
X411710Y262833D02*
D03*
X425489D02*
D03*
X443010Y197500D02*
D03*
X456789D02*
D03*
X443010Y262833D02*
D03*
X456789D02*
D03*
X474310Y197500D02*
D03*
X488089D02*
D03*
X474310Y262833D02*
D03*
X488089D02*
D03*
X505610Y197500D02*
D03*
X519389D02*
D03*
X505610Y262833D02*
D03*
X519389D02*
D03*
X537610Y197500D02*
D03*
X551390D02*
D03*
Y262833D02*
D03*
X537610D02*
D03*
D25*
X332472Y284667D02*
D03*
X322039D02*
D03*
Y459500D02*
D03*
X332472D02*
D03*
X363972Y284667D02*
D03*
X353539D02*
D03*
Y459500D02*
D03*
X363972D02*
D03*
X384839D02*
D03*
X395272D02*
D03*
Y284667D02*
D03*
X384839D02*
D03*
X416139Y459500D02*
D03*
X426572D02*
D03*
X416139Y284667D02*
D03*
X426572D02*
D03*
X447439Y459500D02*
D03*
X457872D02*
D03*
X447439Y284667D02*
D03*
X457872D02*
D03*
X489172D02*
D03*
X478739D02*
D03*
Y459500D02*
D03*
X489172D02*
D03*
X510039Y284667D02*
D03*
X520472D02*
D03*
X510039Y459500D02*
D03*
X520472D02*
D03*
X542039Y284667D02*
D03*
X552472D02*
D03*
X542039Y459500D02*
D03*
X552472D02*
D03*
X332472Y183500D02*
D03*
X322039D02*
D03*
X332472Y214500D02*
D03*
X322039D02*
D03*
X332472Y249583D02*
D03*
X322039D02*
D03*
X332472Y425000D02*
D03*
X322039D02*
D03*
X363972Y183500D02*
D03*
X353539D02*
D03*
Y214500D02*
D03*
X363972D02*
D03*
X353539Y249583D02*
D03*
X363972D02*
D03*
X353039Y425000D02*
D03*
X363472D02*
D03*
X395272Y183500D02*
D03*
X384839D02*
D03*
Y214500D02*
D03*
X395272D02*
D03*
X384839Y249583D02*
D03*
X395272D02*
D03*
Y319750D02*
D03*
X384839D02*
D03*
X384339Y425000D02*
D03*
X394772D02*
D03*
X426572Y183500D02*
D03*
X416139D02*
D03*
Y214500D02*
D03*
X426572D02*
D03*
X416139Y249583D02*
D03*
X426572D02*
D03*
X416139Y319750D02*
D03*
X426572D02*
D03*
X415639Y425000D02*
D03*
X426072D02*
D03*
X457872Y183500D02*
D03*
X447439D02*
D03*
Y214500D02*
D03*
X457872D02*
D03*
X447439Y249583D02*
D03*
X457872D02*
D03*
X447439Y319750D02*
D03*
X457872D02*
D03*
X446939Y425000D02*
D03*
X457372D02*
D03*
X489406Y183500D02*
D03*
X478972D02*
D03*
X478739Y214500D02*
D03*
X489172D02*
D03*
X478739Y249583D02*
D03*
X489172D02*
D03*
Y319750D02*
D03*
X478739D02*
D03*
X478239Y425000D02*
D03*
X488672D02*
D03*
X520939Y183500D02*
D03*
X510506D02*
D03*
X510039Y214500D02*
D03*
X520472D02*
D03*
X510039Y249583D02*
D03*
X520472D02*
D03*
X509539Y425000D02*
D03*
X519972D02*
D03*
X552472Y183500D02*
D03*
X542039D02*
D03*
Y214500D02*
D03*
X552472D02*
D03*
X542039Y249583D02*
D03*
X552472D02*
D03*
X542039Y425000D02*
D03*
X552472D02*
D03*
X332472Y354833D02*
D03*
X322039D02*
D03*
X332472Y389917D02*
D03*
X322039D02*
D03*
X363972Y354833D02*
D03*
X353539D02*
D03*
Y389917D02*
D03*
X363972D02*
D03*
X395272Y354833D02*
D03*
X384839D02*
D03*
X384839Y389917D02*
D03*
X395272D02*
D03*
X416139Y354833D02*
D03*
X426572D02*
D03*
X416139Y389917D02*
D03*
X426572D02*
D03*
X447439Y354833D02*
D03*
X457872D02*
D03*
X447439Y389917D02*
D03*
X457872D02*
D03*
X489172Y354833D02*
D03*
X478739D02*
D03*
X478739Y389917D02*
D03*
X489172D02*
D03*
X510039Y354833D02*
D03*
X520472D02*
D03*
X510039Y389917D02*
D03*
X520472D02*
D03*
X542039Y354833D02*
D03*
X552472D02*
D03*
X542039Y389917D02*
D03*
X552472D02*
D03*
D26*
X503063Y329000D02*
D03*
X510937Y332740D02*
D03*
Y325260D02*
D03*
X293937Y207500D02*
D03*
X286063Y203760D02*
D03*
Y211240D02*
D03*
X293937Y307933D02*
D03*
X286063Y304193D02*
D03*
Y311673D02*
D03*
X293937Y379000D02*
D03*
X286063Y375260D02*
D03*
Y382740D02*
D03*
X577937Y201760D02*
D03*
Y209240D02*
D03*
X570063Y205500D02*
D03*
Y310000D02*
D03*
X577937Y313740D02*
D03*
Y306260D02*
D03*
X570063Y381067D02*
D03*
X577937Y384807D02*
D03*
Y377327D02*
D03*
X293937Y449500D02*
D03*
X286063Y445760D02*
D03*
Y453240D02*
D03*
X361381Y325000D02*
D03*
X353507Y321260D02*
D03*
Y328740D02*
D03*
X570063Y447500D02*
D03*
X577937Y451240D02*
D03*
Y443760D02*
D03*
D27*
X296913Y229000D02*
D03*
X286087D02*
D03*
X297413Y329500D02*
D03*
X286587D02*
D03*
X297413Y401000D02*
D03*
X286587D02*
D03*
Y469500D02*
D03*
X297413D02*
D03*
D28*
X524500Y336913D02*
D03*
Y326087D02*
D03*
X591500Y201587D02*
D03*
Y212413D02*
D03*
Y306587D02*
D03*
Y317413D02*
D03*
X341000Y317587D02*
D03*
Y328413D02*
D03*
X591500Y377087D02*
D03*
Y387913D02*
D03*
Y443587D02*
D03*
Y454413D02*
D03*
D45*
X644591Y417000D02*
D03*
D46*
X669000D02*
D03*
D47*
X657189Y435504D02*
D03*
D48*
X686000Y375000D02*
D03*
D49*
X666000D02*
D03*
M02*
