G04*
G04 #@! TF.GenerationSoftware,Altium Limited,Altium Designer,20.1.12 (249)*
G04*
G04 Layer_Physical_Order=1*
G04 Layer_Color=255*
%FSLAX25Y25*%
%MOIN*%
G70*
G04*
G04 #@! TF.SameCoordinates,6FFDD3B3-A9CC-4E3F-A20B-3D8C1E4D05DD*
G04*
G04*
G04 #@! TF.FilePolarity,Positive*
G04*
G01*
G75*
%ADD10C,0.01000*%
%ADD16C,0.05000*%
%ADD17R,0.01968X0.01870*%
%ADD18R,0.03378X0.06150*%
G04:AMPARAMS|DCode=19|XSize=25.59mil|YSize=64.96mil|CornerRadius=1.92mil|HoleSize=0mil|Usage=FLASHONLY|Rotation=0.000|XOffset=0mil|YOffset=0mil|HoleType=Round|Shape=RoundedRectangle|*
%AMROUNDEDRECTD19*
21,1,0.02559,0.06112,0,0,0.0*
21,1,0.02175,0.06496,0,0,0.0*
1,1,0.00384,0.01088,-0.03056*
1,1,0.00384,-0.01088,-0.03056*
1,1,0.00384,-0.01088,0.03056*
1,1,0.00384,0.01088,0.03056*
%
%ADD19ROUNDEDRECTD19*%
%ADD20R,0.04152X0.05339*%
%ADD21R,0.03740X0.06693*%
G04:AMPARAMS|DCode=22|XSize=21.65mil|YSize=49.21mil|CornerRadius=1.95mil|HoleSize=0mil|Usage=FLASHONLY|Rotation=0.000|XOffset=0mil|YOffset=0mil|HoleType=Round|Shape=RoundedRectangle|*
%AMROUNDEDRECTD22*
21,1,0.02165,0.04532,0,0,0.0*
21,1,0.01776,0.04921,0,0,0.0*
1,1,0.00390,0.00888,-0.02266*
1,1,0.00390,-0.00888,-0.02266*
1,1,0.00390,-0.00888,0.02266*
1,1,0.00390,0.00888,0.02266*
%
%ADD22ROUNDEDRECTD22*%
%ADD23R,0.03740X0.06693*%
%ADD24R,0.05906X0.05906*%
%ADD25R,0.03543X0.06102*%
%ADD26R,0.03543X0.03150*%
%ADD27R,0.04921X0.07087*%
%ADD28R,0.07087X0.04921*%
%ADD44C,0.01500*%
G04:AMPARAMS|DCode=45|XSize=157.48mil|YSize=51.18mil|CornerRadius=12.8mil|HoleSize=0mil|Usage=FLASHONLY|Rotation=270.000|XOffset=0mil|YOffset=0mil|HoleType=Round|Shape=RoundedRectangle|*
%AMROUNDEDRECTD45*
21,1,0.15748,0.02559,0,0,270.0*
21,1,0.13189,0.05118,0,0,270.0*
1,1,0.02559,-0.01280,-0.06594*
1,1,0.02559,-0.01280,0.06594*
1,1,0.02559,0.01280,0.06594*
1,1,0.02559,0.01280,-0.06594*
%
%ADD45ROUNDEDRECTD45*%
G04:AMPARAMS|DCode=46|XSize=137.8mil|YSize=51.18mil|CornerRadius=12.8mil|HoleSize=0mil|Usage=FLASHONLY|Rotation=270.000|XOffset=0mil|YOffset=0mil|HoleType=Round|Shape=RoundedRectangle|*
%AMROUNDEDRECTD46*
21,1,0.13780,0.02559,0,0,270.0*
21,1,0.11221,0.05118,0,0,270.0*
1,1,0.02559,-0.01280,-0.05610*
1,1,0.02559,-0.01280,0.05610*
1,1,0.02559,0.01280,0.05610*
1,1,0.02559,0.01280,-0.05610*
%
%ADD46ROUNDEDRECTD46*%
G04:AMPARAMS|DCode=47|XSize=137.8mil|YSize=51.18mil|CornerRadius=12.8mil|HoleSize=0mil|Usage=FLASHONLY|Rotation=0.000|XOffset=0mil|YOffset=0mil|HoleType=Round|Shape=RoundedRectangle|*
%AMROUNDEDRECTD47*
21,1,0.13780,0.02559,0,0,0.0*
21,1,0.11221,0.05118,0,0,0.0*
1,1,0.02559,0.05610,-0.01280*
1,1,0.02559,-0.05610,-0.01280*
1,1,0.02559,-0.05610,0.01280*
1,1,0.02559,0.05610,0.01280*
%
%ADD47ROUNDEDRECTD47*%
%ADD48C,0.06299*%
%ADD49R,0.06299X0.06299*%
%ADD50C,0.30000*%
G36*
X700000Y172000D02*
X242000D01*
X242000Y483500D01*
X700000Y483500D01*
X700000Y172000D01*
D02*
G37*
%LPC*%
G36*
X639167Y471464D02*
Y468500D01*
X642131D01*
X642077Y468914D01*
X641724Y469765D01*
X641163Y470496D01*
X640432Y471057D01*
X639580Y471410D01*
X639167Y471464D01*
D02*
G37*
G36*
X638167D02*
X637753Y471410D01*
X636902Y471057D01*
X636170Y470496D01*
X635609Y469765D01*
X635257Y468914D01*
X635202Y468500D01*
X638167D01*
Y471464D01*
D02*
G37*
G36*
X292500Y479784D02*
X286000D01*
X285317Y479648D01*
X284738Y479262D01*
X278738Y473262D01*
X278351Y472683D01*
X278216Y472000D01*
Y466137D01*
X277716Y466078D01*
X277264Y467960D01*
X276300Y470286D01*
X274984Y472434D01*
X273349Y474349D01*
X271434Y475984D01*
X269286Y477300D01*
X266960Y478264D01*
X264511Y478852D01*
X262000Y479049D01*
X259489Y478852D01*
X257040Y478264D01*
X254714Y477300D01*
X252566Y475984D01*
X250651Y474349D01*
X249016Y472434D01*
X247700Y470286D01*
X246736Y467960D01*
X246148Y465511D01*
X245951Y463000D01*
X246148Y460489D01*
X246736Y458040D01*
X247700Y455714D01*
X249016Y453566D01*
X250651Y451651D01*
X252566Y450016D01*
X254714Y448700D01*
X257040Y447736D01*
X259489Y447148D01*
X262000Y446950D01*
X264511Y447148D01*
X266960Y447736D01*
X269286Y448700D01*
X271434Y450016D01*
X273349Y451651D01*
X274984Y453566D01*
X276300Y455714D01*
X277264Y458040D01*
X277716Y459922D01*
X278216Y459863D01*
Y442608D01*
X258521Y422913D01*
X257631Y423030D01*
X256717Y422910D01*
X255866Y422557D01*
X255135Y421996D01*
X254574Y421265D01*
X254221Y420414D01*
X254101Y419500D01*
X254221Y418586D01*
X254574Y417735D01*
X255135Y417004D01*
X255866Y416443D01*
X256717Y416090D01*
X257631Y415970D01*
X258545Y416090D01*
X259396Y416443D01*
X260127Y417004D01*
X260688Y417735D01*
X261041Y418586D01*
X261161Y419500D01*
X261044Y420390D01*
X281262Y440607D01*
X281648Y441186D01*
X281784Y441869D01*
X281784Y441869D01*
Y471261D01*
X282664Y472141D01*
X283126Y471949D01*
Y464957D01*
X285057D01*
Y455815D01*
X283291D01*
Y450665D01*
X288835D01*
Y455815D01*
X288116D01*
Y464957D01*
X290047D01*
Y474043D01*
X285220D01*
X285029Y474505D01*
X286739Y476216D01*
X291761D01*
X293953Y474024D01*
Y464957D01*
X299226D01*
X299374Y464927D01*
X304156D01*
X304443Y464235D01*
X305004Y463504D01*
X305735Y462943D01*
X306586Y462590D01*
X307500Y462470D01*
X308414Y462590D01*
X309265Y462943D01*
X309996Y463504D01*
X310557Y464235D01*
X310910Y465086D01*
X311030Y466000D01*
X310910Y466914D01*
X310557Y467765D01*
X309996Y468496D01*
X309265Y469057D01*
X308414Y469410D01*
X307500Y469530D01*
X306586Y469410D01*
X305735Y469057D01*
X305004Y468496D01*
X304612Y467986D01*
X300874D01*
Y474043D01*
X298224D01*
X297898Y474386D01*
X297762Y475069D01*
X297375Y475648D01*
X297375Y475648D01*
X293762Y479262D01*
X293183Y479648D01*
X292500Y479784D01*
D02*
G37*
G36*
X642131Y467500D02*
X639167D01*
Y464536D01*
X639580Y464590D01*
X640432Y464943D01*
X641163Y465504D01*
X641724Y466235D01*
X642077Y467086D01*
X642131Y467500D01*
D02*
G37*
G36*
X638167D02*
X635202D01*
X635257Y467086D01*
X635609Y466235D01*
X636170Y465504D01*
X636902Y464943D01*
X637753Y464590D01*
X638167Y464536D01*
Y467500D01*
D02*
G37*
G36*
X611000Y471530D02*
X610086Y471410D01*
X609235Y471057D01*
X608504Y470496D01*
X607943Y469765D01*
X607590Y468914D01*
X607470Y468000D01*
X607590Y467086D01*
X607599Y467065D01*
X605738Y465205D01*
X605351Y464626D01*
X605216Y463943D01*
Y457543D01*
X604504Y456996D01*
X603943Y456265D01*
X603845Y456029D01*
X596043D01*
Y457874D01*
X586957D01*
Y450953D01*
X596043D01*
Y452971D01*
X603845D01*
X603943Y452735D01*
X604504Y452004D01*
X605235Y451443D01*
X606086Y451090D01*
X607000Y450970D01*
X607914Y451090D01*
X608765Y451443D01*
X609496Y452004D01*
X610057Y452735D01*
X610410Y453586D01*
X610530Y454500D01*
X610410Y455414D01*
X610057Y456265D01*
X609496Y456996D01*
X608784Y457543D01*
Y463204D01*
X610161Y464580D01*
X611000Y464470D01*
X611914Y464590D01*
X612765Y464943D01*
X613496Y465504D01*
X614057Y466235D01*
X614410Y467086D01*
X614530Y468000D01*
X614410Y468914D01*
X614057Y469765D01*
X613496Y470496D01*
X612765Y471057D01*
X611914Y471410D01*
X611000Y471530D01*
D02*
G37*
G36*
X542539Y463551D02*
Y460000D01*
X544811D01*
Y463551D01*
X542539D01*
D02*
G37*
G36*
X510539D02*
Y460000D01*
X512811D01*
Y463551D01*
X510539D01*
D02*
G37*
G36*
X479239D02*
Y460000D01*
X481511D01*
Y463551D01*
X479239D01*
D02*
G37*
G36*
X447939D02*
Y460000D01*
X450211D01*
Y463551D01*
X447939D01*
D02*
G37*
G36*
X418911D02*
X416639D01*
Y460000D01*
X418911D01*
Y463551D01*
D02*
G37*
G36*
X385339D02*
Y460000D01*
X387611D01*
Y463551D01*
X385339D01*
D02*
G37*
G36*
X354039D02*
Y460000D01*
X356311D01*
Y463551D01*
X354039D01*
D02*
G37*
G36*
X322539D02*
Y460000D01*
X324811D01*
Y463551D01*
X322539D01*
D02*
G37*
G36*
X415639D02*
X413367D01*
Y460000D01*
X415639D01*
Y463551D01*
D02*
G37*
G36*
X555342Y475452D02*
X547437D01*
Y467547D01*
X550943D01*
Y463551D01*
X549701D01*
Y455449D01*
X555244D01*
Y463551D01*
X554002D01*
Y467547D01*
X555342D01*
Y475452D01*
D02*
G37*
G36*
X544811Y459000D02*
X542539D01*
Y455449D01*
X544811D01*
Y459000D01*
D02*
G37*
G36*
X523343Y475452D02*
X515437D01*
Y467547D01*
X518943D01*
Y463551D01*
X517701D01*
Y455449D01*
X523244D01*
Y463551D01*
X522002D01*
Y467547D01*
X523343D01*
Y475452D01*
D02*
G37*
G36*
X512811Y459000D02*
X510539D01*
Y455449D01*
X512811D01*
Y459000D01*
D02*
G37*
G36*
X492042Y475452D02*
X484137D01*
Y467547D01*
X487643D01*
Y463551D01*
X486401D01*
Y455449D01*
X491944D01*
Y463551D01*
X490701D01*
Y467547D01*
X492042D01*
Y475452D01*
D02*
G37*
G36*
X481511Y459000D02*
X479239D01*
Y455449D01*
X481511D01*
Y459000D01*
D02*
G37*
G36*
X460742Y475452D02*
X452837D01*
Y467547D01*
X456343D01*
Y463551D01*
X455100D01*
Y455449D01*
X460644D01*
Y463551D01*
X459402D01*
Y467547D01*
X460742D01*
Y475452D01*
D02*
G37*
G36*
X450211Y459000D02*
X447939D01*
Y455449D01*
X450211D01*
Y459000D01*
D02*
G37*
G36*
X429442Y475452D02*
X421537D01*
Y467547D01*
X425043D01*
Y463551D01*
X423801D01*
Y455449D01*
X429344D01*
Y463551D01*
X428101D01*
Y467547D01*
X429442D01*
Y475452D01*
D02*
G37*
G36*
X418911Y459000D02*
X416639D01*
Y455449D01*
X418911D01*
Y459000D01*
D02*
G37*
G36*
X415639D02*
X413367D01*
Y455449D01*
X415639D01*
Y459000D01*
D02*
G37*
G36*
X398142Y475452D02*
X390237D01*
Y467547D01*
X393743D01*
Y463551D01*
X392500D01*
Y455449D01*
X398044D01*
Y463551D01*
X396801D01*
Y467547D01*
X398142D01*
Y475452D01*
D02*
G37*
G36*
X387611Y459000D02*
X385339D01*
Y455449D01*
X387611D01*
Y459000D01*
D02*
G37*
G36*
X415663Y475452D02*
X407757D01*
Y467547D01*
X408971D01*
Y458134D01*
X401866Y451029D01*
X375346D01*
X375154Y451491D01*
X381491Y457829D01*
X381567Y457942D01*
X382067Y457791D01*
Y455449D01*
X384339D01*
Y459500D01*
Y463551D01*
X382067Y463551D01*
X381939Y463998D01*
Y467547D01*
X384363D01*
Y475452D01*
X376457D01*
Y467547D01*
X378881D01*
Y459543D01*
X370367Y451029D01*
X341346D01*
X341154Y451491D01*
X350191Y460529D01*
X350267Y460642D01*
X350767Y460491D01*
Y460000D01*
X353039D01*
Y463551D01*
X350767Y463551D01*
X350639Y463998D01*
Y467547D01*
X353063D01*
Y475452D01*
X345157D01*
Y467547D01*
X347581D01*
Y462243D01*
X336367Y451029D01*
X309346D01*
X309154Y451491D01*
X318692Y461029D01*
X318768Y461143D01*
X319268Y460991D01*
Y460000D01*
X321539D01*
Y463551D01*
X319268Y463551D01*
X319140Y463998D01*
Y467547D01*
X321563D01*
Y475452D01*
X313657D01*
Y467547D01*
X316081D01*
Y462744D01*
X304366Y451029D01*
X296709D01*
Y452075D01*
X291165D01*
Y446925D01*
X296709D01*
Y447971D01*
X402500D01*
X403085Y448087D01*
X403581Y448419D01*
X411581Y456419D01*
X411913Y456915D01*
X412029Y457500D01*
Y467547D01*
X415663D01*
Y475452D01*
D02*
G37*
G36*
X366842D02*
X358937D01*
Y467547D01*
X362443D01*
Y463551D01*
X361200D01*
Y455449D01*
X366744D01*
Y463551D01*
X365501D01*
Y467547D01*
X366842D01*
Y475452D01*
D02*
G37*
G36*
X356311Y459000D02*
X354039D01*
Y455449D01*
X356311D01*
Y459000D01*
D02*
G37*
G36*
X353039D02*
X350767D01*
Y455449D01*
X353039D01*
Y459000D01*
D02*
G37*
G36*
X335343Y475452D02*
X327437D01*
Y467547D01*
X330943D01*
Y463551D01*
X329701D01*
Y455449D01*
X335244D01*
Y463551D01*
X334002D01*
Y467547D01*
X335343D01*
Y475452D01*
D02*
G37*
G36*
X324811Y459000D02*
X322539D01*
Y455449D01*
X324811D01*
Y459000D01*
D02*
G37*
G36*
X321539D02*
X319268D01*
Y455449D01*
X321539D01*
Y459000D01*
D02*
G37*
G36*
X541563Y475452D02*
X533658D01*
Y467547D01*
X536081D01*
Y453890D01*
X536197Y453304D01*
X536529Y452808D01*
X539846Y449491D01*
X539654Y449029D01*
X513633D01*
X507714Y454949D01*
X507921Y455449D01*
X509539D01*
Y459500D01*
Y463551D01*
X507268Y463551D01*
X507140Y463998D01*
Y467547D01*
X509563D01*
Y475452D01*
X501657D01*
Y467547D01*
X504081D01*
Y454890D01*
X504197Y454305D01*
X504529Y453808D01*
X508846Y449491D01*
X508654Y449029D01*
X481134D01*
X475839Y454324D01*
Y455002D01*
X475967Y455449D01*
X476339Y455449D01*
X478239D01*
Y459500D01*
Y463551D01*
X475967Y463551D01*
X475839Y463998D01*
Y467547D01*
X478263D01*
Y475452D01*
X470357D01*
Y467547D01*
X472781D01*
Y453690D01*
X472897Y453105D01*
X473229Y452609D01*
X476346Y449491D01*
X476154Y449029D01*
X450134D01*
X444529Y454634D01*
Y455006D01*
X444667Y455449D01*
X445029Y455449D01*
X446939D01*
Y459500D01*
Y463551D01*
X444667Y463551D01*
X444529Y463994D01*
Y467547D01*
X446963D01*
Y475452D01*
X439057D01*
Y467547D01*
X441471D01*
Y454000D01*
X441587Y453415D01*
X441919Y452919D01*
X448419Y446419D01*
X448915Y446087D01*
X449500Y445971D01*
X567291D01*
Y444925D01*
X572835D01*
Y450075D01*
X567291D01*
Y449029D01*
X544633D01*
X539140Y454523D01*
Y455002D01*
X539268Y455449D01*
X539640Y455449D01*
X541539D01*
Y459500D01*
Y463551D01*
X539268Y463551D01*
X539140Y463998D01*
Y467547D01*
X541563D01*
Y475452D01*
D02*
G37*
G36*
X578000Y464030D02*
X577086Y463910D01*
X576235Y463557D01*
X575504Y462996D01*
X574943Y462265D01*
X574590Y461414D01*
X574470Y460500D01*
X574590Y459586D01*
X574943Y458735D01*
X575504Y458004D01*
X576235Y457443D01*
X576471Y457345D01*
Y453815D01*
X575165D01*
Y448665D01*
X580709D01*
Y453815D01*
X579529D01*
Y457345D01*
X579765Y457443D01*
X580496Y458004D01*
X581057Y458735D01*
X581410Y459586D01*
X581530Y460500D01*
X581410Y461414D01*
X581057Y462265D01*
X580496Y462996D01*
X579765Y463557D01*
X578914Y463910D01*
X578000Y464030D01*
D02*
G37*
G36*
X680500Y479049D02*
X677989Y478852D01*
X675540Y478264D01*
X673214Y477300D01*
X671066Y475984D01*
X669151Y474349D01*
X667516Y472434D01*
X666200Y470286D01*
X665236Y467960D01*
X664648Y465511D01*
X664451Y463000D01*
X664648Y460489D01*
X665236Y458040D01*
X666200Y455714D01*
X667516Y453566D01*
X669151Y451651D01*
X671066Y450016D01*
X673214Y448700D01*
X675540Y447736D01*
X677989Y447148D01*
X680500Y446950D01*
X683011Y447148D01*
X685460Y447736D01*
X687786Y448700D01*
X689934Y450016D01*
X691849Y451651D01*
X693484Y453566D01*
X694800Y455714D01*
X695764Y458040D01*
X696352Y460489D01*
X696550Y463000D01*
X696352Y465511D01*
X695764Y467960D01*
X694800Y470286D01*
X693484Y472434D01*
X691849Y474349D01*
X689934Y475984D01*
X687786Y477300D01*
X685460Y478264D01*
X683011Y478852D01*
X680500Y479049D01*
D02*
G37*
G36*
X596043Y447047D02*
X586957D01*
Y445116D01*
X580709D01*
Y446335D01*
X575165D01*
Y441185D01*
X580709D01*
Y442057D01*
X586957D01*
Y440126D01*
X596043D01*
Y447047D01*
D02*
G37*
G36*
X288835Y448335D02*
X283291D01*
Y443185D01*
X286349D01*
X286971Y442563D01*
Y439155D01*
X286735Y439057D01*
X286004Y438496D01*
X285443Y437765D01*
X285090Y436914D01*
X284970Y436000D01*
X285090Y435086D01*
X285443Y434235D01*
X286004Y433504D01*
X286735Y432943D01*
X287586Y432590D01*
X288500Y432470D01*
X289414Y432590D01*
X290265Y432943D01*
X290996Y433504D01*
X291557Y434235D01*
X291910Y435086D01*
X292030Y436000D01*
X291910Y436914D01*
X291557Y437765D01*
X290996Y438496D01*
X290265Y439057D01*
X290029Y439155D01*
Y443197D01*
X289913Y443782D01*
X289581Y444278D01*
X288835Y445025D01*
Y448335D01*
D02*
G37*
G36*
X652500Y471530D02*
X651586Y471410D01*
X650735Y471057D01*
X650004Y470496D01*
X649443Y469765D01*
X649090Y468914D01*
X648970Y468000D01*
X649090Y467086D01*
X649443Y466235D01*
X650004Y465504D01*
X650716Y464958D01*
Y438936D01*
X650689Y438931D01*
X649935Y438427D01*
X649432Y437673D01*
X649255Y436784D01*
Y434224D01*
X649432Y433335D01*
X649935Y432581D01*
X650689Y432077D01*
X651579Y431900D01*
X662799D01*
X663689Y432077D01*
X664443Y432581D01*
X664947Y433335D01*
X665123Y434224D01*
Y436784D01*
X664947Y437673D01*
X664443Y438427D01*
X663689Y438931D01*
X662799Y439108D01*
X654284D01*
Y464958D01*
X654996Y465504D01*
X655557Y466235D01*
X655910Y467086D01*
X656030Y468000D01*
X655910Y468914D01*
X655557Y469765D01*
X654996Y470496D01*
X654265Y471057D01*
X653414Y471410D01*
X652500Y471530D01*
D02*
G37*
G36*
X544811Y429051D02*
X542539D01*
Y425500D01*
X544811D01*
Y429051D01*
D02*
G37*
G36*
X512311D02*
X510039D01*
Y425500D01*
X512311D01*
Y429051D01*
D02*
G37*
G36*
X481011D02*
X478739D01*
Y425500D01*
X481011D01*
Y429051D01*
D02*
G37*
G36*
X449711D02*
X447439D01*
Y425500D01*
X449711D01*
Y429051D01*
D02*
G37*
G36*
X418411D02*
X416139D01*
Y425500D01*
X418411D01*
Y429051D01*
D02*
G37*
G36*
X387111D02*
X384839D01*
Y425500D01*
X387111D01*
Y429051D01*
D02*
G37*
G36*
X355811D02*
X353539D01*
Y425500D01*
X355811D01*
Y429051D01*
D02*
G37*
G36*
X322539D02*
Y425500D01*
X324811D01*
Y429051D01*
X322539D01*
D02*
G37*
G36*
X541539D02*
X539268D01*
Y425500D01*
X541539D01*
Y429051D01*
D02*
G37*
G36*
X555342Y440952D02*
X547437D01*
Y433047D01*
X550943D01*
Y429051D01*
X549701D01*
Y420949D01*
X555244D01*
Y429051D01*
X554002D01*
Y433047D01*
X555342D01*
Y440952D01*
D02*
G37*
G36*
X544811Y424500D02*
X542539D01*
Y420949D01*
X544811D01*
Y424500D01*
D02*
G37*
G36*
X541539D02*
X539268D01*
Y420949D01*
X541539D01*
Y424500D01*
D02*
G37*
G36*
X523343Y440952D02*
X515437D01*
Y433047D01*
X518443D01*
Y429051D01*
X517201D01*
Y420949D01*
X522744D01*
Y429051D01*
X521501D01*
Y433047D01*
X523343D01*
Y440952D01*
D02*
G37*
G36*
X512311Y424500D02*
X510039D01*
Y420949D01*
X512311D01*
Y424500D01*
D02*
G37*
G36*
X509039D02*
X506767D01*
Y420949D01*
X509039D01*
Y424500D01*
D02*
G37*
G36*
X492042Y440952D02*
X484137D01*
Y433047D01*
X487143D01*
Y429051D01*
X485900D01*
Y420949D01*
X491444D01*
Y429051D01*
X490202D01*
Y433047D01*
X492042D01*
Y440952D01*
D02*
G37*
G36*
X481011Y424500D02*
X478739D01*
Y420949D01*
X481011D01*
Y424500D01*
D02*
G37*
G36*
X509563Y440952D02*
X501657D01*
Y433047D01*
X504080D01*
Y430467D01*
X491143Y417529D01*
X467846D01*
X467654Y417991D01*
X474967Y425305D01*
X475467Y425097D01*
Y420949D01*
X477739D01*
Y425000D01*
Y429051D01*
X475839D01*
Y433047D01*
X478263D01*
Y440952D01*
X470357D01*
Y433047D01*
X472781D01*
Y427443D01*
X462866Y417529D01*
X436846D01*
X436654Y417991D01*
X443667Y425004D01*
X444167Y424797D01*
Y420949D01*
X446439D01*
Y425000D01*
Y429051D01*
X444539D01*
Y433047D01*
X446963D01*
Y440952D01*
X439057D01*
Y433047D01*
X441480D01*
Y427143D01*
X431867Y417529D01*
X405846D01*
X405654Y417991D01*
X412367Y424705D01*
X412867Y424497D01*
Y420949D01*
X415139D01*
Y425000D01*
Y429051D01*
X413239D01*
Y433047D01*
X415663D01*
Y440952D01*
X407757D01*
Y433047D01*
X410181D01*
Y426843D01*
X400867Y417529D01*
X374346D01*
X374154Y417991D01*
X381067Y424904D01*
X381567Y424697D01*
Y420949D01*
X383839D01*
Y425000D01*
Y429051D01*
X381939D01*
Y433047D01*
X384363D01*
Y440952D01*
X376457D01*
Y433047D01*
X378881D01*
Y427043D01*
X369367Y417529D01*
X350722D01*
X350487Y417970D01*
X350523Y418025D01*
X350639Y418610D01*
Y420949D01*
X352539D01*
Y425000D01*
Y429051D01*
X350639D01*
Y433047D01*
X353063D01*
Y440952D01*
X345157D01*
Y433047D01*
X347581D01*
Y419243D01*
X347121Y418784D01*
X346765Y419057D01*
X345914Y419410D01*
X345000Y419530D01*
X344086Y419410D01*
X343235Y419057D01*
X342504Y418496D01*
X341943Y417765D01*
X341590Y416914D01*
X341470Y416000D01*
X341590Y415086D01*
X341943Y414235D01*
X342504Y413504D01*
X343235Y412943D01*
X344086Y412590D01*
X345000Y412470D01*
X345914Y412590D01*
X346765Y412943D01*
X347121Y413216D01*
X347581Y412757D01*
Y406119D01*
X345157D01*
Y398214D01*
X353063D01*
Y406119D01*
X350639D01*
Y413390D01*
X350523Y413975D01*
X350487Y414030D01*
X350722Y414471D01*
X369367D01*
X376428Y407409D01*
Y404619D01*
X376457Y404471D01*
Y398214D01*
X384363D01*
Y406119D01*
X379486D01*
Y408043D01*
X379370Y408628D01*
X379039Y409124D01*
X374154Y414009D01*
X374346Y414471D01*
X400867D01*
X407728Y407609D01*
Y404619D01*
X407757Y404471D01*
Y398214D01*
X410181D01*
Y371286D01*
X407757D01*
Y363380D01*
X410181D01*
Y336452D01*
X407757D01*
Y328547D01*
X410181D01*
Y301619D01*
X407757D01*
Y293714D01*
X410181D01*
Y266786D01*
X407757D01*
Y258880D01*
X410181D01*
Y244518D01*
X410297Y243932D01*
X410629Y243436D01*
X412073Y241991D01*
X411882Y241529D01*
X387089D01*
X383548Y245070D01*
X383739Y245532D01*
X384339D01*
Y249583D01*
Y253635D01*
X382067D01*
X381939Y254082D01*
Y258880D01*
X384363D01*
Y266786D01*
X376457D01*
Y258880D01*
X378881D01*
Y246045D01*
X378997Y245460D01*
X379328Y244964D01*
X382301Y241991D01*
X382110Y241529D01*
X354633D01*
X351131Y245032D01*
X351338Y245532D01*
X353039D01*
Y249583D01*
Y253635D01*
X351029D01*
X350767Y253635D01*
X350529Y254036D01*
Y258880D01*
X353063D01*
Y266786D01*
X345157D01*
Y258880D01*
X347471D01*
Y245000D01*
X347587Y244415D01*
X347919Y243919D01*
X351837Y240000D01*
X348028Y236191D01*
X347697Y235695D01*
X347581Y235110D01*
Y231952D01*
X345157D01*
Y224047D01*
X353063D01*
Y231952D01*
X350639D01*
Y234476D01*
X354633Y238471D01*
X382110D01*
X382301Y238009D01*
X379328Y235036D01*
X378997Y234540D01*
X378881Y233955D01*
Y231952D01*
X376457D01*
Y224047D01*
X384363D01*
Y231952D01*
X381939D01*
Y233321D01*
X387089Y238471D01*
X411882D01*
X412073Y238009D01*
X410629Y236564D01*
X410297Y236068D01*
X410181Y235482D01*
Y231952D01*
X407757D01*
Y224047D01*
X415663D01*
Y231952D01*
X413239D01*
Y234849D01*
X417309Y238919D01*
X417640Y239415D01*
X417757Y240000D01*
X417640Y240585D01*
X417309Y241081D01*
X413352Y245039D01*
X413527Y245532D01*
X413739Y245532D01*
X415639D01*
Y249583D01*
Y253635D01*
X413367Y253635D01*
X413239Y254082D01*
Y258880D01*
X415663D01*
Y266786D01*
X413239D01*
Y280169D01*
X413367Y280615D01*
X413739Y280615D01*
X415639D01*
Y284667D01*
Y288718D01*
X413367Y288718D01*
X413239Y289165D01*
Y293714D01*
X415663D01*
Y301619D01*
X413239D01*
Y315252D01*
X413367Y315699D01*
X413739Y315699D01*
X415639D01*
Y319750D01*
Y323801D01*
X413367Y323801D01*
X413239Y324248D01*
Y328547D01*
X415663D01*
Y336452D01*
X413239D01*
Y350335D01*
X413367Y350782D01*
X413739Y350782D01*
X415639D01*
Y354833D01*
Y358885D01*
X413367Y358885D01*
X413239Y359331D01*
Y363380D01*
X415663D01*
Y371286D01*
X413239D01*
Y385419D01*
X413367Y385865D01*
X413739Y385865D01*
X415639D01*
Y389917D01*
Y393968D01*
X413367Y393968D01*
X413239Y394415D01*
Y398214D01*
X415663D01*
Y406119D01*
X410786D01*
Y408243D01*
X410670Y408828D01*
X410339Y409324D01*
X405654Y414009D01*
X405846Y414471D01*
X431867D01*
X439028Y407309D01*
Y404619D01*
X439057Y404471D01*
Y398214D01*
X441480D01*
Y371286D01*
X439057D01*
Y363380D01*
X441480D01*
Y336452D01*
X439057D01*
Y328547D01*
X441480D01*
Y301619D01*
X439057D01*
Y293714D01*
X441480D01*
Y266786D01*
X439057D01*
Y258880D01*
X441480D01*
Y242990D01*
X441597Y242405D01*
X441928Y241909D01*
X443837Y240000D01*
X441928Y238091D01*
X441597Y237595D01*
X441480Y237010D01*
Y231952D01*
X439057D01*
Y224047D01*
X446963D01*
Y231952D01*
X444539D01*
Y236376D01*
X446633Y238471D01*
X476154D01*
X476346Y238009D01*
X473229Y234891D01*
X472897Y234395D01*
X472781Y233810D01*
Y231952D01*
X470357D01*
Y224047D01*
X478263D01*
Y231952D01*
X475839D01*
Y233176D01*
X481134Y238471D01*
X505154D01*
X505346Y238009D01*
X504529Y237191D01*
X504197Y236695D01*
X504080Y236110D01*
Y231952D01*
X501657D01*
Y224047D01*
X509563D01*
Y231952D01*
X507139D01*
Y235476D01*
X510581Y238919D01*
X510913Y239415D01*
X511029Y240000D01*
X510913Y240585D01*
X510581Y241081D01*
X507139Y244524D01*
Y245085D01*
X507267Y245532D01*
X507639Y245532D01*
X509539D01*
Y249583D01*
Y253635D01*
X507267Y253635D01*
X507139Y254082D01*
Y258880D01*
X509563D01*
Y266786D01*
X501657D01*
Y258880D01*
X504080D01*
Y243890D01*
X504197Y243305D01*
X504529Y242809D01*
X505346Y241991D01*
X505154Y241529D01*
X481134D01*
X477593Y245070D01*
X477784Y245532D01*
X478239D01*
Y249583D01*
Y253635D01*
X475967D01*
X475839Y254082D01*
Y258880D01*
X478263D01*
Y266786D01*
X470357D01*
Y258880D01*
X472781D01*
Y246190D01*
X472897Y245605D01*
X473229Y245109D01*
X476346Y241991D01*
X476154Y241529D01*
X446633D01*
X444539Y243624D01*
Y245085D01*
X444667Y245532D01*
X445039Y245532D01*
X446939D01*
Y249583D01*
Y253635D01*
X444667Y253635D01*
X444539Y254082D01*
Y258880D01*
X446963D01*
Y266786D01*
X444539D01*
Y280169D01*
X444667Y280615D01*
X445039Y280615D01*
X446939D01*
Y284667D01*
Y288718D01*
X444667Y288718D01*
X444539Y289165D01*
Y293714D01*
X446963D01*
Y301619D01*
X444539D01*
Y315252D01*
X444667Y315699D01*
X445039Y315699D01*
X446939D01*
Y319750D01*
Y323801D01*
X444667Y323801D01*
X444539Y324248D01*
Y328547D01*
X446963D01*
Y336452D01*
X444539D01*
Y350335D01*
X444667Y350782D01*
X445039Y350782D01*
X446939D01*
Y354833D01*
Y358885D01*
X444667Y358885D01*
X444539Y359331D01*
Y363380D01*
X446963D01*
Y371286D01*
X444539D01*
Y385419D01*
X444667Y385865D01*
X445039Y385865D01*
X446939D01*
Y389917D01*
Y393968D01*
X444667Y393968D01*
X444539Y394415D01*
Y398214D01*
X446963D01*
Y406119D01*
X442087D01*
Y407943D01*
X441970Y408528D01*
X441639Y409024D01*
X436654Y414009D01*
X436846Y414471D01*
X462866D01*
X470328Y407009D01*
Y404619D01*
X470357Y404471D01*
Y398214D01*
X478263D01*
Y406119D01*
X473386D01*
Y407643D01*
X473270Y408228D01*
X472939Y408724D01*
X467654Y414009D01*
X467846Y414471D01*
X491143D01*
X501657Y403956D01*
Y398214D01*
X509563D01*
Y406119D01*
X503820D01*
X493939Y416000D01*
X506267Y428328D01*
X506767Y428121D01*
Y425500D01*
X509039D01*
Y429051D01*
X507447D01*
X507083Y429551D01*
X507139Y429834D01*
Y433047D01*
X509563D01*
Y440952D01*
D02*
G37*
G36*
X460742Y440952D02*
X452837D01*
Y433047D01*
X455843D01*
Y429051D01*
X454600D01*
Y420949D01*
X460144D01*
Y429051D01*
X458902D01*
Y433047D01*
X460742D01*
Y440952D01*
D02*
G37*
G36*
X449711Y424500D02*
X447439D01*
Y420949D01*
X449711D01*
Y424500D01*
D02*
G37*
G36*
X429442Y440952D02*
X421537D01*
Y433047D01*
X424543D01*
Y429051D01*
X423301D01*
Y420949D01*
X428844D01*
Y429051D01*
X427601D01*
Y433047D01*
X429442D01*
Y440952D01*
D02*
G37*
G36*
X418411Y424500D02*
X416139D01*
Y420949D01*
X418411D01*
Y424500D01*
D02*
G37*
G36*
X398142Y440952D02*
X390237D01*
Y433047D01*
X393243D01*
Y429051D01*
X392001D01*
Y420949D01*
X397544D01*
Y429051D01*
X396302D01*
Y433047D01*
X398142D01*
Y440952D01*
D02*
G37*
G36*
X387111Y424500D02*
X384839D01*
Y420949D01*
X387111D01*
Y424500D01*
D02*
G37*
G36*
X366842Y440952D02*
X358937D01*
Y433047D01*
X361943D01*
Y429051D01*
X360700D01*
Y420949D01*
X366244D01*
Y429051D01*
X365002D01*
Y433047D01*
X366842D01*
Y440952D01*
D02*
G37*
G36*
X355811Y424500D02*
X353539D01*
Y420949D01*
X355811D01*
Y424500D01*
D02*
G37*
G36*
X335343Y440952D02*
X327437D01*
Y433047D01*
X330943D01*
Y429051D01*
X329701D01*
Y420949D01*
X335244D01*
Y429051D01*
X334002D01*
Y433047D01*
X335343D01*
Y440952D01*
D02*
G37*
G36*
X324811Y424500D02*
X322539D01*
Y420949D01*
X324811D01*
Y424500D01*
D02*
G37*
G36*
X645870Y425919D02*
X643311D01*
X642422Y425742D01*
X641668Y425238D01*
X641164Y424484D01*
X640987Y423595D01*
Y414190D01*
X637437D01*
X637437Y414190D01*
X636754Y414054D01*
X636175Y413667D01*
X614961Y392453D01*
X613516D01*
Y388917D01*
X613516Y388583D01*
X613516Y388083D01*
Y384547D01*
X617484D01*
Y384698D01*
X654279D01*
X661850Y377126D01*
Y370850D01*
X670150D01*
Y379150D01*
X664787D01*
X664612Y379411D01*
X656279Y387744D01*
X655700Y388131D01*
X655018Y388267D01*
X617853D01*
X617484Y388583D01*
X617484Y388917D01*
Y389929D01*
X638176Y410621D01*
X640987D01*
Y410405D01*
X641164Y409516D01*
X641668Y408762D01*
X642422Y408258D01*
X643311Y408081D01*
X645870D01*
X646760Y408258D01*
X647513Y408762D01*
X648017Y409516D01*
X648194Y410405D01*
Y423595D01*
X648017Y424484D01*
X647513Y425238D01*
X646760Y425742D01*
X645870Y425919D01*
D02*
G37*
G36*
X670280Y424934D02*
X667721D01*
X666831Y424757D01*
X666077Y424254D01*
X665573Y423500D01*
X665396Y422610D01*
Y411390D01*
X665573Y410500D01*
X666077Y409746D01*
X666831Y409242D01*
X667721Y409066D01*
X670280D01*
X671169Y409242D01*
X671923Y409746D01*
X672427Y410500D01*
X672604Y411390D01*
Y422610D01*
X672427Y423500D01*
X671923Y424254D01*
X671169Y424757D01*
X670280Y424934D01*
D02*
G37*
G36*
X541563Y440952D02*
X533658D01*
Y435210D01*
X526919Y428471D01*
X526587Y427975D01*
X526471Y427389D01*
Y410000D01*
Y382596D01*
X519344D01*
X518759Y382480D01*
X518263Y382148D01*
X507400Y371286D01*
X501657D01*
Y363380D01*
X509563D01*
Y369123D01*
X519978Y379538D01*
X546999D01*
X547190Y379076D01*
X539400Y371286D01*
X533658D01*
Y363380D01*
X541563D01*
Y369123D01*
X551978Y379538D01*
X567291D01*
Y378492D01*
X572835D01*
Y383642D01*
X567291D01*
Y382596D01*
X529529D01*
Y407431D01*
X529991Y407622D01*
X533658Y403956D01*
Y398214D01*
X541563D01*
Y406119D01*
X535820D01*
X530858Y411081D01*
X530362Y411413D01*
X529777Y411529D01*
X529529D01*
Y426756D01*
X535820Y433047D01*
X541563D01*
Y440952D01*
D02*
G37*
G36*
X292000Y415284D02*
X270500D01*
X269817Y415148D01*
X269238Y414762D01*
X269238Y414762D01*
X258875Y404398D01*
X258545Y404535D01*
X257631Y404655D01*
X256717Y404535D01*
X255866Y404182D01*
X255135Y403621D01*
X254574Y402890D01*
X254221Y402039D01*
X254101Y401125D01*
X254221Y400211D01*
X254574Y399360D01*
X255135Y398629D01*
X255866Y398068D01*
X256717Y397715D01*
X257631Y397595D01*
X258545Y397715D01*
X259396Y398068D01*
X260127Y398629D01*
X260688Y399360D01*
X261041Y400211D01*
X261161Y401125D01*
X261102Y401578D01*
X271239Y411716D01*
X291261D01*
X295629Y407347D01*
Y405543D01*
X293953D01*
Y396457D01*
X300874D01*
Y399471D01*
X302345D01*
X302443Y399235D01*
X303004Y398504D01*
X303735Y397943D01*
X304586Y397590D01*
X305500Y397470D01*
X306414Y397590D01*
X307265Y397943D01*
X307996Y398504D01*
X308557Y399235D01*
X308910Y400086D01*
X309030Y401000D01*
X308910Y401914D01*
X308557Y402765D01*
X307996Y403496D01*
X307265Y404057D01*
X306414Y404410D01*
X305500Y404530D01*
X304586Y404410D01*
X303735Y404057D01*
X303004Y403496D01*
X302443Y402765D01*
X302345Y402529D01*
X300874D01*
Y405543D01*
X299198D01*
Y408087D01*
X299198Y408087D01*
X299062Y408769D01*
X298675Y409348D01*
X293262Y414762D01*
X292683Y415148D01*
X292000Y415284D01*
D02*
G37*
G36*
X544811Y393968D02*
X542539D01*
Y390417D01*
X544811D01*
Y393968D01*
D02*
G37*
G36*
X512811D02*
X510539D01*
Y390417D01*
X512811D01*
Y393968D01*
D02*
G37*
G36*
X481511D02*
X479239D01*
Y390417D01*
X481511D01*
Y393968D01*
D02*
G37*
G36*
X356311D02*
X354039D01*
Y390417D01*
X356311D01*
Y393968D01*
D02*
G37*
G36*
X324811D02*
X322539D01*
Y390417D01*
X324811D01*
Y393968D01*
D02*
G37*
G36*
X509539D02*
X507268D01*
Y390417D01*
X509539D01*
Y393968D01*
D02*
G37*
G36*
X478239D02*
X475967D01*
Y390417D01*
X478239D01*
Y393968D01*
D02*
G37*
G36*
X353039D02*
X350767D01*
Y390417D01*
X353039D01*
Y393968D01*
D02*
G37*
G36*
X321539D02*
X319268D01*
Y390417D01*
X321539D01*
Y393968D01*
D02*
G37*
G36*
X541539D02*
X539268D01*
Y390417D01*
X541539D01*
Y393968D01*
D02*
G37*
G36*
X387611D02*
X385339D01*
Y390417D01*
X387611D01*
Y393968D01*
D02*
G37*
G36*
X384339D02*
X382067D01*
Y390417D01*
X384339D01*
Y393968D01*
D02*
G37*
G36*
X416639D02*
Y390417D01*
X418911D01*
Y393968D01*
X416639D01*
D02*
G37*
G36*
X447939D02*
Y390417D01*
X450211D01*
Y393968D01*
X447939D01*
D02*
G37*
G36*
X555342Y406119D02*
X547437D01*
Y398214D01*
X550943D01*
Y393968D01*
X549701D01*
Y385865D01*
X555244D01*
Y393968D01*
X554002D01*
Y398214D01*
X555342D01*
Y406119D01*
D02*
G37*
G36*
X544811Y389417D02*
X542539D01*
Y385865D01*
X544811D01*
Y389417D01*
D02*
G37*
G36*
X541539D02*
X539268D01*
Y385865D01*
X541539D01*
Y389417D01*
D02*
G37*
G36*
X523342Y406119D02*
X515437D01*
Y398214D01*
X518943D01*
Y393968D01*
X517701D01*
Y385865D01*
X523244D01*
Y393968D01*
X522002D01*
Y398214D01*
X523342D01*
Y406119D01*
D02*
G37*
G36*
X512811Y389417D02*
X510539D01*
Y385865D01*
X512811D01*
Y389417D01*
D02*
G37*
G36*
X509539D02*
X507268D01*
Y385865D01*
X509539D01*
Y389417D01*
D02*
G37*
G36*
X492042Y406119D02*
X484137D01*
Y398214D01*
X487643D01*
Y393968D01*
X486400D01*
Y385865D01*
X491944D01*
Y393968D01*
X490701D01*
Y398214D01*
X492042D01*
Y406119D01*
D02*
G37*
G36*
X481511Y389417D02*
X479239D01*
Y385865D01*
X481511D01*
Y389417D01*
D02*
G37*
G36*
X478239D02*
X475967D01*
Y385865D01*
X478239D01*
Y389417D01*
D02*
G37*
G36*
X460742Y406119D02*
X452837D01*
Y398214D01*
X456343D01*
Y393968D01*
X455100D01*
Y385865D01*
X460644D01*
Y393968D01*
X459402D01*
Y398214D01*
X460742D01*
Y406119D01*
D02*
G37*
G36*
X450211Y389417D02*
X447939D01*
Y385865D01*
X450211D01*
Y389417D01*
D02*
G37*
G36*
X429442Y406119D02*
X421537D01*
Y398214D01*
X425043D01*
Y393968D01*
X423801D01*
Y385865D01*
X429344D01*
Y393968D01*
X428101D01*
Y398214D01*
X429442D01*
Y406119D01*
D02*
G37*
G36*
X418911Y389417D02*
X416639D01*
Y385865D01*
X418911D01*
Y389417D01*
D02*
G37*
G36*
X398142Y406119D02*
X390237D01*
Y398214D01*
X393743D01*
Y393968D01*
X392500D01*
Y385865D01*
X398044D01*
Y393968D01*
X396801D01*
Y398214D01*
X398142D01*
Y406119D01*
D02*
G37*
G36*
X387611Y389417D02*
X385339D01*
Y385865D01*
X387611D01*
Y389417D01*
D02*
G37*
G36*
X384339D02*
X382067D01*
Y385865D01*
X384339D01*
Y389417D01*
D02*
G37*
G36*
X366842Y406119D02*
X358937D01*
Y398214D01*
X362443D01*
Y393968D01*
X361200D01*
Y385865D01*
X366744D01*
Y393968D01*
X365501D01*
Y398214D01*
X366842D01*
Y406119D01*
D02*
G37*
G36*
X356311Y389417D02*
X354039D01*
Y385865D01*
X356311D01*
Y389417D01*
D02*
G37*
G36*
X353039D02*
X350767D01*
Y385865D01*
X353039D01*
Y389417D01*
D02*
G37*
G36*
X335343Y406119D02*
X327437D01*
Y398214D01*
X330943D01*
Y393968D01*
X329701D01*
Y385865D01*
X335244D01*
Y393968D01*
X334002D01*
Y398214D01*
X335343D01*
Y406119D01*
D02*
G37*
G36*
X324811Y389417D02*
X322539D01*
Y385865D01*
X324811D01*
Y389417D01*
D02*
G37*
G36*
X321539D02*
X319268D01*
Y385865D01*
X321539D01*
Y389417D01*
D02*
G37*
G36*
X578000Y399030D02*
X577086Y398910D01*
X576235Y398557D01*
X575504Y397996D01*
X574943Y397265D01*
X574590Y396414D01*
X574470Y395500D01*
X574590Y394586D01*
X574943Y393735D01*
X575504Y393004D01*
X576235Y392443D01*
X576471Y392345D01*
Y387382D01*
X575165D01*
Y382232D01*
X580709D01*
Y387382D01*
X579529D01*
Y392345D01*
X579765Y392443D01*
X580496Y393004D01*
X581057Y393735D01*
X581410Y394586D01*
X581530Y395500D01*
X581410Y396414D01*
X581057Y397265D01*
X580496Y397996D01*
X579765Y398557D01*
X578914Y398910D01*
X578000Y399030D01*
D02*
G37*
G36*
X321563Y440952D02*
X313657D01*
Y433047D01*
X315971D01*
Y418500D01*
X316087Y417915D01*
X316419Y417419D01*
X320837Y413000D01*
X316529Y408692D01*
X316197Y408195D01*
X316081Y407610D01*
Y406119D01*
X313657D01*
Y398214D01*
X321563D01*
Y406119D01*
X319140D01*
Y406977D01*
X323634Y411471D01*
X332867D01*
X335913Y408424D01*
Y380529D01*
X296709D01*
Y381575D01*
X291165D01*
Y376425D01*
X296709D01*
Y377471D01*
X305310D01*
X313657Y369123D01*
Y363380D01*
X321563D01*
Y371286D01*
X315820D01*
X310097Y377009D01*
X310289Y377471D01*
X336809D01*
X345157Y369123D01*
Y363380D01*
X353063D01*
Y371286D01*
X347320D01*
X338972Y379633D01*
Y409057D01*
X338856Y409642D01*
X338524Y410139D01*
X334581Y414081D01*
X334085Y414413D01*
X333500Y414529D01*
X323634D01*
X319029Y419134D01*
Y420547D01*
X319268Y420949D01*
X319529Y420949D01*
X321539D01*
Y425000D01*
Y429051D01*
X319529D01*
X319268Y429051D01*
X319029Y429453D01*
Y433047D01*
X321563D01*
Y440952D01*
D02*
G37*
G36*
X290047Y405543D02*
X283126D01*
Y396457D01*
X285057D01*
Y385315D01*
X283291D01*
Y380165D01*
X288835D01*
Y385315D01*
X288116D01*
Y396457D01*
X290047D01*
Y405543D01*
D02*
G37*
G36*
X596043Y380547D02*
X586957D01*
Y378616D01*
X580709D01*
Y379902D01*
X575165D01*
Y374752D01*
X580709D01*
Y375557D01*
X586957D01*
Y373626D01*
X596043D01*
Y380547D01*
D02*
G37*
G36*
X686500Y379120D02*
Y375500D01*
X690120D01*
X690043Y376083D01*
X689625Y377093D01*
X688960Y377959D01*
X688093Y378625D01*
X687083Y379043D01*
X686500Y379120D01*
D02*
G37*
G36*
X685500D02*
X684917Y379043D01*
X683907Y378625D01*
X683041Y377959D01*
X682375Y377093D01*
X681957Y376083D01*
X681880Y375500D01*
X685500D01*
Y379120D01*
D02*
G37*
G36*
X690120Y374500D02*
X686500D01*
Y370880D01*
X687083Y370957D01*
X688093Y371375D01*
X688960Y372041D01*
X689625Y372907D01*
X690043Y373917D01*
X690120Y374500D01*
D02*
G37*
G36*
X685500D02*
X681880D01*
X681957Y373917D01*
X682375Y372907D01*
X683041Y372041D01*
X683907Y371375D01*
X684917Y370957D01*
X685500Y370880D01*
Y374500D01*
D02*
G37*
G36*
X257631Y386280D02*
X256717Y386160D01*
X255866Y385807D01*
X255135Y385246D01*
X254574Y384515D01*
X254221Y383664D01*
X254101Y382750D01*
X254221Y381836D01*
X254574Y380985D01*
X255135Y380254D01*
X255866Y379693D01*
X256717Y379340D01*
X257631Y379220D01*
X258545Y379340D01*
X259396Y379693D01*
X260127Y380254D01*
X260674Y380966D01*
X263030D01*
X325587Y318409D01*
X325470Y317519D01*
X325590Y316605D01*
X325943Y315754D01*
X326504Y315023D01*
X327235Y314462D01*
X328086Y314109D01*
X329000Y313989D01*
X329914Y314109D01*
X330765Y314462D01*
X331496Y315023D01*
X332057Y315754D01*
X332155Y315990D01*
X336457D01*
Y314126D01*
X345543D01*
Y321047D01*
X336457D01*
Y319048D01*
X332155D01*
X332057Y319284D01*
X331496Y320015D01*
X330765Y320576D01*
X329914Y320929D01*
X329000Y321049D01*
X328110Y320932D01*
X285513Y363530D01*
X285746Y364003D01*
X286000Y363970D01*
X286914Y364090D01*
X287765Y364443D01*
X288496Y365004D01*
X289057Y365735D01*
X289410Y366586D01*
X289530Y367500D01*
X289410Y368414D01*
X289057Y369265D01*
X288496Y369996D01*
X287765Y370557D01*
X287529Y370655D01*
Y372685D01*
X288835D01*
Y377835D01*
X283291D01*
Y372685D01*
X284471D01*
Y370655D01*
X284235Y370557D01*
X283504Y369996D01*
X282943Y369265D01*
X282590Y368414D01*
X282470Y367500D01*
X282503Y367246D01*
X282030Y367013D01*
X265031Y384012D01*
X264452Y384399D01*
X263769Y384534D01*
X260674D01*
X260127Y385246D01*
X259396Y385807D01*
X258545Y386160D01*
X257631Y386280D01*
D02*
G37*
G36*
X544811Y358885D02*
X542539D01*
Y355333D01*
X544811D01*
Y358885D01*
D02*
G37*
G36*
X512811D02*
X510539D01*
Y355333D01*
X512811D01*
Y358885D01*
D02*
G37*
G36*
X479239D02*
Y355333D01*
X481511D01*
Y358885D01*
X479239D01*
D02*
G37*
G36*
X447939D02*
Y355333D01*
X450211D01*
Y358885D01*
X447939D01*
D02*
G37*
G36*
X416639D02*
Y355333D01*
X418911D01*
Y358885D01*
X416639D01*
D02*
G37*
G36*
X385339D02*
Y355333D01*
X387611D01*
Y358885D01*
X385339D01*
D02*
G37*
G36*
X356311D02*
X354039D01*
Y355333D01*
X356311D01*
Y358885D01*
D02*
G37*
G36*
X324811D02*
X322539D01*
Y355333D01*
X324811D01*
Y358885D01*
D02*
G37*
G36*
X509539D02*
X507268D01*
Y355333D01*
X509539D01*
Y358885D01*
D02*
G37*
G36*
X353039D02*
X350767D01*
Y355333D01*
X353039D01*
Y358885D01*
D02*
G37*
G36*
X321539D02*
X319268D01*
Y355333D01*
X321539D01*
Y358885D01*
D02*
G37*
G36*
X541539D02*
X539268D01*
Y355333D01*
X541539D01*
Y358885D01*
D02*
G37*
G36*
X555342Y371286D02*
X547437D01*
Y363380D01*
X550943D01*
Y358885D01*
X549701D01*
Y350782D01*
X555244D01*
Y358885D01*
X554002D01*
Y363380D01*
X555342D01*
Y371286D01*
D02*
G37*
G36*
X544811Y354333D02*
X542539D01*
Y350782D01*
X544811D01*
Y354333D01*
D02*
G37*
G36*
X541539D02*
X539268D01*
Y350782D01*
X541539D01*
Y354333D01*
D02*
G37*
G36*
X523343Y371286D02*
X515437D01*
Y363380D01*
X518943D01*
Y358885D01*
X517701D01*
Y350782D01*
X523244D01*
Y358885D01*
X522002D01*
Y363380D01*
X523343D01*
Y371286D01*
D02*
G37*
G36*
X512811Y354333D02*
X510539D01*
Y350782D01*
X512811D01*
Y354333D01*
D02*
G37*
G36*
X509539D02*
X507268D01*
Y350782D01*
X509539D01*
Y354333D01*
D02*
G37*
G36*
X492042Y371286D02*
X484137D01*
Y363380D01*
X487643D01*
Y358885D01*
X486401D01*
Y350782D01*
X491944D01*
Y358885D01*
X490701D01*
Y363380D01*
X492042D01*
Y371286D01*
D02*
G37*
G36*
X481511Y354333D02*
X479239D01*
Y350782D01*
X481511D01*
Y354333D01*
D02*
G37*
G36*
X460742Y371286D02*
X452837D01*
Y363380D01*
X456343D01*
Y358885D01*
X455100D01*
Y350782D01*
X460644D01*
Y358885D01*
X459402D01*
Y363380D01*
X460742D01*
Y371286D01*
D02*
G37*
G36*
X450211Y354333D02*
X447939D01*
Y350782D01*
X450211D01*
Y354333D01*
D02*
G37*
G36*
X429442Y371286D02*
X421537D01*
Y363380D01*
X425043D01*
Y358885D01*
X423801D01*
Y350782D01*
X429344D01*
Y358885D01*
X428101D01*
Y363380D01*
X429442D01*
Y371286D01*
D02*
G37*
G36*
X418911Y354333D02*
X416639D01*
Y350782D01*
X418911D01*
Y354333D01*
D02*
G37*
G36*
X398142Y371286D02*
X390237D01*
Y363380D01*
X393743D01*
Y358885D01*
X392500D01*
Y350782D01*
X398044D01*
Y358885D01*
X396801D01*
Y363380D01*
X398142D01*
Y371286D01*
D02*
G37*
G36*
X387611Y354333D02*
X385339D01*
Y350782D01*
X387611D01*
Y354333D01*
D02*
G37*
G36*
X366842Y371286D02*
X358937D01*
Y363380D01*
X362443D01*
Y358885D01*
X361200D01*
Y350782D01*
X366744D01*
Y358885D01*
X365501D01*
Y363380D01*
X366842D01*
Y371286D01*
D02*
G37*
G36*
X356311Y354333D02*
X354039D01*
Y350782D01*
X356311D01*
Y354333D01*
D02*
G37*
G36*
X353039D02*
X350767D01*
Y350782D01*
X353039D01*
Y354333D01*
D02*
G37*
G36*
X335343Y371286D02*
X327437D01*
Y363380D01*
X330943D01*
Y358885D01*
X329701D01*
Y350782D01*
X335244D01*
Y358885D01*
X334002D01*
Y363380D01*
X335343D01*
Y371286D01*
D02*
G37*
G36*
X324811Y354333D02*
X322539D01*
Y350782D01*
X324811D01*
Y354333D01*
D02*
G37*
G36*
X321539D02*
X319268D01*
Y350782D01*
X321539D01*
Y354333D01*
D02*
G37*
G36*
X624833Y471530D02*
X623920Y471410D01*
X623068Y471057D01*
X622337Y470496D01*
X621776Y469765D01*
X621423Y468914D01*
X621303Y468000D01*
X621423Y467086D01*
X621776Y466235D01*
X622337Y465504D01*
X623049Y464958D01*
Y420903D01*
X593520Y391374D01*
X586957D01*
Y384453D01*
X596043D01*
Y385971D01*
X602867D01*
X643971Y344866D01*
Y344109D01*
X643751Y343962D01*
X643487Y343567D01*
X643394Y343100D01*
Y338569D01*
X643258Y338403D01*
X642742D01*
X642606Y338569D01*
Y343100D01*
X642513Y343567D01*
X642249Y343962D01*
X641854Y344226D01*
X641388Y344319D01*
X640584D01*
X638457Y346445D01*
X638530Y347000D01*
X638410Y347914D01*
X638057Y348765D01*
X637496Y349496D01*
X636765Y350057D01*
X635914Y350410D01*
X635000Y350530D01*
X634086Y350410D01*
X633235Y350057D01*
X632504Y349496D01*
X631943Y348765D01*
X631590Y347914D01*
X631470Y347000D01*
X631590Y346086D01*
X631943Y345235D01*
X632140Y344978D01*
X631919Y344529D01*
X620655D01*
X620557Y344765D01*
X619996Y345496D01*
X619265Y346057D01*
X618414Y346410D01*
X617500Y346530D01*
X616586Y346410D01*
X615735Y346057D01*
X615004Y345496D01*
X614443Y344765D01*
X614090Y343914D01*
X613970Y343000D01*
X614090Y342086D01*
X614443Y341235D01*
X615004Y340504D01*
X615735Y339943D01*
X616586Y339590D01*
X617500Y339470D01*
X618414Y339590D01*
X619265Y339943D01*
X619996Y340504D01*
X620557Y341235D01*
X620655Y341471D01*
X632151D01*
X637130Y336491D01*
X636939Y336029D01*
X613133D01*
X600987Y348175D01*
X601030Y348500D01*
X600910Y349414D01*
X600557Y350265D01*
X599996Y350996D01*
X599265Y351557D01*
X598414Y351910D01*
X597500Y352030D01*
X596586Y351910D01*
X595735Y351557D01*
X595004Y350996D01*
X594443Y350265D01*
X594090Y349414D01*
X593970Y348500D01*
X594090Y347586D01*
X594443Y346735D01*
X595004Y346004D01*
X595735Y345443D01*
X596586Y345090D01*
X597500Y344970D01*
X598414Y345090D01*
X599265Y345443D01*
X599338Y345499D01*
X611308Y333529D01*
X611171Y333092D01*
X611123Y333029D01*
X563155D01*
X563057Y333265D01*
X562496Y333996D01*
X561765Y334557D01*
X560914Y334910D01*
X560000Y335030D01*
X559086Y334910D01*
X558235Y334557D01*
X557504Y333996D01*
X556943Y333265D01*
X556845Y333029D01*
X531630D01*
X529043Y335616D01*
Y340374D01*
X519957D01*
Y333453D01*
X526880D01*
X529915Y330419D01*
X530411Y330087D01*
X530996Y329971D01*
X556845D01*
X556943Y329735D01*
X557504Y329004D01*
X558235Y328443D01*
X559086Y328090D01*
X560000Y327970D01*
X560914Y328090D01*
X561765Y328443D01*
X562496Y329004D01*
X563057Y329735D01*
X563155Y329971D01*
X631210D01*
X631257Y329908D01*
X631394Y329471D01*
X620866Y318943D01*
X608361D01*
X608183Y319062D01*
X607500Y319198D01*
X606817Y319062D01*
X606639Y318943D01*
X596043D01*
Y320874D01*
X586957D01*
Y313953D01*
X596043D01*
Y315884D01*
X605716D01*
Y239000D01*
X605852Y238317D01*
X606238Y237738D01*
X636716Y207261D01*
Y191187D01*
X636402Y191057D01*
X635670Y190496D01*
X635109Y189765D01*
X634757Y188914D01*
X634636Y188000D01*
X634757Y187086D01*
X635109Y186235D01*
X635670Y185504D01*
X636402Y184943D01*
X637253Y184590D01*
X638167Y184470D01*
X639080Y184590D01*
X639932Y184943D01*
X640663Y185504D01*
X641224Y186235D01*
X641577Y187086D01*
X641697Y188000D01*
X641577Y188914D01*
X641224Y189765D01*
X640663Y190496D01*
X640284Y190787D01*
Y208000D01*
X640148Y208683D01*
X639762Y209262D01*
X609284Y239739D01*
Y315884D01*
X621500D01*
X622085Y316000D01*
X622581Y316332D01*
X633220Y326971D01*
X659543D01*
X660129Y327087D01*
X660625Y327419D01*
X670557Y337351D01*
X671388D01*
X671854Y337443D01*
X672249Y337707D01*
X672513Y338103D01*
X672606Y338569D01*
Y343100D01*
X672513Y343567D01*
X672249Y343962D01*
X671854Y344226D01*
X671388Y344319D01*
X669612D01*
X669146Y344226D01*
X668751Y343962D01*
X668487Y343567D01*
X668394Y343100D01*
Y339515D01*
X668042Y339225D01*
X667606Y339411D01*
Y343100D01*
X667513Y343567D01*
X667249Y343962D01*
X667029Y344109D01*
Y345845D01*
X667265Y345943D01*
X667996Y346504D01*
X668557Y347235D01*
X668910Y348086D01*
X669030Y349000D01*
X668910Y349914D01*
X668557Y350765D01*
X667996Y351496D01*
X667265Y352057D01*
X666414Y352410D01*
X665500Y352530D01*
X664586Y352410D01*
X663735Y352057D01*
X663004Y351496D01*
X662443Y350765D01*
X662090Y349914D01*
X661970Y349000D01*
X662090Y348086D01*
X662443Y347235D01*
X663004Y346504D01*
X663735Y345943D01*
X663971Y345845D01*
Y344109D01*
X663751Y343962D01*
X663487Y343567D01*
X663394Y343100D01*
Y338569D01*
X663487Y338103D01*
X663751Y337707D01*
X664146Y337443D01*
X664612Y337351D01*
X665578D01*
X665769Y336889D01*
X658910Y330029D01*
X653920D01*
X653873Y330092D01*
X653736Y330529D01*
X660557Y337351D01*
X661388D01*
X661854Y337443D01*
X662249Y337707D01*
X662513Y338103D01*
X662606Y338569D01*
Y343100D01*
X662513Y343567D01*
X662249Y343962D01*
X661854Y344226D01*
X661388Y344319D01*
X659612D01*
X659146Y344226D01*
X658751Y343962D01*
X658487Y343567D01*
X658394Y343100D01*
Y339515D01*
X658042Y339225D01*
X657606Y339411D01*
Y343100D01*
X657513Y343567D01*
X657249Y343962D01*
X656854Y344226D01*
X656388Y344319D01*
X654612D01*
X654146Y344226D01*
X653751Y343962D01*
X653487Y343567D01*
X653394Y343100D01*
Y339515D01*
X653042Y339225D01*
X652606Y339411D01*
Y343100D01*
X652513Y343567D01*
X652249Y343962D01*
X651854Y344226D01*
X651388Y344319D01*
X649612D01*
X649146Y344226D01*
X648751Y343962D01*
X648487Y343567D01*
X648394Y343100D01*
Y339515D01*
X648042Y339225D01*
X647606Y339411D01*
Y343100D01*
X647513Y343567D01*
X647249Y343962D01*
X647029Y344109D01*
Y345500D01*
X646913Y346085D01*
X646581Y346581D01*
X604581Y388581D01*
X604085Y388913D01*
X603500Y389029D01*
X596875D01*
X596684Y389491D01*
X626095Y418902D01*
X626095Y418902D01*
X626482Y419481D01*
X626618Y420164D01*
X626618Y420164D01*
Y464958D01*
X627330Y465504D01*
X627891Y466235D01*
X628243Y467086D01*
X628364Y468000D01*
X628243Y468914D01*
X627891Y469765D01*
X627330Y470496D01*
X626598Y471057D01*
X625747Y471410D01*
X624833Y471530D01*
D02*
G37*
G36*
X675500Y352530D02*
X674586Y352410D01*
X673735Y352057D01*
X673004Y351496D01*
X672443Y350765D01*
X672090Y349914D01*
X671970Y349000D01*
X672090Y348086D01*
X672443Y347235D01*
X673004Y346504D01*
X673735Y345943D01*
X673971Y345845D01*
Y344109D01*
X673751Y343962D01*
X673487Y343567D01*
X673394Y343100D01*
Y338569D01*
X673487Y338103D01*
X673751Y337707D01*
X674146Y337443D01*
X674612Y337351D01*
X676388D01*
X676854Y337443D01*
X677249Y337707D01*
X677513Y338103D01*
X677606Y338569D01*
Y343100D01*
X677513Y343567D01*
X677249Y343962D01*
X677029Y344109D01*
Y345845D01*
X677265Y345943D01*
X677996Y346504D01*
X678557Y347235D01*
X678910Y348086D01*
X679030Y349000D01*
X678910Y349914D01*
X678557Y350765D01*
X677996Y351496D01*
X677265Y352057D01*
X676414Y352410D01*
X675500Y352530D01*
D02*
G37*
G36*
X496500Y342030D02*
X495586Y341910D01*
X494735Y341557D01*
X494004Y340996D01*
X493443Y340265D01*
X493090Y339414D01*
X492970Y338500D01*
X493090Y337586D01*
X493443Y336735D01*
X494004Y336004D01*
X494735Y335443D01*
X495586Y335090D01*
X496500Y334970D01*
X497414Y335090D01*
X498265Y335443D01*
X498996Y336004D01*
X499557Y336735D01*
X499655Y336971D01*
X504670D01*
X508165Y333475D01*
Y330165D01*
X513709D01*
Y335315D01*
X510651D01*
X506385Y339581D01*
X505888Y339913D01*
X505303Y340029D01*
X499655D01*
X499557Y340265D01*
X498996Y340996D01*
X498265Y341557D01*
X497414Y341910D01*
X496500Y342030D01*
D02*
G37*
G36*
X529043Y329547D02*
X519957D01*
Y327616D01*
X513709D01*
Y327835D01*
X508165D01*
Y322685D01*
X513709D01*
Y324557D01*
X519957D01*
Y322626D01*
X529043D01*
Y329547D01*
D02*
G37*
G36*
X384363Y371286D02*
X376457D01*
Y363380D01*
X378881D01*
Y336452D01*
X376457D01*
Y330710D01*
X372277Y326529D01*
X364153D01*
Y327575D01*
X358610D01*
Y322425D01*
X364153D01*
Y323471D01*
X371381D01*
Y305166D01*
X371497Y304581D01*
X371829Y304085D01*
X376457Y299456D01*
Y293714D01*
X384363D01*
Y301619D01*
X378620D01*
X374440Y305800D01*
Y324366D01*
X378620Y328547D01*
X384363D01*
Y336452D01*
X381939D01*
Y350335D01*
X382067Y350782D01*
X382439Y350782D01*
X384339D01*
Y354833D01*
Y358885D01*
X382067Y358885D01*
X381939Y359331D01*
Y363380D01*
X384363D01*
Y371286D01*
D02*
G37*
G36*
X345543Y331874D02*
X336457D01*
Y324953D01*
X345543D01*
Y326884D01*
X350736D01*
Y326165D01*
X356279D01*
Y331315D01*
X350736D01*
Y329943D01*
X345543D01*
Y331874D01*
D02*
G37*
G36*
X676388Y323649D02*
X676000D01*
Y320665D01*
X677606D01*
Y322431D01*
X677513Y322897D01*
X677249Y323293D01*
X676854Y323557D01*
X676388Y323649D01*
D02*
G37*
G36*
X675000D02*
X674612D01*
X674146Y323557D01*
X673751Y323293D01*
X673487Y322897D01*
X673394Y322431D01*
Y320665D01*
X675000D01*
Y323649D01*
D02*
G37*
G36*
X479239Y323801D02*
Y320250D01*
X481511D01*
Y323801D01*
X479239D01*
D02*
G37*
G36*
X447939D02*
Y320250D01*
X450211D01*
Y323801D01*
X447939D01*
D02*
G37*
G36*
X416639D02*
Y320250D01*
X418911D01*
Y323801D01*
X416639D01*
D02*
G37*
G36*
X387611D02*
X385339D01*
Y320250D01*
X387611D01*
Y323801D01*
D02*
G37*
G36*
X384339D02*
X382067D01*
Y320250D01*
X384339D01*
Y323801D01*
D02*
G37*
G36*
X677606Y319665D02*
X676000D01*
Y316681D01*
X676388D01*
X676854Y316774D01*
X677249Y317038D01*
X677513Y317433D01*
X677606Y317900D01*
Y319665D01*
D02*
G37*
G36*
X675000D02*
X673394D01*
Y317900D01*
X673487Y317433D01*
X673751Y317038D01*
X674146Y316774D01*
X674612Y316681D01*
X675000D01*
Y319665D01*
D02*
G37*
G36*
X656388Y323649D02*
X654612D01*
X654146Y323557D01*
X653751Y323293D01*
X653487Y322897D01*
X653394Y322431D01*
Y317900D01*
X653487Y317433D01*
X653751Y317038D01*
X654146Y316774D01*
X654612Y316681D01*
X656388D01*
X656854Y316774D01*
X657249Y317038D01*
X657513Y317433D01*
X657606Y317900D01*
Y322431D01*
X657513Y322897D01*
X657249Y323293D01*
X656854Y323557D01*
X656388Y323649D01*
D02*
G37*
G36*
X492042Y336452D02*
X484137D01*
Y328547D01*
X487643D01*
Y323801D01*
X486401D01*
Y315699D01*
X491944D01*
Y323801D01*
X490701D01*
Y328547D01*
X492042D01*
Y336452D01*
D02*
G37*
G36*
X481511Y319250D02*
X479239D01*
Y315699D01*
X481511D01*
Y319250D01*
D02*
G37*
G36*
X460742Y336452D02*
X452837D01*
Y328547D01*
X456343D01*
Y323801D01*
X455100D01*
Y315699D01*
X460644D01*
Y323801D01*
X459402D01*
Y328547D01*
X460742D01*
Y336452D01*
D02*
G37*
G36*
X450211Y319250D02*
X447939D01*
Y315699D01*
X450211D01*
Y319250D01*
D02*
G37*
G36*
X429442Y336452D02*
X421537D01*
Y328547D01*
X425043D01*
Y323801D01*
X423801D01*
Y315699D01*
X429344D01*
Y323801D01*
X428101D01*
Y328547D01*
X429442D01*
Y336452D01*
D02*
G37*
G36*
X418911Y319250D02*
X416639D01*
Y315699D01*
X418911D01*
Y319250D01*
D02*
G37*
G36*
X398142Y336452D02*
X390237D01*
Y328547D01*
X393743D01*
Y323801D01*
X392500D01*
Y315699D01*
X398044D01*
Y323801D01*
X396801D01*
Y328547D01*
X398142D01*
Y336452D01*
D02*
G37*
G36*
X387611Y319250D02*
X385339D01*
Y315699D01*
X387611D01*
Y319250D01*
D02*
G37*
G36*
X384339D02*
X382067D01*
Y315699D01*
X384339D01*
Y319250D01*
D02*
G37*
G36*
X257631Y367905D02*
X256717Y367785D01*
X255866Y367432D01*
X255135Y366871D01*
X254574Y366140D01*
X254221Y365289D01*
X254101Y364375D01*
X254221Y363461D01*
X254574Y362610D01*
X255135Y361879D01*
X255866Y361318D01*
X256717Y360965D01*
X257631Y360845D01*
X258545Y360965D01*
X259396Y361318D01*
X260127Y361879D01*
X260674Y362591D01*
X271017D01*
X295629Y337979D01*
Y334043D01*
X293953D01*
Y324957D01*
X299471D01*
Y321155D01*
X299235Y321057D01*
X298504Y320496D01*
X297943Y319765D01*
X297590Y318914D01*
X297470Y318000D01*
X297590Y317086D01*
X297943Y316235D01*
X298504Y315504D01*
X299235Y314943D01*
X300086Y314590D01*
X301000Y314470D01*
X301914Y314590D01*
X302765Y314943D01*
X303496Y315504D01*
X304057Y316235D01*
X304410Y317086D01*
X304530Y318000D01*
X304410Y318914D01*
X304057Y319765D01*
X303496Y320496D01*
X302765Y321057D01*
X302529Y321155D01*
Y325913D01*
X302413Y326499D01*
X302081Y326995D01*
X300874Y328202D01*
Y334043D01*
X299198D01*
Y338718D01*
X299062Y339401D01*
X298675Y339979D01*
X273018Y365637D01*
X272439Y366023D01*
X271756Y366159D01*
X260674D01*
X260127Y366871D01*
X259396Y367432D01*
X258545Y367785D01*
X257631Y367905D01*
D02*
G37*
G36*
X651388Y323649D02*
X649612D01*
X649146Y323557D01*
X648751Y323293D01*
X648487Y322897D01*
X648394Y322431D01*
Y317900D01*
X648487Y317433D01*
X648751Y317038D01*
X648971Y316891D01*
Y314155D01*
X648735Y314057D01*
X648004Y313496D01*
X647529Y312878D01*
X647029Y313007D01*
Y316891D01*
X647249Y317038D01*
X647513Y317433D01*
X647606Y317900D01*
Y322431D01*
X647513Y322897D01*
X647249Y323293D01*
X646854Y323557D01*
X646388Y323649D01*
X644612D01*
X644146Y323557D01*
X643751Y323293D01*
X643487Y322897D01*
X643394Y322431D01*
Y317900D01*
X643487Y317433D01*
X643751Y317038D01*
X643971Y316891D01*
Y313007D01*
X643471Y312878D01*
X642996Y313496D01*
X642265Y314057D01*
X642029Y314155D01*
Y316891D01*
X642249Y317038D01*
X642513Y317433D01*
X642606Y317900D01*
Y322431D01*
X642513Y322897D01*
X642249Y323293D01*
X641854Y323557D01*
X641388Y323649D01*
X639612D01*
X639146Y323557D01*
X638751Y323293D01*
X638487Y322897D01*
X638394Y322431D01*
Y317900D01*
X638487Y317433D01*
X638751Y317038D01*
X638971Y316891D01*
Y314155D01*
X638735Y314057D01*
X638004Y313496D01*
X637443Y312765D01*
X637090Y311914D01*
X636970Y311000D01*
X637090Y310086D01*
X637443Y309235D01*
X638004Y308504D01*
X638735Y307943D01*
X639586Y307590D01*
X640500Y307470D01*
X641414Y307590D01*
X642265Y307943D01*
X642996Y308504D01*
X643471Y309122D01*
X643971Y308993D01*
Y305655D01*
X643735Y305557D01*
X643004Y304996D01*
X642443Y304265D01*
X642090Y303414D01*
X641970Y302500D01*
X642090Y301586D01*
X642443Y300735D01*
X643004Y300004D01*
X643735Y299443D01*
X644586Y299090D01*
X645500Y298970D01*
X646414Y299090D01*
X647265Y299443D01*
X647996Y300004D01*
X648557Y300735D01*
X648910Y301586D01*
X649030Y302500D01*
X648910Y303414D01*
X648557Y304265D01*
X647996Y304996D01*
X647265Y305557D01*
X647029Y305655D01*
Y308993D01*
X647529Y309122D01*
X648004Y308504D01*
X648735Y307943D01*
X649586Y307590D01*
X650500Y307470D01*
X651414Y307590D01*
X652265Y307943D01*
X652996Y308504D01*
X653557Y309235D01*
X653910Y310086D01*
X654030Y311000D01*
X653910Y311914D01*
X653557Y312765D01*
X652996Y313496D01*
X652265Y314057D01*
X652029Y314155D01*
Y316891D01*
X652249Y317038D01*
X652513Y317433D01*
X652606Y317900D01*
Y322431D01*
X652513Y322897D01*
X652249Y323293D01*
X651854Y323557D01*
X651388Y323649D01*
D02*
G37*
G36*
X671388D02*
X669612D01*
X669146Y323557D01*
X668751Y323293D01*
X668487Y322897D01*
X668394Y322431D01*
Y317900D01*
X668487Y317433D01*
X668751Y317038D01*
X668931Y316918D01*
Y314324D01*
X668504Y313996D01*
X667943Y313265D01*
X667590Y312414D01*
X667115Y312514D01*
Y316948D01*
X667249Y317038D01*
X667513Y317433D01*
X667606Y317900D01*
Y322431D01*
X667513Y322897D01*
X667249Y323293D01*
X666854Y323557D01*
X666388Y323649D01*
X664612D01*
X664146Y323557D01*
X663751Y323293D01*
X663487Y322897D01*
X663394Y322431D01*
Y317900D01*
X663487Y317433D01*
X663751Y317038D01*
X664056Y316834D01*
Y312868D01*
X663557Y312765D01*
X662996Y313496D01*
X662265Y314057D01*
X661989Y314172D01*
Y316864D01*
X662249Y317038D01*
X662513Y317433D01*
X662606Y317900D01*
Y322431D01*
X662513Y322897D01*
X662249Y323293D01*
X661854Y323557D01*
X661388Y323649D01*
X659612D01*
X659146Y323557D01*
X658751Y323293D01*
X658487Y322897D01*
X658394Y322431D01*
Y317900D01*
X658487Y317433D01*
X658751Y317038D01*
X658931Y316918D01*
Y314138D01*
X658735Y314057D01*
X658004Y313496D01*
X657443Y312765D01*
X657090Y311914D01*
X656970Y311000D01*
X657090Y310086D01*
X657443Y309235D01*
X658004Y308504D01*
X658735Y307943D01*
X659586Y307590D01*
X660500Y307470D01*
X661414Y307590D01*
X662265Y307943D01*
X662996Y308504D01*
X663557Y309235D01*
X664056Y309132D01*
Y303277D01*
X651308Y290529D01*
X633000D01*
X632415Y290413D01*
X631919Y290081D01*
X623919Y282081D01*
X623587Y281585D01*
X623471Y281000D01*
Y233500D01*
X623587Y232915D01*
X623919Y232419D01*
X652471Y203867D01*
Y190854D01*
X652004Y190496D01*
X651443Y189765D01*
X651090Y188914D01*
X650970Y188000D01*
X651090Y187086D01*
X651443Y186235D01*
X652004Y185504D01*
X652735Y184943D01*
X653586Y184590D01*
X654500Y184470D01*
X655414Y184590D01*
X656265Y184943D01*
X656996Y185504D01*
X657557Y186235D01*
X657910Y187086D01*
X658030Y188000D01*
X657910Y188914D01*
X657557Y189765D01*
X656996Y190496D01*
X656265Y191057D01*
X655529Y191362D01*
Y204500D01*
X655413Y205085D01*
X655081Y205581D01*
X626529Y234134D01*
Y280366D01*
X633634Y287471D01*
X651942D01*
X652527Y287587D01*
X653023Y287919D01*
X663594Y298489D01*
X664056Y298298D01*
Y289260D01*
X663724Y289037D01*
X663460Y288643D01*
X663425Y288469D01*
X662916D01*
X662881Y288643D01*
X662617Y289037D01*
X662223Y289301D01*
X661758Y289393D01*
X661171D01*
Y285122D01*
Y280851D01*
X661758D01*
X662223Y280943D01*
X662617Y281207D01*
X662881Y281601D01*
X662916Y281775D01*
X663425D01*
X663460Y281601D01*
X663724Y281207D01*
X664118Y280943D01*
X664583Y280851D01*
X666758D01*
X667223Y280943D01*
X667618Y281207D01*
X667881Y281601D01*
X667916Y281775D01*
X668426D01*
X668460Y281601D01*
X668724Y281207D01*
X669118Y280943D01*
X669141Y280939D01*
Y270480D01*
X665811Y267149D01*
X664583D01*
X664118Y267057D01*
X663724Y266793D01*
X663460Y266399D01*
X663425Y266225D01*
X662916D01*
X662881Y266399D01*
X662617Y266793D01*
X662223Y267057D01*
X661758Y267149D01*
X659583D01*
X659118Y267057D01*
X658724Y266793D01*
X658460Y266399D01*
X658368Y265934D01*
Y264407D01*
X648382D01*
Y267347D01*
X642642D01*
Y258653D01*
X648382D01*
Y261349D01*
X658368D01*
Y259822D01*
X658460Y259357D01*
X658724Y258962D01*
X659118Y258699D01*
X659583Y258607D01*
X661758D01*
X662223Y258699D01*
X662617Y258962D01*
X662881Y259357D01*
X662916Y259531D01*
X663425D01*
X663460Y259357D01*
X663724Y258962D01*
X664118Y258699D01*
X664141Y258695D01*
Y255822D01*
X660394Y252075D01*
X657178D01*
Y243925D01*
X662557D01*
Y249912D01*
X666752Y254107D01*
X667084Y254603D01*
X667200Y255189D01*
Y258695D01*
X667223Y258699D01*
X667618Y258962D01*
X667881Y259357D01*
X667916Y259531D01*
X668426D01*
X668460Y259357D01*
X668724Y258962D01*
X669118Y258699D01*
X669141Y258695D01*
Y252075D01*
X667627D01*
Y243925D01*
X668971D01*
Y234347D01*
X667630D01*
Y225654D01*
X673370D01*
Y234347D01*
X672029D01*
Y243925D01*
X673006D01*
Y252075D01*
X672200D01*
Y258695D01*
X672223Y258699D01*
X672617Y258962D01*
X672881Y259357D01*
X672916Y259531D01*
X673425D01*
X673460Y259357D01*
X673724Y258962D01*
X674118Y258699D01*
X674583Y258607D01*
X675171D01*
Y262878D01*
Y267149D01*
X674583D01*
X674118Y267057D01*
X673724Y266793D01*
X673460Y266399D01*
X673425Y266225D01*
X672916D01*
X672881Y266399D01*
X672617Y266793D01*
X672223Y267057D01*
X671758Y267149D01*
X670790D01*
X670598Y267611D01*
X671752Y268765D01*
X672084Y269261D01*
X672200Y269847D01*
Y280939D01*
X672223Y280943D01*
X672617Y281207D01*
X672881Y281601D01*
X672916Y281775D01*
X673425D01*
X673460Y281601D01*
X673724Y281207D01*
X674118Y280943D01*
X674583Y280851D01*
X676758D01*
X677223Y280943D01*
X677618Y281207D01*
X677881Y281601D01*
X677974Y282066D01*
Y288178D01*
X677881Y288643D01*
X677618Y289037D01*
X677223Y289301D01*
X677200Y289305D01*
Y297830D01*
X679433D01*
Y305170D01*
X677887D01*
Y306143D01*
X677770Y306728D01*
X677439Y307224D01*
X674312Y310351D01*
X674410Y310586D01*
X674530Y311500D01*
X674410Y312414D01*
X674057Y313265D01*
X673496Y313996D01*
X672765Y314557D01*
X671989Y314879D01*
Y316864D01*
X672249Y317038D01*
X672513Y317433D01*
X672606Y317900D01*
Y322431D01*
X672513Y322897D01*
X672249Y323293D01*
X671854Y323557D01*
X671388Y323649D01*
D02*
G37*
G36*
X578000Y326530D02*
X577086Y326410D01*
X576235Y326057D01*
X575504Y325496D01*
X574943Y324765D01*
X574590Y323914D01*
X574470Y323000D01*
X574590Y322086D01*
X574943Y321235D01*
X575504Y320504D01*
X576235Y319943D01*
X576471Y319845D01*
Y316315D01*
X575165D01*
Y311165D01*
X580709D01*
Y316315D01*
X579529D01*
Y319845D01*
X579765Y319943D01*
X580496Y320504D01*
X581057Y321235D01*
X581410Y322086D01*
X581530Y323000D01*
X581410Y323914D01*
X581057Y324765D01*
X580496Y325496D01*
X579765Y326057D01*
X578914Y326410D01*
X578000Y326530D01*
D02*
G37*
G36*
X290047Y334043D02*
X283126D01*
Y324957D01*
X285057D01*
Y314248D01*
X283291D01*
Y309098D01*
X288835D01*
Y314248D01*
X288116D01*
Y324957D01*
X290047D01*
Y334043D01*
D02*
G37*
G36*
X356279Y323835D02*
X350736D01*
Y318685D01*
X351471D01*
Y315655D01*
X351235Y315557D01*
X350504Y314996D01*
X349943Y314265D01*
X349590Y313414D01*
X349470Y312500D01*
X349590Y311586D01*
X349943Y310735D01*
X350504Y310004D01*
X351235Y309443D01*
X352086Y309090D01*
X353000Y308970D01*
X353914Y309090D01*
X354765Y309443D01*
X355496Y310004D01*
X356057Y310735D01*
X356410Y311586D01*
X356530Y312500D01*
X356410Y313414D01*
X356057Y314265D01*
X355496Y314996D01*
X354765Y315557D01*
X354529Y315655D01*
Y318685D01*
X356279D01*
Y323835D01*
D02*
G37*
G36*
X596043Y310047D02*
X586957D01*
Y308116D01*
X580709D01*
Y308835D01*
X575165D01*
Y303685D01*
X580709D01*
Y305057D01*
X586957D01*
Y303126D01*
X596043D01*
Y310047D01*
D02*
G37*
G36*
X572835Y312575D02*
X567291D01*
Y311529D01*
X517944D01*
X517358Y311413D01*
X516862Y311081D01*
X507400Y301619D01*
X501657D01*
Y293714D01*
X509563D01*
Y299456D01*
X518577Y308471D01*
X531654D01*
X531846Y308009D01*
X526919Y303081D01*
X526587Y302585D01*
X526471Y302000D01*
Y278000D01*
Y240500D01*
X526587Y239915D01*
X526919Y239419D01*
X533628Y232709D01*
Y230452D01*
X533658Y230305D01*
Y224047D01*
X541563D01*
Y231952D01*
X536687D01*
Y233343D01*
X536570Y233928D01*
X536239Y234424D01*
X529529Y241133D01*
Y273654D01*
X529991Y273846D01*
X536081Y267756D01*
Y266786D01*
X533658D01*
Y258880D01*
X541563D01*
Y266786D01*
X539140D01*
Y268390D01*
X539023Y268975D01*
X538692Y269471D01*
X529529Y278633D01*
Y301366D01*
X536633Y308471D01*
X545598D01*
X545790Y308009D01*
X539400Y301619D01*
X533658D01*
Y293714D01*
X541563D01*
Y299456D01*
X550577Y308471D01*
X567291D01*
Y307425D01*
X572835D01*
Y312575D01*
D02*
G37*
G36*
X478263Y371286D02*
X470357D01*
Y363380D01*
X472781D01*
Y336452D01*
X470357D01*
Y328547D01*
X472781D01*
Y311190D01*
X472897Y310605D01*
X473229Y310109D01*
X476837Y306500D01*
X473229Y302891D01*
X472897Y302395D01*
X472781Y301810D01*
Y301619D01*
X470357D01*
Y293714D01*
X478263D01*
Y301619D01*
X476935D01*
X476744Y302081D01*
X480081Y305419D01*
X480082Y305419D01*
X481634Y306971D01*
X493000D01*
X493585Y307087D01*
X494081Y307419D01*
X504144Y317482D01*
X504476Y317978D01*
X504592Y318563D01*
Y326425D01*
X505835D01*
Y331575D01*
X500291D01*
Y326425D01*
X501534D01*
Y319197D01*
X492367Y310029D01*
X481000D01*
X480415Y309913D01*
X479919Y309581D01*
X479000Y308663D01*
X475839Y311824D01*
Y315252D01*
X475967Y315699D01*
X476339Y315699D01*
X478239D01*
Y319750D01*
Y323801D01*
X475967Y323801D01*
X475839Y324248D01*
Y328547D01*
X478263D01*
Y336452D01*
X475839D01*
Y350335D01*
X475967Y350782D01*
X476339Y350782D01*
X478239D01*
Y354833D01*
Y358885D01*
X475967Y358885D01*
X475839Y359331D01*
Y363380D01*
X478263D01*
Y371286D01*
D02*
G37*
G36*
X296709Y310508D02*
X291165D01*
Y305358D01*
X296709D01*
Y306404D01*
X305814D01*
Y273100D01*
Y238266D01*
X305931Y237681D01*
X306262Y237185D01*
X313657Y229790D01*
Y224047D01*
X321563D01*
Y231952D01*
X315820D01*
X308873Y238900D01*
Y268754D01*
X309335Y268946D01*
X313657Y264623D01*
Y258880D01*
X321563D01*
Y266786D01*
X315820D01*
X308873Y273733D01*
Y303588D01*
X309335Y303779D01*
X313657Y299456D01*
Y293714D01*
X321563D01*
Y301619D01*
X315820D01*
X311498Y305942D01*
X311689Y306404D01*
X338210D01*
X345157Y299456D01*
Y293714D01*
X353063D01*
Y301619D01*
X347320D01*
X339925Y309015D01*
X339428Y309346D01*
X338843Y309462D01*
X296709D01*
Y310508D01*
D02*
G37*
G36*
X288835Y306768D02*
X283291D01*
Y301618D01*
X284471D01*
Y299155D01*
X284235Y299057D01*
X283504Y298496D01*
X282943Y297765D01*
X282590Y296914D01*
X282470Y296000D01*
X282590Y295086D01*
X282943Y294235D01*
X283504Y293504D01*
X284235Y292943D01*
X285086Y292590D01*
X286000Y292470D01*
X286914Y292590D01*
X287765Y292943D01*
X288496Y293504D01*
X289057Y294235D01*
X289410Y295086D01*
X289530Y296000D01*
X289410Y296914D01*
X289057Y297765D01*
X288496Y298496D01*
X287765Y299057D01*
X287529Y299155D01*
Y301618D01*
X288835D01*
Y306768D01*
D02*
G37*
G36*
X660171Y289393D02*
X659583D01*
X659118Y289301D01*
X658724Y289037D01*
X658460Y288643D01*
X658368Y288178D01*
Y285622D01*
X660171D01*
Y289393D01*
D02*
G37*
G36*
X544811Y288718D02*
X542539D01*
Y285167D01*
X544811D01*
Y288718D01*
D02*
G37*
G36*
X512811D02*
X510539D01*
Y285167D01*
X512811D01*
Y288718D01*
D02*
G37*
G36*
X481511D02*
X479239D01*
Y285167D01*
X481511D01*
Y288718D01*
D02*
G37*
G36*
X447939D02*
Y285167D01*
X450211D01*
Y288718D01*
X447939D01*
D02*
G37*
G36*
X416639D02*
Y285167D01*
X418911D01*
Y288718D01*
X416639D01*
D02*
G37*
G36*
X387611D02*
X385339D01*
Y285167D01*
X387611D01*
Y288718D01*
D02*
G37*
G36*
X356311D02*
X354039D01*
Y285167D01*
X356311D01*
Y288718D01*
D02*
G37*
G36*
X324811D02*
X322539D01*
Y285167D01*
X324811D01*
Y288718D01*
D02*
G37*
G36*
X541539D02*
X539268D01*
Y285167D01*
X541539D01*
Y288718D01*
D02*
G37*
G36*
X509539D02*
X507267D01*
Y285167D01*
X509539D01*
Y288718D01*
D02*
G37*
G36*
X384339D02*
X382067D01*
Y285167D01*
X384339D01*
Y288718D01*
D02*
G37*
G36*
X353039D02*
X350767D01*
Y285167D01*
X353039D01*
Y288718D01*
D02*
G37*
G36*
X478239D02*
X475967D01*
Y285167D01*
X478239D01*
Y288718D01*
D02*
G37*
G36*
X321539D02*
X319268D01*
Y285167D01*
X321539D01*
Y288718D01*
D02*
G37*
G36*
X660171Y284622D02*
X658368D01*
Y282066D01*
X658460Y281601D01*
X658724Y281207D01*
X659118Y280943D01*
X659583Y280851D01*
X660171D01*
Y284622D01*
D02*
G37*
G36*
X555342Y301619D02*
X547437D01*
Y293714D01*
X550943D01*
Y288718D01*
X549701D01*
Y280615D01*
X555244D01*
Y288718D01*
X554002D01*
Y293714D01*
X555342D01*
Y301619D01*
D02*
G37*
G36*
X544811Y284167D02*
X542539D01*
Y280615D01*
X544811D01*
Y284167D01*
D02*
G37*
G36*
X541539D02*
X539268D01*
Y280615D01*
X541539D01*
Y284167D01*
D02*
G37*
G36*
X523342Y301619D02*
X515437D01*
Y293714D01*
X518943D01*
Y288718D01*
X517700D01*
Y280615D01*
X523244D01*
Y288718D01*
X522002D01*
Y293714D01*
X523342D01*
Y301619D01*
D02*
G37*
G36*
X512811Y284167D02*
X510539D01*
Y280615D01*
X512811D01*
Y284167D01*
D02*
G37*
G36*
X509539D02*
X507267D01*
Y280615D01*
X509539D01*
Y284167D01*
D02*
G37*
G36*
X492042Y301619D02*
X484137D01*
Y293714D01*
X487643D01*
Y288718D01*
X486401D01*
Y280615D01*
X491944D01*
Y288718D01*
X490701D01*
Y293714D01*
X492042D01*
Y301619D01*
D02*
G37*
G36*
X481511Y284167D02*
X479239D01*
Y280615D01*
X481511D01*
Y284167D01*
D02*
G37*
G36*
X478239D02*
X475967D01*
Y280615D01*
X478239D01*
Y284167D01*
D02*
G37*
G36*
X460742Y301619D02*
X452837D01*
Y293714D01*
X456343D01*
Y288718D01*
X455100D01*
Y280615D01*
X460644D01*
Y288718D01*
X459402D01*
Y293714D01*
X460742D01*
Y301619D01*
D02*
G37*
G36*
X450211Y284167D02*
X447939D01*
Y280615D01*
X450211D01*
Y284167D01*
D02*
G37*
G36*
X429442Y301619D02*
X421537D01*
Y293714D01*
X425043D01*
Y288718D01*
X423801D01*
Y280615D01*
X429344D01*
Y288718D01*
X428101D01*
Y293714D01*
X429442D01*
Y301619D01*
D02*
G37*
G36*
X418911Y284167D02*
X416639D01*
Y280615D01*
X418911D01*
Y284167D01*
D02*
G37*
G36*
X398142Y301619D02*
X390237D01*
Y293714D01*
X393743D01*
Y288718D01*
X392500D01*
Y280615D01*
X398044D01*
Y288718D01*
X396801D01*
Y293714D01*
X398142D01*
Y301619D01*
D02*
G37*
G36*
X387611Y284167D02*
X385339D01*
Y280615D01*
X387611D01*
Y284167D01*
D02*
G37*
G36*
X384339D02*
X382067D01*
Y280615D01*
X384339D01*
Y284167D01*
D02*
G37*
G36*
X366842Y301619D02*
X358937D01*
Y293714D01*
X362443D01*
Y288718D01*
X361200D01*
Y280615D01*
X366744D01*
Y288718D01*
X365501D01*
Y293714D01*
X366842D01*
Y301619D01*
D02*
G37*
G36*
X356311Y284167D02*
X354039D01*
Y280615D01*
X356311D01*
Y284167D01*
D02*
G37*
G36*
X353039D02*
X350767D01*
Y280615D01*
X353039D01*
Y284167D01*
D02*
G37*
G36*
X335343Y301619D02*
X327437D01*
Y293714D01*
X330943D01*
Y288718D01*
X329701D01*
Y280615D01*
X335244D01*
Y288718D01*
X334002D01*
Y293714D01*
X335343D01*
Y301619D01*
D02*
G37*
G36*
X324811Y284167D02*
X322539D01*
Y280615D01*
X324811D01*
Y284167D01*
D02*
G37*
G36*
X321539D02*
X319268D01*
Y280615D01*
X321539D01*
Y284167D01*
D02*
G37*
G36*
X676758Y267149D02*
X676171D01*
Y263378D01*
X677974D01*
Y265934D01*
X677881Y266399D01*
X677618Y266793D01*
X677223Y267057D01*
X676758Y267149D01*
D02*
G37*
G36*
X634500Y277530D02*
X633586Y277410D01*
X632735Y277057D01*
X632004Y276496D01*
X631443Y275765D01*
X631090Y274914D01*
X630970Y274000D01*
X631090Y273086D01*
X631443Y272235D01*
X632004Y271504D01*
X632735Y270943D01*
X632971Y270845D01*
Y267347D01*
X631618D01*
Y258653D01*
X637358D01*
Y267347D01*
X636029D01*
Y270845D01*
X636265Y270943D01*
X636996Y271504D01*
X637557Y272235D01*
X637910Y273086D01*
X638030Y274000D01*
X637910Y274914D01*
X637557Y275765D01*
X636996Y276496D01*
X636265Y277057D01*
X635414Y277410D01*
X634500Y277530D01*
D02*
G37*
G36*
X677974Y262378D02*
X676171D01*
Y258607D01*
X676758D01*
X677223Y258699D01*
X677618Y258962D01*
X677881Y259357D01*
X677974Y259822D01*
Y262378D01*
D02*
G37*
G36*
X544811Y253635D02*
X542539D01*
Y250083D01*
X544811D01*
Y253635D01*
D02*
G37*
G36*
X510539D02*
Y250083D01*
X512811D01*
Y253635D01*
X510539D01*
D02*
G37*
G36*
X479239D02*
Y250083D01*
X481511D01*
Y253635D01*
X479239D01*
D02*
G37*
G36*
X447939D02*
Y250083D01*
X450211D01*
Y253635D01*
X447939D01*
D02*
G37*
G36*
X416639D02*
Y250083D01*
X418911D01*
Y253635D01*
X416639D01*
D02*
G37*
G36*
X385339D02*
Y250083D01*
X387611D01*
Y253635D01*
X385339D01*
D02*
G37*
G36*
X354039D02*
Y250083D01*
X356311D01*
Y253635D01*
X354039D01*
D02*
G37*
G36*
X324811D02*
X322539D01*
Y250083D01*
X324811D01*
Y253635D01*
D02*
G37*
G36*
X541539D02*
X539268D01*
Y250083D01*
X541539D01*
Y253635D01*
D02*
G37*
G36*
X321539D02*
X319268D01*
Y250083D01*
X321539D01*
Y253635D01*
D02*
G37*
G36*
X555342Y266786D02*
X547437D01*
Y258880D01*
X550943D01*
Y253635D01*
X549701D01*
Y245532D01*
X555244D01*
Y253635D01*
X554002D01*
Y258880D01*
X555342D01*
Y266786D01*
D02*
G37*
G36*
X544811Y249083D02*
X542539D01*
Y245532D01*
X544811D01*
Y249083D01*
D02*
G37*
G36*
X541539D02*
X539268D01*
Y245532D01*
X541539D01*
Y249083D01*
D02*
G37*
G36*
X523342Y266786D02*
X515437D01*
Y258880D01*
X518943D01*
Y253635D01*
X517700D01*
Y245532D01*
X523244D01*
Y253635D01*
X522002D01*
Y258880D01*
X523342D01*
Y266786D01*
D02*
G37*
G36*
X512811Y249083D02*
X510539D01*
Y245532D01*
X512811D01*
Y249083D01*
D02*
G37*
G36*
X492042Y266786D02*
X484137D01*
Y258880D01*
X486560D01*
Y253635D01*
X486401D01*
Y245532D01*
X491944D01*
Y253635D01*
X489619D01*
Y258880D01*
X492042D01*
Y266786D01*
D02*
G37*
G36*
X481511Y249083D02*
X479239D01*
Y245532D01*
X481511D01*
Y249083D01*
D02*
G37*
G36*
X460742Y266786D02*
X452837D01*
Y258880D01*
X456343D01*
Y253635D01*
X455100D01*
Y245532D01*
X460644D01*
Y253635D01*
X459402D01*
Y258880D01*
X460742D01*
Y266786D01*
D02*
G37*
G36*
X450211Y249083D02*
X447939D01*
Y245532D01*
X450211D01*
Y249083D01*
D02*
G37*
G36*
X429442Y266786D02*
X421537D01*
Y258880D01*
X425043D01*
Y253635D01*
X423801D01*
Y245532D01*
X429344D01*
Y253635D01*
X428101D01*
Y258880D01*
X429442D01*
Y266786D01*
D02*
G37*
G36*
X418911Y249083D02*
X416639D01*
Y245532D01*
X418911D01*
Y249083D01*
D02*
G37*
G36*
X398142Y266786D02*
X390237D01*
Y258880D01*
X393743D01*
Y253635D01*
X392500D01*
Y245532D01*
X398044D01*
Y253635D01*
X396801D01*
Y258880D01*
X398142D01*
Y266786D01*
D02*
G37*
G36*
X387611Y249083D02*
X385339D01*
Y245532D01*
X387611D01*
Y249083D01*
D02*
G37*
G36*
X366842Y266786D02*
X358937D01*
Y258880D01*
X362443D01*
Y253635D01*
X361200D01*
Y245532D01*
X366744D01*
Y253635D01*
X365501D01*
Y258880D01*
X366842D01*
Y266786D01*
D02*
G37*
G36*
X356311Y249083D02*
X354039D01*
Y245532D01*
X356311D01*
Y249083D01*
D02*
G37*
G36*
X335343Y266786D02*
X327437D01*
Y258880D01*
X330943D01*
Y253635D01*
X329701D01*
Y245532D01*
X335244D01*
Y253635D01*
X334002D01*
Y258880D01*
X335343D01*
Y266786D01*
D02*
G37*
G36*
X324811Y249083D02*
X322539D01*
Y245532D01*
X324811D01*
Y249083D01*
D02*
G37*
G36*
X321539D02*
X319268D01*
Y245532D01*
X321539D01*
Y249083D01*
D02*
G37*
G36*
X662543Y234347D02*
X660173D01*
Y230500D01*
X662543D01*
Y234347D01*
D02*
G37*
G36*
X659173D02*
X656803D01*
Y230500D01*
X659173D01*
Y234347D01*
D02*
G37*
G36*
X662543Y229500D02*
X660173D01*
Y225654D01*
X662543D01*
Y229500D01*
D02*
G37*
G36*
X659173D02*
X656803D01*
Y225654D01*
X659173D01*
Y229500D01*
D02*
G37*
G36*
X544811Y218551D02*
X542539D01*
Y215000D01*
X544811D01*
Y218551D01*
D02*
G37*
G36*
X512811D02*
X510539D01*
Y215000D01*
X512811D01*
Y218551D01*
D02*
G37*
G36*
X481511D02*
X479239D01*
Y215000D01*
X481511D01*
Y218551D01*
D02*
G37*
G36*
X450211D02*
X447939D01*
Y215000D01*
X450211D01*
Y218551D01*
D02*
G37*
G36*
X418911D02*
X416639D01*
Y215000D01*
X418911D01*
Y218551D01*
D02*
G37*
G36*
X387611D02*
X385339D01*
Y215000D01*
X387611D01*
Y218551D01*
D02*
G37*
G36*
X356311D02*
X354039D01*
Y215000D01*
X356311D01*
Y218551D01*
D02*
G37*
G36*
X324811D02*
X322539D01*
Y215000D01*
X324811D01*
Y218551D01*
D02*
G37*
G36*
X321539D02*
X319268D01*
Y215000D01*
X321539D01*
Y218551D01*
D02*
G37*
G36*
X541539D02*
X539268D01*
Y215000D01*
X541539D01*
Y218551D01*
D02*
G37*
G36*
X509539D02*
X507267D01*
Y215000D01*
X509539D01*
Y218551D01*
D02*
G37*
G36*
X446939D02*
X444667D01*
Y215000D01*
X446939D01*
Y218551D01*
D02*
G37*
G36*
X415639D02*
X413367D01*
Y215000D01*
X415639D01*
Y218551D01*
D02*
G37*
G36*
X384339D02*
X382067D01*
Y215000D01*
X384339D01*
Y218551D01*
D02*
G37*
G36*
X353039D02*
X350767D01*
Y215000D01*
X353039D01*
Y218551D01*
D02*
G37*
G36*
X478239D02*
X475967D01*
Y215000D01*
X478239D01*
Y218551D01*
D02*
G37*
G36*
X604500Y216030D02*
X603586Y215910D01*
X602735Y215557D01*
X602004Y214996D01*
X601443Y214265D01*
X601345Y214029D01*
X596043D01*
Y215874D01*
X586957D01*
Y208953D01*
X596043D01*
Y210971D01*
X601345D01*
X601443Y210735D01*
X602004Y210004D01*
X602735Y209443D01*
X603216Y209244D01*
Y190659D01*
X603004Y190496D01*
X602443Y189765D01*
X602090Y188914D01*
X601970Y188000D01*
X602090Y187086D01*
X602443Y186235D01*
X603004Y185504D01*
X603735Y184943D01*
X604586Y184590D01*
X605500Y184470D01*
X606414Y184590D01*
X607265Y184943D01*
X607996Y185504D01*
X608557Y186235D01*
X608910Y187086D01*
X609030Y188000D01*
X608910Y188914D01*
X608557Y189765D01*
X607996Y190496D01*
X607265Y191057D01*
X606784Y191256D01*
Y209841D01*
X606996Y210004D01*
X607557Y210735D01*
X607910Y211586D01*
X608030Y212500D01*
X607910Y213414D01*
X607557Y214265D01*
X606996Y214996D01*
X606265Y215557D01*
X605414Y215910D01*
X604500Y216030D01*
D02*
G37*
G36*
X257631Y349530D02*
X256717Y349410D01*
X255866Y349057D01*
X255135Y348496D01*
X254574Y347765D01*
X254221Y346914D01*
X254101Y346000D01*
X254221Y345086D01*
X254574Y344235D01*
X255135Y343504D01*
X255847Y342957D01*
Y272369D01*
X255983Y271686D01*
X256369Y271107D01*
X293419Y234058D01*
Y230711D01*
X293453Y230538D01*
Y224457D01*
X300374D01*
Y224723D01*
X300836Y224915D01*
X302471Y223280D01*
Y220155D01*
X302235Y220057D01*
X301504Y219496D01*
X300943Y218765D01*
X300590Y217914D01*
X300470Y217000D01*
X300590Y216086D01*
X300943Y215235D01*
X301504Y214504D01*
X302235Y213943D01*
X303086Y213590D01*
X304000Y213470D01*
X304914Y213590D01*
X305765Y213943D01*
X306496Y214504D01*
X307057Y215235D01*
X307410Y216086D01*
X307530Y217000D01*
X307410Y217914D01*
X307057Y218765D01*
X306496Y219496D01*
X305765Y220057D01*
X305529Y220155D01*
Y223913D01*
X305413Y224499D01*
X305081Y224995D01*
X300374Y229702D01*
Y233543D01*
X296987D01*
Y234797D01*
X296987Y234797D01*
X296851Y235480D01*
X296464Y236059D01*
X259415Y273108D01*
Y342957D01*
X260127Y343504D01*
X260688Y344235D01*
X261041Y345086D01*
X261161Y346000D01*
X261041Y346914D01*
X260688Y347765D01*
X260127Y348496D01*
X259396Y349057D01*
X258545Y349410D01*
X257631Y349530D01*
D02*
G37*
G36*
X555342Y231952D02*
X547437D01*
Y224047D01*
X550943D01*
Y218551D01*
X549701D01*
Y210449D01*
X555244D01*
Y218551D01*
X554002D01*
Y224047D01*
X555342D01*
Y231952D01*
D02*
G37*
G36*
X544811Y214000D02*
X542539D01*
Y210449D01*
X544811D01*
Y214000D01*
D02*
G37*
G36*
X541539D02*
X539268D01*
Y210449D01*
X541539D01*
Y214000D01*
D02*
G37*
G36*
X523342Y231952D02*
X515437D01*
Y224047D01*
X518943D01*
Y218551D01*
X517700D01*
Y210449D01*
X523244D01*
Y218551D01*
X522002D01*
Y224047D01*
X523342D01*
Y231952D01*
D02*
G37*
G36*
X512811Y214000D02*
X510539D01*
Y210449D01*
X512811D01*
Y214000D01*
D02*
G37*
G36*
X509539D02*
X507267D01*
Y210449D01*
X509539D01*
Y214000D01*
D02*
G37*
G36*
X492042Y231952D02*
X484137D01*
Y224047D01*
X487643D01*
Y218551D01*
X486401D01*
Y210449D01*
X491944D01*
Y218551D01*
X490701D01*
Y224047D01*
X492042D01*
Y231952D01*
D02*
G37*
G36*
X481511Y214000D02*
X479239D01*
Y210449D01*
X481511D01*
Y214000D01*
D02*
G37*
G36*
X478239D02*
X475967D01*
Y210449D01*
X478239D01*
Y214000D01*
D02*
G37*
G36*
X460742Y231952D02*
X452837D01*
Y224047D01*
X456343D01*
Y218551D01*
X455100D01*
Y210449D01*
X460644D01*
Y218551D01*
X459402D01*
Y224047D01*
X460742D01*
Y231952D01*
D02*
G37*
G36*
X450211Y214000D02*
X447939D01*
Y210449D01*
X450211D01*
Y214000D01*
D02*
G37*
G36*
X446939D02*
X444667D01*
Y210449D01*
X446939D01*
Y214000D01*
D02*
G37*
G36*
X429442Y231952D02*
X421537D01*
Y224047D01*
X425043D01*
Y218551D01*
X423801D01*
Y210449D01*
X429344D01*
Y218551D01*
X428101D01*
Y224047D01*
X429442D01*
Y231952D01*
D02*
G37*
G36*
X418911Y214000D02*
X416639D01*
Y210449D01*
X418911D01*
Y214000D01*
D02*
G37*
G36*
X415639D02*
X413367D01*
Y210449D01*
X415639D01*
Y214000D01*
D02*
G37*
G36*
X398142Y231952D02*
X390237D01*
Y224047D01*
X393743D01*
Y218551D01*
X392500D01*
Y210449D01*
X398044D01*
Y218551D01*
X396801D01*
Y224047D01*
X398142D01*
Y231952D01*
D02*
G37*
G36*
X387611Y214000D02*
X385339D01*
Y210449D01*
X387611D01*
Y214000D01*
D02*
G37*
G36*
X384339D02*
X382067D01*
Y210449D01*
X384339D01*
Y214000D01*
D02*
G37*
G36*
X366842Y231952D02*
X358937D01*
Y224047D01*
X362443D01*
Y218551D01*
X361200D01*
Y210449D01*
X366744D01*
Y218551D01*
X365501D01*
Y224047D01*
X366842D01*
Y231952D01*
D02*
G37*
G36*
X356311Y214000D02*
X354039D01*
Y210449D01*
X356311D01*
Y214000D01*
D02*
G37*
G36*
X353039D02*
X350767D01*
Y210449D01*
X353039D01*
Y214000D01*
D02*
G37*
G36*
X335343Y231952D02*
X327437D01*
Y224047D01*
X330943D01*
Y218551D01*
X329701D01*
Y210449D01*
X335244D01*
Y218551D01*
X334002D01*
Y224047D01*
X335343D01*
Y231952D01*
D02*
G37*
G36*
X324811Y214000D02*
X322539D01*
Y210449D01*
X324811D01*
Y214000D01*
D02*
G37*
G36*
X321539D02*
X319268D01*
Y210449D01*
X321539D01*
Y214000D01*
D02*
G37*
G36*
X289547Y233543D02*
X282626D01*
Y224457D01*
X284557D01*
Y213815D01*
X283291D01*
Y208665D01*
X288835D01*
Y213815D01*
X287616D01*
Y224457D01*
X289547D01*
Y233543D01*
D02*
G37*
G36*
X578000Y222030D02*
X577086Y221910D01*
X576235Y221557D01*
X575504Y220996D01*
X574943Y220265D01*
X574590Y219414D01*
X574470Y218500D01*
X574590Y217586D01*
X574943Y216735D01*
X575504Y216004D01*
X576235Y215443D01*
X576471Y215345D01*
Y211815D01*
X575165D01*
Y206665D01*
X580709D01*
Y211815D01*
X579529D01*
Y215345D01*
X579765Y215443D01*
X580496Y216004D01*
X581057Y216735D01*
X581410Y217586D01*
X581530Y218500D01*
X581410Y219414D01*
X581057Y220265D01*
X580496Y220996D01*
X579765Y221557D01*
X578914Y221910D01*
X578000Y222030D01*
D02*
G37*
G36*
X596043Y205047D02*
X586957D01*
Y203116D01*
X580709D01*
Y204335D01*
X575165D01*
Y199185D01*
X580709D01*
Y200057D01*
X586957D01*
Y198126D01*
X596043D01*
Y205047D01*
D02*
G37*
G36*
X572835Y208075D02*
X567291D01*
Y207029D01*
X451010D01*
X450425Y206913D01*
X449929Y206581D01*
X444800Y201453D01*
X439057D01*
Y193547D01*
X446963D01*
Y199290D01*
X451643Y203971D01*
X477964D01*
X478156Y203509D01*
X476100Y201453D01*
X470357D01*
Y193547D01*
X478263D01*
Y199290D01*
X482943Y203971D01*
X509264D01*
X509456Y203509D01*
X507400Y201453D01*
X501657D01*
Y193547D01*
X509563D01*
Y199290D01*
X514243Y203971D01*
X541265D01*
X541456Y203509D01*
X539400Y201453D01*
X533658D01*
Y193547D01*
X541563D01*
Y199290D01*
X546244Y203971D01*
X567291D01*
Y202925D01*
X572835D01*
Y208075D01*
D02*
G37*
G36*
X296709Y210075D02*
X291165D01*
Y204925D01*
X296709D01*
Y205971D01*
X309866D01*
X313628Y202209D01*
Y199953D01*
X313657Y199805D01*
Y193547D01*
X321563D01*
Y201453D01*
X316687D01*
Y202842D01*
X316570Y203428D01*
X316239Y203924D01*
X314654Y205509D01*
X314846Y205971D01*
X338476D01*
X345157Y199290D01*
Y193547D01*
X353063D01*
Y201453D01*
X347320D01*
X343264Y205509D01*
X343456Y205971D01*
X369776D01*
X376457Y199290D01*
Y193547D01*
X384363D01*
Y201453D01*
X378620D01*
X374564Y205509D01*
X374756Y205971D01*
X401076D01*
X407757Y199290D01*
Y193547D01*
X415663D01*
Y201453D01*
X409920D01*
X402791Y208581D01*
X402295Y208913D01*
X401710Y209029D01*
X296709D01*
Y210075D01*
D02*
G37*
G36*
X288835Y206335D02*
X283291D01*
Y201185D01*
X283971D01*
Y198155D01*
X283735Y198057D01*
X283004Y197496D01*
X282443Y196765D01*
X282090Y195914D01*
X281970Y195000D01*
X282090Y194086D01*
X282443Y193235D01*
X283004Y192504D01*
X283735Y191943D01*
X284586Y191590D01*
X285500Y191470D01*
X286414Y191590D01*
X287265Y191943D01*
X287996Y192504D01*
X288557Y193235D01*
X288910Y194086D01*
X289030Y195000D01*
X288910Y195914D01*
X288557Y196765D01*
X287996Y197496D01*
X287265Y198057D01*
X287029Y198155D01*
Y201185D01*
X288835D01*
Y206335D01*
D02*
G37*
G36*
X579500Y282030D02*
X578586Y281910D01*
X577735Y281557D01*
X577004Y280996D01*
X576443Y280265D01*
X576090Y279414D01*
X575970Y278500D01*
X576090Y277586D01*
X576443Y276735D01*
X577004Y276004D01*
X577716Y275458D01*
Y258000D01*
X577851Y257317D01*
X578238Y256738D01*
X620049Y214928D01*
Y191042D01*
X619337Y190496D01*
X618776Y189765D01*
X618423Y188914D01*
X618303Y188000D01*
X618423Y187086D01*
X618776Y186235D01*
X619337Y185504D01*
X620068Y184943D01*
X620920Y184590D01*
X621833Y184470D01*
X622747Y184590D01*
X623598Y184943D01*
X624330Y185504D01*
X624891Y186235D01*
X625243Y187086D01*
X625363Y188000D01*
X625243Y188914D01*
X624891Y189765D01*
X624330Y190496D01*
X623618Y191042D01*
Y215667D01*
X623618Y215667D01*
X623482Y216350D01*
X623095Y216928D01*
X581284Y258739D01*
Y275458D01*
X581996Y276004D01*
X582557Y276735D01*
X582910Y277586D01*
X583030Y278500D01*
X582910Y279414D01*
X582557Y280265D01*
X581996Y280996D01*
X581265Y281557D01*
X580414Y281910D01*
X579500Y282030D01*
D02*
G37*
G36*
X544811Y187551D02*
X542539D01*
Y184000D01*
X544811D01*
Y187551D01*
D02*
G37*
G36*
X513278D02*
X511006D01*
Y184000D01*
X513278D01*
Y187551D01*
D02*
G37*
G36*
X481744D02*
X479472D01*
Y184000D01*
X481744D01*
Y187551D01*
D02*
G37*
G36*
X450211D02*
X447939D01*
Y184000D01*
X450211D01*
Y187551D01*
D02*
G37*
G36*
X418911D02*
X416639D01*
Y184000D01*
X418911D01*
Y187551D01*
D02*
G37*
G36*
X387611D02*
X385339D01*
Y184000D01*
X387611D01*
Y187551D01*
D02*
G37*
G36*
X356311D02*
X354039D01*
Y184000D01*
X356311D01*
Y187551D01*
D02*
G37*
G36*
X324811D02*
X322539D01*
Y184000D01*
X324811D01*
Y187551D01*
D02*
G37*
G36*
X321539D02*
X319268D01*
Y184000D01*
X321539D01*
Y187551D01*
D02*
G37*
G36*
X541539D02*
X539268D01*
Y184000D01*
X541539D01*
Y187551D01*
D02*
G37*
G36*
X510006D02*
X507734D01*
Y184000D01*
X510006D01*
Y187551D01*
D02*
G37*
G36*
X478473D02*
X476201D01*
Y184000D01*
X478473D01*
Y187551D01*
D02*
G37*
G36*
X446939D02*
X444667D01*
Y184000D01*
X446939D01*
Y187551D01*
D02*
G37*
G36*
X415639D02*
X413367D01*
Y184000D01*
X415639D01*
Y187551D01*
D02*
G37*
G36*
X384339D02*
X382067D01*
Y184000D01*
X384339D01*
Y187551D01*
D02*
G37*
G36*
X353039D02*
X350767D01*
Y184000D01*
X353039D01*
Y187551D01*
D02*
G37*
G36*
X555342Y201453D02*
X547437D01*
Y193547D01*
X550943D01*
Y187551D01*
X549701D01*
Y179449D01*
X555244D01*
Y187551D01*
X554002D01*
Y193547D01*
X555342D01*
Y201453D01*
D02*
G37*
G36*
X544811Y183000D02*
X542539D01*
Y179449D01*
X544811D01*
Y183000D01*
D02*
G37*
G36*
X541539D02*
X539268D01*
Y179449D01*
X541539D01*
Y183000D01*
D02*
G37*
G36*
X523342Y201453D02*
X515437D01*
Y193547D01*
X519410D01*
Y187551D01*
X518167D01*
Y179449D01*
X523711D01*
Y187551D01*
X522468D01*
Y193547D01*
X523342D01*
Y201453D01*
D02*
G37*
G36*
X513278Y183000D02*
X511006D01*
Y179449D01*
X513278D01*
Y183000D01*
D02*
G37*
G36*
X510006D02*
X507734D01*
Y179449D01*
X510006D01*
Y183000D01*
D02*
G37*
G36*
X492042Y201453D02*
X484137D01*
Y193547D01*
X487876D01*
Y187551D01*
X486634D01*
Y179449D01*
X492177D01*
Y187551D01*
X490935D01*
Y193547D01*
X492042D01*
Y201453D01*
D02*
G37*
G36*
X481744Y183000D02*
X479472D01*
Y179449D01*
X481744D01*
Y183000D01*
D02*
G37*
G36*
X478473D02*
X476201D01*
Y179449D01*
X478473D01*
Y183000D01*
D02*
G37*
G36*
X460742Y201453D02*
X452837D01*
Y193547D01*
X456343D01*
Y187551D01*
X455100D01*
Y179449D01*
X460644D01*
Y187551D01*
X459402D01*
Y193547D01*
X460742D01*
Y201453D01*
D02*
G37*
G36*
X450211Y183000D02*
X447939D01*
Y179449D01*
X450211D01*
Y183000D01*
D02*
G37*
G36*
X446939D02*
X444667D01*
Y179449D01*
X446939D01*
Y183000D01*
D02*
G37*
G36*
X429442Y201453D02*
X421537D01*
Y193547D01*
X425043D01*
Y187551D01*
X423801D01*
Y179449D01*
X429344D01*
Y187551D01*
X428101D01*
Y193547D01*
X429442D01*
Y201453D01*
D02*
G37*
G36*
X418911Y183000D02*
X416639D01*
Y179449D01*
X418911D01*
Y183000D01*
D02*
G37*
G36*
X415639D02*
X413367D01*
Y179449D01*
X415639D01*
Y183000D01*
D02*
G37*
G36*
X398142Y201453D02*
X390237D01*
Y193547D01*
X393743D01*
Y187551D01*
X392500D01*
Y179449D01*
X398044D01*
Y187551D01*
X396801D01*
Y193547D01*
X398142D01*
Y201453D01*
D02*
G37*
G36*
X387611Y183000D02*
X385339D01*
Y179449D01*
X387611D01*
Y183000D01*
D02*
G37*
G36*
X384339D02*
X382067D01*
Y179449D01*
X384339D01*
Y183000D01*
D02*
G37*
G36*
X366842Y201453D02*
X358937D01*
Y193547D01*
X362443D01*
Y187551D01*
X361200D01*
Y179449D01*
X366744D01*
Y187551D01*
X365501D01*
Y193547D01*
X366842D01*
Y201453D01*
D02*
G37*
G36*
X356311Y183000D02*
X354039D01*
Y179449D01*
X356311D01*
Y183000D01*
D02*
G37*
G36*
X353039D02*
X350767D01*
Y179449D01*
X353039D01*
Y183000D01*
D02*
G37*
G36*
X335343Y201453D02*
X327437D01*
Y193547D01*
X329860D01*
Y187551D01*
X329701D01*
Y179449D01*
X335244D01*
Y187551D01*
X332919D01*
Y193547D01*
X335343D01*
Y201453D01*
D02*
G37*
G36*
X324811Y183000D02*
X322539D01*
Y179449D01*
X324811D01*
Y183000D01*
D02*
G37*
G36*
X321539D02*
X319268D01*
Y179449D01*
X321539D01*
Y183000D01*
D02*
G37*
G36*
X262000Y209549D02*
X259489Y209352D01*
X257040Y208764D01*
X254714Y207800D01*
X252566Y206484D01*
X250651Y204849D01*
X249016Y202934D01*
X247700Y200786D01*
X246736Y198460D01*
X246148Y196011D01*
X245951Y193500D01*
X246148Y190989D01*
X246736Y188540D01*
X247700Y186214D01*
X249016Y184066D01*
X250651Y182151D01*
X252566Y180516D01*
X254714Y179200D01*
X257040Y178236D01*
X259489Y177648D01*
X262000Y177451D01*
X264511Y177648D01*
X266960Y178236D01*
X269286Y179200D01*
X271434Y180516D01*
X273349Y182151D01*
X274984Y184066D01*
X276300Y186214D01*
X277264Y188540D01*
X277852Y190989D01*
X278049Y193500D01*
X277852Y196011D01*
X277264Y198460D01*
X276300Y200786D01*
X274984Y202934D01*
X273349Y204849D01*
X271434Y206484D01*
X269286Y207800D01*
X266960Y208764D01*
X264511Y209352D01*
X262000Y209549D01*
D02*
G37*
G36*
X680500Y208549D02*
X677989Y208352D01*
X675540Y207764D01*
X673214Y206800D01*
X671066Y205484D01*
X669151Y203849D01*
X667516Y201934D01*
X666200Y199786D01*
X665236Y197460D01*
X664648Y195011D01*
X664451Y192500D01*
X664648Y189989D01*
X665236Y187540D01*
X666200Y185214D01*
X667516Y183066D01*
X669151Y181151D01*
X671066Y179516D01*
X673214Y178200D01*
X675540Y177236D01*
X677989Y176648D01*
X680500Y176451D01*
X683011Y176648D01*
X685460Y177236D01*
X687786Y178200D01*
X689934Y179516D01*
X691849Y181151D01*
X693484Y183066D01*
X694800Y185214D01*
X695764Y187540D01*
X696352Y189989D01*
X696550Y192500D01*
X696352Y195011D01*
X695764Y197460D01*
X694800Y199786D01*
X693484Y201934D01*
X691849Y203849D01*
X689934Y205484D01*
X687786Y206800D01*
X685460Y207764D01*
X683011Y208352D01*
X680500Y208549D01*
D02*
G37*
%LPD*%
D10*
X297413Y228500D02*
X298413Y229500D01*
X560000Y331500D02*
X652543D01*
X530996D02*
X560000D01*
X625000Y233500D02*
X654000Y204500D01*
Y186451D02*
Y204500D01*
X665585Y302644D02*
Y320080D01*
Y285207D02*
Y302644D01*
X625000Y281000D02*
X633000Y289000D01*
X625000Y233500D02*
Y281000D01*
X651942Y289000D02*
X665585Y302644D01*
X633000Y289000D02*
X651942D01*
X607500Y317413D02*
X621500D01*
X591500D02*
X607500D01*
X286587Y453764D02*
Y469500D01*
X286063Y453240D02*
X286587Y453764D01*
X297413Y468417D02*
Y469500D01*
Y468417D02*
X299374Y466457D01*
X307043D01*
X307500Y466000D01*
X286587Y383264D02*
Y401000D01*
X286063Y382740D02*
X286587Y383264D01*
X286000Y367500D02*
Y375197D01*
X286063Y375260D01*
X317610Y402166D02*
Y407610D01*
X323000Y413000D01*
X333500D01*
X317500Y436889D02*
X317610Y437000D01*
X317500Y418500D02*
Y436889D01*
Y418500D02*
X323000Y413000D01*
X337443Y379000D02*
Y409057D01*
X333500Y413000D02*
X337443Y409057D01*
X286063Y311673D02*
X286587Y312197D01*
X285803Y311413D02*
X286063Y311673D01*
X286587Y312197D02*
Y329500D01*
X301000Y318000D02*
Y325913D01*
X297413Y329500D02*
X301000Y325913D01*
X285866Y211240D02*
X286063D01*
X285890Y211413D02*
X286087Y211610D01*
Y229000D01*
X304000Y217000D02*
Y223913D01*
X298413Y229500D02*
X304000Y223913D01*
X666845Y374155D02*
X667345D01*
X663350Y377650D02*
X666845Y374155D01*
X663350Y377650D02*
Y378150D01*
X634488Y263000D02*
X634500Y263012D01*
X632784Y343000D02*
X638910Y336874D01*
X635000Y347000D02*
X635740D01*
X645512Y263000D02*
X645634Y262878D01*
X640500Y340835D02*
Y341074D01*
X650500Y339457D02*
Y340835D01*
X660460Y311040D02*
X660500Y311000D01*
Y339457D02*
Y340835D01*
X665671Y264846D02*
X670671Y269847D01*
X665585Y285207D02*
X665671Y285122D01*
X670643Y301500D02*
X670671Y301472D01*
X670500Y339457D02*
Y340835D01*
X675671Y300813D02*
X676357Y301500D01*
X634500Y263012D02*
Y274000D01*
X645500Y302500D02*
Y320165D01*
X640500Y311000D02*
Y320165D01*
X645500Y340835D02*
Y345500D01*
X650500Y311000D02*
Y320165D01*
X659868Y248000D02*
Y249386D01*
X660460Y311040D02*
Y320125D01*
X660500Y320165D01*
X670500Y230000D02*
Y247816D01*
X670317Y248000D02*
X670671Y248354D01*
X670317Y248000D02*
X670500Y247816D01*
X670671Y269847D02*
Y285122D01*
X665671Y262878D02*
Y264846D01*
X670460Y312040D02*
Y320125D01*
X670500Y320165D01*
X670460Y312040D02*
X671000Y311500D01*
X665500Y320165D02*
X665585Y320080D01*
X665500Y340835D02*
Y349000D01*
X676357Y301500D02*
Y306143D01*
X675500Y340835D02*
Y349000D01*
X670671Y248354D02*
Y262878D01*
X665671Y255189D02*
Y262878D01*
X670671Y285122D02*
Y301472D01*
X675671Y285122D02*
Y300813D01*
X617500Y343000D02*
X632784D01*
X639917Y341657D02*
X640500Y342239D01*
X639917Y341657D02*
X640500Y341074D01*
X659868Y249386D02*
X665671Y255189D01*
X645634Y262878D02*
X660671D01*
X647917Y336874D02*
X650500Y339457D01*
X655500D02*
Y340835D01*
X635740Y347000D02*
X640500Y342239D01*
X650543Y334500D02*
X655500Y339457D01*
X659543Y328500D02*
X670500Y339457D01*
X652543Y331500D02*
X660500Y339457D01*
X621500Y317413D02*
X632587Y328500D01*
X612500Y334500D02*
X650543D01*
X638910Y336874D02*
X647917D01*
X671000Y311500D02*
X676357Y306143D01*
X603500Y387500D02*
X645500Y345500D01*
X632587Y328500D02*
X659543D01*
X297413Y401000D02*
X305500D01*
X597500Y348500D02*
X598500D01*
X612500Y334500D01*
X496500Y338500D02*
X505303D01*
X511000Y332803D01*
X510937Y332740D02*
X511000Y332803D01*
X591500Y387913D02*
X591913Y387500D01*
X603500D01*
X591500Y454413D02*
X591587Y454500D01*
X607000D01*
X524500Y336913D02*
X525583D01*
X530996Y331500D01*
X340932Y317519D02*
X341000Y317587D01*
X329000Y317519D02*
X340932D01*
X288500Y436000D02*
Y443197D01*
X286000Y445697D02*
X288500Y443197D01*
X591587Y212500D02*
X604500D01*
X578000Y209303D02*
Y218500D01*
X577937Y209240D02*
X578000Y209303D01*
X296913Y229000D02*
X297413Y228500D01*
X591500Y212413D02*
X591587Y212500D01*
X286587Y469500D02*
X286760Y469673D01*
X285500Y203197D02*
X286063Y203760D01*
X285890Y211413D02*
X286063Y211240D01*
X286000Y445697D02*
X286063Y445760D01*
X331390Y228000D02*
X332472Y226917D01*
X331390Y262833D02*
X332472Y261750D01*
X331390Y297666D02*
X332472Y296584D01*
X331390Y367333D02*
X332472Y366250D01*
X331390Y402166D02*
X332472Y401084D01*
X331390Y437000D02*
X332472Y435917D01*
X331390Y471500D02*
X332472Y470417D01*
X349000Y262723D02*
X349110Y262833D01*
X353000Y320753D02*
X353507Y321260D01*
X362889Y197500D02*
X363972Y196417D01*
X362889Y228000D02*
X363972Y226917D01*
X362889Y262833D02*
X363972Y261750D01*
X362889Y297666D02*
X363972Y296584D01*
X362889Y367333D02*
X363972Y366250D01*
X362889Y402166D02*
X363972Y401084D01*
X362889Y437000D02*
X363472Y436417D01*
X362889Y471500D02*
X363972Y470417D01*
X377957Y404619D02*
X380410Y402166D01*
X394189Y197500D02*
X395272Y196417D01*
X394189Y228000D02*
X395272Y226917D01*
X394189Y262833D02*
X395272Y261750D01*
X394189Y297666D02*
X395272Y296584D01*
X394189Y332500D02*
X395272Y331417D01*
X394189Y367333D02*
X395272Y366250D01*
X394189Y402166D02*
X395272Y401084D01*
X394189Y437000D02*
X394772Y436417D01*
X394189Y471500D02*
X395272Y470417D01*
X409257Y404619D02*
X411710Y402166D01*
X410500Y470290D02*
X411710Y471500D01*
X425489Y197500D02*
X426572Y196417D01*
X425489Y228000D02*
X426572Y226917D01*
X425489Y262833D02*
X426572Y261750D01*
X425489Y297666D02*
X426572Y296584D01*
X425489Y332500D02*
X426572Y331417D01*
X425489Y367333D02*
X426572Y366250D01*
X425489Y402166D02*
X426572Y401084D01*
X425489Y437000D02*
X426072Y436417D01*
X425489Y471500D02*
X426572Y470417D01*
X440557Y404619D02*
X443010Y402166D01*
X443000Y471490D02*
X443010Y471500D01*
X456789Y197500D02*
X457872Y196417D01*
X456789Y228000D02*
X457872Y226917D01*
X456789Y262833D02*
X457872Y261750D01*
X456789Y297666D02*
X457872Y296584D01*
X456789Y332500D02*
X457872Y331417D01*
X456789Y367333D02*
X457872Y366250D01*
X456789Y402166D02*
X457872Y401084D01*
X456789Y437000D02*
X457372Y436417D01*
X456789Y471500D02*
X457872Y470417D01*
X474310Y297666D02*
Y301810D01*
Y311190D02*
X479000Y306500D01*
X482000Y205190D02*
Y205500D01*
X505500Y262723D02*
X505610Y262833D01*
X577937Y201760D02*
X578110Y201587D01*
X577937Y306260D02*
X578264Y306587D01*
X577937Y313740D02*
X578000Y313803D01*
X577937Y377327D02*
X578177Y377087D01*
X577937Y384807D02*
X578000Y384870D01*
X577937Y443760D02*
X578110Y443587D01*
X577937Y451240D02*
X578000Y451303D01*
X286000Y304130D02*
X286063Y304193D01*
X286000Y296000D02*
Y304130D01*
X315158Y199953D02*
Y202842D01*
Y199953D02*
X317610Y197500D01*
Y462110D02*
Y471500D01*
X331390Y184583D02*
X332472Y183500D01*
Y214500D02*
Y226917D01*
Y389917D02*
Y401084D01*
Y425000D02*
Y435917D01*
Y459500D02*
Y470417D01*
X346500Y416000D02*
X349110Y418610D01*
Y402166D02*
Y413390D01*
X346500Y416000D02*
X349110Y413390D01*
Y461610D02*
Y471500D01*
X353000Y312500D02*
Y320753D01*
X353181Y328413D02*
X353507Y328740D01*
X363972Y214500D02*
Y226917D01*
Y389917D02*
Y401084D01*
X363472Y425000D02*
Y436417D01*
X363972Y459500D02*
Y470417D01*
X377957Y404619D02*
Y408043D01*
X380410Y426410D02*
Y437000D01*
Y458910D02*
Y471500D01*
X395272Y214500D02*
Y226917D01*
X395272Y389917D02*
Y401084D01*
X394772Y425000D02*
Y436417D01*
X395272Y459500D02*
Y470417D01*
X409257Y404619D02*
Y408243D01*
X411710Y426210D02*
Y437000D01*
X410500Y457500D02*
Y470290D01*
X426572Y214500D02*
Y226917D01*
X426572Y389917D02*
Y401084D01*
X426072Y425000D02*
Y436417D01*
X426572Y459500D02*
Y470417D01*
X443010Y242990D02*
X446000Y240000D01*
X443010Y237010D02*
X446000Y240000D01*
X440557Y404619D02*
Y407943D01*
X443010Y426510D02*
Y437000D01*
X443000Y454000D02*
Y471490D01*
X457872Y214500D02*
Y226917D01*
X457872Y389917D02*
Y401084D01*
X457372Y425000D02*
Y436417D01*
X457872Y459500D02*
Y470417D01*
X474310Y301810D02*
X479000Y306500D01*
X474310Y426810D02*
Y437000D01*
Y453690D02*
Y471500D01*
X489172Y214500D02*
Y226917D01*
X489172Y389917D02*
Y401084D01*
X488672Y425000D02*
Y436417D01*
X489172Y459500D02*
Y470417D01*
X505610Y243890D02*
X509500Y240000D01*
X505610Y236110D02*
X509500Y240000D01*
X505610Y429834D02*
Y437000D01*
X505610Y454890D02*
Y471500D01*
X535157Y230452D02*
Y233343D01*
X537610Y262833D02*
Y268390D01*
Y453890D02*
Y471500D01*
X578000Y313803D02*
Y323000D01*
X285500Y195000D02*
Y203197D01*
X307344Y238266D02*
Y273100D01*
X331390Y184583D02*
Y197500D01*
X332472Y249583D02*
Y261750D01*
Y284667D02*
Y296584D01*
Y354833D02*
Y366250D01*
X349110Y228000D02*
Y235110D01*
X349000Y245000D02*
Y262723D01*
X349110Y418610D02*
Y437000D01*
X363972Y183500D02*
Y196417D01*
Y249583D02*
Y261750D01*
Y284667D02*
Y296584D01*
Y354833D02*
Y366250D01*
X372910Y305166D02*
Y325000D01*
X380410Y228000D02*
Y233955D01*
Y246045D02*
Y262833D01*
Y332500D02*
Y367333D01*
X395272Y183500D02*
Y196417D01*
Y249583D02*
Y261750D01*
Y284667D02*
Y296584D01*
Y319750D02*
Y331417D01*
Y354833D02*
Y366250D01*
X411710Y228000D02*
Y235482D01*
Y244518D02*
Y262833D01*
Y332500D02*
Y367333D01*
Y297666D02*
Y332500D01*
Y367333D02*
Y402166D01*
X426572Y183500D02*
Y196417D01*
Y249583D02*
Y261750D01*
Y284667D02*
Y296584D01*
Y319750D02*
Y331417D01*
Y354833D02*
Y366250D01*
X443010Y228000D02*
Y237010D01*
Y242990D02*
Y262833D01*
Y332500D02*
Y367333D01*
Y297666D02*
Y332500D01*
Y367333D02*
Y402166D01*
X457872Y183500D02*
Y196417D01*
Y249583D02*
Y261750D01*
Y284667D02*
Y296584D01*
Y319750D02*
Y331417D01*
Y354833D02*
Y366250D01*
X474310Y228000D02*
Y233810D01*
Y246190D02*
Y262833D01*
Y311190D02*
Y332500D01*
Y367333D01*
X489406Y183500D02*
Y196184D01*
X489172Y284667D02*
Y296584D01*
Y319750D02*
Y331417D01*
Y354833D02*
Y366250D01*
X503063Y318563D02*
Y329000D01*
X505610Y228000D02*
Y236110D01*
Y243890D02*
Y262833D01*
X520939Y183500D02*
Y195950D01*
X578000Y384870D02*
Y395500D01*
Y451303D02*
Y460500D01*
X307344Y273100D02*
Y307933D01*
X411710Y262833D02*
Y297666D01*
X443010Y262833D02*
Y297666D01*
X293937Y307933D02*
X307344D01*
X293937Y379000D02*
X305943D01*
X293937Y449500D02*
X305000D01*
X361381Y325000D02*
X372910D01*
X479000Y306500D02*
X481000Y308500D01*
X471857Y404619D02*
X474310Y402166D01*
X488089Y197500D02*
X489406Y196184D01*
X488089Y228000D02*
X489172Y226917D01*
X488089Y250666D02*
X489172Y249583D01*
X488089Y297666D02*
X489172Y296584D01*
X510937Y325260D02*
X511764Y326087D01*
X488089Y332500D02*
X489172Y331417D01*
X488089Y367333D02*
X489172Y366250D01*
X488089Y402166D02*
X489172Y401084D01*
X488089Y437000D02*
X488672Y436417D01*
X488089Y471500D02*
X489172Y470417D01*
X519389Y197500D02*
X520939Y195950D01*
X519389Y228000D02*
X520472Y226917D01*
X535157Y230452D02*
X537610Y228000D01*
X519389Y262833D02*
X520472Y261750D01*
X519389Y297666D02*
X520472Y296584D01*
X517944Y310000D02*
X536000D01*
X519390Y367333D02*
X520472Y366250D01*
X519344Y381067D02*
X528000D01*
X519389Y402166D02*
X520472Y401084D01*
X528000Y410000D02*
X529777D01*
X519389Y437000D02*
X519972Y436417D01*
X519390Y471500D02*
X520472Y470417D01*
X551390Y197500D02*
X552472Y196417D01*
X551390Y228000D02*
X552472Y226917D01*
X551390Y262833D02*
X552472Y261750D01*
X551390Y297666D02*
X552472Y296584D01*
X549944Y310000D02*
X570063D01*
X551390Y367333D02*
X552472Y366250D01*
X551344Y381067D02*
X570063D01*
X551390Y402166D02*
X552472Y401084D01*
X551390Y437000D02*
X552472Y435917D01*
X551390Y471500D02*
X552472Y470417D01*
X293937Y207500D02*
X310500D01*
X315158Y202842D01*
X307344Y273100D02*
X317610Y262833D01*
X307344Y307933D02*
X317610Y297666D01*
X305943Y379000D02*
X317610Y367333D01*
X339110Y207500D02*
X349110Y197500D01*
Y235110D02*
X354000Y240000D01*
X349000Y245000D02*
X354000Y240000D01*
X338843Y307933D02*
X349110Y297666D01*
X341000Y328413D02*
X353181D01*
X337443Y379000D02*
X349110Y367333D01*
X370410Y207500D02*
X380410Y197500D01*
Y233955D02*
X386455Y240000D01*
X380410Y246045D02*
X386455Y240000D01*
X372910Y305166D02*
X380410Y297666D01*
X372910Y325000D02*
X380410Y332500D01*
X370000Y416000D02*
X377957Y408043D01*
X401710Y207500D02*
X411710Y197500D01*
Y244518D02*
X416228Y240000D01*
X411710Y235482D02*
X416228Y240000D01*
X401500Y416000D02*
X409257Y408243D01*
X443010Y197500D02*
X451010Y205500D01*
X432500Y416000D02*
X440557Y407943D01*
X474310Y197500D02*
X482000Y205190D01*
X474310Y233810D02*
X480500Y240000D01*
X474310Y246190D02*
X480500Y240000D01*
X471857Y404619D02*
Y407643D01*
X463500Y416000D02*
X471857Y407643D01*
X505610Y197500D02*
X513610Y205500D01*
X493000Y308500D02*
X503063Y318563D01*
X491776Y416000D02*
X505610Y402166D01*
X520472Y214500D02*
Y226917D01*
X537610Y197500D02*
X545610Y205500D01*
X528000Y240500D02*
X535157Y233343D01*
X528000Y278000D02*
X537610Y268390D01*
X528000Y302000D02*
X536000Y310000D01*
X520472Y389917D02*
Y401084D01*
X529777Y410000D02*
X537610Y402166D01*
X519972Y425000D02*
Y436417D01*
X528000Y427389D02*
X537610Y437000D01*
X520472Y459500D02*
Y470417D01*
X552472Y214500D02*
Y226917D01*
Y389917D02*
Y401084D01*
Y425000D02*
Y435917D01*
Y459500D02*
Y470417D01*
X307344Y238266D02*
X317610Y228000D01*
X305000Y449500D02*
X317610Y462110D01*
X337000Y449500D02*
X349110Y461610D01*
X370000Y416000D02*
X380410Y426410D01*
X371000Y449500D02*
X380410Y458910D01*
X401500Y416000D02*
X411710Y426210D01*
X402500Y449500D02*
X410500Y457500D01*
X432500Y416000D02*
X443010Y426510D01*
X443000Y454000D02*
X449500Y447500D01*
X463500Y416000D02*
X474310Y426810D01*
Y453690D02*
X480500Y447500D01*
X488089Y250666D02*
Y262833D01*
X491776Y416000D02*
X505610Y429834D01*
X505610Y454890D02*
X513000Y447500D01*
X520472Y249583D02*
Y261750D01*
Y284667D02*
Y296584D01*
X520472Y354833D02*
Y366250D01*
X528000Y278000D02*
Y302000D01*
Y410000D02*
Y427389D01*
X537610Y453890D02*
X544000Y447500D01*
X552472Y183500D02*
Y196417D01*
Y249583D02*
Y261750D01*
Y284667D02*
Y296584D01*
Y354833D02*
Y366250D01*
X528000Y240500D02*
Y278000D01*
Y381067D02*
Y410000D01*
X307344Y307933D02*
X338843D01*
X305943Y379000D02*
X337443D01*
X305000Y449500D02*
X337000D01*
X371000D01*
X402500D01*
X451010Y205500D02*
X482000D01*
X513610D01*
X481000Y308500D02*
X493000D01*
X511764Y326087D02*
X524500D01*
X578110Y201587D02*
X591500D01*
X545610Y205500D02*
X570063D01*
X578264Y306587D02*
X591500D01*
X536000Y310000D02*
X549944D01*
X578177Y377087D02*
X591500D01*
X578110Y443587D02*
X591500D01*
X310500Y207500D02*
X339110D01*
X370410D02*
X401710D01*
X339110D02*
X370410D01*
X354000Y240000D02*
X386455D01*
X346500Y416000D02*
X370000D01*
X401500D01*
X446000Y240000D02*
X480500D01*
X509500D01*
X505610Y297666D02*
X517944Y310000D01*
X505610Y367333D02*
X519344Y381067D01*
X432500Y416000D02*
X463500D01*
X491776D01*
X449500Y447500D02*
X480500D01*
X513000D01*
X537610Y297666D02*
X549944Y310000D01*
X537610Y367333D02*
X551344Y381067D01*
X544000Y447500D02*
X570063D01*
X513610Y205500D02*
X545610D01*
X528000Y381067D02*
X551344D01*
X386455Y240000D02*
X416228D01*
X401500Y416000D02*
X432500D01*
X513000Y447500D02*
X544000D01*
D16*
X257631Y401125D02*
D03*
X654500Y188000D02*
D03*
X638667Y468000D02*
D03*
X652500D02*
D03*
X257631Y419500D02*
D03*
X611000Y468000D02*
D03*
X624833D02*
D03*
X638167Y188000D02*
D03*
X605500D02*
D03*
X621833D02*
D03*
X257631Y382750D02*
D03*
Y346000D02*
D03*
Y364375D02*
D03*
X604500Y212500D02*
D03*
X579500Y278500D02*
D03*
X560000Y331500D02*
D03*
X353000Y312500D02*
D03*
X307500Y466000D02*
D03*
X286000Y367500D02*
D03*
X301000Y318000D02*
D03*
X304000Y217000D02*
D03*
X635000Y347000D02*
D03*
X675500Y349000D02*
D03*
X660500Y311000D02*
D03*
X665500Y349000D02*
D03*
X634500Y274000D02*
D03*
X640500Y311000D02*
D03*
X617500Y343000D02*
D03*
X650500Y311000D02*
D03*
X671000Y311500D02*
D03*
X645500Y302500D02*
D03*
X305500Y401000D02*
D03*
X597500Y348500D02*
D03*
X496500Y338500D02*
D03*
X607000Y454500D02*
D03*
X329000Y317519D02*
D03*
X288500Y436000D02*
D03*
X578000Y218500D02*
D03*
X285500Y195000D02*
D03*
X286000Y296000D02*
D03*
X345000Y416000D02*
D03*
X578000Y323000D02*
D03*
Y395500D02*
D03*
Y460500D02*
D03*
D17*
X615500Y386482D02*
D03*
Y390518D02*
D03*
D18*
X659868Y248000D02*
D03*
X670317D02*
D03*
D19*
X675671Y285122D02*
D03*
X670671D02*
D03*
X665671D02*
D03*
X660671D02*
D03*
X675671Y262878D02*
D03*
X670671D02*
D03*
X665671D02*
D03*
X660671D02*
D03*
D20*
X670643Y301500D02*
D03*
X676357D02*
D03*
D21*
X645512Y263000D02*
D03*
X634488D02*
D03*
D22*
X640500Y340835D02*
D03*
X675500Y320165D02*
D03*
X670500D02*
D03*
X665500D02*
D03*
X660500D02*
D03*
X655500D02*
D03*
X650500D02*
D03*
X640500D02*
D03*
X650500Y340835D02*
D03*
X655500D02*
D03*
X675500D02*
D03*
X645500Y320165D02*
D03*
Y340835D02*
D03*
X660500D02*
D03*
X670500D02*
D03*
X665500D02*
D03*
D23*
X670500Y230000D02*
D03*
X659673D02*
D03*
D24*
X317610Y228000D02*
D03*
X331390D02*
D03*
X349110D02*
D03*
X362889D02*
D03*
X380410D02*
D03*
X394189D02*
D03*
X380410Y332500D02*
D03*
X394189D02*
D03*
X411710Y228000D02*
D03*
X425489D02*
D03*
X411710Y332500D02*
D03*
X425489D02*
D03*
X443010Y228000D02*
D03*
X456789D02*
D03*
X443010Y332500D02*
D03*
X456789D02*
D03*
X474310Y228000D02*
D03*
X488089D02*
D03*
X474310Y332500D02*
D03*
X488089D02*
D03*
X505610Y228000D02*
D03*
X519389D02*
D03*
X551390D02*
D03*
X537610D02*
D03*
X317610Y297666D02*
D03*
X331390D02*
D03*
X317610Y367333D02*
D03*
X331390D02*
D03*
X317610Y402166D02*
D03*
X331390D02*
D03*
X317610Y437000D02*
D03*
X331390D02*
D03*
Y471500D02*
D03*
X317610D02*
D03*
X349110Y297666D02*
D03*
X362889D02*
D03*
X349110Y367333D02*
D03*
X362889D02*
D03*
X349110Y402166D02*
D03*
X362889D02*
D03*
Y437000D02*
D03*
X349110D02*
D03*
X362889Y471500D02*
D03*
X349110D02*
D03*
X380410Y297666D02*
D03*
X394189D02*
D03*
X380410Y367333D02*
D03*
X394189D02*
D03*
X380410Y402166D02*
D03*
X394189D02*
D03*
Y437000D02*
D03*
X380410D02*
D03*
X394189Y471500D02*
D03*
X380410D02*
D03*
X411710Y297666D02*
D03*
X425489D02*
D03*
X411710Y367333D02*
D03*
X425489D02*
D03*
X411710Y402166D02*
D03*
X425489D02*
D03*
Y437000D02*
D03*
X411710D02*
D03*
X425489Y471500D02*
D03*
X411710D02*
D03*
X443010Y297666D02*
D03*
X456789D02*
D03*
X443010Y367333D02*
D03*
X456789D02*
D03*
X443010Y402166D02*
D03*
X456789D02*
D03*
Y437000D02*
D03*
X443010D02*
D03*
X456789Y471500D02*
D03*
X443010D02*
D03*
X474310Y297666D02*
D03*
X488089D02*
D03*
X474310Y367333D02*
D03*
X488089D02*
D03*
X474310Y402166D02*
D03*
X488089D02*
D03*
Y437000D02*
D03*
X474310D02*
D03*
X488089Y471500D02*
D03*
X474310D02*
D03*
X519389Y297666D02*
D03*
X505610D02*
D03*
X519390Y367333D02*
D03*
X505610D02*
D03*
X505610Y402166D02*
D03*
X519389D02*
D03*
X519390Y437000D02*
D03*
X505610D02*
D03*
X519390Y471500D02*
D03*
X505610D02*
D03*
X551390Y297666D02*
D03*
X537610D02*
D03*
X551390Y367333D02*
D03*
X537610D02*
D03*
X551390Y402166D02*
D03*
X537610D02*
D03*
X551390Y437000D02*
D03*
X537610D02*
D03*
X551390Y471500D02*
D03*
X537610D02*
D03*
X317610Y197500D02*
D03*
X331390D02*
D03*
X317610Y262833D02*
D03*
X331390D02*
D03*
X349110Y197500D02*
D03*
X362889D02*
D03*
X349110Y262833D02*
D03*
X362889D02*
D03*
X380410Y197500D02*
D03*
X394189D02*
D03*
X380410Y262833D02*
D03*
X394189D02*
D03*
X411710Y197500D02*
D03*
X425489D02*
D03*
X411710Y262833D02*
D03*
X425489D02*
D03*
X443010Y197500D02*
D03*
X456789D02*
D03*
X443010Y262833D02*
D03*
X456789D02*
D03*
X474310Y197500D02*
D03*
X488089D02*
D03*
X474310Y262833D02*
D03*
X488089D02*
D03*
X505610Y197500D02*
D03*
X519389D02*
D03*
X505610Y262833D02*
D03*
X519389D02*
D03*
X537610Y197500D02*
D03*
X551390D02*
D03*
Y262833D02*
D03*
X537610D02*
D03*
D25*
X332472Y284667D02*
D03*
X322039D02*
D03*
Y459500D02*
D03*
X332472D02*
D03*
X363972Y284667D02*
D03*
X353539D02*
D03*
Y459500D02*
D03*
X363972D02*
D03*
X384839D02*
D03*
X395272D02*
D03*
Y284667D02*
D03*
X384839D02*
D03*
X416139Y459500D02*
D03*
X426572D02*
D03*
X416139Y284667D02*
D03*
X426572D02*
D03*
X447439Y459500D02*
D03*
X457872D02*
D03*
X447439Y284667D02*
D03*
X457872D02*
D03*
X489172D02*
D03*
X478739D02*
D03*
Y459500D02*
D03*
X489172D02*
D03*
X510039Y284667D02*
D03*
X520472D02*
D03*
X510039Y459500D02*
D03*
X520472D02*
D03*
X542039Y284667D02*
D03*
X552472D02*
D03*
X542039Y459500D02*
D03*
X552472D02*
D03*
X332472Y183500D02*
D03*
X322039D02*
D03*
X332472Y214500D02*
D03*
X322039D02*
D03*
X332472Y249583D02*
D03*
X322039D02*
D03*
X332472Y425000D02*
D03*
X322039D02*
D03*
X363972Y183500D02*
D03*
X353539D02*
D03*
Y214500D02*
D03*
X363972D02*
D03*
X353539Y249583D02*
D03*
X363972D02*
D03*
X353039Y425000D02*
D03*
X363472D02*
D03*
X395272Y183500D02*
D03*
X384839D02*
D03*
Y214500D02*
D03*
X395272D02*
D03*
X384839Y249583D02*
D03*
X395272D02*
D03*
Y319750D02*
D03*
X384839D02*
D03*
X384339Y425000D02*
D03*
X394772D02*
D03*
X426572Y183500D02*
D03*
X416139D02*
D03*
Y214500D02*
D03*
X426572D02*
D03*
X416139Y249583D02*
D03*
X426572D02*
D03*
X416139Y319750D02*
D03*
X426572D02*
D03*
X415639Y425000D02*
D03*
X426072D02*
D03*
X457872Y183500D02*
D03*
X447439D02*
D03*
Y214500D02*
D03*
X457872D02*
D03*
X447439Y249583D02*
D03*
X457872D02*
D03*
X447439Y319750D02*
D03*
X457872D02*
D03*
X446939Y425000D02*
D03*
X457372D02*
D03*
X489406Y183500D02*
D03*
X478972D02*
D03*
X478739Y214500D02*
D03*
X489172D02*
D03*
X478739Y249583D02*
D03*
X489172D02*
D03*
Y319750D02*
D03*
X478739D02*
D03*
X478239Y425000D02*
D03*
X488672D02*
D03*
X520939Y183500D02*
D03*
X510506D02*
D03*
X510039Y214500D02*
D03*
X520472D02*
D03*
X510039Y249583D02*
D03*
X520472D02*
D03*
X509539Y425000D02*
D03*
X519972D02*
D03*
X552472Y183500D02*
D03*
X542039D02*
D03*
Y214500D02*
D03*
X552472D02*
D03*
X542039Y249583D02*
D03*
X552472D02*
D03*
X542039Y425000D02*
D03*
X552472D02*
D03*
X332472Y354833D02*
D03*
X322039D02*
D03*
X332472Y389917D02*
D03*
X322039D02*
D03*
X363972Y354833D02*
D03*
X353539D02*
D03*
Y389917D02*
D03*
X363972D02*
D03*
X395272Y354833D02*
D03*
X384839D02*
D03*
X384839Y389917D02*
D03*
X395272D02*
D03*
X416139Y354833D02*
D03*
X426572D02*
D03*
X416139Y389917D02*
D03*
X426572D02*
D03*
X447439Y354833D02*
D03*
X457872D02*
D03*
X447439Y389917D02*
D03*
X457872D02*
D03*
X489172Y354833D02*
D03*
X478739D02*
D03*
X478739Y389917D02*
D03*
X489172D02*
D03*
X510039Y354833D02*
D03*
X520472D02*
D03*
X510039Y389917D02*
D03*
X520472D02*
D03*
X542039Y354833D02*
D03*
X552472D02*
D03*
X542039Y389917D02*
D03*
X552472D02*
D03*
D26*
X503063Y329000D02*
D03*
X510937Y332740D02*
D03*
Y325260D02*
D03*
X293937Y207500D02*
D03*
X286063Y203760D02*
D03*
Y211240D02*
D03*
X293937Y307933D02*
D03*
X286063Y304193D02*
D03*
Y311673D02*
D03*
X293937Y379000D02*
D03*
X286063Y375260D02*
D03*
Y382740D02*
D03*
X577937Y201760D02*
D03*
Y209240D02*
D03*
X570063Y205500D02*
D03*
Y310000D02*
D03*
X577937Y313740D02*
D03*
Y306260D02*
D03*
X570063Y381067D02*
D03*
X577937Y384807D02*
D03*
Y377327D02*
D03*
X293937Y449500D02*
D03*
X286063Y445760D02*
D03*
Y453240D02*
D03*
X361381Y325000D02*
D03*
X353507Y321260D02*
D03*
Y328740D02*
D03*
X570063Y447500D02*
D03*
X577937Y451240D02*
D03*
Y443760D02*
D03*
D27*
X296913Y229000D02*
D03*
X286087D02*
D03*
X297413Y329500D02*
D03*
X286587D02*
D03*
X297413Y401000D02*
D03*
X286587D02*
D03*
Y469500D02*
D03*
X297413D02*
D03*
D28*
X524500Y336913D02*
D03*
Y326087D02*
D03*
X591500Y201587D02*
D03*
Y212413D02*
D03*
Y306587D02*
D03*
Y317413D02*
D03*
X341000Y317587D02*
D03*
Y328413D02*
D03*
X591500Y377087D02*
D03*
Y387913D02*
D03*
Y443587D02*
D03*
Y454413D02*
D03*
D44*
X257631Y272369D02*
Y346000D01*
Y364375D02*
X271756D01*
X297413Y338718D01*
X257631Y382750D02*
X263769D01*
X329000Y317519D01*
X258125Y401125D02*
X270500Y413500D01*
X257631Y401125D02*
X258125D01*
X270500Y413500D02*
X292000D01*
X297413Y329500D02*
Y338718D01*
X621833Y188000D02*
Y215667D01*
X579500Y258000D02*
Y278500D01*
Y258000D02*
X621833Y215667D01*
X605000Y189000D02*
X605500Y188500D01*
X604500Y212500D02*
X605000Y212000D01*
Y189000D02*
Y212000D01*
X607500Y239000D02*
X638500Y208000D01*
Y188165D02*
Y208000D01*
X607500Y239000D02*
Y317413D01*
X652500Y437273D02*
Y468000D01*
Y437273D02*
X654269Y435504D01*
X657189D01*
X624833Y420164D02*
Y468000D01*
X592583Y387913D02*
X624833Y420164D01*
X591500Y387913D02*
X592583D01*
X611000Y467943D02*
Y468000D01*
X607000Y463943D02*
X611000Y467943D01*
X607000Y454500D02*
Y463943D01*
X524500Y336913D02*
X525087Y337500D01*
X280000Y441869D02*
Y472000D01*
X257631Y419500D02*
Y419500D01*
X280000Y441869D01*
X296114Y470800D02*
X297413Y469500D01*
X296114Y470800D02*
Y474386D01*
X292500Y478000D02*
X296114Y474386D01*
X280000Y472000D02*
X286000Y478000D01*
X292500D01*
X297413Y401000D02*
Y408087D01*
X292000Y413500D02*
X297413Y408087D01*
X257631Y272369D02*
X295203Y234797D01*
Y230711D02*
X296913Y229000D01*
X295203Y230711D02*
Y234797D01*
X615500Y386482D02*
X655018D01*
X663350Y378150D01*
X637437Y412405D02*
X644500D01*
X615549Y390518D02*
X637437Y412405D01*
D45*
X644591Y417000D02*
D03*
D46*
X669000D02*
D03*
D47*
X657189Y435504D02*
D03*
D48*
X686000Y375000D02*
D03*
D49*
X666000D02*
D03*
D50*
X680500Y192500D02*
D03*
Y463000D02*
D03*
X262000Y193500D02*
D03*
Y463000D02*
D03*
M02*
